<svg xmlns="http://www.w3.org/2000/svg" version="1.1" width="480" height="260">
<path d="M 80 230.02 L 82 229.729 L 84 229.428 L 86 229.121 L 88 228.808 L 90 228.49 L 92 228.17 L 94 227.85 L 96 227.53 L 98 227.212 L 100 226.899 L 102 226.592 L 104 226.292 L 106 226.002 L 108 225.722 L 110 225.454 L 112 225.2 L 114 224.961 L 116 224.739 L 118 224.534 L 120 224.347 L 122 224.18 L 124 224.034 L 126 223.909 L 128 223.806 L 130 223.726 L 132 223.668 L 134 223.634 L 136 223.623 L 138 223.636 L 140 223.672 L 142 223.731 L 144 223.814 L 146 223.919 L 148 224.047 L 150 224.196 L 152 224.366 L 154 224.557 L 156 224.767 L 158 224.995 L 160 225.241 L 162 225.503 L 164 225.781 L 166 226.073 L 168 226.378 L 170 226.696 L 172 227.024 L 174 227.362 L 176 227.708 L 178 228.061 L 180 228.421 L 182 228.785 L 184 229.153 L 186 229.524 L 188 229.896 L 190 230.268 L 192 230.639 L 194 231.009 L 196 231.377 L 198 231.741 L 200 232.1 L 202 232.455 L 204 232.804 L 206 233.146 L 208 233.481 L 210 233.809 L 212 234.129 L 214 234.44 L 216 234.742 L 218 235.034 L 220 235.317 L 222 235.591 L 224 235.854 L 226 236.107 L 228 236.35 L 230 236.582 L 232 236.804 L 234 237.016 L 236 237.217 L 238 237.408 L 240 237.588 L 242 237.759 L 244 237.919 L 246 238.07 L 248 238.211 L 250 238.342 L 252 238.464 L 254 238.577 L 256 238.68 L 258 238.775 L 260 238.86 L 262 238.937 L 264 239.006 L 266 239.066 L 268 239.118 L 270 239.162 L 272 239.197 L 274 239.225 L 276 239.245 L 278 239.256 L 280 239.26 L 282 239.256 L 284 239.245 L 286 239.225 L 288 239.197 L 290 239.162 L 292 239.118 L 294 239.066 L 296 239.006 L 298 238.937 L 300 238.86 L 302 238.775 L 304 238.68 L 306 238.577 L 308 238.464 L 310 238.342 L 312 238.211 L 314 238.07 L 316 237.919 L 318 237.759 L 320 237.588 L 322 237.408 L 324 237.217 L 326 237.016 L 328 236.804 L 330 236.582 L 332 236.35 L 334 236.107 L 336 235.854 L 338 235.591 L 340 235.317 L 342 235.034 L 344 234.742 L 346 234.44 L 348 234.129 L 350 233.809 L 352 233.481 L 354 233.146 L 356 232.804 L 358 232.455 L 360 232.1 L 362 231.741 L 364 231.377 L 366 231.009 L 368 230.639 L 370 230.268 L 372 229.896 L 374 229.524 L 376 229.153 L 378 228.785 L 380 228.421 L 382 228.061 L 384 227.708 L 386 227.362 L 388 227.024 L 390 226.696 L 392 226.378 L 394 226.073 L 396 225.781 L 398 225.503 L 400 225.241 L 402 224.995 L 404 224.767 L 406 224.557 L 408 224.366 L 410 224.196 L 412 224.047 L 414 223.919 L 416 223.814 L 418 223.731 L 420 223.672 L 422 223.636 L 424 223.623 L 426 223.634 L 428 223.668 L 430 223.726 L 432 223.806 L 434 223.909 L 436 224.034 L 438 224.18 L 440 224.347 L 442 224.534 L 444 224.739 L 446 224.961 L 448 225.2 L 450 225.454 L 452 225.722 L 454 226.002 L 456 226.292 L 458 226.592 L 460 226.899 L 462 227.212 L 464 227.53 L 466 227.85 L 468 228.17 L 470 228.49 L 472 228.808 L 474 229.121 L 476 229.428 L 478 229.729 L 480 230.02 M 76 216.899 L 78 216.558 L 80 216.225 L 82 215.904 L 84 215.596 L 86 215.303 L 88 215.027 L 90 214.772 L 92 214.537 L 94 214.326 L 96 214.14 L 98 213.981 L 100 213.849 L 102 213.747 L 104 213.674 L 106 213.633 L 108 213.623 L 110 213.646 L 112 213.701 L 114 213.789 L 116 213.91 L 118 214.063 L 120 214.248 L 122 214.464 L 124 214.711 L 126 214.987 L 128 215.292 L 130 215.624 L 132 215.982 L 134 216.365 L 136 216.77 L 138 217.196 L 140 217.641 L 142 218.104 L 144 218.581 L 146 219.073 L 148 219.575 L 150 220.087 L 152 220.606 L 154 221.13 L 156 221.657 L 158 222.185 L 160 222.713 L 162 223.238 L 164 223.758 L 166 224.272 L 168 224.779 L 170 225.276 L 172 225.762 L 174 226.235 L 176 226.695 L 178 227.141 L 180 227.571 L 182 227.984 L 184 228.38 L 186 228.758 L 188 229.118 L 190 229.459 L 192 229.78 L 194 230.082 L 196 230.365 L 198 230.628 L 200 230.872 L 202 231.097 L 204 231.303 L 206 231.491 L 208 231.661 L 210 231.814 L 212 231.949 L 214 232.069 L 216 232.174 L 218 232.263 L 220 232.339 L 222 232.402 L 224 232.453 L 226 232.493 L 228 232.522 L 230 232.542 L 232 232.553 L 234 232.557 L 236 232.553 L 238 232.544 L 240 232.53 L 242 232.511 L 244 232.489 L 246 232.464 L 248 232.437 L 250 232.408 L 252 232.379 L 254 232.35 L 256 232.322 L 258 232.294 L 260 232.268 L 262 232.245 L 264 232.223 L 266 232.204 L 268 232.189 L 270 232.176 L 272 232.167 L 274 232.162 L 276 232.16 L 278 232.162 L 280 232.167 L 282 232.176 L 284 232.189 L 286 232.204 L 288 232.223 L 290 232.245 L 292 232.268 L 294 232.294 L 296 232.322 L 298 232.35 L 300 232.379 L 302 232.408 L 304 232.437 L 306 232.464 L 308 232.489 L 310 232.511 L 312 232.53 L 314 232.544 L 316 232.553 L 318 232.557 L 320 232.553 L 322 232.542 L 324 232.522 L 326 232.493 L 328 232.453 L 330 232.402 L 332 232.339 L 334 232.263 L 336 232.174 L 338 232.069 L 340 231.949 L 342 231.814 L 344 231.661 L 346 231.491 L 348 231.303 L 350 231.097 L 352 230.872 L 354 230.628 L 356 230.365 L 358 230.082 L 360 229.78 L 362 229.459 L 364 229.118 L 366 228.758 L 368 228.38 L 370 227.984 L 372 227.571 L 374 227.141 L 376 226.695 L 378 226.235 L 380 225.762 L 382 225.276 L 384 224.779 L 386 224.272 L 388 223.758 L 390 223.238 L 392 222.713 L 394 222.185 L 396 221.657 L 398 221.13 L 400 220.606 L 402 220.087 L 404 219.575 L 406 219.073 L 408 218.581 L 410 218.104 L 412 217.641 L 414 217.196 L 416 216.77 L 418 216.365 L 420 215.982 L 422 215.624 L 424 215.292 L 426 214.987 L 428 214.711 L 430 214.464 L 432 214.248 L 434 214.063 L 436 213.91 L 438 213.789 L 440 213.701 L 442 213.646 L 444 213.623 L 446 213.633 L 448 213.674 L 450 213.747 L 452 213.849 L 454 213.981 L 456 214.14 L 458 214.326 L 460 214.537 L 462 214.772 L 464 215.027 L 466 215.303 L 468 215.596 L 470 215.904 L 472 216.225 L 474 216.558 L 476 216.899 M 72 204.347 L 74 204.141 L 76 203.967 L 78 203.826 L 80 203.721 L 82 203.653 L 84 203.624 L 86 203.634 L 88 203.685 L 90 203.777 L 92 203.91 L 94 204.084 L 96 204.3 L 98 204.557 L 100 204.853 L 102 205.188 L 104 205.561 L 106 205.969 L 108 206.412 L 110 206.887 L 112 207.391 L 114 207.923 L 116 208.479 L 118 209.057 L 120 209.655 L 122 210.268 L 124 210.894 L 126 211.53 L 128 212.172 L 130 212.818 L 132 213.463 L 134 214.105 L 136 214.742 L 138 215.368 L 140 215.983 L 142 216.582 L 144 217.163 L 146 217.724 L 148 218.262 L 150 218.775 L 152 219.26 L 154 219.717 L 156 220.143 L 158 220.537 L 160 220.897 L 162 221.223 L 164 221.514 L 166 221.769 L 168 221.989 L 170 222.172 L 172 222.319 L 174 222.431 L 176 222.507 L 178 222.548 L 180 222.555 L 182 222.53 L 184 222.473 L 186 222.385 L 188 222.268 L 190 222.124 L 192 221.953 L 194 221.758 L 196 221.541 L 198 221.302 L 200 221.045 L 202 220.77 L 204 220.48 L 206 220.176 L 208 219.861 L 210 219.536 L 212 219.203 L 214 218.864 L 216 218.52 L 218 218.174 L 220 217.827 L 222 217.481 L 224 217.137 L 226 216.796 L 228 216.46 L 230 216.131 L 232 215.81 L 234 215.497 L 236 215.194 L 238 214.902 L 240 214.622 L 242 214.355 L 244 214.101 L 246 213.862 L 248 213.638 L 250 213.43 L 252 213.238 L 254 213.063 L 256 212.905 L 258 212.765 L 260 212.643 L 262 212.539 L 264 212.454 L 266 212.387 L 268 212.34 L 270 212.311 L 272 212.302 L 274 212.311 L 276 212.34 L 278 212.387 L 280 212.454 L 282 212.539 L 284 212.643 L 286 212.765 L 288 212.905 L 290 213.063 L 292 213.238 L 294 213.43 L 296 213.638 L 298 213.862 L 300 214.101 L 302 214.355 L 304 214.622 L 306 214.902 L 308 215.194 L 310 215.497 L 312 215.81 L 314 216.131 L 316 216.46 L 318 216.796 L 320 217.137 L 322 217.481 L 324 217.827 L 326 218.174 L 328 218.52 L 330 218.864 L 332 219.203 L 334 219.536 L 336 219.861 L 338 220.176 L 340 220.48 L 342 220.77 L 344 221.045 L 346 221.302 L 348 221.541 L 350 221.758 L 352 221.953 L 354 222.124 L 356 222.268 L 358 222.385 L 360 222.473 L 362 222.53 L 364 222.555 L 366 222.548 L 368 222.507 L 370 222.431 L 372 222.319 L 374 222.172 L 376 221.989 L 378 221.769 L 380 221.514 L 382 221.223 L 384 220.897 L 386 220.537 L 388 220.143 L 390 219.717 L 392 219.26 L 394 218.775 L 396 218.262 L 398 217.724 L 400 217.163 L 402 216.582 L 404 215.983 L 406 215.368 L 408 214.742 L 410 214.105 L 412 213.463 L 414 212.818 L 416 212.172 L 418 211.53 L 420 210.894 L 422 210.268 L 424 209.655 L 426 209.057 L 428 208.479 L 430 207.923 L 432 207.391 L 434 206.887 L 436 206.412 L 438 205.969 L 440 205.561 L 442 205.188 L 444 204.853 L 446 204.557 L 448 204.3 L 450 204.084 L 452 203.91 L 454 203.777 L 456 203.685 L 458 203.634 L 460 203.624 L 462 203.653 L 464 203.721 L 466 203.826 L 468 203.967 L 470 204.141 L 472 204.347 M 68 193.672 L 70 193.765 L 72 193.906 L 74 194.098 L 76 194.338 L 78 194.628 L 80 194.966 L 82 195.351 L 84 195.781 L 86 196.255 L 88 196.77 L 90 197.323 L 92 197.912 L 94 198.534 L 96 199.184 L 98 199.859 L 100 200.555 L 102 201.268 L 104 201.993 L 106 202.727 L 108 203.463 L 110 204.198 L 112 204.927 L 114 205.646 L 116 206.35 L 118 207.033 L 120 207.693 L 122 208.325 L 124 208.925 L 126 209.489 L 128 210.014 L 130 210.497 L 132 210.934 L 134 211.322 L 136 211.661 L 138 211.947 L 140 212.18 L 142 212.358 L 144 212.479 L 146 212.545 L 148 212.553 L 150 212.506 L 152 212.403 L 154 212.245 L 156 212.033 L 158 211.769 L 160 211.455 L 162 211.092 L 164 210.684 L 166 210.232 L 168 209.739 L 170 209.208 L 172 208.643 L 174 208.045 L 176 207.419 L 178 206.767 L 180 206.092 L 182 205.399 L 184 204.69 L 186 203.969 L 188 203.238 L 190 202.501 L 192 201.761 L 194 201.021 L 196 200.282 L 198 199.549 L 200 198.823 L 202 198.107 L 204 197.402 L 206 196.712 L 208 196.037 L 210 195.379 L 212 194.739 L 214 194.12 L 216 193.521 L 218 192.945 L 220 192.391 L 222 191.861 L 224 191.354 L 226 190.872 L 228 190.414 L 230 189.98 L 232 189.571 L 234 189.187 L 236 188.827 L 238 188.491 L 240 188.18 L 242 187.891 L 244 187.627 L 246 187.385 L 248 187.166 L 250 186.969 L 252 186.793 L 254 186.64 L 256 186.507 L 258 186.396 L 260 186.305 L 262 186.234 L 264 186.184 L 266 186.154 L 268 186.144 L 270 186.154 L 272 186.184 L 274 186.234 L 276 186.305 L 278 186.396 L 280 186.507 L 282 186.64 L 284 186.793 L 286 186.969 L 288 187.166 L 290 187.385 L 292 187.627 L 294 187.891 L 296 188.18 L 298 188.491 L 300 188.827 L 302 189.187 L 304 189.571 L 306 189.98 L 308 190.414 L 310 190.872 L 312 191.354 L 314 191.861 L 316 192.391 L 318 192.945 L 320 193.521 L 322 194.12 L 324 194.739 L 326 195.379 L 328 196.037 L 330 196.712 L 332 197.402 L 334 198.107 L 336 198.823 L 338 199.549 L 340 200.282 L 342 201.021 L 344 201.761 L 346 202.501 L 348 203.238 L 350 203.969 L 352 204.69 L 354 205.399 L 356 206.092 L 358 206.767 L 360 207.419 L 362 208.045 L 364 208.643 L 366 209.208 L 368 209.739 L 370 210.232 L 372 210.684 L 374 211.092 L 376 211.455 L 378 211.769 L 380 212.033 L 382 212.245 L 384 212.403 L 386 212.506 L 388 212.553 L 390 212.545 L 392 212.479 L 394 212.358 L 396 212.18 L 398 211.947 L 400 211.661 L 402 211.322 L 404 210.934 L 406 210.497 L 408 210.014 L 410 209.489 L 412 208.925 L 414 208.325 L 416 207.693 L 418 207.033 L 420 206.35 L 422 205.646 L 424 204.927 L 426 204.198 L 428 203.463 L 430 202.727 L 432 201.993 L 434 201.268 L 436 200.555 L 438 199.859 L 440 199.184 L 442 198.534 L 444 197.912 L 446 197.323 L 448 196.77 L 450 196.255 L 452 195.781 L 454 195.351 L 456 194.966 L 458 194.628 L 460 194.338 L 462 194.098 L 464 193.906 L 466 193.765 L 468 193.672 M 64 185.241 L 66 185.691 L 68 186.193 L 70 186.743 L 72 187.339 L 74 187.978 L 76 188.655 L 78 189.366 L 80 190.107 L 82 190.873 L 84 191.657 L 86 192.455 L 88 193.261 L 90 194.068 L 92 194.872 L 94 195.665 L 96 196.441 L 98 197.194 L 100 197.919 L 102 198.61 L 104 199.26 L 106 199.865 L 108 200.419 L 110 200.918 L 112 201.358 L 114 201.733 L 116 202.042 L 118 202.28 L 120 202.446 L 122 202.538 L 124 202.553 L 126 202.492 L 128 202.354 L 130 202.139 L 132 201.848 L 134 201.483 L 136 201.045 L 138 200.536 L 140 199.96 L 142 199.319 L 144 198.618 L 146 197.861 L 148 197.051 L 150 196.193 L 152 195.293 L 154 194.355 L 156 193.385 L 158 192.387 L 160 191.369 L 162 190.333 L 164 189.287 L 166 188.236 L 168 187.184 L 170 186.137 L 172 185.099 L 174 184.075 L 176 183.069 L 178 182.086 L 180 181.129 L 182 180.202 L 184 179.308 L 186 178.448 L 188 177.627 L 190 176.845 L 192 176.104 L 194 175.406 L 196 174.752 L 198 174.141 L 200 173.574 L 202 173.052 L 204 172.573 L 206 172.137 L 208 171.743 L 210 171.389 L 212 171.075 L 214 170.798 L 216 170.557 L 218 170.349 L 220 170.174 L 222 170.027 L 224 169.908 L 226 169.813 L 228 169.741 L 230 169.688 L 232 169.654 L 234 169.635 L 236 169.629 L 238 169.633 L 240 169.647 L 242 169.667 L 244 169.693 L 246 169.721 L 248 169.751 L 250 169.781 L 252 169.81 L 254 169.837 L 256 169.86 L 258 169.878 L 260 169.892 L 262 169.901 L 264 169.903 L 266 169.901 L 268 169.892 L 270 169.878 L 272 169.86 L 274 169.837 L 276 169.81 L 278 169.781 L 280 169.751 L 282 169.721 L 284 169.693 L 286 169.667 L 288 169.647 L 290 169.633 L 292 169.629 L 294 169.635 L 296 169.654 L 298 169.688 L 300 169.741 L 302 169.813 L 304 169.908 L 306 170.027 L 308 170.174 L 310 170.349 L 312 170.557 L 314 170.798 L 316 171.075 L 318 171.389 L 320 171.743 L 322 172.137 L 324 172.573 L 326 173.052 L 328 173.574 L 330 174.141 L 332 174.752 L 334 175.406 L 336 176.104 L 338 176.845 L 340 177.627 L 342 178.448 L 344 179.308 L 346 180.202 L 348 181.129 L 350 182.086 L 352 183.069 L 354 184.075 L 356 185.099 L 358 186.137 L 360 187.184 L 362 188.236 L 364 189.287 L 366 190.333 L 368 191.369 L 370 192.387 L 372 193.385 L 374 194.355 L 376 195.293 L 378 196.193 L 380 197.051 L 382 197.861 L 384 198.618 L 386 199.319 L 388 199.96 L 390 200.536 L 392 201.045 L 394 201.483 L 396 201.848 L 398 202.139 L 400 202.354 L 402 202.492 L 404 202.553 L 406 202.538 L 408 202.446 L 410 202.28 L 412 202.042 L 414 201.733 L 416 201.358 L 418 200.918 L 420 200.419 L 422 199.865 L 424 199.26 L 426 198.61 L 428 197.919 L 430 197.194 L 432 196.441 L 434 195.665 L 436 194.872 L 438 194.068 L 440 193.261 L 442 192.455 L 444 191.657 L 446 190.873 L 448 190.107 L 450 189.366 L 452 188.655 L 454 187.978 L 456 187.339 L 458 186.743 L 460 186.193 L 462 185.691 L 464 185.241 M 60 178.421 L 62 179.165 L 64 179.944 L 66 180.754 L 68 181.587 L 70 182.437 L 72 183.298 L 74 184.161 L 76 185.02 L 78 185.868 L 80 186.695 L 82 187.496 L 84 188.262 L 86 188.986 L 88 189.661 L 90 190.279 L 92 190.835 L 94 191.322 L 96 191.736 L 98 192.069 L 100 192.319 L 102 192.482 L 104 192.553 L 106 192.532 L 108 192.416 L 110 192.204 L 112 191.897 L 114 191.495 L 116 191 L 118 190.414 L 120 189.739 L 122 188.981 L 124 188.142 L 126 187.229 L 128 186.247 L 130 185.202 L 132 184.101 L 134 182.952 L 136 181.761 L 138 180.537 L 140 179.287 L 142 178.021 L 144 176.745 L 146 175.468 L 148 174.199 L 150 172.945 L 152 171.714 L 154 170.514 L 156 169.351 L 158 168.233 L 160 167.166 L 162 166.154 L 164 165.204 L 166 164.32 L 168 163.507 L 170 162.766 L 172 162.101 L 174 161.515 L 176 161.008 L 178 160.58 L 180 160.234 L 182 159.966 L 184 159.778 L 186 159.666 L 188 159.629 L 190 159.663 L 192 159.767 L 194 159.936 L 196 160.166 L 198 160.453 L 200 160.793 L 202 161.181 L 204 161.613 L 206 162.082 L 208 162.584 L 210 163.115 L 212 163.668 L 214 164.239 L 216 164.823 L 218 165.416 L 220 166.011 L 222 166.606 L 224 167.196 L 226 167.776 L 228 168.343 L 230 168.893 L 232 169.422 M 234 169.928 M 236 170.408 M 238 170.859 M 240 171.278 M 242 171.663 M 244 172.013 M 246 172.326 M 248 172.6 M 250 172.834 M 252 173.027 M 254 173.177 M 256 173.286 M 258 173.351 M 260 173.373 M 262 173.351 M 264 173.286 M 266 173.177 M 268 173.027 M 270 172.834 M 272 172.6 M 274 172.326 M 276 172.013 M 278 171.663 M 280 171.278 M 282 170.859 M 284 170.408 M 286 169.928 M 288 169.422 L 290 168.893 L 292 168.343 L 294 167.776 L 296 167.196 L 298 166.606 L 300 166.011 L 302 165.416 L 304 164.823 L 306 164.239 L 308 163.668 L 310 163.115 L 312 162.584 L 314 162.082 L 316 161.613 L 318 161.181 L 320 160.793 L 322 160.453 L 324 160.166 L 326 159.936 L 328 159.767 L 330 159.663 L 332 159.629 L 334 159.666 L 336 159.778 L 338 159.966 L 340 160.234 L 342 160.58 L 344 161.008 L 346 161.515 L 348 162.101 L 350 162.766 L 352 163.507 L 354 164.32 L 356 165.204 L 358 166.154 L 360 167.166 L 362 168.233 L 364 169.351 L 366 170.514 L 368 171.714 L 370 172.945 L 372 174.199 L 374 175.468 L 376 176.745 L 378 178.021 L 380 179.287 L 382 180.537 L 384 181.761 L 386 182.952 L 388 184.101 L 390 185.202 L 392 186.247 L 394 187.229 L 396 188.142 L 398 188.981 L 400 189.739 L 402 190.414 L 404 191 L 406 191.495 L 408 191.897 L 410 192.204 L 412 192.416 L 414 192.532 L 416 192.553 L 418 192.482 L 420 192.319 L 422 192.069 L 424 191.736 L 426 191.322 L 428 190.835 L 430 190.279 L 432 189.661 L 434 188.986 L 436 188.262 L 438 187.496 L 440 186.695 L 442 185.868 L 444 185.02 L 446 184.161 L 448 183.298 L 450 182.437 L 452 181.587 L 454 180.754 L 456 179.944 L 458 179.165 L 460 178.421 M 56 172.1 L 58 173 L 60 173.906 L 62 174.811 L 64 175.706 L 66 176.582 L 68 177.43 L 70 178.241 L 72 179.006 L 74 179.717 L 76 180.365 L 78 180.943 L 80 181.442 L 82 181.857 L 84 182.18 L 86 182.407 L 88 182.532 L 90 182.551 L 92 182.463 L 94 182.264 L 96 181.953 L 98 181.532 L 100 181 L 102 180.36 L 104 179.615 L 106 178.769 L 108 177.827 L 110 176.796 L 112 175.682 L 114 174.493 L 116 173.238 L 118 171.926 L 120 170.567 L 122 169.172 L 124 167.75 L 126 166.314 L 128 164.874 L 130 163.442 L 132 162.03 L 134 160.648 L 136 159.308 L 138 158.019 L 140 156.793 L 142 155.639 L 144 154.567 L 146 153.583 L 148 152.696 L 150 151.912 L 152 151.238 L 154 150.677 L 156 150.234 L 158 149.91 L 160 149.709 L 162 149.63 L 164 149.673 L 166 149.837 L 168 150.119 L 170 150.515 L 172 151.023 L 174 151.637 L 176 152.351 L 178 153.158 L 180 154.052 L 182 155.026 L 184 156.071 L 186 157.179 L 188 158.343 L 190 159.552 M 192 160.799 M 194 162.076 M 196 163.373 M 198 164.682 M 200 165.996 M 202 167.306 M 204 168.606 M 206 169.889 M 208 171.149 M 210 172.379 M 212 173.575 M 214 174.731 M 216 175.844 M 218 176.911 M 220 177.927 M 222 178.891 M 224 179.801 M 226 180.655 M 228 181.453 M 230 182.193 M 232 182.875 M 234 183.499 M 236 184.066 M 238 184.576 M 240 185.03 M 242 185.428 M 244 185.771 M 246 186.059 M 248 186.295 M 250 186.477 M 252 186.606 M 254 186.684 M 256 186.71 M 258 186.684 M 260 186.606 M 262 186.477 M 264 186.295 M 266 186.059 M 268 185.771 M 270 185.428 M 272 185.03 M 274 184.576 M 276 184.066 M 278 183.499 M 280 182.875 M 282 182.193 M 284 181.453 M 286 180.655 M 288 179.801 M 290 178.891 M 292 177.927 M 294 176.911 M 296 175.844 M 298 174.731 M 300 173.575 M 302 172.379 M 304 171.149 M 306 169.889 M 308 168.606 M 310 167.306 M 312 165.996 M 314 164.682 M 316 163.373 M 318 162.076 M 320 160.799 M 322 159.552 L 324 158.343 L 326 157.179 L 328 156.071 L 330 155.026 L 332 154.052 L 334 153.158 L 336 152.351 L 338 151.637 L 340 151.023 L 342 150.515 L 344 150.119 L 346 149.837 L 348 149.673 L 350 149.63 L 352 149.709 L 354 149.91 L 356 150.234 L 358 150.677 L 360 151.238 L 362 151.912 L 364 152.696 L 366 153.583 L 368 154.567 L 370 155.639 L 372 156.793 L 374 158.019 L 376 159.308 L 378 160.648 L 380 162.03 L 382 163.442 L 384 164.874 L 386 166.314 L 388 167.75 L 390 169.172 L 392 170.567 L 394 171.926 L 396 173.238 L 398 174.493 L 400 175.682 L 402 176.796 L 404 177.827 L 406 178.769 L 408 179.615 L 410 180.36 L 412 181 L 414 181.532 L 416 181.953 L 418 182.264 L 420 182.463 L 422 182.551 L 424 182.532 L 426 182.407 L 428 182.18 L 430 181.857 L 432 181.442 L 434 180.943 L 436 180.365 L 438 179.717 L 440 179.006 L 442 178.241 L 444 177.43 L 446 176.582 L 448 175.706 L 450 174.811 L 452 173.906 L 454 173 L 456 172.1 M 52 165.317 L 54 166.235 L 56 167.127 L 58 167.984 L 60 168.795 L 62 169.551 L 64 170.241 L 66 170.857 L 68 171.39 L 70 171.831 L 72 172.174 L 74 172.411 L 76 172.537 L 78 172.546 L 80 172.437 L 82 172.204 L 84 171.848 L 86 171.369 L 88 170.766 L 90 170.043 L 92 169.203 L 94 168.251 L 96 167.194 L 98 166.038 L 100 164.792 L 102 163.467 L 104 162.071 L 106 160.618 L 108 159.119 L 110 157.587 L 112 156.037 L 114 154.481 L 116 152.934 L 118 151.41 L 120 149.925 L 122 148.491 L 124 147.124 L 126 145.836 L 128 144.64 L 130 143.549 L 132 142.573 L 134 141.723 L 136 141.008 L 138 140.435 L 140 140.011 L 142 139.742 L 144 139.632 L 146 139.681 L 148 139.892 L 150 140.264 L 152 140.793 L 154 141.478 L 156 142.313 L 158 143.29 L 160 144.404 L 162 145.644 L 164 147.002 L 166 148.465 L 168 150.023 M 170 151.663 M 172 153.373 M 174 155.138 M 176 156.945 M 178 158.781 M 180 160.632 M 182 162.485 M 184 164.326 M 186 166.145 M 188 167.927 M 190 169.663 M 192 171.343 M 194 172.956 M 196 174.496 M 198 175.955 M 200 177.326 M 202 178.607 M 204 179.792 M 206 180.88 M 208 181.87 M 210 182.762 M 212 183.558 M 214 184.26 M 216 184.87 M 218 185.395 M 220 185.838 M 222 186.205 M 224 186.503 M 226 186.738 M 228 186.918 M 230 187.049 M 232 187.139 M 234 187.196 M 236 187.225 M 238 187.233 M 240 187.227 M 242 187.212 M 244 187.193 M 246 187.174 M 248 187.158 M 250 187.147 M 252 187.144 M 254 187.147 M 256 187.158 M 258 187.174 M 260 187.193 M 262 187.212 M 264 187.227 M 266 187.233 M 268 187.225 M 270 187.196 M 272 187.139 M 274 187.049 M 276 186.918 M 278 186.738 M 280 186.503 M 282 186.205 M 284 185.838 M 286 185.395 M 288 184.87 M 290 184.26 M 292 183.558 M 294 182.762 M 296 181.87 M 298 180.88 M 300 179.792 M 302 178.607 M 304 177.326 M 306 175.955 M 308 174.496 M 310 172.956 M 312 171.343 M 314 169.663 M 316 167.927 M 318 166.145 M 320 164.326 M 322 162.485 M 324 160.632 M 326 158.781 M 328 156.945 M 330 155.138 M 332 153.373 L 334 151.663 L 336 150.023 L 338 148.465 L 340 147.002 L 342 145.644 L 344 144.404 L 346 143.29 L 348 142.313 L 350 141.478 L 352 140.793 L 354 140.264 L 356 139.892 L 358 139.681 L 360 139.632 L 362 139.742 L 364 140.011 L 366 140.435 L 368 141.008 L 370 141.723 L 372 142.573 L 374 143.549 L 376 144.64 L 378 145.836 L 380 147.124 L 382 148.491 L 384 149.925 L 386 151.41 L 388 152.934 L 390 154.481 L 392 156.037 L 394 157.587 L 396 159.119 L 398 160.618 L 400 162.071 L 402 163.467 L 404 164.792 L 406 166.038 L 408 167.194 L 410 168.251 L 412 169.203 L 414 170.043 L 416 170.766 L 418 171.369 L 420 171.848 L 422 172.204 L 424 172.437 L 426 172.546 L 428 172.537 L 430 172.411 L 432 172.174 L 434 171.831 L 436 171.39 L 438 170.857 L 440 170.241 L 442 169.551 L 444 168.795 L 446 167.984 L 448 167.127 L 450 166.235 L 452 165.317 M 48 157.588 L 50 158.443 L 52 159.245 L 54 159.982 L 56 160.645 L 58 161.223 L 60 161.708 L 62 162.091 L 64 162.363 L 66 162.52 L 68 162.553 L 70 162.46 L 72 162.236 L 74 161.88 L 76 161.391 L 78 160.77 L 80 160.019 L 82 159.141 L 84 158.142 L 86 157.029 L 88 155.81 L 90 154.493 L 92 153.091 L 94 151.615 L 96 150.077 L 98 148.493 L 100 146.877 L 102 145.244 L 104 143.612 L 106 141.996 L 108 140.414 L 110 138.881 L 112 137.416 L 114 136.034 L 116 134.752 L 118 133.583 L 120 132.543 L 122 131.644 L 124 130.898 L 126 130.317 L 128 129.908 L 130 129.679 L 132 129.635 L 134 129.781 L 136 130.119 L 138 130.647 L 140 131.364 L 142 132.266 L 144 133.346 L 146 134.598 L 148 136.011 L 150 137.575 L 152 139.275 L 154 141.097 M 156 143.027 M 158 145.046 M 160 147.137 M 162 149.282 M 164 151.461 M 166 153.655 M 168 155.844 M 170 158.01 M 172 160.132 M 174 162.193 M 176 164.174 M 178 166.059 M 180 167.834 M 182 169.482 M 184 170.993 M 186 172.354 M 188 173.558 M 190 174.597 M 192 175.465 M 194 176.16 M 196 176.681 M 198 177.029 M 200 177.206 M 202 177.219 M 204 177.073 M 206 176.779 M 208 176.347 M 210 175.788 M 212 175.116 M 214 174.347 M 216 173.495 M 218 172.578 M 220 171.613 M 222 170.616 M 224 169.606 M 226 168.6 M 228 167.615 L 230 166.668 L 232 165.774 L 234 164.947 L 236 164.202 L 238 163.55 L 240 163.002 L 242 162.567 L 244 162.251 L 246 162.059 L 248 161.995 L 250 162.059 L 252 162.251 L 254 162.567 L 256 163.002 L 258 163.55 L 260 164.202 L 262 164.947 L 264 165.774 L 266 166.668 L 268 167.615 L 270 168.6 L 272 169.606 M 274 170.616 M 276 171.613 M 278 172.578 M 280 173.495 M 282 174.347 M 284 175.116 M 286 175.788 M 288 176.347 M 290 176.779 M 292 177.073 M 294 177.219 M 296 177.206 M 298 177.029 M 300 176.681 M 302 176.16 M 304 175.465 M 306 174.597 M 308 173.558 M 310 172.354 M 312 170.993 M 314 169.482 M 316 167.834 M 318 166.059 M 320 164.174 M 322 162.193 M 324 160.132 M 326 158.01 M 328 155.844 L 330 153.655 L 332 151.461 L 334 149.282 L 336 147.137 L 338 145.046 L 340 143.027 L 342 141.097 L 344 139.275 L 346 137.575 L 348 136.011 L 350 134.598 L 352 133.346 L 354 132.266 L 356 131.364 L 358 130.647 L 360 130.119 L 362 129.781 L 364 129.635 L 366 129.679 L 368 129.908 L 370 130.317 L 372 130.898 L 374 131.644 L 376 132.543 L 378 133.583 L 380 134.752 L 382 136.034 L 384 137.416 L 386 138.881 L 388 140.414 L 390 141.996 L 392 143.612 L 394 145.244 L 396 146.877 L 398 148.493 L 400 150.077 L 402 151.615 L 404 153.091 L 406 154.493 L 408 155.81 L 410 157.029 L 412 158.142 L 414 159.141 L 416 160.019 L 418 160.77 L 420 161.391 L 422 161.88 L 424 162.236 L 426 162.46 L 428 162.553 L 430 162.52 L 432 162.363 L 434 162.091 L 436 161.708 L 438 161.223 L 440 160.645 L 442 159.982 L 444 159.245 L 446 158.443 L 448 157.588 M 44 148.86 L 46 149.642 L 48 150.351 L 50 150.979 L 52 151.514 L 54 151.947 L 56 152.27 L 58 152.475 L 60 152.556 L 62 152.506 L 64 152.322 L 66 152 L 68 151.541 L 70 150.943 L 72 150.209 L 74 149.341 L 76 148.346 L 78 147.229 L 80 145.999 L 82 144.665 L 84 143.238 L 86 141.732 L 88 140.159 L 90 138.536 L 92 136.877 L 94 135.2 L 96 133.521 L 98 131.861 L 100 130.236 L 102 128.664 L 104 127.166 L 106 125.757 L 108 124.457 L 110 123.281 L 112 122.245 L 114 121.365 L 116 120.652 L 118 120.12 L 120 119.778 L 122 119.633 L 124 119.693 L 126 119.961 L 128 120.438 L 130 121.125 L 132 122.019 L 134 123.115 L 136 124.404 L 138 125.878 L 140 127.525 L 142 129.33 L 144 131.278 L 146 133.351 L 148 135.529 M 150 137.793 M 152 140.119 M 154 142.485 M 156 144.867 M 158 147.24 M 160 149.581 M 162 151.864 M 164 154.066 M 166 156.164 M 168 158.135 M 170 159.957 M 172 161.612 M 174 163.08 M 176 164.345 M 178 165.395 M 180 166.216 M 182 166.8 M 184 167.139 M 186 167.231 M 188 167.073 M 190 166.668 M 192 166.02 M 194 165.136 M 196 164.026 M 198 162.703 M 200 161.181 M 202 159.479 L 204 157.615 L 206 155.611 L 208 153.49 L 210 151.277 L 212 148.997 L 214 146.677 L 216 144.343 L 218 142.023 L 220 139.744 L 222 137.532 L 224 135.414 L 226 133.414 L 228 131.556 L 230 129.861 L 232 128.35 L 234 127.039 L 236 125.946 L 238 125.081 L 240 124.457 L 242 124.079 L 244 123.952 L 246 124.079 L 248 124.457 L 250 125.081 L 252 125.946 L 254 127.039 L 256 128.35 L 258 129.861 L 260 131.556 L 262 133.414 L 264 135.414 L 266 137.532 L 268 139.744 L 270 142.023 L 272 144.343 L 274 146.677 L 276 148.997 L 278 151.277 L 280 153.49 L 282 155.611 L 284 157.615 L 286 159.479 L 288 161.181 L 290 162.703 L 292 164.026 L 294 165.136 L 296 166.02 M 298 166.668 M 300 167.073 M 302 167.231 M 304 167.139 M 306 166.8 M 308 166.216 M 310 165.395 M 312 164.345 M 314 163.08 M 316 161.612 L 318 159.957 L 320 158.135 L 322 156.164 L 324 154.066 L 326 151.864 L 328 149.581 L 330 147.24 L 332 144.867 L 334 142.485 L 336 140.119 L 338 137.793 L 340 135.529 L 342 133.351 L 344 131.278 L 346 129.33 L 348 127.525 L 350 125.878 L 352 124.404 L 354 123.115 L 356 122.019 L 358 121.125 L 360 120.438 L 362 119.961 L 364 119.693 L 366 119.633 L 368 119.778 L 370 120.12 L 372 120.652 L 374 121.365 L 376 122.245 L 378 123.281 L 380 124.457 L 382 125.757 L 384 127.166 L 386 128.664 L 388 130.236 L 390 131.861 L 392 133.521 L 394 135.2 L 396 136.877 L 398 138.536 L 400 140.159 L 402 141.732 L 404 143.238 L 406 144.665 L 408 145.999 L 410 147.229 L 412 148.346 L 414 149.341 L 416 150.209 L 418 150.943 L 420 151.541 L 422 152 L 424 152.322 L 426 152.506 L 428 152.556 L 430 152.475 L 432 152.27 L 434 151.947 L 436 151.514 L 438 150.979 L 440 150.351 L 442 149.642 L 444 148.86 M 40 139.26 L 42 140.011 L 44 140.683 L 46 141.268 L 48 141.754 L 50 142.132 L 52 142.395 L 54 142.535 L 56 142.545 L 58 142.421 L 60 142.16 L 62 141.758 L 64 141.217 L 66 140.536 L 68 139.719 L 70 138.769 L 72 137.693 L 74 136.498 L 76 135.194 L 78 133.791 L 80 132.302 L 82 130.739 L 84 129.119 L 86 127.457 L 88 125.769 L 90 124.075 L 92 122.391 L 94 120.737 L 96 119.132 L 98 117.595 L 100 116.144 L 102 114.798 L 104 113.574 L 106 112.49 L 108 111.56 L 110 110.798 L 112 110.218 L 114 109.831 L 116 109.645 L 118 109.667 L 120 109.903 L 122 110.355 L 124 111.023 L 126 111.905 L 128 112.996 L 130 114.289 L 132 115.775 L 134 117.442 L 136 119.275 L 138 121.258 L 140 123.373 L 142 125.599 L 144 127.915 L 146 130.298 L 148 132.723 L 150 135.165 L 152 137.597 L 154 139.994 M 156 142.329 M 158 144.576 M 160 146.71 M 162 148.705 M 164 150.538 M 166 152.188 M 168 153.633 M 170 154.855 M 172 155.838 M 174 156.568 M 176 157.034 M 178 157.228 M 180 157.144 M 182 156.779 M 184 156.135 M 186 155.215 L 188 154.026 L 190 152.578 L 192 150.884 L 194 148.958 L 196 146.821 L 198 144.492 L 200 141.995 L 202 139.355 L 204 136.599 L 206 133.755 L 208 130.854 L 210 127.925 L 212 125 L 214 122.11 L 216 119.285 L 218 116.556 L 220 113.952 L 222 111.502 L 224 109.232 L 226 107.167 L 228 105.329 L 230 103.738 L 232 102.412 L 234 101.366 L 236 100.61 L 238 100.153 L 240 100 L 242 100.153 L 244 100.61 L 246 101.366 L 248 102.412 L 250 103.738 L 252 105.329 L 254 107.167 L 256 109.232 L 258 111.502 L 260 113.952 L 262 116.556 L 264 119.285 L 266 122.11 L 268 125 L 270 127.925 L 272 130.854 L 274 133.755 L 276 136.599 L 278 139.355 L 280 141.995 L 282 144.492 L 284 146.821 L 286 148.958 L 288 150.884 L 290 152.578 L 292 154.026 L 294 155.215 L 296 156.135 L 298 156.779 L 300 157.144 L 302 157.228 L 304 157.034 L 306 156.568 L 308 155.838 L 310 154.855 L 312 153.633 L 314 152.188 L 316 150.538 L 318 148.705 L 320 146.71 L 322 144.576 L 324 142.329 L 326 139.994 L 328 137.597 L 330 135.165 L 332 132.723 L 334 130.298 L 336 127.915 L 338 125.599 L 340 123.373 L 342 121.258 L 344 119.275 L 346 117.442 L 348 115.775 L 350 114.289 L 352 112.996 L 354 111.905 L 356 111.023 L 358 110.355 L 360 109.903 L 362 109.667 L 364 109.645 L 366 109.831 L 368 110.218 L 370 110.798 L 372 111.56 L 374 112.49 L 376 113.574 L 378 114.798 L 380 116.144 L 382 117.595 L 384 119.132 L 386 120.737 L 388 122.391 L 390 124.075 L 392 125.769 L 394 127.457 L 396 129.119 L 398 130.739 L 400 132.302 L 402 133.791 L 404 135.194 L 406 136.498 L 408 137.693 L 410 138.769 L 412 139.719 L 414 140.536 L 416 141.217 L 418 141.758 L 420 142.16 L 422 142.421 L 424 142.545 L 426 142.535 L 428 142.395 L 430 142.132 L 432 141.754 L 434 141.268 L 436 140.683 L 438 140.011 L 440 139.26 M 36 128.86 L 38 129.642 L 40 130.351 L 42 130.979 L 44 131.514 L 46 131.947 L 48 132.27 L 50 132.475 L 52 132.556 L 54 132.506 L 56 132.322 L 58 132 L 60 131.541 L 62 130.943 L 64 130.209 L 66 129.341 L 68 128.346 L 70 127.229 L 72 125.999 L 74 124.665 L 76 123.238 L 78 121.732 L 80 120.159 L 82 118.536 L 84 116.877 L 86 115.2 L 88 113.521 L 90 111.861 L 92 110.236 L 94 108.664 L 96 107.166 L 98 105.757 L 100 104.457 L 102 103.281 L 104 102.245 L 106 101.365 L 108 100.652 L 110 100.12 L 112 99.7776 L 114 99.6331 L 116 99.6928 L 118 99.9606 L 120 100.438 L 122 101.125 L 124 102.019 L 126 103.115 L 128 104.404 L 130 105.878 L 132 107.525 L 134 109.33 L 136 111.278 L 138 113.351 L 140 115.529 L 142 117.793 L 144 120.119 L 146 122.485 L 148 124.867 L 150 127.24 L 152 129.581 L 154 131.864 L 156 134.066 L 158 136.164 L 160 138.135 L 162 139.957 L 164 141.612 L 166 143.08 L 168 144.345 L 170 145.395 L 172 146.216 L 174 146.8 L 176 147.139 L 178 147.231 L 180 147.073 L 182 146.668 L 184 146.02 L 186 145.136 L 188 144.026 L 190 142.703 L 192 141.181 L 194 139.479 L 196 137.615 L 198 135.611 L 200 133.49 L 202 131.277 L 204 128.997 L 206 126.677 L 208 124.343 L 210 122.023 L 212 119.744 L 214 117.532 L 216 115.414 L 218 113.414 L 220 111.556 L 222 109.861 L 224 108.35 L 226 107.039 M 228 105.946 M 230 105.081 M 232 104.457 M 234 104.079 M 236 103.952 M 238 104.079 M 240 104.457 M 242 105.081 M 244 105.946 M 246 107.039 M 248 108.35 M 250 109.861 M 252 111.556 M 254 113.414 M 256 115.414 M 258 117.532 M 260 119.744 M 262 122.023 M 264 124.343 M 266 126.677 M 268 128.997 M 270 131.277 M 272 133.49 M 274 135.611 M 276 137.615 M 278 139.479 M 280 141.181 L 282 142.703 L 284 144.026 L 286 145.136 L 288 146.02 L 290 146.668 L 292 147.073 L 294 147.231 L 296 147.139 L 298 146.8 L 300 146.216 L 302 145.395 L 304 144.345 L 306 143.08 L 308 141.612 L 310 139.957 L 312 138.135 L 314 136.164 L 316 134.066 L 318 131.864 L 320 129.581 L 322 127.24 L 324 124.867 L 326 122.485 L 328 120.119 L 330 117.793 L 332 115.529 L 334 113.351 L 336 111.278 L 338 109.33 L 340 107.525 L 342 105.878 L 344 104.404 L 346 103.115 L 348 102.019 L 350 101.125 L 352 100.438 L 354 99.9606 L 356 99.6928 L 358 99.6331 L 360 99.7776 L 362 100.12 L 364 100.652 L 366 101.365 L 368 102.245 L 370 103.281 L 372 104.457 L 374 105.757 L 376 107.166 L 378 108.664 L 380 110.236 L 382 111.861 L 384 113.521 L 386 115.2 L 388 116.877 L 390 118.536 L 392 120.159 L 394 121.732 L 396 123.238 L 398 124.665 L 400 125.999 L 402 127.229 L 404 128.346 L 406 129.341 L 408 130.209 L 410 130.943 L 412 131.541 L 414 132 L 416 132.322 L 418 132.506 L 420 132.556 L 422 132.475 L 424 132.27 L 426 131.947 L 428 131.514 L 430 130.979 L 432 130.351 L 434 129.642 L 436 128.86 M 32 117.588 L 34 118.443 L 36 119.245 L 38 119.982 L 40 120.645 L 42 121.223 L 44 121.708 L 46 122.091 L 48 122.363 L 50 122.52 L 52 122.553 L 54 122.46 L 56 122.236 L 58 121.88 L 60 121.391 L 62 120.77 L 64 120.019 L 66 119.141 L 68 118.142 L 70 117.029 L 72 115.81 L 74 114.493 L 76 113.091 L 78 111.615 L 80 110.077 L 82 108.493 L 84 106.877 L 86 105.244 L 88 103.612 L 90 101.996 L 92 100.414 L 94 98.8815 L 96 97.4162 L 98 96.0343 L 100 94.7515 L 102 93.5829 L 104 92.5426 L 106 91.6438 L 108 90.8983 L 110 90.3166 L 112 89.9076 L 114 89.6787 L 116 89.6354 L 118 89.7814 L 120 90.1185 L 122 90.6466 L 124 91.3637 L 126 92.2656 L 128 93.3464 L 130 94.5982 L 132 96.0114 L 134 97.5745 L 136 99.2746 L 138 101.097 L 140 103.027 L 142 105.046 L 144 107.137 L 146 109.282 L 148 111.461 L 150 113.655 L 152 115.844 L 154 118.01 L 156 120.132 L 158 122.193 L 160 124.174 L 162 126.059 L 164 127.834 L 166 129.482 L 168 130.993 L 170 132.354 L 172 133.558 L 174 134.597 L 176 135.465 L 178 136.16 L 180 136.681 L 182 137.029 L 184 137.206 L 186 137.219 L 188 137.073 L 190 136.779 L 192 136.347 L 194 135.788 L 196 135.116 L 198 134.347 M 200 133.495 M 202 132.578 M 204 131.613 M 206 130.616 M 208 129.606 M 210 128.6 M 212 127.615 M 214 126.668 M 216 125.774 M 218 124.947 M 220 124.202 M 222 123.55 M 224 123.002 M 226 122.567 M 228 122.251 M 230 122.059 M 232 121.995 M 234 122.059 M 236 122.251 M 238 122.567 M 240 123.002 M 242 123.55 M 244 124.202 M 246 124.947 M 248 125.774 M 250 126.668 M 252 127.615 M 254 128.6 M 256 129.606 M 258 130.616 M 260 131.613 M 262 132.578 M 264 133.495 M 266 134.347 M 268 135.116 M 270 135.788 M 272 136.347 M 274 136.779 M 276 137.073 M 278 137.219 L 280 137.206 L 282 137.029 L 284 136.681 L 286 136.16 L 288 135.465 L 290 134.597 L 292 133.558 L 294 132.354 L 296 130.993 L 298 129.482 L 300 127.834 L 302 126.059 L 304 124.174 L 306 122.193 L 308 120.132 L 310 118.01 L 312 115.844 L 314 113.655 L 316 111.461 L 318 109.282 L 320 107.137 L 322 105.046 L 324 103.027 L 326 101.097 L 328 99.2746 L 330 97.5745 L 332 96.0114 L 334 94.5982 L 336 93.3464 L 338 92.2656 L 340 91.3637 L 342 90.6466 L 344 90.1185 L 346 89.7814 L 348 89.6354 L 350 89.6787 L 352 89.9076 L 354 90.3166 L 356 90.8983 L 358 91.6438 L 360 92.5426 L 362 93.5829 L 364 94.7515 L 366 96.0343 L 368 97.4162 L 370 98.8815 L 372 100.414 L 374 101.996 L 376 103.612 L 378 105.244 L 380 106.877 L 382 108.493 L 384 110.077 L 386 111.615 L 388 113.091 L 390 114.493 L 392 115.81 L 394 117.029 L 396 118.142 L 398 119.141 L 400 120.019 L 402 120.77 L 404 121.391 L 406 121.88 L 408 122.236 L 410 122.46 L 412 122.553 L 414 122.52 L 416 122.363 L 418 122.091 L 420 121.708 L 422 121.223 L 424 120.645 L 426 119.982 L 428 119.245 L 430 118.443 L 432 117.588 M 28 105.317 L 30 106.235 L 32 107.127 L 34 107.984 L 36 108.795 L 38 109.551 L 40 110.241 L 42 110.857 L 44 111.39 L 46 111.831 L 48 112.174 L 50 112.411 L 52 112.537 L 54 112.546 L 56 112.437 L 58 112.204 L 60 111.848 L 62 111.369 L 64 110.766 L 66 110.043 L 68 109.203 L 70 108.251 L 72 107.194 L 74 106.038 L 76 104.792 L 78 103.467 L 80 102.071 L 82 100.618 L 84 99.1191 L 86 97.5874 L 88 96.0366 L 90 94.4806 L 92 92.9337 L 94 91.4103 L 96 89.9248 L 98 88.4914 L 100 87.124 L 102 85.836 L 104 84.6403 L 106 83.5489 L 108 82.573 L 110 81.7229 L 112 81.0075 L 114 80.4349 L 116 80.0114 L 118 79.7424 L 120 79.6315 L 122 79.6811 L 124 79.892 L 126 80.2635 L 128 80.7934 L 130 81.4782 L 132 82.3126 L 134 83.2905 L 136 84.404 L 138 85.6445 L 140 87.0019 L 142 88.4654 L 144 90.0233 L 146 91.6633 L 148 93.3725 L 150 95.1375 L 152 96.9448 L 154 98.7808 L 156 100.632 L 158 102.485 L 160 104.326 L 162 106.145 L 164 107.927 L 166 109.663 L 168 111.343 L 170 112.956 L 172 114.496 L 174 115.955 L 176 117.326 L 178 118.607 L 180 119.792 L 182 120.88 L 184 121.87 L 186 122.762 L 188 123.558 L 190 124.26 L 192 124.87 L 194 125.395 L 196 125.838 L 198 126.205 L 200 126.503 L 202 126.738 L 204 126.918 M 206 127.049 M 208 127.139 M 210 127.196 M 212 127.225 M 214 127.233 M 216 127.227 M 218 127.212 M 220 127.193 M 222 127.174 M 224 127.158 M 226 127.147 M 228 127.144 M 230 127.147 M 232 127.158 M 234 127.174 M 236 127.193 M 238 127.212 M 240 127.227 M 242 127.233 M 244 127.225 M 246 127.196 M 248 127.139 M 250 127.049 M 252 126.918 M 254 126.738 M 256 126.503 M 258 126.205 M 260 125.838 M 262 125.395 M 264 124.87 M 266 124.26 M 268 123.558 L 270 122.762 L 272 121.87 L 274 120.88 L 276 119.792 L 278 118.607 L 280 117.326 L 282 115.955 L 284 114.496 L 286 112.956 L 288 111.343 L 290 109.663 L 292 107.927 L 294 106.145 L 296 104.326 L 298 102.485 L 300 100.632 L 302 98.7808 L 304 96.9448 L 306 95.1375 L 308 93.3725 L 310 91.6633 L 312 90.0233 L 314 88.4654 L 316 87.0019 L 318 85.6445 L 320 84.404 L 322 83.2905 L 324 82.3126 L 326 81.4782 L 328 80.7934 L 330 80.2635 L 332 79.892 L 334 79.6811 L 336 79.6315 L 338 79.7424 L 340 80.0114 L 342 80.4349 L 344 81.0075 L 346 81.7229 L 348 82.573 L 350 83.5489 L 352 84.6403 L 354 85.836 L 356 87.124 L 358 88.4914 L 360 89.9248 L 362 91.4103 L 364 92.9337 L 366 94.4806 L 368 96.0366 L 370 97.5874 L 372 99.1191 L 374 100.618 L 376 102.071 L 378 103.467 L 380 104.792 L 382 106.038 L 384 107.194 L 386 108.251 L 388 109.203 L 390 110.043 L 392 110.766 L 394 111.369 L 396 111.848 L 398 112.204 L 400 112.437 L 402 112.546 L 404 112.537 L 406 112.411 L 408 112.174 L 410 111.831 L 412 111.39 L 414 110.857 L 416 110.241 L 418 109.551 L 420 108.795 L 422 107.984 L 424 107.127 L 426 106.235 L 428 105.317 M 24 92.1005 L 26 92.9999 L 28 93.9063 L 30 94.8113 L 32 95.7061 L 34 96.5819 L 36 97.4298 L 38 98.2407 L 40 99.006 L 42 99.7169 L 44 100.365 L 46 100.943 L 48 101.442 L 50 101.857 L 52 102.18 L 54 102.407 L 56 102.532 L 58 102.551 L 60 102.463 L 62 102.264 L 64 101.953 L 66 101.532 L 68 101 L 70 100.36 L 72 99.6149 L 74 98.769 L 76 97.8273 L 78 96.796 L 80 95.6821 L 82 94.4933 L 84 93.2384 L 86 91.9264 L 88 90.5674 L 90 89.1718 L 92 87.7502 L 94 86.3139 L 96 84.8742 L 98 83.4424 L 100 82.0299 L 102 80.6479 L 104 79.3075 L 106 78.0193 L 108 76.7934 L 110 75.6395 L 112 74.5665 L 114 73.5829 L 116 72.696 L 118 71.9124 L 120 71.2378 L 122 70.6769 L 124 70.2335 L 126 69.9103 L 128 69.7088 L 130 69.6298 L 132 69.6729 L 134 69.8366 L 136 70.1185 L 138 70.5154 L 140 71.0232 L 142 71.6368 L 144 72.3506 L 146 73.1581 L 148 74.0524 L 150 75.026 L 152 76.0711 L 154 77.1795 L 156 78.3427 L 158 79.5522 L 160 80.7993 L 162 82.0756 L 164 83.3725 L 166 84.6819 L 168 85.9957 L 170 87.3063 L 172 88.6065 L 174 89.8895 L 176 91.149 L 178 92.3792 L 180 93.5748 L 182 94.7313 L 184 95.8445 L 186 96.9108 L 188 97.9272 L 190 98.8913 L 192 99.8012 L 194 100.655 L 196 101.453 L 198 102.193 L 200 102.875 L 202 103.499 L 204 104.066 L 206 104.576 L 208 105.03 L 210 105.428 L 212 105.771 L 214 106.059 L 216 106.295 L 218 106.477 L 220 106.606 L 222 106.684 L 224 106.71 L 226 106.684 M 228 106.606 M 230 106.477 M 232 106.295 M 234 106.059 M 236 105.771 M 238 105.428 M 240 105.03 M 242 104.576 M 244 104.066 M 246 103.499 M 248 102.875 M 250 102.193 L 252 101.453 L 254 100.655 L 256 99.8012 L 258 98.8913 L 260 97.9272 L 262 96.9108 L 264 95.8445 L 266 94.7313 L 268 93.5748 L 270 92.3792 L 272 91.149 L 274 89.8895 L 276 88.6065 L 278 87.3063 L 280 85.9957 L 282 84.6819 L 284 83.3725 L 286 82.0756 L 288 80.7993 L 290 79.5522 L 292 78.3427 L 294 77.1795 L 296 76.0711 L 298 75.026 L 300 74.0524 L 302 73.1581 L 304 72.3506 L 306 71.6368 L 308 71.0232 L 310 70.5154 L 312 70.1185 L 314 69.8366 L 316 69.6729 L 318 69.6298 L 320 69.7088 L 322 69.9103 L 324 70.2335 L 326 70.6769 L 328 71.2378 L 330 71.9124 L 332 72.696 L 334 73.5829 L 336 74.5665 L 338 75.6395 L 340 76.7934 L 342 78.0193 L 344 79.3075 L 346 80.6479 L 348 82.0299 L 350 83.4424 M 352 84.8742 M 354 86.3139 M 356 87.7502 M 358 89.1718 M 360 90.5674 M 362 91.9264 M 364 93.2384 M 366 94.4933 M 368 95.6821 L 370 96.796 L 372 97.8273 L 374 98.769 L 376 99.6149 L 378 100.36 L 380 101 L 382 101.532 L 384 101.953 L 386 102.264 L 388 102.463 L 390 102.551 L 392 102.532 L 394 102.407 L 396 102.18 L 398 101.857 L 400 101.442 L 402 100.943 L 404 100.365 L 406 99.7169 L 408 99.006 L 410 98.2407 L 412 97.4298 L 414 96.5819 L 416 95.7061 L 418 94.8113 L 420 93.9063 L 422 92.9999 L 424 92.1005 M 20 78.4209 L 22 79.1647 L 24 79.9442 L 26 80.7536 L 28 81.5867 L 30 82.437 L 32 83.2976 L 34 84.1611 L 36 85.0203 L 38 85.8676 L 40 86.6953 L 42 87.496 L 44 88.2619 L 46 88.9859 L 48 89.6606 L 50 90.2792 L 52 90.8352 L 54 91.3225 L 56 91.7355 L 58 92.0692 L 60 92.3192 L 62 92.4815 L 64 92.5532 L 66 92.5319 L 68 92.4158 L 70 92.2043 L 72 91.8972 L 74 91.4953 L 76 91 L 78 90.4136 L 80 89.7392 L 82 88.9806 L 84 88.1422 L 86 87.2291 L 88 86.247 L 90 85.2022 L 92 84.1015 L 94 82.952 L 96 81.7612 L 98 80.537 L 100 79.2874 L 102 78.0205 L 104 76.7447 L 106 75.4681 L 108 74.1989 L 110 72.945 L 112 71.7142 L 114 70.514 L 116 69.3514 L 118 68.2332 L 120 67.1655 L 122 66.1542 L 124 65.2043 L 126 64.3204 L 128 63.5065 L 130 62.7659 L 132 62.1013 L 134 61.5148 L 136 61.0075 L 138 60.5804 L 140 60.2335 L 142 59.9663 L 144 59.7776 L 146 59.6657 L 148 59.6285 L 150 59.6633 L 152 59.7669 L 154 59.9358 L 156 60.166 L 158 60.4534 L 160 60.7934 L 162 61.1815 L 164 61.6126 L 166 62.0818 L 168 62.5842 L 170 63.1145 L 172 63.6678 L 174 64.239 L 176 64.8232 L 178 65.4155 L 180 66.0114 L 182 66.6062 L 184 67.1957 L 186 67.7759 L 188 68.3427 L 190 68.8926 L 192 69.4222 L 194 69.9282 L 196 70.4079 L 198 70.8586 L 200 71.2778 L 202 71.6633 L 204 72.0133 L 206 72.326 L 208 72.6 L 210 72.8339 L 212 73.0266 L 214 73.1775 L 216 73.2857 L 218 73.3508 L 220 73.3725 L 222 73.3508 L 224 73.2857 L 226 73.1775 L 228 73.0266 L 230 72.8339 L 232 72.6 L 234 72.326 L 236 72.0133 L 238 71.6633 L 240 71.2778 L 242 70.8586 L 244 70.4079 L 246 69.9282 L 248 69.4222 L 250 68.8926 L 252 68.3427 L 254 67.7759 L 256 67.1957 L 258 66.6062 L 260 66.0114 L 262 65.4155 L 264 64.8232 L 266 64.239 L 268 63.6678 L 270 63.1145 L 272 62.5842 L 274 62.0818 L 276 61.6126 L 278 61.1815 L 280 60.7934 L 282 60.4534 L 284 60.166 L 286 59.9358 L 288 59.7669 L 290 59.6633 L 292 59.6285 L 294 59.6657 L 296 59.7776 L 298 59.9663 L 300 60.2335 L 302 60.5804 L 304 61.0075 L 306 61.5148 L 308 62.1013 L 310 62.7659 L 312 63.5065 L 314 64.3204 L 316 65.2043 L 318 66.1542 L 320 67.1655 L 322 68.2332 L 324 69.3514 L 326 70.514 M 328 71.7142 M 330 72.945 M 332 74.1989 M 334 75.4681 M 336 76.7447 M 338 78.0205 M 340 79.2874 M 342 80.537 M 344 81.7612 M 346 82.952 M 348 84.1015 M 350 85.2022 M 352 86.247 M 354 87.2291 M 356 88.1422 M 358 88.9806 M 360 89.7392 L 362 90.4136 L 364 91 L 366 91.4953 L 368 91.8972 L 370 92.2043 L 372 92.4158 L 374 92.5319 L 376 92.5532 L 378 92.4815 L 380 92.3192 L 382 92.0692 L 384 91.7355 L 386 91.3225 L 388 90.8352 L 390 90.2792 L 392 89.6606 L 394 88.9859 L 396 88.2619 L 398 87.496 L 400 86.6953 L 402 85.8676 L 404 85.0203 L 406 84.1611 L 408 83.2976 L 410 82.437 L 412 81.5867 L 414 80.7536 L 416 79.9442 L 418 79.1647 L 420 78.4209 M 16 65.2407 L 18 65.6909 L 20 66.1925 L 22 66.743 L 24 67.3393 L 26 67.9779 L 28 68.6551 L 30 69.3664 L 32 70.1073 L 34 70.8726 L 36 71.6571 L 38 72.4551 L 40 73.2608 L 42 74.0684 L 44 74.8717 L 46 75.6645 L 48 76.4408 L 50 77.1945 L 52 77.9194 L 54 78.6099 L 56 79.2603 L 58 79.8652 L 60 80.4194 L 62 80.9184 L 64 81.3576 L 66 81.7332 L 68 82.0418 L 70 82.2803 L 72 82.4463 L 74 82.5377 L 76 82.5533 L 78 82.4922 L 80 82.3541 L 82 82.1392 L 84 81.8484 L 86 81.4829 L 88 81.0447 L 90 80.5361 L 92 79.96 L 94 79.3195 L 96 78.6184 L 98 77.8606 L 100 77.0507 L 102 76.1931 L 104 75.2928 L 106 74.355 L 108 73.3847 L 110 72.3874 L 112 71.3685 L 114 70.3334 L 116 69.2874 M 118 68.2358 M 120 67.1838 M 122 66.1365 L 124 65.0986 L 126 64.0748 L 128 63.0693 L 130 62.0863 L 132 61.1294 L 134 60.2021 L 136 59.3075 L 138 58.4482 L 140 57.6267 L 142 56.8448 L 144 56.1042 L 146 55.4061 L 148 54.7515 L 150 54.1409 L 152 53.5744 L 154 53.0519 L 156 52.573 L 158 52.137 L 160 51.7429 L 162 51.3893 L 164 51.075 L 166 50.7982 L 168 50.557 L 170 50.3495 L 172 50.1736 L 174 50.027 L 176 49.9076 L 178 49.8129 L 180 49.7406 L 182 49.6884 L 184 49.6538 L 186 49.6346 L 188 49.6285 L 190 49.6334 L 192 49.647 L 194 49.6674 L 196 49.6928 L 198 49.7213 L 200 49.7513 L 202 49.7814 L 204 49.8102 L 206 49.8366 L 208 49.8595 L 210 49.8782 L 212 49.892 L 214 49.9005 L 216 49.9034 L 218 49.9005 L 220 49.892 L 222 49.8782 L 224 49.8595 L 226 49.8366 L 228 49.8102 L 230 49.7814 L 232 49.7513 L 234 49.7213 L 236 49.6928 L 238 49.6674 L 240 49.647 L 242 49.6334 L 244 49.6285 L 246 49.6346 L 248 49.6538 L 250 49.6884 L 252 49.7406 L 254 49.8129 L 256 49.9076 L 258 50.027 L 260 50.1736 L 262 50.3495 L 264 50.557 L 266 50.7982 L 268 51.075 L 270 51.3893 L 272 51.7429 L 274 52.137 L 276 52.573 L 278 53.0519 L 280 53.5744 L 282 54.1409 L 284 54.7515 L 286 55.4061 L 288 56.1042 L 290 56.8448 L 292 57.6267 L 294 58.4482 L 296 59.3075 M 298 60.2021 M 300 61.1294 M 302 62.0863 M 304 63.0693 M 306 64.0748 M 308 65.0986 M 310 66.1365 M 312 67.1838 M 314 68.2358 M 316 69.2874 M 318 70.3334 M 320 71.3685 M 322 72.3874 M 324 73.3847 M 326 74.355 M 328 75.2928 M 330 76.1931 M 332 77.0507 M 334 77.8606 M 336 78.6184 M 338 79.3195 M 340 79.96 M 342 80.5361 M 344 81.0447 M 346 81.4829 M 348 81.8484 L 350 82.1392 L 352 82.3541 L 354 82.4922 L 356 82.5533 L 358 82.5377 L 360 82.4463 L 362 82.2803 L 364 82.0418 L 366 81.7332 L 368 81.3576 L 370 80.9184 L 372 80.4194 L 374 79.8652 L 376 79.2603 L 378 78.6099 L 380 77.9194 L 382 77.1945 L 384 76.4408 L 386 75.6645 L 388 74.8717 L 390 74.0684 L 392 73.2608 L 394 72.4551 L 396 71.6571 L 398 70.8726 L 400 70.1073 L 402 69.3664 L 404 68.6551 L 406 67.9779 L 408 67.3393 L 410 66.743 L 412 66.1925 L 414 65.6909 L 416 65.2407 M 12 53.6718 L 14 53.7646 L 16 53.9064 L 18 54.0977 L 20 54.3383 L 22 54.628 L 24 54.9658 L 26 55.3507 L 28 55.7809 L 30 56.2547 L 32 56.7697 L 34 57.3232 L 36 57.9123 L 38 58.5337 L 40 59.184 L 42 59.8592 L 44 60.5553 L 46 61.2682 L 48 61.9935 L 50 62.7266 L 52 63.4631 L 54 64.1982 L 56 64.9274 L 58 65.646 L 60 66.3495 L 62 67.0335 L 64 67.6935 L 66 68.3254 L 68 68.9253 L 70 69.4895 L 72 70.0143 L 74 70.4967 L 76 70.9336 L 78 71.3225 L 80 71.6611 L 82 71.9475 L 84 72.1801 L 86 72.3576 L 88 72.4793 L 90 72.5446 L 92 72.5533 L 94 72.5058 L 96 72.4026 L 98 72.2446 L 100 72.0329 L 102 71.769 L 104 71.4549 L 106 71.0924 L 108 70.684 L 110 70.232 L 112 69.7392 L 114 69.2084 L 116 68.6427 L 118 68.045 M 120 67.4185 M 122 66.7666 M 124 66.0924 M 126 65.3993 M 128 64.6904 M 130 63.969 M 132 63.2384 M 134 62.5014 M 136 61.7612 M 138 61.0206 M 140 60.2823 M 142 59.5489 M 144 58.823 M 146 58.1067 M 148 57.4023 M 150 56.7117 M 152 56.0366 M 154 55.3786 M 156 54.7393 M 158 54.1199 M 160 53.5215 M 162 52.945 M 164 52.3912 M 166 51.8607 M 168 51.3541 M 170 50.8716 M 172 50.4136 M 174 49.9802 L 176 49.5713 L 178 49.187 L 180 48.8271 L 182 48.4914 L 184 48.1796 L 186 47.8915 L 188 47.6267 L 190 47.3848 L 192 47.1655 L 194 46.9685 L 196 46.7934 L 198 46.6397 L 200 46.5073 L 202 46.3958 L 204 46.3049 L 206 46.2345 L 208 46.1843 L 210 46.1542 L 212 46.1442 L 214 46.1542 L 216 46.1843 L 218 46.2345 L 220 46.3049 L 222 46.3958 L 224 46.5073 L 226 46.6397 L 228 46.7934 L 230 46.9685 L 232 47.1655 L 234 47.3848 L 236 47.6267 L 238 47.8915 L 240 48.1796 L 242 48.4914 L 244 48.8271 L 246 49.187 L 248 49.5713 M 250 49.9802 M 252 50.4136 M 254 50.8716 M 256 51.3541 M 258 51.8607 M 260 52.3912 M 262 52.945 M 264 53.5215 M 266 54.1199 M 268 54.7393 M 270 55.3786 M 272 56.0366 M 274 56.7117 M 276 57.4023 M 278 58.1067 M 280 58.823 M 282 59.5489 M 284 60.2823 M 286 61.0206 M 288 61.7612 M 290 62.5014 M 292 63.2384 M 294 63.969 M 296 64.6904 M 298 65.3993 M 300 66.0924 M 302 66.7666 M 304 67.4185 M 306 68.045 M 308 68.6427 M 310 69.2084 M 312 69.7392 M 314 70.232 M 316 70.684 M 318 71.0924 M 320 71.4549 M 322 71.769 M 324 72.0329 M 326 72.2446 M 328 72.4026 M 330 72.5058 M 332 72.5533 L 334 72.5446 L 336 72.4793 L 338 72.3576 L 340 72.1801 L 342 71.9475 L 344 71.6611 L 346 71.3225 L 348 70.9336 L 350 70.4967 L 352 70.0143 L 354 69.4895 L 356 68.9253 L 358 68.3254 L 360 67.6935 L 362 67.0335 L 364 66.3495 L 366 65.646 L 368 64.9274 L 370 64.1982 L 372 63.4631 L 374 62.7266 L 376 61.9935 L 378 61.2682 L 380 60.5553 L 382 59.8592 L 384 59.184 L 386 58.5337 L 388 57.9123 L 390 57.3232 L 392 56.7697 L 394 56.2547 L 396 55.7809 L 398 55.3507 L 400 54.9658 L 402 54.628 L 404 54.3383 L 406 54.0977 L 408 53.9064 L 410 53.7646 L 412 53.6718 M 8 44.3472 L 10 44.1413 L 12 43.967 L 14 43.8265 L 16 43.7214 L 18 43.6535 L 20 43.624 L 22 43.6342 L 24 43.6849 L 26 43.7767 L 28 43.9098 L 30 44.0844 L 32 44.3002 L 34 44.5567 L 36 44.853 L 38 45.1882 L 40 45.5608 L 42 45.9693 L 44 46.4119 L 46 46.8866 L 48 47.3909 L 50 47.9226 L 52 48.479 L 54 49.0573 L 56 49.6546 L 58 50.2678 L 60 50.8939 L 62 51.5297 L 64 52.172 L 66 52.8175 L 68 53.4631 L 70 54.1055 L 72 54.7416 L 74 55.3683 L 76 55.9827 L 78 56.5819 L 80 57.1632 L 82 57.724 L 84 58.2619 L 86 58.7747 L 88 59.2603 L 90 59.7169 L 92 60.1427 L 94 60.5365 L 96 60.897 L 98 61.2231 L 100 61.5141 L 102 61.7694 L 104 61.9888 L 106 62.172 L 108 62.3192 L 110 62.4305 L 112 62.5066 L 114 62.5479 L 116 62.5554 L 118 62.53 L 120 62.4729 L 122 62.3852 L 124 62.2684 L 126 62.124 L 128 61.9534 L 130 61.7585 M 132 61.5409 M 134 61.3023 M 136 61.0447 M 138 60.7699 M 140 60.4797 M 142 60.176 M 144 59.8608 M 146 59.5358 M 148 59.2028 M 150 58.8638 M 152 58.5204 M 154 58.1744 M 156 57.8273 M 158 57.4809 M 160 57.1367 M 162 56.796 M 164 56.4605 M 166 56.1312 M 168 55.8096 M 170 55.4968 M 172 55.194 M 174 54.9021 M 176 54.6221 M 178 54.355 M 180 54.1015 M 182 53.8624 M 184 53.6385 M 186 53.4303 M 188 53.2384 M 190 53.0633 M 192 52.9054 M 194 52.7653 M 196 52.6431 M 198 52.5393 M 200 52.454 M 202 52.3874 M 204 52.3398 M 206 52.3112 M 208 52.3016 M 210 52.3112 M 212 52.3398 M 214 52.3874 M 216 52.454 M 218 52.5393 M 220 52.6431 M 222 52.7653 M 224 52.9054 M 226 53.0633 M 228 53.2384 M 230 53.4303 M 232 53.6385 M 234 53.8624 M 236 54.1015 M 238 54.355 M 240 54.6221 M 242 54.9021 M 244 55.194 M 246 55.4968 M 248 55.8096 M 250 56.1312 M 252 56.4605 M 254 56.796 M 256 57.1367 M 258 57.4809 M 260 57.8273 M 262 58.1744 M 264 58.5204 M 266 58.8638 M 268 59.2028 M 270 59.5358 M 272 59.8608 M 274 60.176 M 276 60.4797 M 278 60.7699 M 280 61.0447 M 282 61.3023 M 284 61.5409 M 286 61.7585 M 288 61.9534 M 290 62.124 M 292 62.2684 M 294 62.3852 M 296 62.4729 M 298 62.53 M 300 62.5554 M 302 62.5479 M 304 62.5066 M 306 62.4305 M 308 62.3192 M 310 62.172 L 312 61.9888 L 314 61.7694 L 316 61.5141 L 318 61.2231 L 320 60.897 L 322 60.5365 L 324 60.1427 L 326 59.7169 L 328 59.2603 L 330 58.7747 L 332 58.2619 L 334 57.724 L 336 57.1632 L 338 56.5819 L 340 55.9827 L 342 55.3683 L 344 54.7416 L 346 54.1055 L 348 53.4631 L 350 52.8175 L 352 52.172 L 354 51.5297 L 356 50.8939 L 358 50.2678 L 360 49.6546 L 362 49.0573 L 364 48.479 L 366 47.9226 L 368 47.3909 L 370 46.8866 L 372 46.4119 L 374 45.9693 L 376 45.5608 L 378 45.1882 L 380 44.853 L 382 44.5567 L 384 44.3002 L 386 44.0844 L 388 43.9098 L 390 43.7767 L 392 43.6849 L 394 43.6342 L 396 43.624 L 398 43.6535 L 400 43.7214 L 402 43.8265 L 404 43.967 L 406 44.1413 L 408 44.3472 M 4 36.8994 L 6 36.558 L 8 36.2254 L 10 35.9039 L 12 35.5955 L 14 35.3027 L 16 35.0274 L 18 34.7716 L 20 34.5373 L 22 34.3264 L 24 34.1403 L 26 33.9808 L 28 33.8492 L 30 33.7467 L 32 33.6744 L 34 33.6331 L 36 33.6235 L 38 33.6461 L 40 33.7014 L 42 33.7893 L 44 33.9098 L 46 34.0628 L 48 34.2476 L 50 34.4639 L 52 34.7107 L 54 34.9871 L 56 35.292 L 58 35.6241 L 60 35.9822 L 62 36.3646 L 64 36.7697 L 66 37.1957 L 68 37.641 L 70 38.1035 L 72 38.5814 L 74 39.0726 L 76 39.5751 L 78 40.0868 L 80 40.6057 L 82 41.1298 L 84 41.6571 L 86 42.1854 L 88 42.713 L 90 43.2379 L 92 43.7583 L 94 44.2725 L 96 44.7787 L 98 45.2756 L 100 45.7615 L 102 46.2352 L 104 46.6953 L 106 47.1409 L 108 47.5708 L 110 47.9842 L 112 48.3802 L 114 48.7583 L 116 49.118 L 118 49.4587 L 120 49.7802 L 122 50.0824 L 124 50.3651 L 126 50.6284 L 128 50.8723 L 130 51.0973 L 132 51.3034 L 134 51.4912 L 136 51.6611 L 138 51.8137 L 140 51.9495 L 142 52.0692 L 144 52.1736 L 146 52.2634 L 148 52.3394 L 150 52.4024 L 152 52.4533 L 154 52.493 L 156 52.5222 M 158 52.542 M 160 52.5532 M 162 52.5567 M 164 52.5533 M 166 52.544 M 168 52.5296 M 170 52.5108 M 172 52.4886 M 174 52.4636 M 176 52.4365 M 178 52.4082 M 180 52.3792 M 182 52.3502 M 184 52.3217 M 186 52.2943 M 188 52.2684 M 190 52.2446 M 192 52.2231 M 194 52.2043 M 196 52.1886 M 198 52.1761 M 200 52.167 M 202 52.1615 M 204 52.1597 M 206 52.1615 M 208 52.167 M 210 52.1761 M 212 52.1886 M 214 52.2043 M 216 52.2231 M 218 52.2446 M 220 52.2684 M 222 52.2943 M 224 52.3217 M 226 52.3502 M 228 52.3792 M 230 52.4082 M 232 52.4365 M 234 52.4636 M 236 52.4886 M 238 52.5108 M 240 52.5296 M 242 52.544 M 244 52.5533 M 246 52.5567 M 248 52.5532 M 250 52.542 M 252 52.5222 M 254 52.493 M 256 52.4533 M 258 52.4024 M 260 52.3394 M 262 52.2634 M 264 52.1736 M 266 52.0692 M 268 51.9495 M 270 51.8137 M 272 51.6611 L 274 51.4912 L 276 51.3034 L 278 51.0973 L 280 50.8723 L 282 50.6284 L 284 50.3651 L 286 50.0824 L 288 49.7802 L 290 49.4587 L 292 49.118 L 294 48.7583 L 296 48.3802 L 298 47.9842 L 300 47.5708 L 302 47.1409 L 304 46.6953 L 306 46.2352 L 308 45.7615 L 310 45.2756 L 312 44.7787 L 314 44.2725 L 316 43.7583 L 318 43.2379 L 320 42.713 L 322 42.1854 L 324 41.6571 L 326 41.1298 L 328 40.6057 L 330 40.0868 L 332 39.5751 L 334 39.0726 L 336 38.5814 L 338 38.1035 L 340 37.641 L 342 37.1957 L 344 36.7697 L 346 36.3646 L 348 35.9822 L 350 35.6241 L 352 35.292 L 354 34.9871 L 356 34.7107 L 358 34.4639 L 360 34.2476 L 362 34.0628 L 364 33.9098 L 366 33.7893 L 368 33.7014 L 370 33.6461 L 372 33.6235 L 374 33.6331 L 376 33.6744 L 378 33.7467 L 380 33.8492 L 382 33.9808 L 384 34.1403 L 386 34.3264 L 388 34.5373 L 390 34.7716 L 392 35.0274 L 394 35.3027 L 396 35.5955 L 398 35.9039 L 400 36.2254 L 402 36.558 L 404 36.8994 M 0 30.0202 L 2 29.7286 L 4 29.4284 L 6 29.1209 L 8 28.8076 L 10 28.4903 L 12 28.1704 L 14 27.8497 L 16 27.5298 L 18 27.2125 L 20 26.8994 L 22 26.5921 L 24 26.2924 L 26 26.0018 L 28 25.722 L 30 25.4543 L 32 25.2004 L 34 24.9614 L 36 24.7388 L 38 24.5337 L 40 24.3472 L 42 24.1804 L 44 24.0341 L 46 23.9091 L 48 23.806 L 50 23.7255 L 52 23.668 L 54 23.6337 L 56 23.6229 L 58 23.6356 L 60 23.6718 L 62 23.7314 L 64 23.814 L 66 23.9193 L 68 24.0469 L 70 24.1961 L 72 24.3663 L 74 24.5567 L 76 24.7665 L 78 24.9948 L 80 25.2407 L 82 25.5031 L 84 25.7809 L 86 26.0731 L 88 26.3784 L 90 26.6958 L 92 27.024 L 94 27.3618 L 96 27.7081 L 98 28.0615 L 100 28.4209 L 102 28.7852 L 104 29.1531 L 106 29.5236 L 108 29.8955 L 110 30.2678 L 112 30.6394 L 114 31.0094 L 116 31.3768 L 118 31.7408 L 120 32.1005 L 122 32.4551 L 124 32.8039 L 126 33.1462 L 128 33.4815 L 130 33.8091 L 132 34.1286 L 134 34.4396 L 136 34.7416 L 138 35.0342 L 140 35.3173 L 142 35.5905 L 144 35.8538 L 146 36.1068 L 148 36.3495 L 150 36.5819 L 152 36.8039 L 154 37.0155 L 156 37.2167 L 158 37.4077 L 160 37.5884 L 162 37.7589 L 164 37.9194 L 166 38.0701 L 168 38.211 L 170 38.3423 L 172 38.4642 L 174 38.5768 L 176 38.6802 L 178 38.7747 L 180 38.8604 L 182 38.9375 L 184 39.006 L 186 39.0661 L 188 39.118 L 190 39.1617 L 192 39.1973 L 194 39.2249 L 196 39.2446 L 198 39.2564 L 200 39.2603 L 202 39.2564 L 204 39.2446 L 206 39.2249 L 208 39.1973 L 210 39.1617 L 212 39.118 L 214 39.0661 L 216 39.006 L 218 38.9375 L 220 38.8604 L 222 38.7747 L 224 38.6802 L 226 38.5768 L 228 38.4642 L 230 38.3423 L 232 38.211 L 234 38.0701 L 236 37.9194 L 238 37.7589 L 240 37.5884 L 242 37.4077 L 244 37.2167 L 246 37.0155 L 248 36.8039 L 250 36.5819 L 252 36.3495 L 254 36.1068 L 256 35.8538 L 258 35.5905 L 260 35.3173 L 262 35.0342 L 264 34.7416 L 266 34.4396 L 268 34.1286 L 270 33.8091 L 272 33.4815 L 274 33.1462 L 276 32.8039 L 278 32.4551 L 280 32.1005 L 282 31.7408 L 284 31.3768 L 286 31.0094 L 288 30.6394 L 290 30.2678 L 292 29.8955 L 294 29.5236 L 296 29.1531 L 298 28.7852 L 300 28.4209 L 302 28.0615 L 304 27.7081 L 306 27.3618 L 308 27.024 L 310 26.6958 L 312 26.3784 L 314 26.0731 L 316 25.7809 L 318 25.5031 L 320 25.2407 L 322 24.9948 L 324 24.7665 L 326 24.5567 L 328 24.3663 L 330 24.1961 L 332 24.0469 L 334 23.9193 L 336 23.814 L 338 23.7314 L 340 23.6718 L 342 23.6356 L 344 23.6229 L 346 23.6337 L 348 23.668 L 350 23.7255 L 352 23.806 L 354 23.9091 L 356 24.0341 L 358 24.1804 L 360 24.3472 L 362 24.5337 L 364 24.7388 L 366 24.9614 L 368 25.2004 L 370 25.4543 L 372 25.722 L 374 26.0018 L 376 26.2924 L 378 26.5921 L 380 26.8994 L 382 27.2125 L 384 27.5298 L 386 27.8497 L 388 28.1704 L 390 28.4903 L 392 28.8076 L 394 29.1209 L 396 29.4284 L 398 29.7286 L 400 30.0202 " fill="none" stroke="black" />
</svg>
