<svg xmlns="http://www.w3.org/2000/svg" version="1.1" width="400" height="250">
<path d="M 100 50 l 12.5 -0 l 0 -12.5 l 0 -12.5 l -12.5 -0 l 0 -12.5 l -12.5 -0 l -12.5 -0 l 0 12.5 l 0 -12.5 l -12.5 -0 l -12.5 -0 l 0 12.5 l -12.5 -0 l 0 12.5 l 0 12.5 l 12.5 -0 l 0 -12.5 l -12.5 -0 l -12.5 -0 l 0 12.5 l -12.5 -0 l 0 12.5 l 0 12.5 l 12.5 -0 l -12.5 -0 l 0 12.5 l 0 12.5 l 12.5 -0 l 0 12.5 l 12.5 -0 l 12.5 -0 l 0 -12.5 l 0 -12.5 l -12.5 -0 l -12.5 -0 l 0 12.5 l -12.5 -0 l 0 12.5 l 0 12.5 l 12.5 -0 l -12.5 -0 l 0 12.5 l 0 12.5 l 12.5 -0 l 0 12.5 l 12.5 -0 l 12.5 -0 l 0 -12.5 l -12.5 -0 l 0 12.5 l 0 12.5 l 12.5 -0 l 0 12.5 l 12.5 -0 l 12.5 -0 l 0 -12.5 l 0 12.5 l 12.5 -0 l 12.5 -0 l 0 -12.5 l 12.5 -0 l 0 -12.5 l 0 -12.5 l -12.5 -0 l 0 -12.5 l -12.5 -0 l -12.5 -0 l 0 12.5 l -12.5 -0 l 0 12.5 l 0 12.5 l 12.5 -0 l -12.5 -0 l 0 12.5 l 0 12.5 l 12.5 -0 l 0 12.5 l 12.5 -0 l 12.5 -0 l 0 -12.5 l -12.5 -0 l 0 12.5 l 0 12.5 l 12.5 -0 l 0 12.5 l 12.5 -0 l 12.5 -0 l 0 -12.5 l 0 12.5 l 12.5 -0 l 12.5 -0 l 0 -12.5 l 12.5 -0 l 0 -12.5 l 0 -12.5 l -12.5 -0 l -12.5 -0 l 0 12.5 l 0 12.5 l 12.5 -0 l 0 12.5 l 12.5 -0 l 12.5 -0 l 0 -12.5 l 0 12.5 l 12.5 -0 l 12.5 -0 l 0 -12.5 l 12.5 -0 l 0 -12.5 l 0 -12.5 l -12.5 -0 l 0 12.5 l 12.5 -0 l 12.5 -0 l 0 -12.5 l 12.5 -0 l 0 -12.5 l 0 -12.5 l -12.5 -0 l 12.5 -0 l 0 -12.5 l 0 -12.5 l -12.5 -0 l 0 -12.5 l -12.5 -0 l -12.5 -0 l 0 12.5 l 0 -12.5 l -12.5 -0 l -12.5 -0 l 0 12.5 l -12.5 -0 l 0 12.5 l 0 12.5 l 12.5 -0 l -12.5 -0 l 0 12.5 l 0 12.5 l 12.5 -0 l 0 12.5 l 12.5 -0 l 12.5 -0 l 0 -12.5 l -12.5 -0 l 0 12.5 l 0 12.5 l 12.5 -0 l 0 12.5 l 12.5 -0 l 12.5 -0 l 0 -12.5 l 0 12.5 l 12.5 -0 l 12.5 -0 l 0 -12.5 l 12.5 -0 l 0 -12.5 l 0 -12.5 l -12.5 -0 l -12.5 -0 l 0 12.5 l 0 12.5 l 12.5 -0 l 0 12.5 l 12.5 -0 l 12.5 -0 l 0 -12.5 l 0 12.5 l 12.5 -0 l 12.5 -0 l 0 -12.5 l 12.5 -0 l 0 -12.5 l 0 -12.5 l -12.5 -0 l 0 12.5 l 12.5 -0 l 12.5 -0 l 0 -12.5 l 12.5 -0 l 0 -12.5 l 0 -12.5 l -12.5 -0 l 12.5 -0 l 0 -12.5 l 0 -12.5 l -12.5 -0 l 0 -12.5 l -12.5 -0 l -12.5 -0 l 0 12.5 l -12.5 -0 l 0 12.5 l 0 12.5 l 12.5 -0 l 0 12.5 l 12.5 -0 l 12.5 -0 l 0 -12.5 l 0 12.5 l 12.5 -0 l 12.5 -0 l 0 -12.5 l 12.5 -0 l 0 -12.5 l 0 -12.5 l -12.5 -0 l 0 12.5 l 12.5 -0 l 12.5 -0 l 0 -12.5 l 12.5 -0 l 0 -12.5 l 0 -12.5 l -12.5 -0 l 12.5 -0 l 0 -12.5 l 0 -12.5 l -12.5 -0 l 0 -12.5 l -12.5 -0 l -12.5 -0 l 0 12.5 l 0 12.5 l 12.5 -0 l 12.5 -0 l 0 -12.5 l 12.5 -0 l 0 -12.5 l 0 -12.5 l -12.5 -0 l 12.5 -0 l 0 -12.5 l 0 -12.5 l -12.5 -0 l 0 -12.5 l -12.5 -0 l -12.5 -0 l 0 12.5 l 12.5 -0 l 0 -12.5 l 0 -12.5 l -12.5 -0 l 0 -12.5 l -12.5 -0 l -12.5 -0 l 0 12.5 l 0 -12.5 l -12.5 -0 l -12.5 -0 l 0 12.5 l -12.5 -0 l 0 12.5 l 0 12.5 l 12.5 -0 " fill="none" stroke="black" />
</svg>
