<svg xmlns="http://www.w3.org/2000/svg" version="1.1" width="400" height="250">
<path d="M 70 90 l 0 -3.125 l 3.125 -0 l 0 3.125 l 3.125 -0 l 0 3.125 l -3.125 -0 l 0 3.125 l 3.125 -0 l 0 3.125 l -3.125 -0 l 0 -3.125 l -3.125 -0 l 0 3.125 l -3.125 -0 l 0 3.125 l 3.125 -0 l 0 3.125 l -3.125 -0 l 0 -3.125 l -3.125 -0 l 0 -3.125 l 3.125 -0 l 0 -3.125 l -3.125 -0 l 0 3.125 l -3.125 -0 l 0 -3.125 l -3.125 -0 l 0 3.125 l -3.125 -0 l 0 3.125 l 3.125 -0 l 0 3.125 l -3.125 -0 l 0 -3.125 l -3.125 -0 l 0 -3.125 l 3.125 -0 l 0 -3.125 l -3.125 -0 l 0 -3.125 l 3.125 -0 l 0 3.125 l 3.125 -0 l 0 -3.125 l 3.125 -0 l 0 -3.125 l -3.125 -0 l 0 3.125 l -3.125 -0 l 0 -3.125 l -3.125 -0 l 0 -3.125 l 3.125 -0 l 0 -3.125 l -3.125 -0 l 0 3.125 l -3.125 -0 l 0 -3.125 l -3.125 -0 l 0 3.125 l -3.125 -0 l 0 3.125 l 3.125 -0 l 0 3.125 l -3.125 -0 l 0 -3.125 l -3.125 -0 l 0 -3.125 l 3.125 -0 l 0 -3.125 l -3.125 -0 l 0 -3.125 l 3.125 -0 l 0 3.125 l 3.125 -0 l 0 -3.125 l 3.125 -0 l 0 -3.125 l -3.125 -0 l 0 -3.125 l 3.125 -0 l 0 3.125 l 3.125 -0 l 0 3.125 l -3.125 -0 l 0 3.125 l 3.125 -0 l 0 -3.125 l 3.125 -0 l 0 3.125 l 3.125 -0 l 0 -3.125 l 3.125 -0 l 0 -3.125 l -3.125 -0 l 0 3.125 l -3.125 -0 l 0 -3.125 l -3.125 -0 l 0 -3.125 l 3.125 -0 l 0 -3.125 l -3.125 -0 l 0 -3.125 l 3.125 -0 l 0 3.125 l 3.125 -0 l 0 -3.125 l 3.125 -0 l 0 -3.125 l -3.125 -0 l 0 3.125 l -3.125 -0 l 0 -3.125 l -3.125 -0 l 0 -3.125 l 3.125 -0 l 0 -3.125 l -3.125 -0 l 0 3.125 l -3.125 -0 l 0 -3.125 l -3.125 -0 l 0 3.125 l -3.125 -0 l 0 3.125 l 3.125 -0 l 0 3.125 l -3.125 -0 l 0 -3.125 l -3.125 -0 l 0 -3.125 l 3.125 -0 l 0 -3.125 l -3.125 -0 l 0 -3.125 l 3.125 -0 l 0 3.125 l 3.125 -0 l 0 -3.125 l 3.125 -0 l 0 -3.125 l -3.125 -0 l 0 -3.125 l 3.125 -0 l 0 3.125 l 3.125 -0 l 0 3.125 l -3.125 -0 l 0 3.125 l 3.125 -0 l 0 -3.125 l 3.125 -0 l 0 3.125 l 3.125 -0 l 0 -3.125 l 3.125 -0 l 0 -3.125 l -3.125 -0 l 0 -3.125 l 3.125 -0 l 0 3.125 l 3.125 -0 l 0 3.125 l -3.125 -0 l 0 3.125 l 3.125 -0 l 0 3.125 l -3.125 -0 l 0 -3.125 l -3.125 -0 l 0 3.125 l -3.125 -0 l 0 3.125 l 3.125 -0 l 0 -3.125 l 3.125 -0 l 0 3.125 l 3.125 -0 l 0 3.125 l -3.125 -0 l 0 3.125 l 3.125 -0 l 0 -3.125 l 3.125 -0 l 0 3.125 l 3.125 -0 l 0 -3.125 l 3.125 -0 l 0 -3.125 l -3.125 -0 l 0 3.125 l -3.125 -0 l 0 -3.125 l -3.125 -0 l 0 -3.125 l 3.125 -0 l 0 -3.125 l -3.125 -0 l 0 -3.125 l 3.125 -0 l 0 3.125 l 3.125 -0 l 0 -3.125 l 3.125 -0 l 0 -3.125 l -3.125 -0 l 0 -3.125 l 3.125 -0 l 0 3.125 l 3.125 -0 l 0 3.125 l -3.125 -0 l 0 3.125 l 3.125 -0 l 0 -3.125 l 3.125 -0 l 0 3.125 l 3.125 -0 l 0 -3.125 l 3.125 -0 l 0 -3.125 l -3.125 -0 l 0 3.125 l -3.125 -0 l 0 -3.125 l -3.125 -0 l 0 -3.125 l 3.125 -0 l 0 -3.125 l -3.125 -0 l 0 -3.125 l 3.125 -0 l 0 3.125 l 3.125 -0 l 0 -3.125 l 3.125 -0 l 0 -3.125 l -3.125 -0 l 0 3.125 l -3.125 -0 l 0 -3.125 l -3.125 -0 l 0 -3.125 l 3.125 -0 l 0 -3.125 l -3.125 -0 l 0 3.125 l -3.125 -0 l 0 -3.125 l -3.125 -0 l 0 3.125 l -3.125 -0 l 0 3.125 l 3.125 -0 l 0 3.125 l -3.125 -0 l 0 -3.125 l -3.125 -0 l 0 -3.125 l 3.125 -0 l 0 -3.125 l -3.125 -0 l 0 -3.125 l 3.125 -0 l 0 3.125 l 3.125 -0 l 0 -3.125 l 3.125 -0 l 0 -3.125 l -3.125 -0 l 0 -3.125 l 3.125 -0 l 0 3.125 l 3.125 -0 l 0 3.125 l -3.125 -0 l 0 3.125 l 3.125 -0 l 0 -3.125 l 3.125 -0 l 0 3.125 l 3.125 -0 l 0 -3.125 l 3.125 -0 l 0 -3.125 l -3.125 -0 l 0 -3.125 l 3.125 -0 l 0 3.125 l 3.125 -0 l 0 3.125 l -3.125 -0 l 0 3.125 l 3.125 -0 l 0 3.125 l -3.125 -0 l 0 -3.125 l -3.125 -0 l 0 3.125 l -3.125 -0 l 0 3.125 l 3.125 -0 l 0 -3.125 l 3.125 -0 l 0 3.125 l 3.125 -0 l 0 3.125 l -3.125 -0 l 0 3.125 l 3.125 -0 l 0 -3.125 l 3.125 -0 l 0 3.125 l 3.125 -0 l 0 -3.125 l 3.125 -0 l 0 -3.125 l -3.125 -0 l 0 -3.125 l 3.125 -0 l 0 3.125 l 3.125 -0 l 0 3.125 l -3.125 -0 l 0 3.125 l 3.125 -0 l 0 3.125 l -3.125 -0 l 0 -3.125 l -3.125 -0 l 0 3.125 l -3.125 -0 l 0 3.125 l 3.125 -0 l 0 3.125 l -3.125 -0 l 0 -3.125 l -3.125 -0 l 0 -3.125 l 3.125 -0 l 0 -3.125 l -3.125 -0 l 0 3.125 l -3.125 -0 l 0 -3.125 l -3.125 -0 l 0 3.125 l -3.125 -0 l 0 3.125 l 3.125 -0 l 0 -3.125 l 3.125 -0 l 0 3.125 l 3.125 -0 l 0 3.125 l -3.125 -0 l 0 3.125 l 3.125 -0 l 0 3.125 l -3.125 -0 l 0 -3.125 l -3.125 -0 l 0 3.125 l -3.125 -0 l 0 3.125 l 3.125 -0 l 0 -3.125 l 3.125 -0 l 0 3.125 l 3.125 -0 l 0 3.125 l -3.125 -0 l 0 3.125 l 3.125 -0 l 0 -3.125 l 3.125 -0 l 0 3.125 l 3.125 -0 l 0 -3.125 l 3.125 -0 l 0 -3.125 l -3.125 -0 l 0 3.125 l -3.125 -0 l 0 -3.125 l -3.125 -0 l 0 -3.125 l 3.125 -0 l 0 -3.125 l -3.125 -0 l 0 -3.125 l 3.125 -0 l 0 3.125 l 3.125 -0 l 0 -3.125 l 3.125 -0 l 0 -3.125 l -3.125 -0 l 0 -3.125 l 3.125 -0 l 0 3.125 l 3.125 -0 l 0 3.125 l -3.125 -0 l 0 3.125 l 3.125 -0 l 0 -3.125 l 3.125 -0 l 0 3.125 l 3.125 -0 l 0 -3.125 l 3.125 -0 l 0 -3.125 l -3.125 -0 l 0 -3.125 l 3.125 -0 l 0 3.125 l 3.125 -0 l 0 3.125 l -3.125 -0 l 0 3.125 l 3.125 -0 l 0 3.125 l -3.125 -0 l 0 -3.125 l -3.125 -0 l 0 3.125 l -3.125 -0 l 0 3.125 l 3.125 -0 l 0 -3.125 l 3.125 -0 l 0 3.125 l 3.125 -0 l 0 3.125 l -3.125 -0 l 0 3.125 l 3.125 -0 l 0 -3.125 l 3.125 -0 l 0 3.125 l 3.125 -0 l 0 -3.125 l 3.125 -0 l 0 -3.125 l -3.125 -0 l 0 3.125 l -3.125 -0 l 0 -3.125 l -3.125 -0 l 0 -3.125 l 3.125 -0 l 0 -3.125 l -3.125 -0 l 0 -3.125 l 3.125 -0 l 0 3.125 l 3.125 -0 l 0 -3.125 l 3.125 -0 l 0 -3.125 l -3.125 -0 l 0 -3.125 l 3.125 -0 l 0 3.125 l 3.125 -0 l 0 3.125 l -3.125 -0 l 0 3.125 l 3.125 -0 l 0 -3.125 l 3.125 -0 l 0 3.125 l 3.125 -0 l 0 -3.125 l 3.125 -0 l 0 -3.125 l -3.125 -0 l 0 3.125 l -3.125 -0 l 0 -3.125 l -3.125 -0 l 0 -3.125 l 3.125 -0 l 0 -3.125 l -3.125 -0 l 0 -3.125 l 3.125 -0 l 0 3.125 l 3.125 -0 l 0 -3.125 l 3.125 -0 l 0 -3.125 l -3.125 -0 l 0 3.125 l -3.125 -0 l 0 -3.125 l -3.125 -0 l 0 -3.125 l 3.125 -0 l 0 -3.125 l -3.125 -0 l 0 3.125 l -3.125 -0 l 0 -3.125 l -3.125 -0 l 0 3.125 l -3.125 -0 l 0 3.125 l 3.125 -0 l 0 3.125 l -3.125 -0 l 0 -3.125 l -3.125 -0 l 0 -3.125 l 3.125 -0 l 0 -3.125 l -3.125 -0 l 0 -3.125 l 3.125 -0 l 0 3.125 l 3.125 -0 l 0 -3.125 l 3.125 -0 l 0 -3.125 l -3.125 -0 l 0 -3.125 l 3.125 -0 l 0 3.125 l 3.125 -0 l 0 3.125 l -3.125 -0 l 0 3.125 l 3.125 -0 l 0 -3.125 l 3.125 -0 l 0 3.125 l 3.125 -0 l 0 -3.125 l 3.125 -0 l 0 -3.125 l -3.125 -0 l 0 -3.125 l 3.125 -0 l 0 3.125 l 3.125 -0 l 0 3.125 l -3.125 -0 l 0 3.125 l 3.125 -0 l 0 3.125 l -3.125 -0 l 0 -3.125 l -3.125 -0 l 0 3.125 l -3.125 -0 l 0 3.125 l 3.125 -0 l 0 -3.125 l 3.125 -0 l 0 3.125 l 3.125 -0 l 0 3.125 l -3.125 -0 l 0 3.125 l 3.125 -0 l 0 -3.125 l 3.125 -0 l 0 3.125 l 3.125 -0 l 0 -3.125 l 3.125 -0 l 0 -3.125 l -3.125 -0 l 0 -3.125 l 3.125 -0 l 0 3.125 l 3.125 -0 l 0 3.125 l -3.125 -0 l 0 3.125 l 3.125 -0 l 0 3.125 l -3.125 -0 l 0 -3.125 l -3.125 -0 l 0 3.125 l -3.125 -0 l 0 3.125 l 3.125 -0 l 0 3.125 l -3.125 -0 l 0 -3.125 l -3.125 -0 l 0 -3.125 l 3.125 -0 l 0 -3.125 l -3.125 -0 l 0 3.125 l -3.125 -0 l 0 -3.125 l -3.125 -0 l 0 3.125 l -3.125 -0 l 0 3.125 l 3.125 -0 l 0 -3.125 l 3.125 -0 l 0 3.125 l 3.125 -0 l 0 3.125 l -3.125 -0 l 0 3.125 l 3.125 -0 l 0 3.125 l -3.125 -0 l 0 -3.125 l -3.125 -0 l 0 3.125 l -3.125 -0 l 0 3.125 l 3.125 -0 l 0 -3.125 l 3.125 -0 l 0 3.125 l 3.125 -0 l 0 3.125 l -3.125 -0 l 0 3.125 l 3.125 -0 l 0 -3.125 l 3.125 -0 l 0 3.125 l 3.125 -0 l 0 -3.125 l 3.125 -0 l 0 -3.125 l -3.125 -0 l 0 -3.125 l 3.125 -0 l 0 3.125 l 3.125 -0 l 0 3.125 l -3.125 -0 l 0 3.125 l 3.125 -0 l 0 3.125 l -3.125 -0 l 0 -3.125 l -3.125 -0 l 0 3.125 l -3.125 -0 l 0 3.125 l 3.125 -0 l 0 3.125 l -3.125 -0 l 0 -3.125 l -3.125 -0 l 0 -3.125 l 3.125 -0 l 0 -3.125 l -3.125 -0 l 0 3.125 l -3.125 -0 l 0 -3.125 l -3.125 -0 l 0 3.125 l -3.125 -0 l 0 3.125 l 3.125 -0 l 0 3.125 l -3.125 -0 l 0 -3.125 l -3.125 -0 l 0 -3.125 l 3.125 -0 l 0 -3.125 l -3.125 -0 l 0 -3.125 l 3.125 -0 l 0 3.125 l 3.125 -0 l 0 -3.125 l 3.125 -0 l 0 -3.125 l -3.125 -0 l 0 3.125 l -3.125 -0 l 0 -3.125 l -3.125 -0 l 0 -3.125 l 3.125 -0 l 0 -3.125 l -3.125 -0 l 0 3.125 l -3.125 -0 l 0 -3.125 l -3.125 -0 l 0 3.125 l -3.125 -0 l 0 3.125 l 3.125 -0 l 0 -3.125 l 3.125 -0 l 0 3.125 l 3.125 -0 l 0 3.125 l -3.125 -0 l 0 3.125 l 3.125 -0 l 0 3.125 l -3.125 -0 l 0 -3.125 l -3.125 -0 l 0 3.125 l -3.125 -0 l 0 3.125 l 3.125 -0 l 0 3.125 l -3.125 -0 l 0 -3.125 l -3.125 -0 l 0 -3.125 l 3.125 -0 l 0 -3.125 l -3.125 -0 l 0 3.125 l -3.125 -0 l 0 -3.125 l -3.125 -0 l 0 3.125 l -3.125 -0 l 0 3.125 l 3.125 -0 l 0 -3.125 l 3.125 -0 l 0 3.125 l 3.125 -0 l 0 3.125 l -3.125 -0 l 0 3.125 l 3.125 -0 l 0 3.125 l -3.125 -0 l 0 -3.125 l -3.125 -0 l 0 3.125 l -3.125 -0 l 0 3.125 l 3.125 -0 l 0 -3.125 l 3.125 -0 l 0 3.125 l 3.125 -0 l 0 3.125 l -3.125 -0 l 0 3.125 l 3.125 -0 l 0 -3.125 l 3.125 -0 l 0 3.125 l 3.125 -0 l 0 -3.125 l 3.125 -0 l 0 -3.125 l -3.125 -0 l 0 3.125 l -3.125 -0 l 0 -3.125 l -3.125 -0 l 0 -3.125 l 3.125 -0 l 0 -3.125 l -3.125 -0 l 0 -3.125 l 3.125 -0 l 0 3.125 l 3.125 -0 l 0 -3.125 l 3.125 -0 l 0 -3.125 l -3.125 -0 l 0 -3.125 l 3.125 -0 l 0 3.125 l 3.125 -0 l 0 3.125 l -3.125 -0 l 0 3.125 l 3.125 -0 l 0 -3.125 l 3.125 -0 l 0 3.125 l 3.125 -0 l 0 -3.125 l 3.125 -0 l 0 -3.125 l -3.125 -0 l 0 -3.125 l 3.125 -0 l 0 3.125 l 3.125 -0 l 0 3.125 l -3.125 -0 l 0 3.125 l 3.125 -0 l 0 3.125 l -3.125 -0 l 0 -3.125 l -3.125 -0 l 0 3.125 l -3.125 -0 l 0 3.125 l 3.125 -0 l 0 -3.125 l 3.125 -0 l 0 3.125 l 3.125 -0 l 0 3.125 l -3.125 -0 l 0 3.125 l 3.125 -0 l 0 -3.125 l 3.125 -0 l 0 3.125 l 3.125 -0 l 0 -3.125 l 3.125 -0 l 0 -3.125 l -3.125 -0 l 0 -3.125 l 3.125 -0 l 0 3.125 l 3.125 -0 l 0 3.125 l -3.125 -0 l 0 3.125 l 3.125 -0 l 0 3.125 l -3.125 -0 l 0 -3.125 l -3.125 -0 l 0 3.125 l -3.125 -0 l 0 3.125 l 3.125 -0 l 0 3.125 l -3.125 -0 l 0 -3.125 l -3.125 -0 l 0 -3.125 l 3.125 -0 l 0 -3.125 l -3.125 -0 l 0 3.125 l -3.125 -0 l 0 -3.125 l -3.125 -0 l 0 3.125 l -3.125 -0 l 0 3.125 l 3.125 -0 l 0 -3.125 l 3.125 -0 l 0 3.125 l 3.125 -0 l 0 3.125 l -3.125 -0 l 0 3.125 l 3.125 -0 l 0 3.125 l -3.125 -0 l 0 -3.125 l -3.125 -0 l 0 3.125 l -3.125 -0 l 0 3.125 l 3.125 -0 l 0 -3.125 l 3.125 -0 l 0 3.125 l 3.125 -0 l 0 3.125 l -3.125 -0 l 0 3.125 l 3.125 -0 l 0 -3.125 l 3.125 -0 l 0 3.125 l 3.125 -0 l 0 -3.125 l 3.125 -0 l 0 -3.125 l -3.125 -0 l 0 3.125 l -3.125 -0 l 0 -3.125 l -3.125 -0 l 0 -3.125 l 3.125 -0 l 0 -3.125 l -3.125 -0 l 0 -3.125 l 3.125 -0 l 0 3.125 l 3.125 -0 l 0 -3.125 l 3.125 -0 l 0 -3.125 l -3.125 -0 l 0 -3.125 l 3.125 -0 l 0 3.125 l 3.125 -0 l 0 3.125 l -3.125 -0 l 0 3.125 l 3.125 -0 l 0 -3.125 l 3.125 -0 l 0 3.125 l 3.125 -0 l 0 -3.125 l 3.125 -0 l 0 -3.125 l -3.125 -0 l 0 -3.125 l 3.125 -0 l 0 3.125 l 3.125 -0 l 0 3.125 l -3.125 -0 l 0 3.125 l 3.125 -0 l 0 3.125 l -3.125 -0 l 0 -3.125 l -3.125 -0 l 0 3.125 l -3.125 -0 l 0 3.125 l 3.125 -0 l 0 -3.125 l 3.125 -0 l 0 3.125 l 3.125 -0 l 0 3.125 l -3.125 -0 l 0 3.125 l 3.125 -0 l 0 -3.125 l 3.125 -0 l 0 3.125 l 3.125 -0 l 0 -3.125 l 3.125 -0 l 0 -3.125 l -3.125 -0 l 0 3.125 l -3.125 -0 l 0 -3.125 l -3.125 -0 l 0 -3.125 l 3.125 -0 l 0 -3.125 l -3.125 -0 l 0 -3.125 l 3.125 -0 l 0 3.125 l 3.125 -0 l 0 -3.125 l 3.125 -0 l 0 -3.125 l -3.125 -0 l 0 -3.125 l 3.125 -0 l 0 3.125 l 3.125 -0 l 0 3.125 l -3.125 -0 l 0 3.125 l 3.125 -0 l 0 -3.125 l 3.125 -0 l 0 3.125 l 3.125 -0 l 0 -3.125 l 3.125 -0 l 0 -3.125 l -3.125 -0 l 0 3.125 l -3.125 -0 l 0 -3.125 l -3.125 -0 l 0 -3.125 l 3.125 -0 l 0 -3.125 l -3.125 -0 l 0 -3.125 l 3.125 -0 l 0 3.125 l 3.125 -0 l 0 -3.125 l 3.125 -0 l 0 -3.125 l -3.125 -0 l 0 3.125 l -3.125 -0 l 0 -3.125 l -3.125 -0 l 0 -3.125 l 3.125 -0 l 0 -3.125 l -3.125 -0 l 0 3.125 l -3.125 -0 l 0 -3.125 l -3.125 -0 l 0 3.125 l -3.125 -0 l 0 3.125 l 3.125 -0 l 0 3.125 l -3.125 -0 l 0 -3.125 l -3.125 -0 l 0 -3.125 l 3.125 -0 l 0 -3.125 l -3.125 -0 l 0 -3.125 l 3.125 -0 l 0 3.125 l 3.125 -0 l 0 -3.125 l 3.125 -0 l 0 -3.125 l -3.125 -0 l 0 -3.125 l 3.125 -0 l 0 3.125 l 3.125 -0 l 0 3.125 l -3.125 -0 l 0 3.125 l 3.125 -0 l 0 -3.125 l 3.125 -0 l 0 3.125 l 3.125 -0 l 0 -3.125 l 3.125 -0 l 0 -3.125 l -3.125 -0 l 0 -3.125 l 3.125 -0 l 0 3.125 l 3.125 -0 l 0 3.125 l -3.125 -0 l 0 3.125 l 3.125 -0 l 0 3.125 l -3.125 -0 l 0 -3.125 l -3.125 -0 l 0 3.125 l -3.125 -0 l 0 3.125 l 3.125 -0 l 0 -3.125 l 3.125 -0 l 0 3.125 l 3.125 -0 l 0 3.125 l -3.125 -0 l 0 3.125 l 3.125 -0 l 0 -3.125 l 3.125 -0 l 0 3.125 l 3.125 -0 l 0 -3.125 l 3.125 -0 l 0 -3.125 l -3.125 -0 l 0 -3.125 l 3.125 -0 l 0 3.125 l 3.125 -0 l 0 3.125 l -3.125 -0 l 0 3.125 l 3.125 -0 l 0 3.125 l -3.125 -0 l 0 -3.125 l -3.125 -0 l 0 3.125 l -3.125 -0 l 0 3.125 l 3.125 -0 l 0 3.125 l -3.125 -0 l 0 -3.125 l -3.125 -0 l 0 -3.125 l 3.125 -0 l 0 -3.125 l -3.125 -0 l 0 3.125 l -3.125 -0 l 0 -3.125 l -3.125 -0 l 0 3.125 l -3.125 -0 l 0 3.125 l 3.125 -0 l 0 -3.125 l 3.125 -0 l 0 3.125 l 3.125 -0 l 0 3.125 l -3.125 -0 l 0 3.125 l 3.125 -0 l 0 3.125 l -3.125 -0 l 0 -3.125 l -3.125 -0 l 0 3.125 l -3.125 -0 l 0 3.125 l 3.125 -0 l 0 -3.125 l 3.125 -0 l 0 3.125 l 3.125 -0 l 0 3.125 l -3.125 -0 l 0 3.125 l 3.125 -0 l 0 -3.125 l 3.125 -0 l 0 3.125 l 3.125 -0 l 0 -3.125 l 3.125 -0 l 0 -3.125 l -3.125 -0 l 0 -3.125 l 3.125 -0 l 0 3.125 l 3.125 -0 l 0 3.125 l -3.125 -0 l 0 3.125 l 3.125 -0 l 0 3.125 l -3.125 -0 l 0 -3.125 l -3.125 -0 l 0 3.125 l -3.125 -0 l 0 3.125 l 3.125 -0 l 0 3.125 l -3.125 -0 l 0 -3.125 l -3.125 -0 l 0 -3.125 l 3.125 -0 l 0 -3.125 l -3.125 -0 l 0 3.125 l -3.125 -0 l 0 -3.125 l -3.125 -0 l 0 3.125 l -3.125 -0 l 0 3.125 l 3.125 -0 l 0 3.125 l -3.125 -0 l 0 -3.125 l -3.125 -0 l 0 -3.125 l 3.125 -0 l 0 -3.125 l -3.125 -0 l 0 -3.125 l 3.125 -0 l 0 3.125 l 3.125 -0 l 0 -3.125 l 3.125 -0 l 0 -3.125 l -3.125 -0 l 0 3.125 l -3.125 -0 l 0 -3.125 l -3.125 -0 l 0 -3.125 l 3.125 -0 l 0 -3.125 l -3.125 -0 l 0 3.125 l -3.125 -0 l 0 -3.125 l -3.125 -0 l 0 3.125 l -3.125 -0 l 0 3.125 l 3.125 -0 l 0 -3.125 l 3.125 -0 l 0 3.125 l 3.125 -0 l 0 3.125 l -3.125 -0 l 0 3.125 l 3.125 -0 l 0 3.125 l -3.125 -0 l 0 -3.125 l -3.125 -0 l 0 3.125 l -3.125 -0 l 0 3.125 l 3.125 -0 l 0 3.125 l -3.125 -0 l 0 -3.125 l -3.125 -0 l 0 -3.125 l 3.125 -0 l 0 -3.125 l -3.125 -0 l 0 3.125 l -3.125 -0 l 0 -3.125 l -3.125 -0 l 0 3.125 l -3.125 -0 l 0 3.125 l 3.125 -0 l 0 -3.125 l 3.125 -0 l 0 3.125 l 3.125 -0 l 0 3.125 l -3.125 -0 l 0 3.125 l 3.125 -0 l 0 3.125 l -3.125 -0 l 0 -3.125 l -3.125 -0 l 0 3.125 l -3.125 -0 l 0 3.125 l 3.125 -0 l 0 -3.125 l 3.125 -0 l 0 3.125 l 3.125 -0 l 0 3.125 l -3.125 -0 l 0 3.125 l 3.125 -0 l 0 -3.125 l 3.125 -0 l 0 3.125 l 3.125 -0 l 0 -3.125 l 3.125 -0 l 0 -3.125 l -3.125 -0 l 0 -3.125 l 3.125 -0 l 0 3.125 l 3.125 -0 l 0 3.125 l -3.125 -0 l 0 3.125 l 3.125 -0 l 0 3.125 l -3.125 -0 l 0 -3.125 l -3.125 -0 l 0 3.125 l -3.125 -0 l 0 3.125 l 3.125 -0 l 0 3.125 l -3.125 -0 l 0 -3.125 l -3.125 -0 l 0 -3.125 l 3.125 -0 l 0 -3.125 l -3.125 -0 l 0 3.125 l -3.125 -0 l 0 -3.125 l -3.125 -0 l 0 3.125 l -3.125 -0 l 0 3.125 l 3.125 -0 l 0 3.125 l -3.125 -0 l 0 -3.125 l -3.125 -0 l 0 -3.125 l 3.125 -0 l 0 -3.125 l -3.125 -0 l 0 -3.125 l 3.125 -0 l 0 3.125 l 3.125 -0 l 0 -3.125 l 3.125 -0 l 0 -3.125 l -3.125 -0 l 0 3.125 l -3.125 -0 l 0 -3.125 l -3.125 -0 l 0 -3.125 l 3.125 -0 l 0 -3.125 l -3.125 -0 l 0 3.125 l -3.125 -0 l 0 -3.125 l -3.125 -0 l 0 3.125 l -3.125 -0 l 0 3.125 l 3.125 -0 l 0 3.125 l -3.125 -0 l 0 -3.125 l -3.125 -0 l 0 -3.125 l 3.125 -0 l 0 -3.125 l -3.125 -0 l 0 -3.125 l 3.125 -0 l 0 3.125 l 3.125 -0 l 0 -3.125 l 3.125 -0 l 0 -3.125 l -3.125 -0 l 0 -3.125 l 3.125 -0 l 0 3.125 l 3.125 -0 l 0 3.125 l -3.125 -0 l 0 3.125 l 3.125 -0 l 0 -3.125 l 3.125 -0 l 0 3.125 l 3.125 -0 l 0 -3.125 l 3.125 -0 l 0 -3.125 l -3.125 -0 l 0 3.125 l -3.125 -0 l 0 -3.125 l -3.125 -0 l 0 -3.125 l 3.125 -0 l 0 -3.125 l -3.125 -0 l 0 -3.125 l 3.125 -0 l 0 3.125 l 3.125 -0 l 0 -3.125 l 3.125 -0 l 0 -3.125 l -3.125 -0 l 0 3.125 l -3.125 -0 l 0 -3.125 l -3.125 -0 l 0 -3.125 l 3.125 -0 l 0 -3.125 l -3.125 -0 l 0 3.125 l -3.125 -0 l 0 -3.125 l -3.125 -0 l 0 3.125 l -3.125 -0 l 0 3.125 l 3.125 -0 l 0 -3.125 l 3.125 -0 l 0 3.125 l 3.125 -0 l 0 3.125 l -3.125 -0 l 0 3.125 l 3.125 -0 l 0 3.125 l -3.125 -0 l 0 -3.125 l -3.125 -0 l 0 3.125 l -3.125 -0 l 0 3.125 l 3.125 -0 l 0 3.125 l -3.125 -0 l 0 -3.125 l -3.125 -0 l 0 -3.125 l 3.125 -0 l 0 -3.125 l -3.125 -0 l 0 3.125 l -3.125 -0 l 0 -3.125 l -3.125 -0 l 0 3.125 l -3.125 -0 l 0 3.125 l 3.125 -0 l 0 3.125 l -3.125 -0 l 0 -3.125 l -3.125 -0 l 0 -3.125 l 3.125 -0 l 0 -3.125 l -3.125 -0 l 0 -3.125 l 3.125 -0 l 0 3.125 l 3.125 -0 l 0 -3.125 l 3.125 -0 l 0 -3.125 l -3.125 -0 l 0 3.125 l -3.125 -0 l 0 -3.125 l -3.125 -0 l 0 -3.125 l 3.125 -0 l 0 -3.125 l -3.125 -0 l 0 3.125 l -3.125 -0 l 0 -3.125 l -3.125 -0 l 0 3.125 l -3.125 -0 l 0 3.125 l 3.125 -0 l 0 -3.125 l 3.125 -0 l 0 3.125 l 3.125 -0 l 0 3.125 l -3.125 -0 l 0 3.125 l 3.125 -0 l 0 3.125 l -3.125 -0 l 0 -3.125 l -3.125 -0 l 0 3.125 l -3.125 -0 l 0 3.125 l 3.125 -0 l 0 3.125 l -3.125 -0 l 0 -3.125 l -3.125 -0 l 0 -3.125 l 3.125 -0 l 0 -3.125 l -3.125 -0 l 0 3.125 l -3.125 -0 l 0 -3.125 l -3.125 -0 l 0 3.125 l -3.125 -0 l 0 3.125 l 3.125 -0 l 0 -3.125 l 3.125 -0 l 0 3.125 l 3.125 -0 l 0 3.125 l -3.125 -0 l 0 3.125 l 3.125 -0 l 0 3.125 l -3.125 -0 l 0 -3.125 l -3.125 -0 l 0 3.125 l -3.125 -0 l 0 3.125 l 3.125 -0 l 0 -3.125 l 3.125 -0 l 0 3.125 l 3.125 -0 l 0 3.125 l -3.125 -0 l 0 3.125 l 3.125 -0 l 0 -3.125 l 3.125 -0 l 0 3.125 l 3.125 -0 l 0 -3.125 l 3.125 -0 l 0 -3.125 l -3.125 -0 l 0 3.125 l -3.125 -0 l 0 -3.125 l -3.125 -0 l 0 -3.125 l 3.125 -0 l 0 -3.125 l -3.125 -0 l 0 -3.125 l 3.125 -0 l 0 3.125 l 3.125 -0 l 0 -3.125 l 3.125 -0 l 0 -3.125 l -3.125 -0 l 0 -3.125 l 3.125 -0 l 0 3.125 l 3.125 -0 l 0 3.125 l -3.125 -0 l 0 3.125 l 3.125 -0 l 0 -3.125 l 3.125 -0 l 0 3.125 l 3.125 -0 l 0 -3.125 l 3.125 -0 l 0 -3.125 l -3.125 -0 l 0 -3.125 l 3.125 -0 l 0 3.125 l 3.125 -0 l 0 3.125 l -3.125 -0 l 0 3.125 l 3.125 -0 l 0 3.125 l -3.125 -0 l 0 -3.125 l -3.125 -0 l 0 3.125 l -3.125 -0 l 0 3.125 l 3.125 -0 l 0 -3.125 l 3.125 -0 l 0 3.125 l 3.125 -0 l 0 3.125 l -3.125 -0 l 0 3.125 l 3.125 -0 l 0 -3.125 l 3.125 -0 l 0 3.125 l 3.125 -0 l 0 -3.125 l 3.125 -0 l 0 -3.125 l -3.125 -0 l 0 -3.125 l 3.125 -0 l 0 3.125 l 3.125 -0 l 0 3.125 l -3.125 -0 l 0 3.125 l 3.125 -0 l 0 3.125 l -3.125 -0 l 0 -3.125 l -3.125 -0 l 0 3.125 l -3.125 -0 l 0 3.125 l 3.125 -0 l 0 3.125 l -3.125 -0 l 0 -3.125 l -3.125 -0 l 0 -3.125 l 3.125 -0 l 0 -3.125 l -3.125 -0 l 0 3.125 l -3.125 -0 l 0 -3.125 l -3.125 -0 l 0 3.125 l -3.125 -0 l 0 3.125 l 3.125 -0 l 0 -3.125 l 3.125 -0 l 0 3.125 l 3.125 -0 l 0 3.125 l -3.125 -0 l 0 3.125 l 3.125 -0 l 0 3.125 l -3.125 -0 l 0 -3.125 l -3.125 -0 l 0 3.125 l -3.125 -0 l 0 3.125 l 3.125 -0 l 0 -3.125 l 3.125 -0 l 0 3.125 l 3.125 -0 l 0 3.125 l -3.125 -0 l 0 3.125 l 3.125 -0 l 0 -3.125 l 3.125 -0 l 0 3.125 l 3.125 -0 l 0 -3.125 l 3.125 -0 l 0 -3.125 l -3.125 -0 l 0 -3.125 l 3.125 -0 l 0 3.125 l 3.125 -0 l 0 3.125 l -3.125 -0 l 0 3.125 l 3.125 -0 l 0 3.125 l -3.125 -0 l 0 -3.125 l -3.125 -0 l 0 3.125 l -3.125 -0 l 0 3.125 l 3.125 -0 l 0 3.125 l -3.125 -0 l 0 -3.125 l -3.125 -0 l 0 -3.125 l 3.125 -0 l 0 -3.125 l -3.125 -0 l 0 3.125 l -3.125 -0 l 0 -3.125 l -3.125 -0 l 0 3.125 l -3.125 -0 l 0 3.125 l 3.125 -0 l 0 3.125 l -3.125 -0 l 0 -3.125 l -3.125 -0 l 0 -3.125 l 3.125 -0 l 0 -3.125 l -3.125 -0 l 0 -3.125 l 3.125 -0 l 0 3.125 l 3.125 -0 l 0 -3.125 l 3.125 -0 l 0 -3.125 l -3.125 -0 l 0 3.125 l -3.125 -0 l 0 -3.125 l -3.125 -0 l 0 -3.125 l 3.125 -0 l 0 -3.125 l -3.125 -0 l 0 3.125 l -3.125 -0 l 0 -3.125 l -3.125 -0 l 0 3.125 l -3.125 -0 l 0 3.125 l 3.125 -0 l 0 -3.125 l 3.125 -0 l 0 3.125 l 3.125 -0 l 0 3.125 l -3.125 -0 l 0 3.125 l 3.125 -0 l 0 3.125 l -3.125 -0 l 0 -3.125 l -3.125 -0 l 0 3.125 l -3.125 -0 l 0 3.125 l 3.125 -0 l 0 3.125 l -3.125 -0 l 0 -3.125 l -3.125 -0 l 0 -3.125 l 3.125 -0 l 0 -3.125 l -3.125 -0 l 0 3.125 l -3.125 -0 l 0 -3.125 l -3.125 -0 l 0 3.125 l -3.125 -0 l 0 3.125 l 3.125 -0 l 0 -3.125 l 3.125 -0 l 0 3.125 l 3.125 -0 l 0 3.125 l -3.125 -0 l 0 3.125 l 3.125 -0 l 0 3.125 l -3.125 -0 l 0 -3.125 l -3.125 -0 l 0 3.125 l -3.125 -0 l 0 3.125 l 3.125 -0 l 0 -3.125 l 3.125 -0 l 0 3.125 l 3.125 -0 l 0 3.125 l -3.125 -0 l 0 3.125 l 3.125 -0 l 0 -3.125 l 3.125 -0 l 0 3.125 l 3.125 -0 l 0 -3.125 l 3.125 -0 l 0 -3.125 l -3.125 -0 l 0 3.125 l -3.125 -0 l 0 -3.125 l -3.125 -0 l 0 -3.125 l 3.125 -0 l 0 -3.125 l -3.125 -0 l 0 -3.125 l 3.125 -0 l 0 3.125 l 3.125 -0 l 0 -3.125 l 3.125 -0 l 0 -3.125 l -3.125 -0 l 0 -3.125 l 3.125 -0 l 0 3.125 l 3.125 -0 l 0 3.125 l -3.125 -0 l 0 3.125 l 3.125 -0 l 0 -3.125 l 3.125 -0 l 0 3.125 l 3.125 -0 l 0 -3.125 l 3.125 -0 l 0 -3.125 l -3.125 -0 l 0 -3.125 l 3.125 -0 l 0 3.125 l 3.125 -0 l 0 3.125 l -3.125 -0 l 0 3.125 l 3.125 -0 l 0 3.125 l -3.125 -0 l 0 -3.125 l -3.125 -0 l 0 3.125 l -3.125 -0 l 0 3.125 l 3.125 -0 l 0 -3.125 l 3.125 -0 l 0 3.125 l 3.125 -0 l 0 3.125 l -3.125 -0 l 0 3.125 l 3.125 -0 l 0 -3.125 l 3.125 -0 l 0 3.125 l 3.125 -0 l 0 -3.125 l 3.125 -0 l 0 -3.125 l -3.125 -0 l 0 -3.125 l 3.125 -0 l 0 3.125 l 3.125 -0 l 0 3.125 l -3.125 -0 l 0 3.125 l 3.125 -0 l 0 3.125 l -3.125 -0 l 0 -3.125 l -3.125 -0 l 0 3.125 l -3.125 -0 l 0 3.125 l 3.125 -0 l 0 3.125 l -3.125 -0 l 0 -3.125 l -3.125 -0 l 0 -3.125 l 3.125 -0 l 0 -3.125 l -3.125 -0 l 0 3.125 l -3.125 -0 l 0 -3.125 l -3.125 -0 l 0 3.125 l -3.125 -0 l 0 3.125 l 3.125 -0 l 0 -3.125 l 3.125 -0 l 0 3.125 l 3.125 -0 l 0 3.125 l -3.125 -0 l 0 3.125 l 3.125 -0 l 0 3.125 l -3.125 -0 l 0 -3.125 l -3.125 -0 l 0 3.125 l -3.125 -0 l 0 3.125 l 3.125 -0 l 0 -3.125 l 3.125 -0 l 0 3.125 l 3.125 -0 l 0 3.125 l -3.125 -0 l 0 3.125 l 3.125 -0 l 0 -3.125 l 3.125 -0 l 0 3.125 l 3.125 -0 l 0 -3.125 l 3.125 -0 l 0 -3.125 l -3.125 -0 l 0 3.125 l -3.125 -0 l 0 -3.125 l -3.125 -0 l 0 -3.125 l 3.125 -0 l 0 -3.125 l -3.125 -0 l 0 -3.125 l 3.125 -0 l 0 3.125 l 3.125 -0 l 0 -3.125 l 3.125 -0 l 0 -3.125 l -3.125 -0 l 0 -3.125 l 3.125 -0 l 0 3.125 l 3.125 -0 l 0 3.125 l -3.125 -0 l 0 3.125 l 3.125 -0 l 0 -3.125 l 3.125 -0 l 0 3.125 l 3.125 -0 l 0 -3.125 l 3.125 -0 l 0 -3.125 l -3.125 -0 l 0 -3.125 l 3.125 -0 l 0 3.125 l 3.125 -0 l 0 3.125 l -3.125 -0 l 0 3.125 l 3.125 -0 l 0 3.125 l -3.125 -0 l 0 -3.125 l -3.125 -0 l 0 3.125 l -3.125 -0 l 0 3.125 l 3.125 -0 l 0 -3.125 l 3.125 -0 l 0 3.125 l 3.125 -0 l 0 3.125 l -3.125 -0 l 0 3.125 l 3.125 -0 l 0 -3.125 l 3.125 -0 l 0 3.125 l 3.125 -0 l 0 -3.125 l 3.125 -0 l 0 -3.125 l -3.125 -0 l 0 3.125 l -3.125 -0 l 0 -3.125 l -3.125 -0 l 0 -3.125 l 3.125 -0 l 0 -3.125 l -3.125 -0 l 0 -3.125 l 3.125 -0 l 0 3.125 l 3.125 -0 l 0 -3.125 l 3.125 -0 l 0 -3.125 l -3.125 -0 l 0 -3.125 l 3.125 -0 l 0 3.125 l 3.125 -0 l 0 3.125 l -3.125 -0 l 0 3.125 l 3.125 -0 l 0 -3.125 l 3.125 -0 l 0 3.125 l 3.125 -0 l 0 -3.125 l 3.125 -0 l 0 -3.125 l -3.125 -0 l 0 3.125 l -3.125 -0 l 0 -3.125 l -3.125 -0 l 0 -3.125 l 3.125 -0 l 0 -3.125 l -3.125 -0 l 0 -3.125 l 3.125 -0 l 0 3.125 l 3.125 -0 l 0 -3.125 l 3.125 -0 l 0 -3.125 l -3.125 -0 l 0 3.125 l -3.125 -0 l 0 -3.125 l -3.125 -0 l 0 -3.125 l 3.125 -0 l 0 -3.125 l -3.125 -0 l 0 3.125 l -3.125 -0 l 0 -3.125 l -3.125 -0 l 0 3.125 l -3.125 -0 l 0 3.125 l 3.125 -0 l 0 -3.125 l 3.125 -0 l 0 3.125 l 3.125 -0 l 0 3.125 l -3.125 -0 l 0 3.125 l 3.125 -0 l 0 3.125 l -3.125 -0 l 0 -3.125 l -3.125 -0 l 0 3.125 l -3.125 -0 l 0 3.125 l 3.125 -0 l 0 3.125 l -3.125 -0 l 0 -3.125 l -3.125 -0 l 0 -3.125 l 3.125 -0 l 0 -3.125 l -3.125 -0 l 0 3.125 l -3.125 -0 l 0 -3.125 l -3.125 -0 l 0 3.125 l -3.125 -0 l 0 3.125 l 3.125 -0 l 0 3.125 l -3.125 -0 l 0 -3.125 l -3.125 -0 l 0 -3.125 l 3.125 -0 l 0 -3.125 l -3.125 -0 l 0 -3.125 l 3.125 -0 l 0 3.125 l 3.125 -0 l 0 -3.125 l 3.125 -0 l 0 -3.125 l -3.125 -0 l 0 3.125 l -3.125 -0 l 0 -3.125 l -3.125 -0 l 0 -3.125 l 3.125 -0 l 0 -3.125 l -3.125 -0 l 0 3.125 l -3.125 -0 l 0 -3.125 l -3.125 -0 l 0 3.125 l -3.125 -0 l 0 3.125 l 3.125 -0 l 0 3.125 l -3.125 -0 l 0 -3.125 l -3.125 -0 l 0 -3.125 l 3.125 -0 l 0 -3.125 l -3.125 -0 l 0 -3.125 l 3.125 -0 l 0 3.125 l 3.125 -0 l 0 -3.125 l 3.125 -0 l 0 -3.125 l -3.125 -0 l 0 -3.125 l 3.125 -0 l 0 3.125 l 3.125 -0 l 0 3.125 l -3.125 -0 l 0 3.125 l 3.125 -0 l 0 -3.125 l 3.125 -0 l 0 3.125 l 3.125 -0 l 0 -3.125 l 3.125 -0 l 0 -3.125 l -3.125 -0 l 0 3.125 l -3.125 -0 l 0 -3.125 l -3.125 -0 l 0 -3.125 l 3.125 -0 l 0 -3.125 l -3.125 -0 l 0 -3.125 l 3.125 -0 l 0 3.125 l 3.125 -0 l 0 -3.125 l 3.125 -0 l 0 -3.125 l -3.125 -0 l 0 3.125 l -3.125 -0 l 0 -3.125 l -3.125 -0 l 0 -3.125 l 3.125 -0 l 0 -3.125 l -3.125 -0 l 0 3.125 l -3.125 -0 l 0 -3.125 l -3.125 -0 l 0 3.125 l -3.125 -0 l 0 3.125 l 3.125 -0 l 0 3.125 l -3.125 -0 l 0 -3.125 l -3.125 -0 l 0 -3.125 l 3.125 -0 l 0 -3.125 l -3.125 -0 l 0 -3.125 l 3.125 -0 l 0 3.125 l 3.125 -0 l 0 -3.125 l 3.125 -0 l 0 -3.125 l -3.125 -0 l 0 -3.125 l 3.125 -0 l 0 3.125 l 3.125 -0 l 0 3.125 l -3.125 -0 l 0 3.125 l 3.125 -0 l 0 -3.125 l 3.125 -0 l 0 3.125 l 3.125 -0 l 0 -3.125 l 3.125 -0 l 0 -3.125 l -3.125 -0 l 0 -3.125 l 3.125 -0 l 0 3.125 l 3.125 -0 l 0 3.125 l -3.125 -0 l 0 3.125 l 3.125 -0 l 0 3.125 l -3.125 -0 l 0 -3.125 l -3.125 -0 l 0 3.125 l -3.125 -0 l 0 3.125 l 3.125 -0 l 0 -3.125 l 3.125 -0 l 0 3.125 l 3.125 -0 l 0 3.125 l -3.125 -0 l 0 3.125 l 3.125 -0 l 0 -3.125 l 3.125 -0 l 0 3.125 l 3.125 -0 l 0 -3.125 l 3.125 -0 l 0 -3.125 l -3.125 -0 l 0 3.125 l -3.125 -0 l 0 -3.125 l -3.125 -0 l 0 -3.125 l 3.125 -0 l 0 -3.125 l -3.125 -0 l 0 -3.125 l 3.125 -0 l 0 3.125 l 3.125 -0 l 0 -3.125 l 3.125 -0 l 0 -3.125 l -3.125 -0 l 0 -3.125 l 3.125 -0 l 0 3.125 l 3.125 -0 l 0 3.125 l -3.125 -0 l 0 3.125 l 3.125 -0 l 0 -3.125 l 3.125 -0 l 0 3.125 l 3.125 -0 l 0 -3.125 l 3.125 -0 l 0 -3.125 l -3.125 -0 l 0 3.125 l -3.125 -0 l 0 -3.125 l -3.125 -0 l 0 -3.125 l 3.125 -0 l 0 -3.125 l -3.125 -0 l 0 -3.125 l 3.125 -0 l 0 3.125 l 3.125 -0 l 0 -3.125 l 3.125 -0 l 0 -3.125 l -3.125 -0 l 0 3.125 l -3.125 -0 l 0 -3.125 l -3.125 -0 l 0 -3.125 l 3.125 -0 l 0 -3.125 l -3.125 -0 l 0 3.125 l -3.125 -0 l 0 -3.125 l -3.125 -0 l 0 3.125 l -3.125 -0 l 0 3.125 l 3.125 -0 l 0 3.125 l -3.125 -0 l 0 -3.125 l -3.125 -0 l 0 -3.125 l 3.125 -0 l 0 -3.125 l -3.125 -0 l 0 -3.125 l 3.125 -0 l 0 3.125 l 3.125 -0 l 0 -3.125 l 3.125 -0 l 0 -3.125 l -3.125 -0 l 0 -3.125 l 3.125 -0 l 0 3.125 l 3.125 -0 l 0 3.125 l -3.125 -0 l 0 3.125 l 3.125 -0 l 0 -3.125 l 3.125 -0 l 0 3.125 l 3.125 -0 l 0 -3.125 l 3.125 -0 l 0 -3.125 l -3.125 -0 l 0 -3.125 l 3.125 -0 l 0 3.125 l 3.125 -0 l 0 3.125 l -3.125 -0 l 0 3.125 l 3.125 -0 l 0 3.125 l -3.125 -0 l 0 -3.125 l -3.125 -0 l 0 3.125 l -3.125 -0 l 0 3.125 l 3.125 -0 l 0 -3.125 l 3.125 -0 l 0 3.125 l 3.125 -0 l 0 3.125 l -3.125 -0 l 0 3.125 l 3.125 -0 l 0 -3.125 l 3.125 -0 l 0 3.125 l 3.125 -0 l 0 -3.125 l 3.125 -0 l 0 -3.125 l -3.125 -0 l 0 -3.125 l 3.125 -0 l 0 3.125 l 3.125 -0 l 0 3.125 l -3.125 -0 l 0 3.125 l 3.125 -0 l 0 3.125 l -3.125 -0 l 0 -3.125 l -3.125 -0 l 0 3.125 l -3.125 -0 l 0 3.125 l 3.125 -0 l 0 3.125 l -3.125 -0 l 0 -3.125 l -3.125 -0 l 0 -3.125 l 3.125 -0 l 0 -3.125 l -3.125 -0 l 0 3.125 l -3.125 -0 l 0 -3.125 l -3.125 -0 l 0 3.125 l -3.125 -0 l 0 3.125 l 3.125 -0 l 0 -3.125 l 3.125 -0 l 0 3.125 l 3.125 -0 l 0 3.125 l -3.125 -0 l 0 3.125 l 3.125 -0 l 0 3.125 l -3.125 -0 l 0 -3.125 l -3.125 -0 l 0 3.125 l -3.125 -0 l 0 3.125 l 3.125 -0 l 0 -3.125 l 3.125 -0 l 0 3.125 l 3.125 -0 l 0 3.125 l -3.125 -0 l 0 3.125 l 3.125 -0 l 0 -3.125 l 3.125 -0 l 0 3.125 l 3.125 -0 l 0 -3.125 l 3.125 -0 l 0 -3.125 l -3.125 -0 l 0 3.125 l -3.125 -0 l 0 -3.125 l -3.125 -0 l 0 -3.125 l 3.125 -0 l 0 -3.125 l -3.125 -0 l 0 -3.125 l 3.125 -0 l 0 3.125 l 3.125 -0 l 0 -3.125 l 3.125 -0 l 0 -3.125 l -3.125 -0 l 0 -3.125 l 3.125 -0 l 0 3.125 l 3.125 -0 l 0 3.125 l -3.125 -0 l 0 3.125 l 3.125 -0 l 0 -3.125 l 3.125 -0 l 0 3.125 l 3.125 -0 l 0 -3.125 l 3.125 -0 l 0 -3.125 l -3.125 -0 l 0 -3.125 l 3.125 -0 l 0 3.125 l 3.125 -0 l 0 3.125 l -3.125 -0 l 0 3.125 l 3.125 -0 l 0 3.125 l -3.125 -0 l 0 -3.125 l -3.125 -0 l 0 3.125 l -3.125 -0 l 0 3.125 l 3.125 -0 l 0 -3.125 l 3.125 -0 l 0 3.125 l 3.125 -0 l 0 3.125 l -3.125 -0 l 0 3.125 l 3.125 -0 l 0 -3.125 l 3.125 -0 l 0 3.125 l 3.125 -0 l 0 -3.125 l 3.125 -0 l 0 -3.125 l -3.125 -0 l 0 3.125 l -3.125 -0 l 0 -3.125 l -3.125 -0 l 0 -3.125 l 3.125 -0 l 0 -3.125 l -3.125 -0 l 0 -3.125 l 3.125 -0 l 0 3.125 l 3.125 -0 l 0 -3.125 l 3.125 -0 l 0 -3.125 l -3.125 -0 l 0 -3.125 l 3.125 -0 l 0 3.125 l 3.125 -0 l 0 3.125 l -3.125 -0 l 0 3.125 l 3.125 -0 l 0 -3.125 l 3.125 -0 l 0 3.125 l 3.125 -0 l 0 -3.125 l 3.125 -0 l 0 -3.125 l -3.125 -0 l 0 3.125 l -3.125 -0 l 0 -3.125 l -3.125 -0 l 0 -3.125 l 3.125 -0 l 0 -3.125 l -3.125 -0 l 0 -3.125 l 3.125 -0 l 0 3.125 l 3.125 -0 l 0 -3.125 l 3.125 -0 l 0 -3.125 l -3.125 -0 l 0 3.125 l -3.125 -0 l 0 -3.125 l -3.125 -0 l 0 -3.125 l 3.125 -0 l 0 -3.125 l -3.125 -0 l 0 3.125 l -3.125 -0 l 0 -3.125 l -3.125 -0 l 0 3.125 l -3.125 -0 l 0 3.125 l 3.125 -0 l 0 3.125 l -3.125 -0 l 0 -3.125 l -3.125 -0 l 0 -3.125 l 3.125 -0 l 0 -3.125 l -3.125 -0 l 0 -3.125 l 3.125 -0 l 0 3.125 l 3.125 -0 l 0 -3.125 l 3.125 -0 l 0 -3.125 l -3.125 -0 l 0 -3.125 l 3.125 -0 l 0 3.125 l 3.125 -0 l 0 3.125 l -3.125 -0 l 0 3.125 l 3.125 -0 l 0 -3.125 l 3.125 -0 l 0 3.125 l 3.125 -0 l 0 -3.125 l 3.125 -0 l 0 -3.125 l -3.125 -0 l 0 -3.125 l 3.125 -0 l 0 3.125 l 3.125 -0 l 0 3.125 l -3.125 -0 l 0 3.125 l 3.125 -0 l 0 3.125 l -3.125 -0 l 0 -3.125 l -3.125 -0 l 0 3.125 l -3.125 -0 l 0 3.125 l 3.125 -0 l 0 -3.125 l 3.125 -0 l 0 3.125 l 3.125 -0 l 0 3.125 l -3.125 -0 l 0 3.125 l 3.125 -0 l 0 -3.125 l 3.125 -0 l 0 3.125 l 3.125 -0 l 0 -3.125 l 3.125 -0 l 0 -3.125 l -3.125 -0 l 0 -3.125 l 3.125 -0 l 0 3.125 l 3.125 -0 l 0 3.125 l -3.125 -0 l 0 3.125 l 3.125 -0 l 0 3.125 l -3.125 -0 l 0 -3.125 l -3.125 -0 l 0 3.125 l -3.125 -0 l 0 3.125 l 3.125 -0 l 0 3.125 l -3.125 -0 l 0 -3.125 l -3.125 -0 l 0 -3.125 l 3.125 -0 l 0 -3.125 l -3.125 -0 l 0 3.125 l -3.125 -0 l 0 -3.125 l -3.125 -0 l 0 3.125 l -3.125 -0 l 0 3.125 l 3.125 -0 l 0 -3.125 l 3.125 -0 l 0 3.125 l 3.125 -0 l 0 3.125 l -3.125 -0 l 0 3.125 l 3.125 -0 l 0 3.125 l -3.125 -0 l 0 -3.125 l -3.125 -0 l 0 3.125 l -3.125 -0 l 0 3.125 l 3.125 -0 l 0 -3.125 l 3.125 -0 l 0 3.125 l 3.125 -0 l 0 3.125 l -3.125 -0 l 0 3.125 l 3.125 -0 l 0 -3.125 l 3.125 -0 l 0 3.125 l 3.125 -0 l 0 -3.125 l 3.125 -0 l 0 -3.125 l -3.125 -0 l 0 -3.125 l 3.125 -0 l 0 3.125 l 3.125 -0 l 0 3.125 l -3.125 -0 l 0 3.125 l 3.125 -0 l 0 3.125 l -3.125 -0 l 0 -3.125 l -3.125 -0 l 0 3.125 l -3.125 -0 l 0 3.125 l 3.125 -0 l 0 3.125 l -3.125 -0 l 0 -3.125 l -3.125 -0 l 0 -3.125 l 3.125 -0 l 0 -3.125 l -3.125 -0 l 0 3.125 l -3.125 -0 l 0 -3.125 l -3.125 -0 l 0 3.125 l -3.125 -0 l 0 3.125 l 3.125 -0 l 0 3.125 l -3.125 -0 l 0 -3.125 l -3.125 -0 l 0 -3.125 l 3.125 -0 l 0 -3.125 l -3.125 -0 l 0 -3.125 l 3.125 -0 l 0 3.125 l 3.125 -0 l 0 -3.125 l 3.125 -0 l 0 -3.125 l -3.125 -0 l 0 3.125 l -3.125 -0 l 0 -3.125 l -3.125 -0 l 0 -3.125 l 3.125 -0 l 0 -3.125 l -3.125 -0 l 0 3.125 l -3.125 -0 l 0 -3.125 l -3.125 -0 l 0 3.125 l -3.125 -0 l 0 3.125 l 3.125 -0 l 0 -3.125 l 3.125 -0 l 0 3.125 l 3.125 -0 l 0 3.125 l -3.125 -0 l 0 3.125 l 3.125 -0 l 0 3.125 l -3.125 -0 l 0 -3.125 l -3.125 -0 l 0 3.125 l -3.125 -0 l 0 3.125 l 3.125 -0 l 0 3.125 l -3.125 -0 l 0 -3.125 l -3.125 -0 l 0 -3.125 l 3.125 -0 l 0 -3.125 l -3.125 -0 l 0 3.125 l -3.125 -0 l 0 -3.125 l -3.125 -0 l 0 3.125 l -3.125 -0 l 0 3.125 l 3.125 -0 l 0 -3.125 l 3.125 -0 l 0 3.125 l 3.125 -0 l 0 3.125 l -3.125 -0 l 0 3.125 l 3.125 -0 l 0 3.125 l -3.125 -0 l 0 -3.125 l -3.125 -0 l 0 3.125 l -3.125 -0 l 0 3.125 l 3.125 -0 l 0 -3.125 l 3.125 -0 l 0 3.125 l 3.125 -0 l 0 3.125 l -3.125 -0 l 0 3.125 l 3.125 -0 l 0 -3.125 l 3.125 -0 l 0 3.125 l 3.125 -0 l 0 -3.125 l 3.125 -0 l 0 -3.125 l -3.125 -0 l 0 3.125 l -3.125 -0 l 0 -3.125 l -3.125 -0 l 0 -3.125 l 3.125 -0 l 0 -3.125 l -3.125 -0 l 0 -3.125 l 3.125 -0 l 0 3.125 l 3.125 -0 l 0 -3.125 l 3.125 -0 l 0 -3.125 l -3.125 -0 l 0 -3.125 l 3.125 -0 l 0 3.125 l 3.125 -0 l 0 3.125 l -3.125 -0 l 0 3.125 l 3.125 -0 l 0 -3.125 l 3.125 -0 l 0 3.125 l 3.125 -0 l 0 -3.125 l 3.125 -0 l 0 -3.125 l -3.125 -0 l 0 -3.125 l 3.125 -0 l 0 3.125 l 3.125 -0 l 0 3.125 l -3.125 -0 l 0 3.125 l 3.125 -0 l 0 3.125 l -3.125 -0 l 0 -3.125 l -3.125 -0 l 0 3.125 l -3.125 -0 l 0 3.125 l 3.125 -0 l 0 -3.125 l 3.125 -0 l 0 3.125 l 3.125 -0 l 0 3.125 l -3.125 -0 l 0 3.125 l 3.125 -0 l 0 -3.125 l 3.125 -0 l 0 3.125 l 3.125 -0 l 0 -3.125 l 3.125 -0 l 0 -3.125 l -3.125 -0 l 0 -3.125 l 3.125 -0 l 0 3.125 l 3.125 -0 l 0 3.125 l -3.125 -0 l 0 3.125 l 3.125 -0 l 0 3.125 l -3.125 -0 l 0 -3.125 l -3.125 -0 l 0 3.125 l -3.125 -0 l 0 3.125 l 3.125 -0 l 0 3.125 l -3.125 -0 l 0 -3.125 l -3.125 -0 l 0 -3.125 l 3.125 -0 l 0 -3.125 l -3.125 -0 l 0 3.125 l -3.125 -0 l 0 -3.125 l -3.125 -0 l 0 3.125 l -3.125 -0 l 0 3.125 l 3.125 -0 l 0 -3.125 l 3.125 -0 l 0 3.125 l 3.125 -0 l 0 3.125 l -3.125 -0 l 0 3.125 l 3.125 -0 l 0 3.125 l -3.125 -0 l 0 -3.125 l -3.125 -0 l 0 3.125 l -3.125 -0 l 0 3.125 l 3.125 -0 l 0 -3.125 l 3.125 -0 l 0 3.125 l 3.125 -0 l 0 3.125 l -3.125 -0 l 0 3.125 l 3.125 -0 l 0 -3.125 l 3.125 -0 l 0 3.125 l 3.125 -0 l 0 -3.125 l 3.125 -0 l 0 -3.125 l -3.125 -0 l 0 3.125 l -3.125 -0 l 0 -3.125 l -3.125 -0 l 0 -3.125 l 3.125 -0 l 0 -3.125 l -3.125 -0 l 0 -3.125 l 3.125 -0 l 0 3.125 l 3.125 -0 l 0 -3.125 l 3.125 -0 l 0 -3.125 l -3.125 -0 l 0 -3.125 l 3.125 -0 l 0 3.125 l 3.125 -0 l 0 3.125 l -3.125 -0 l 0 3.125 l 3.125 -0 l 0 -3.125 l 3.125 -0 l 0 3.125 l 3.125 -0 l 0 -3.125 l 3.125 -0 l 0 -3.125 l -3.125 -0 l 0 -3.125 l 3.125 -0 l 0 3.125 l 3.125 -0 l 0 3.125 l -3.125 -0 l 0 3.125 l 3.125 -0 l 0 3.125 l -3.125 -0 l 0 -3.125 l -3.125 -0 l 0 3.125 l -3.125 -0 l 0 3.125 l 3.125 -0 l 0 -3.125 l 3.125 -0 l 0 3.125 l 3.125 -0 l 0 3.125 l -3.125 -0 l 0 3.125 l 3.125 -0 l 0 -3.125 l 3.125 -0 l 0 3.125 l 3.125 -0 l 0 -3.125 l 3.125 -0 l 0 -3.125 l -3.125 -0 l 0 3.125 l -3.125 -0 l 0 -3.125 l -3.125 -0 l 0 -3.125 l 3.125 -0 l 0 -3.125 l -3.125 -0 l 0 -3.125 l 3.125 -0 l 0 3.125 l 3.125 -0 l 0 -3.125 l 3.125 -0 l 0 -3.125 l -3.125 -0 l 0 -3.125 l 3.125 -0 l 0 3.125 l 3.125 -0 l 0 3.125 l -3.125 -0 l 0 3.125 l 3.125 -0 l 0 -3.125 l 3.125 -0 l 0 3.125 l 3.125 -0 l 0 -3.125 l 3.125 -0 l 0 -3.125 l -3.125 -0 l 0 3.125 l -3.125 -0 l 0 -3.125 l -3.125 -0 l 0 -3.125 l 3.125 -0 l 0 -3.125 l -3.125 -0 l 0 -3.125 l 3.125 -0 l 0 3.125 l 3.125 -0 l 0 -3.125 l 3.125 -0 l 0 -3.125 l -3.125 -0 l 0 3.125 l -3.125 -0 l 0 -3.125 l -3.125 -0 l 0 -3.125 l 3.125 -0 l 0 -3.125 l -3.125 -0 l 0 3.125 l -3.125 -0 l 0 -3.125 l -3.125 -0 l 0 3.125 l -3.125 -0 l 0 3.125 l 3.125 -0 l 0 -3.125 l 3.125 -0 l 0 3.125 l 3.125 -0 l 0 3.125 l -3.125 -0 l 0 3.125 l 3.125 -0 l 0 3.125 l -3.125 -0 l 0 -3.125 l -3.125 -0 l 0 3.125 l -3.125 -0 l 0 3.125 l 3.125 -0 l 0 3.125 l -3.125 -0 l 0 -3.125 l -3.125 -0 l 0 -3.125 l 3.125 -0 l 0 -3.125 l -3.125 -0 l 0 3.125 l -3.125 -0 l 0 -3.125 l -3.125 -0 l 0 3.125 l -3.125 -0 l 0 3.125 l 3.125 -0 l 0 3.125 l -3.125 -0 l 0 -3.125 l -3.125 -0 l 0 -3.125 l 3.125 -0 l 0 -3.125 l -3.125 -0 l 0 -3.125 l 3.125 -0 l 0 3.125 l 3.125 -0 l 0 -3.125 l 3.125 -0 l 0 -3.125 l -3.125 -0 l 0 3.125 l -3.125 -0 l 0 -3.125 l -3.125 -0 l 0 -3.125 l 3.125 -0 l 0 -3.125 l -3.125 -0 l 0 3.125 l -3.125 -0 l 0 -3.125 l -3.125 -0 l 0 3.125 l -3.125 -0 l 0 3.125 l 3.125 -0 l 0 3.125 l -3.125 -0 l 0 -3.125 l -3.125 -0 l 0 -3.125 l 3.125 -0 l 0 -3.125 l -3.125 -0 l 0 -3.125 l 3.125 -0 l 0 3.125 l 3.125 -0 l 0 -3.125 l 3.125 -0 l 0 -3.125 l -3.125 -0 l 0 -3.125 l 3.125 -0 l 0 3.125 l 3.125 -0 l 0 3.125 l -3.125 -0 l 0 3.125 l 3.125 -0 l 0 -3.125 l 3.125 -0 l 0 3.125 l 3.125 -0 l 0 -3.125 l 3.125 -0 l 0 -3.125 l -3.125 -0 l 0 3.125 l -3.125 -0 l 0 -3.125 l -3.125 -0 l 0 -3.125 l 3.125 -0 l 0 -3.125 l -3.125 -0 l 0 -3.125 l 3.125 -0 l 0 3.125 l 3.125 -0 l 0 -3.125 l 3.125 -0 l 0 -3.125 l -3.125 -0 l 0 3.125 l -3.125 -0 l 0 -3.125 l -3.125 -0 l 0 -3.125 l 3.125 -0 l 0 -3.125 l -3.125 -0 l 0 3.125 l -3.125 -0 l 0 -3.125 l -3.125 -0 l 0 3.125 l -3.125 -0 l 0 3.125 l 3.125 -0 l 0 3.125 l -3.125 -0 l 0 -3.125 l -3.125 -0 l 0 -3.125 l 3.125 -0 l 0 -3.125 l -3.125 -0 l 0 -3.125 l 3.125 -0 l 0 3.125 l 3.125 -0 l 0 -3.125 l 3.125 -0 l 0 -3.125 l -3.125 -0 l 0 -3.125 l 3.125 -0 l 0 3.125 l 3.125 -0 l 0 3.125 l -3.125 -0 l 0 3.125 l 3.125 -0 l 0 -3.125 l 3.125 -0 l 0 3.125 l 3.125 -0 l 0 -3.125 l 3.125 -0 l 0 -3.125 l -3.125 -0 l 0 -3.125 l 3.125 -0 l 0 3.125 l 3.125 -0 l 0 3.125 l -3.125 -0 l 0 3.125 l 3.125 -0 l 0 3.125 l -3.125 -0 l 0 -3.125 l -3.125 -0 l 0 3.125 l -3.125 -0 l 0 3.125 l 3.125 -0 l 0 -3.125 l 3.125 -0 l 0 3.125 l 3.125 -0 l 0 3.125 l -3.125 -0 l 0 3.125 l 3.125 -0 l 0 -3.125 l 3.125 -0 l 0 3.125 l 3.125 -0 l 0 -3.125 l 3.125 -0 l 0 -3.125 l -3.125 -0 l 0 3.125 l -3.125 -0 l 0 -3.125 l -3.125 -0 l 0 -3.125 l 3.125 -0 l 0 -3.125 l -3.125 -0 l 0 -3.125 l 3.125 -0 l 0 3.125 l 3.125 -0 l 0 -3.125 l 3.125 -0 l 0 -3.125 l -3.125 -0 l 0 -3.125 l 3.125 -0 l 0 3.125 l 3.125 -0 l 0 3.125 l -3.125 -0 l 0 3.125 l 3.125 -0 l 0 -3.125 l 3.125 -0 l 0 3.125 l 3.125 -0 l 0 -3.125 l 3.125 -0 l 0 -3.125 l -3.125 -0 l 0 3.125 l -3.125 -0 l 0 -3.125 l -3.125 -0 l 0 -3.125 l 3.125 -0 l 0 -3.125 l -3.125 -0 l 0 -3.125 l 3.125 -0 l 0 3.125 l 3.125 -0 l 0 -3.125 l 3.125 -0 l 0 -3.125 l -3.125 -0 l 0 3.125 l -3.125 -0 l 0 -3.125 l -3.125 -0 l 0 -3.125 l 3.125 -0 l 0 -3.125 l -3.125 -0 l 0 3.125 l -3.125 -0 l 0 -3.125 l -3.125 -0 l 0 3.125 l -3.125 -0 l 0 3.125 l 3.125 -0 l 0 3.125 l -3.125 -0 l 0 -3.125 l -3.125 -0 l 0 -3.125 l 3.125 -0 l 0 -3.125 l -3.125 -0 l 0 -3.125 l 3.125 -0 l 0 3.125 l 3.125 -0 l 0 -3.125 l 3.125 -0 l 0 -3.125 l -3.125 -0 l 0 -3.125 l 3.125 -0 l 0 3.125 l 3.125 -0 l 0 3.125 l -3.125 -0 l 0 3.125 l 3.125 -0 l 0 -3.125 l 3.125 -0 l 0 3.125 l 3.125 -0 l 0 -3.125 l 3.125 -0 l 0 -3.125 l -3.125 -0 l 0 -3.125 l 3.125 -0 l 0 3.125 l 3.125 -0 l 0 3.125 l -3.125 -0 l 0 3.125 l 3.125 -0 l 0 3.125 l -3.125 -0 l 0 -3.125 l -3.125 -0 l 0 3.125 l -3.125 -0 l 0 3.125 l 3.125 -0 l 0 -3.125 l 3.125 -0 l 0 3.125 l 3.125 -0 l 0 3.125 l -3.125 -0 l 0 3.125 l 3.125 -0 l 0 -3.125 l 3.125 -0 l 0 3.125 l 3.125 -0 l 0 -3.125 l 3.125 -0 l 0 -3.125 l -3.125 -0 l 0 -3.125 l 3.125 -0 l 0 3.125 l 3.125 -0 l 0 3.125 l -3.125 -0 l 0 3.125 l 3.125 -0 l 0 3.125 l -3.125 -0 l 0 -3.125 l -3.125 -0 l 0 3.125 l -3.125 -0 l 0 3.125 l 3.125 -0 l 0 3.125 l -3.125 -0 l 0 -3.125 l -3.125 -0 l 0 -3.125 l 3.125 -0 l 0 -3.125 l -3.125 -0 l 0 3.125 l -3.125 -0 l 0 -3.125 l -3.125 -0 l 0 3.125 l -3.125 -0 l 0 3.125 l 3.125 -0 l 0 -3.125 l 3.125 -0 l 0 3.125 l 3.125 -0 l 0 3.125 l -3.125 -0 l 0 3.125 l 3.125 -0 l 0 3.125 l -3.125 -0 l 0 -3.125 l -3.125 -0 l 0 3.125 l -3.125 -0 l 0 3.125 l 3.125 -0 l 0 -3.125 l 3.125 -0 l 0 3.125 l 3.125 -0 l 0 3.125 l -3.125 -0 l 0 3.125 l 3.125 -0 l 0 -3.125 l 3.125 -0 l 0 3.125 l 3.125 -0 l 0 -3.125 l 3.125 -0 l 0 -3.125 l -3.125 -0 l 0 3.125 l -3.125 -0 l 0 -3.125 l -3.125 -0 l 0 -3.125 l 3.125 -0 l 0 -3.125 l -3.125 -0 l 0 -3.125 l 3.125 -0 l 0 3.125 l 3.125 -0 l 0 -3.125 l 3.125 -0 l 0 -3.125 l -3.125 -0 l 0 -3.125 l 3.125 -0 l 0 3.125 l 3.125 -0 l 0 3.125 l -3.125 -0 l 0 3.125 l 3.125 -0 l 0 -3.125 l 3.125 -0 l 0 3.125 l 3.125 -0 l 0 -3.125 l 3.125 -0 l 0 -3.125 l -3.125 -0 l 0 -3.125 l 3.125 -0 l 0 3.125 l 3.125 -0 l 0 3.125 l -3.125 -0 l 0 3.125 l 3.125 -0 l 0 3.125 l -3.125 -0 l 0 -3.125 l -3.125 -0 l 0 3.125 l -3.125 -0 l 0 3.125 l 3.125 -0 l 0 -3.125 l 3.125 -0 l 0 3.125 l 3.125 -0 l 0 3.125 l -3.125 -0 l 0 3.125 l 3.125 -0 l 0 -3.125 l 3.125 -0 l 0 3.125 l 3.125 -0 l 0 -3.125 l 3.125 -0 l 0 -3.125 l -3.125 -0 l 0 3.125 l -3.125 -0 l 0 -3.125 l -3.125 -0 l 0 -3.125 l 3.125 -0 l 0 -3.125 l -3.125 -0 l 0 -3.125 l 3.125 -0 l 0 3.125 l 3.125 -0 l 0 -3.125 l 3.125 -0 l 0 -3.125 l -3.125 -0 l 0 -3.125 l 3.125 -0 l 0 3.125 l 3.125 -0 l 0 3.125 l -3.125 -0 l 0 3.125 l 3.125 -0 l 0 -3.125 l 3.125 -0 l 0 3.125 l 3.125 -0 l 0 -3.125 l 3.125 -0 l 0 -3.125 l -3.125 -0 l 0 3.125 l -3.125 -0 l 0 -3.125 l -3.125 -0 l 0 -3.125 l 3.125 -0 l 0 -3.125 l -3.125 -0 l 0 -3.125 l 3.125 -0 l 0 3.125 l 3.125 -0 l 0 -3.125 l 3.125 -0 l 0 -3.125 l -3.125 -0 l 0 3.125 l -3.125 -0 l 0 -3.125 l -3.125 -0 l 0 -3.125 l 3.125 -0 l 0 -3.125 l -3.125 -0 l 0 3.125 l -3.125 -0 l 0 -3.125 l -3.125 -0 l 0 3.125 l -3.125 -0 l 0 3.125 l 3.125 -0 l 0 -3.125 l 3.125 -0 l 0 3.125 l 3.125 -0 l 0 3.125 l -3.125 -0 l 0 3.125 l 3.125 -0 l 0 3.125 l -3.125 -0 l 0 -3.125 l -3.125 -0 l 0 3.125 l -3.125 -0 l 0 3.125 l 3.125 -0 l 0 3.125 l -3.125 -0 l 0 -3.125 l -3.125 -0 l 0 -3.125 l 3.125 -0 l 0 -3.125 l -3.125 -0 l 0 3.125 l -3.125 -0 l 0 -3.125 l -3.125 -0 l 0 3.125 l -3.125 -0 l 0 3.125 l 3.125 -0 l 0 3.125 l -3.125 -0 l 0 -3.125 l -3.125 -0 l 0 -3.125 l 3.125 -0 l 0 -3.125 l -3.125 -0 l 0 -3.125 l 3.125 -0 l 0 3.125 l 3.125 -0 l 0 -3.125 l 3.125 -0 l 0 -3.125 l -3.125 -0 l 0 3.125 l -3.125 -0 l 0 -3.125 l -3.125 -0 l 0 -3.125 l 3.125 -0 l 0 -3.125 l -3.125 -0 l 0 3.125 l -3.125 -0 l 0 -3.125 l -3.125 -0 l 0 3.125 l -3.125 -0 l 0 3.125 l 3.125 -0 l 0 3.125 l -3.125 -0 l 0 -3.125 l -3.125 -0 l 0 -3.125 l 3.125 -0 l 0 -3.125 l -3.125 -0 l 0 -3.125 l 3.125 -0 l 0 3.125 l 3.125 -0 l 0 -3.125 l 3.125 -0 l 0 -3.125 l -3.125 -0 l 0 -3.125 l 3.125 -0 l 0 3.125 l 3.125 -0 l 0 3.125 l -3.125 -0 l 0 3.125 l 3.125 -0 l 0 -3.125 l 3.125 -0 l 0 3.125 l 3.125 -0 l 0 -3.125 l 3.125 -0 l 0 -3.125 l -3.125 -0 l 0 3.125 l -3.125 -0 l 0 -3.125 l -3.125 -0 l 0 -3.125 l 3.125 -0 l 0 -3.125 l -3.125 -0 l 0 -3.125 l 3.125 -0 l 0 3.125 l 3.125 -0 l 0 -3.125 l 3.125 -0 l 0 -3.125 l -3.125 -0 l 0 3.125 l -3.125 -0 l 0 -3.125 l -3.125 -0 l 0 -3.125 l 3.125 -0 l 0 -3.125 l -3.125 -0 l 0 3.125 l -3.125 -0 l 0 -3.125 l -3.125 -0 l 0 3.125 l -3.125 -0 l 0 3.125 l 3.125 -0 l 0 3.125 l -3.125 -0 l 0 -3.125 l -3.125 -0 l 0 -3.125 l 3.125 -0 l 0 -3.125 l -3.125 -0 l 0 -3.125 l 3.125 -0 l 0 3.125 l 3.125 -0 l 0 -3.125 l 3.125 -0 l 0 -3.125 l -3.125 -0 l 0 -3.125 l 3.125 -0 l 0 3.125 l 3.125 -0 l 0 3.125 l -3.125 -0 l 0 3.125 l 3.125 -0 l 0 -3.125 l 3.125 -0 l 0 3.125 l 3.125 -0 l 0 -3.125 l 3.125 -0 l 0 -3.125 l -3.125 -0 l 0 -3.125 l 3.125 -0 l 0 3.125 l 3.125 -0 l 0 3.125 l -3.125 -0 l 0 3.125 l 3.125 -0 l 0 3.125 l -3.125 -0 l 0 -3.125 l -3.125 -0 l 0 3.125 l -3.125 -0 l 0 3.125 l 3.125 -0 l 0 -3.125 l 3.125 -0 l 0 3.125 l 3.125 -0 l 0 3.125 l -3.125 -0 l 0 3.125 l 3.125 -0 l 0 -3.125 l 3.125 -0 l 0 3.125 l 3.125 -0 l 0 -3.125 l 3.125 -0 l 0 -3.125 l -3.125 -0 l 0 3.125 l -3.125 -0 l 0 -3.125 l -3.125 -0 l 0 -3.125 l 3.125 -0 l 0 -3.125 l -3.125 -0 l 0 -3.125 l 3.125 -0 l 0 3.125 l 3.125 -0 l 0 -3.125 l 3.125 -0 l 0 -3.125 l -3.125 -0 l 0 -3.125 l 3.125 -0 l 0 3.125 l 3.125 -0 l 0 3.125 l -3.125 -0 l 0 3.125 l 3.125 -0 l 0 -3.125 l 3.125 -0 l 0 3.125 l 3.125 -0 l 0 -3.125 l 3.125 -0 l 0 -3.125 l -3.125 -0 l 0 3.125 l -3.125 -0 l 0 -3.125 l -3.125 -0 l 0 -3.125 l 3.125 -0 l 0 -3.125 l -3.125 -0 l 0 -3.125 l 3.125 -0 l 0 3.125 l 3.125 -0 l 0 -3.125 l 3.125 -0 l 0 -3.125 l -3.125 -0 l 0 3.125 l -3.125 -0 l 0 -3.125 l -3.125 -0 l 0 -3.125 l 3.125 -0 l 0 -3.125 l -3.125 -0 l 0 3.125 l -3.125 -0 l 0 -3.125 l -3.125 -0 l 0 3.125 l -3.125 -0 l 0 3.125 l 3.125 -0 l 0 -3.125 l 3.125 -0 l 0 3.125 l 3.125 -0 l 0 3.125 l -3.125 -0 l 0 3.125 l 3.125 -0 l 0 3.125 l -3.125 -0 l 0 -3.125 l -3.125 -0 l 0 3.125 l -3.125 -0 l 0 3.125 l 3.125 -0 l 0 3.125 l -3.125 -0 l 0 -3.125 l -3.125 -0 l 0 -3.125 l 3.125 -0 l 0 -3.125 l -3.125 -0 l 0 3.125 l -3.125 -0 l 0 -3.125 l -3.125 -0 l 0 3.125 l -3.125 -0 l 0 3.125 l 3.125 -0 l 0 3.125 l -3.125 -0 l 0 -3.125 l -3.125 -0 l 0 -3.125 l 3.125 -0 l 0 -3.125 l -3.125 -0 l 0 -3.125 l 3.125 -0 l 0 3.125 l 3.125 -0 l 0 -3.125 l 3.125 -0 l 0 -3.125 l -3.125 -0 l 0 3.125 l -3.125 -0 l 0 -3.125 l -3.125 -0 l 0 -3.125 l 3.125 -0 l 0 -3.125 l -3.125 -0 l 0 3.125 l -3.125 -0 l 0 -3.125 l -3.125 -0 l 0 3.125 l -3.125 -0 l 0 3.125 l 3.125 -0 l 0 3.125 l -3.125 -0 l 0 -3.125 l -3.125 -0 l 0 -3.125 l 3.125 -0 l 0 -3.125 l -3.125 -0 l 0 -3.125 l 3.125 -0 l 0 3.125 l 3.125 -0 l 0 -3.125 l 3.125 -0 l 0 -3.125 l -3.125 -0 l 0 -3.125 l 3.125 -0 l 0 3.125 l 3.125 -0 l 0 3.125 l -3.125 -0 l 0 3.125 l 3.125 -0 l 0 -3.125 l 3.125 -0 l 0 3.125 l 3.125 -0 l 0 -3.125 l 3.125 -0 l 0 -3.125 l -3.125 -0 l 0 3.125 l -3.125 -0 l 0 -3.125 l -3.125 -0 l 0 -3.125 l 3.125 -0 l 0 -3.125 l -3.125 -0 l 0 -3.125 l 3.125 -0 l 0 3.125 l 3.125 -0 l 0 -3.125 l 3.125 -0 l 0 -3.125 l -3.125 -0 l 0 3.125 l -3.125 -0 l 0 -3.125 l -3.125 -0 l 0 -3.125 l 3.125 -0 l 0 -3.125 l -3.125 -0 l 0 3.125 l -3.125 -0 l 0 -3.125 l -3.125 -0 l 0 3.125 l -3.125 -0 l 0 3.125 l 3.125 -0 l 0 -3.125 l 3.125 -0 l 0 3.125 l 3.125 -0 l 0 3.125 l -3.125 -0 l 0 3.125 l 3.125 -0 l 0 3.125 l -3.125 -0 l 0 -3.125 l -3.125 -0 l 0 3.125 l -3.125 -0 l 0 3.125 l 3.125 -0 l 0 3.125 l -3.125 -0 l 0 -3.125 l -3.125 -0 l 0 -3.125 l 3.125 -0 l 0 -3.125 l -3.125 -0 l 0 3.125 l -3.125 -0 l 0 -3.125 l -3.125 -0 l 0 3.125 l -3.125 -0 l 0 3.125 l 3.125 -0 l 0 3.125 l -3.125 -0 l 0 -3.125 l -3.125 -0 l 0 -3.125 l 3.125 -0 l 0 -3.125 l -3.125 -0 l 0 -3.125 l 3.125 -0 l 0 3.125 l 3.125 -0 l 0 -3.125 l 3.125 -0 l 0 -3.125 l -3.125 -0 l 0 3.125 l -3.125 -0 l 0 -3.125 l -3.125 -0 l 0 -3.125 l 3.125 -0 l 0 -3.125 l -3.125 -0 l 0 3.125 l -3.125 -0 l 0 -3.125 l -3.125 -0 l 0 3.125 l -3.125 -0 l 0 3.125 l 3.125 -0 l 0 -3.125 l 3.125 -0 l 0 3.125 l 3.125 -0 l 0 3.125 l -3.125 -0 l 0 3.125 l 3.125 -0 l 0 3.125 l -3.125 -0 l 0 -3.125 l -3.125 -0 l 0 3.125 l -3.125 -0 l 0 3.125 l 3.125 -0 l 0 3.125 l -3.125 -0 l 0 -3.125 l -3.125 -0 l 0 -3.125 l 3.125 -0 l 0 -3.125 l -3.125 -0 l 0 3.125 l -3.125 -0 l 0 -3.125 l -3.125 -0 l 0 3.125 l -3.125 -0 l 0 3.125 l 3.125 -0 l 0 -3.125 l 3.125 -0 l 0 3.125 l 3.125 -0 l 0 3.125 l -3.125 -0 l 0 3.125 l 3.125 -0 l 0 3.125 l -3.125 -0 l 0 -3.125 l -3.125 -0 l 0 3.125 l -3.125 -0 l 0 3.125 l 3.125 -0 l 0 -3.125 l 3.125 -0 l 0 3.125 l 3.125 -0 l 0 3.125 l -3.125 -0 l 0 3.125 l 3.125 -0 l 0 -3.125 l 3.125 -0 l 0 3.125 l 3.125 -0 l 0 -3.125 l 3.125 -0 l 0 -3.125 l -3.125 -0 " fill="none" stroke="black" />
</svg>
