<svg xmlns="http://www.w3.org/2000/svg" version="1.1" width="400" height="250">
<path d="M 100 150 l 0 -6.25 l 6.25 -0 l 0 6.25 l 6.25 -0 l 0 6.25 l -6.25 -0 l 0 6.25 l 6.25 -0 l 0 6.25 l -6.25 -0 l 0 -6.25 l -6.25 -0 l 0 6.25 l -6.25 -0 l 0 6.25 l 6.25 -0 l 0 6.25 l -6.25 -0 l 0 -6.25 l -6.25 -0 l 0 -6.25 l 6.25 -0 l 0 -6.25 l -6.25 -0 l 0 6.25 l -6.25 -0 l 0 -6.25 l -6.25 -0 l 0 6.25 l -6.25 -0 l 0 6.25 l 6.25 -0 l 0 6.25 l -6.25 -0 l 0 -6.25 l -6.25 -0 l 0 -6.25 l 6.25 -0 l 0 -6.25 l -6.25 -0 l 0 -6.25 l 6.25 -0 l 0 6.25 l 6.25 -0 l 0 -6.25 l 6.25 -0 l 0 -6.25 l -6.25 -0 l 0 6.25 l -6.25 -0 l 0 -6.25 l -6.25 -0 l 0 -6.25 l 6.25 -0 l 0 -6.25 l -6.25 -0 l 0 6.25 l -6.25 -0 l 0 -6.25 l -6.25 -0 l 0 6.25 l -6.25 -0 l 0 6.25 l 6.25 -0 l 0 6.25 l -6.25 -0 l 0 -6.25 l -6.25 -0 l 0 -6.25 l 6.25 -0 l 0 -6.25 l -6.25 -0 l 0 -6.25 l 6.25 -0 l 0 6.25 l 6.25 -0 l 0 -6.25 l 6.25 -0 l 0 -6.25 l -6.25 -0 l 0 -6.25 l 6.25 -0 l 0 6.25 l 6.25 -0 l 0 6.25 l -6.25 -0 l 0 6.25 l 6.25 -0 l 0 -6.25 l 6.25 -0 l 0 6.25 l 6.25 -0 l 0 -6.25 l 6.25 -0 l 0 -6.25 l -6.25 -0 l 0 6.25 l -6.25 -0 l 0 -6.25 l -6.25 -0 l 0 -6.25 l 6.25 -0 l 0 -6.25 l -6.25 -0 l 0 -6.25 l 6.25 -0 l 0 6.25 l 6.25 -0 l 0 -6.25 l 6.25 -0 l 0 -6.25 l -6.25 -0 l 0 6.25 l -6.25 -0 l 0 -6.25 l -6.25 -0 l 0 -6.25 l 6.25 -0 l 0 -6.25 l -6.25 -0 l 0 6.25 l -6.25 -0 l 0 -6.25 l -6.25 -0 l 0 6.25 l -6.25 -0 l 0 6.25 l 6.25 -0 l 0 6.25 l -6.25 -0 l 0 -6.25 l -6.25 -0 l 0 -6.25 l 6.25 -0 l 0 -6.25 l -6.25 -0 l 0 -6.25 l 6.25 -0 l 0 6.25 l 6.25 -0 l 0 -6.25 l 6.25 -0 l 0 -6.25 l -6.25 -0 l 0 -6.25 l 6.25 -0 l 0 6.25 l 6.25 -0 l 0 6.25 l -6.25 -0 l 0 6.25 l 6.25 -0 l 0 -6.25 l 6.25 -0 l 0 6.25 l 6.25 -0 l 0 -6.25 l 6.25 -0 l 0 -6.25 l -6.25 -0 l 0 -6.25 l 6.25 -0 l 0 6.25 l 6.25 -0 l 0 6.25 l -6.25 -0 l 0 6.25 l 6.25 -0 l 0 6.25 l -6.25 -0 l 0 -6.25 l -6.25 -0 l 0 6.25 l -6.25 -0 l 0 6.25 l 6.25 -0 l 0 -6.25 l 6.25 -0 l 0 6.25 l 6.25 -0 l 0 6.25 l -6.25 -0 l 0 6.25 l 6.25 -0 l 0 -6.25 l 6.25 -0 l 0 6.25 l 6.25 -0 l 0 -6.25 l 6.25 -0 l 0 -6.25 l -6.25 -0 l 0 6.25 l -6.25 -0 l 0 -6.25 l -6.25 -0 l 0 -6.25 l 6.25 -0 l 0 -6.25 l -6.25 -0 l 0 -6.25 l 6.25 -0 l 0 6.25 l 6.25 -0 l 0 -6.25 l 6.25 -0 l 0 -6.25 l -6.25 -0 l 0 -6.25 l 6.25 -0 l 0 6.25 l 6.25 -0 l 0 6.25 l -6.25 -0 l 0 6.25 l 6.25 -0 l 0 -6.25 l 6.25 -0 l 0 6.25 l 6.25 -0 l 0 -6.25 l 6.25 -0 l 0 -6.25 l -6.25 -0 l 0 6.25 l -6.25 -0 l 0 -6.25 l -6.25 -0 l 0 -6.25 l 6.25 -0 l 0 -6.25 l -6.25 -0 l 0 -6.25 l 6.25 -0 l 0 6.25 l 6.25 -0 l 0 -6.25 l 6.25 -0 l 0 -6.25 l -6.25 -0 l 0 6.25 l -6.25 -0 l 0 -6.25 l -6.25 -0 l 0 -6.25 l 6.25 -0 l 0 -6.25 l -6.25 -0 l 0 6.25 l -6.25 -0 l 0 -6.25 l -6.25 -0 l 0 6.25 l -6.25 -0 l 0 6.25 l 6.25 -0 l 0 6.25 l -6.25 -0 l 0 -6.25 l -6.25 -0 l 0 -6.25 l 6.25 -0 l 0 -6.25 l -6.25 -0 l 0 -6.25 l 6.25 -0 l 0 6.25 l 6.25 -0 l 0 -6.25 l 6.25 -0 l 0 -6.25 l -6.25 -0 l 0 -6.25 l 6.25 -0 l 0 6.25 l 6.25 -0 l 0 6.25 l -6.25 -0 l 0 6.25 l 6.25 -0 l 0 -6.25 l 6.25 -0 l 0 6.25 l 6.25 -0 l 0 -6.25 l 6.25 -0 l 0 -6.25 l -6.25 -0 l 0 -6.25 l 6.25 -0 l 0 6.25 l 6.25 -0 l 0 6.25 l -6.25 -0 l 0 6.25 l 6.25 -0 l 0 6.25 l -6.25 -0 l 0 -6.25 l -6.25 -0 l 0 6.25 l -6.25 -0 l 0 6.25 l 6.25 -0 l 0 -6.25 l 6.25 -0 l 0 6.25 l 6.25 -0 l 0 6.25 l -6.25 -0 l 0 6.25 l 6.25 -0 l 0 -6.25 l 6.25 -0 l 0 6.25 l 6.25 -0 l 0 -6.25 l 6.25 -0 l 0 -6.25 l -6.25 -0 l 0 -6.25 l 6.25 -0 l 0 6.25 l 6.25 -0 l 0 6.25 l -6.25 -0 l 0 6.25 l 6.25 -0 l 0 6.25 l -6.25 -0 l 0 -6.25 l -6.25 -0 l 0 6.25 l -6.25 -0 l 0 6.25 l 6.25 -0 l 0 6.25 l -6.25 -0 l 0 -6.25 l -6.25 -0 l 0 -6.25 l 6.25 -0 l 0 -6.25 l -6.25 -0 l 0 6.25 l -6.25 -0 l 0 -6.25 l -6.25 -0 l 0 6.25 l -6.25 -0 l 0 6.25 l 6.25 -0 l 0 -6.25 l 6.25 -0 l 0 6.25 l 6.25 -0 l 0 6.25 l -6.25 -0 l 0 6.25 l 6.25 -0 l 0 6.25 l -6.25 -0 l 0 -6.25 l -6.25 -0 l 0 6.25 l -6.25 -0 l 0 6.25 l 6.25 -0 l 0 -6.25 l 6.25 -0 l 0 6.25 l 6.25 -0 l 0 6.25 l -6.25 -0 l 0 6.25 l 6.25 -0 l 0 -6.25 l 6.25 -0 l 0 6.25 l 6.25 -0 l 0 -6.25 l 6.25 -0 l 0 -6.25 l -6.25 -0 l 0 6.25 l -6.25 -0 l 0 -6.25 l -6.25 -0 l 0 -6.25 l 6.25 -0 l 0 -6.25 l -6.25 -0 l 0 -6.25 l 6.25 -0 l 0 6.25 l 6.25 -0 l 0 -6.25 l 6.25 -0 l 0 -6.25 l -6.25 -0 l 0 -6.25 l 6.25 -0 l 0 6.25 l 6.25 -0 l 0 6.25 l -6.25 -0 l 0 6.25 l 6.25 -0 l 0 -6.25 l 6.25 -0 l 0 6.25 l 6.25 -0 l 0 -6.25 l 6.25 -0 l 0 -6.25 l -6.25 -0 l 0 -6.25 l 6.25 -0 l 0 6.25 l 6.25 -0 l 0 6.25 l -6.25 -0 l 0 6.25 l 6.25 -0 l 0 6.25 l -6.25 -0 l 0 -6.25 l -6.25 -0 l 0 6.25 l -6.25 -0 l 0 6.25 l 6.25 -0 l 0 -6.25 l 6.25 -0 l 0 6.25 l 6.25 -0 l 0 6.25 l -6.25 -0 l 0 6.25 l 6.25 -0 l 0 -6.25 l 6.25 -0 l 0 6.25 l 6.25 -0 l 0 -6.25 l 6.25 -0 l 0 -6.25 l -6.25 -0 l 0 6.25 l -6.25 -0 l 0 -6.25 l -6.25 -0 l 0 -6.25 l 6.25 -0 l 0 -6.25 l -6.25 -0 l 0 -6.25 l 6.25 -0 l 0 6.25 l 6.25 -0 l 0 -6.25 l 6.25 -0 l 0 -6.25 l -6.25 -0 l 0 -6.25 l 6.25 -0 l 0 6.25 l 6.25 -0 l 0 6.25 l -6.25 -0 l 0 6.25 l 6.25 -0 l 0 -6.25 l 6.25 -0 l 0 6.25 l 6.25 -0 l 0 -6.25 l 6.25 -0 l 0 -6.25 l -6.25 -0 l 0 6.25 l -6.25 -0 l 0 -6.25 l -6.25 -0 l 0 -6.25 l 6.25 -0 l 0 -6.25 l -6.25 -0 l 0 -6.25 l 6.25 -0 l 0 6.25 l 6.25 -0 l 0 -6.25 l 6.25 -0 l 0 -6.25 l -6.25 -0 l 0 6.25 l -6.25 -0 l 0 -6.25 l -6.25 -0 l 0 -6.25 l 6.25 -0 l 0 -6.25 l -6.25 -0 l 0 6.25 l -6.25 -0 l 0 -6.25 l -6.25 -0 l 0 6.25 l -6.25 -0 l 0 6.25 l 6.25 -0 l 0 6.25 l -6.25 -0 l 0 -6.25 l -6.25 -0 l 0 -6.25 l 6.25 -0 l 0 -6.25 l -6.25 -0 l 0 -6.25 l 6.25 -0 l 0 6.25 l 6.25 -0 l 0 -6.25 l 6.25 -0 l 0 -6.25 l -6.25 -0 l 0 -6.25 l 6.25 -0 l 0 6.25 l 6.25 -0 l 0 6.25 l -6.25 -0 l 0 6.25 l 6.25 -0 l 0 -6.25 l 6.25 -0 l 0 6.25 l 6.25 -0 l 0 -6.25 l 6.25 -0 l 0 -6.25 l -6.25 -0 l 0 -6.25 l 6.25 -0 l 0 6.25 l 6.25 -0 l 0 6.25 l -6.25 -0 l 0 6.25 l 6.25 -0 l 0 6.25 l -6.25 -0 l 0 -6.25 l -6.25 -0 l 0 6.25 l -6.25 -0 l 0 6.25 l 6.25 -0 l 0 -6.25 l 6.25 -0 l 0 6.25 l 6.25 -0 l 0 6.25 l -6.25 -0 l 0 6.25 l 6.25 -0 l 0 -6.25 l 6.25 -0 l 0 6.25 l 6.25 -0 l 0 -6.25 l 6.25 -0 l 0 -6.25 l -6.25 -0 l 0 -6.25 l 6.25 -0 l 0 6.25 l 6.25 -0 l 0 6.25 l -6.25 -0 l 0 6.25 l 6.25 -0 l 0 6.25 l -6.25 -0 l 0 -6.25 l -6.25 -0 l 0 6.25 l -6.25 -0 l 0 6.25 l 6.25 -0 l 0 6.25 l -6.25 -0 l 0 -6.25 l -6.25 -0 l 0 -6.25 l 6.25 -0 l 0 -6.25 l -6.25 -0 l 0 6.25 l -6.25 -0 l 0 -6.25 l -6.25 -0 l 0 6.25 l -6.25 -0 l 0 6.25 l 6.25 -0 l 0 -6.25 l 6.25 -0 l 0 6.25 l 6.25 -0 l 0 6.25 l -6.25 -0 l 0 6.25 l 6.25 -0 l 0 6.25 l -6.25 -0 l 0 -6.25 l -6.25 -0 l 0 6.25 l -6.25 -0 l 0 6.25 l 6.25 -0 l 0 -6.25 l 6.25 -0 l 0 6.25 l 6.25 -0 l 0 6.25 l -6.25 -0 l 0 6.25 l 6.25 -0 l 0 -6.25 l 6.25 -0 l 0 6.25 l 6.25 -0 l 0 -6.25 l 6.25 -0 l 0 -6.25 l -6.25 -0 l 0 -6.25 l 6.25 -0 l 0 6.25 l 6.25 -0 l 0 6.25 l -6.25 -0 l 0 6.25 l 6.25 -0 l 0 6.25 l -6.25 -0 l 0 -6.25 l -6.25 -0 l 0 6.25 l -6.25 -0 l 0 6.25 l 6.25 -0 l 0 6.25 l -6.25 -0 l 0 -6.25 l -6.25 -0 l 0 -6.25 l 6.25 -0 l 0 -6.25 l -6.25 -0 l 0 6.25 l -6.25 -0 l 0 -6.25 l -6.25 -0 l 0 6.25 l -6.25 -0 l 0 6.25 l 6.25 -0 l 0 6.25 l -6.25 -0 l 0 -6.25 l -6.25 -0 l 0 -6.25 l 6.25 -0 l 0 -6.25 l -6.25 -0 l 0 -6.25 l 6.25 -0 l 0 6.25 l 6.25 -0 l 0 -6.25 l 6.25 -0 l 0 -6.25 l -6.25 -0 l 0 6.25 l -6.25 -0 l 0 -6.25 l -6.25 -0 l 0 -6.25 l 6.25 -0 l 0 -6.25 l -6.25 -0 l 0 6.25 l -6.25 -0 l 0 -6.25 l -6.25 -0 l 0 6.25 l -6.25 -0 l 0 6.25 l 6.25 -0 l 0 -6.25 l 6.25 -0 l 0 6.25 l 6.25 -0 l 0 6.25 l -6.25 -0 l 0 6.25 l 6.25 -0 l 0 6.25 l -6.25 -0 l 0 -6.25 l -6.25 -0 l 0 6.25 l -6.25 -0 l 0 6.25 l 6.25 -0 l 0 6.25 l -6.25 -0 l 0 -6.25 l -6.25 -0 l 0 -6.25 l 6.25 -0 l 0 -6.25 l -6.25 -0 l 0 6.25 l -6.25 -0 l 0 -6.25 l -6.25 -0 l 0 6.25 l -6.25 -0 l 0 6.25 l 6.25 -0 l 0 -6.25 l 6.25 -0 l 0 6.25 l 6.25 -0 l 0 6.25 l -6.25 -0 l 0 6.25 l 6.25 -0 l 0 6.25 l -6.25 -0 l 0 -6.25 l -6.25 -0 l 0 6.25 l -6.25 -0 l 0 6.25 l 6.25 -0 l 0 -6.25 l 6.25 -0 l 0 6.25 l 6.25 -0 l 0 6.25 l -6.25 -0 l 0 6.25 l 6.25 -0 l 0 -6.25 l 6.25 -0 l 0 6.25 l 6.25 -0 l 0 -6.25 l 6.25 -0 l 0 -6.25 l -6.25 -0 l 0 6.25 l -6.25 -0 l 0 -6.25 l -6.25 -0 l 0 -6.25 l 6.25 -0 l 0 -6.25 l -6.25 -0 l 0 -6.25 l 6.25 -0 l 0 6.25 l 6.25 -0 l 0 -6.25 l 6.25 -0 l 0 -6.25 l -6.25 -0 l 0 -6.25 l 6.25 -0 l 0 6.25 l 6.25 -0 l 0 6.25 l -6.25 -0 l 0 6.25 l 6.25 -0 l 0 -6.25 l 6.25 -0 l 0 6.25 l 6.25 -0 l 0 -6.25 l 6.25 -0 l 0 -6.25 l -6.25 -0 l 0 -6.25 l 6.25 -0 l 0 6.25 l 6.25 -0 l 0 6.25 l -6.25 -0 l 0 6.25 l 6.25 -0 l 0 6.25 l -6.25 -0 l 0 -6.25 l -6.25 -0 l 0 6.25 l -6.25 -0 l 0 6.25 l 6.25 -0 l 0 -6.25 l 6.25 -0 l 0 6.25 l 6.25 -0 l 0 6.25 l -6.25 -0 l 0 6.25 l 6.25 -0 l 0 -6.25 l 6.25 -0 l 0 6.25 l 6.25 -0 l 0 -6.25 l 6.25 -0 l 0 -6.25 l -6.25 -0 l 0 -6.25 l 6.25 -0 l 0 6.25 l 6.25 -0 l 0 6.25 l -6.25 -0 l 0 6.25 l 6.25 -0 l 0 6.25 l -6.25 -0 l 0 -6.25 l -6.25 -0 l 0 6.25 l -6.25 -0 l 0 6.25 l 6.25 -0 l 0 6.25 l -6.25 -0 l 0 -6.25 l -6.25 -0 l 0 -6.25 l 6.25 -0 l 0 -6.25 l -6.25 -0 l 0 6.25 l -6.25 -0 l 0 -6.25 l -6.25 -0 l 0 6.25 l -6.25 -0 l 0 6.25 l 6.25 -0 l 0 -6.25 l 6.25 -0 l 0 6.25 l 6.25 -0 l 0 6.25 l -6.25 -0 l 0 6.25 l 6.25 -0 l 0 6.25 l -6.25 -0 l 0 -6.25 l -6.25 -0 l 0 6.25 l -6.25 -0 l 0 6.25 l 6.25 -0 l 0 -6.25 l 6.25 -0 l 0 6.25 l 6.25 -0 l 0 6.25 l -6.25 -0 l 0 6.25 l 6.25 -0 l 0 -6.25 l 6.25 -0 l 0 6.25 l 6.25 -0 l 0 -6.25 l 6.25 -0 l 0 -6.25 l -6.25 -0 l 0 6.25 l -6.25 -0 l 0 -6.25 l -6.25 -0 l 0 -6.25 l 6.25 -0 l 0 -6.25 l -6.25 -0 l 0 -6.25 l 6.25 -0 l 0 6.25 l 6.25 -0 l 0 -6.25 l 6.25 -0 l 0 -6.25 l -6.25 -0 l 0 -6.25 l 6.25 -0 l 0 6.25 l 6.25 -0 l 0 6.25 l -6.25 -0 l 0 6.25 l 6.25 -0 l 0 -6.25 l 6.25 -0 l 0 6.25 l 6.25 -0 l 0 -6.25 l 6.25 -0 l 0 -6.25 l -6.25 -0 l 0 -6.25 l 6.25 -0 l 0 6.25 l 6.25 -0 l 0 6.25 l -6.25 -0 l 0 6.25 l 6.25 -0 l 0 6.25 l -6.25 -0 l 0 -6.25 l -6.25 -0 l 0 6.25 l -6.25 -0 l 0 6.25 l 6.25 -0 l 0 -6.25 l 6.25 -0 l 0 6.25 l 6.25 -0 l 0 6.25 l -6.25 -0 l 0 6.25 l 6.25 -0 l 0 -6.25 l 6.25 -0 l 0 6.25 l 6.25 -0 l 0 -6.25 l 6.25 -0 l 0 -6.25 l -6.25 -0 l 0 6.25 l -6.25 -0 l 0 -6.25 l -6.25 -0 l 0 -6.25 l 6.25 -0 l 0 -6.25 l -6.25 -0 l 0 -6.25 l 6.25 -0 l 0 6.25 l 6.25 -0 l 0 -6.25 l 6.25 -0 l 0 -6.25 l -6.25 -0 l 0 -6.25 l 6.25 -0 l 0 6.25 l 6.25 -0 l 0 6.25 l -6.25 -0 l 0 6.25 l 6.25 -0 l 0 -6.25 l 6.25 -0 l 0 6.25 l 6.25 -0 l 0 -6.25 l 6.25 -0 l 0 -6.25 l -6.25 -0 l 0 6.25 l -6.25 -0 l 0 -6.25 l -6.25 -0 l 0 -6.25 l 6.25 -0 l 0 -6.25 l -6.25 -0 l 0 -6.25 l 6.25 -0 l 0 6.25 l 6.25 -0 l 0 -6.25 l 6.25 -0 l 0 -6.25 l -6.25 -0 l 0 6.25 l -6.25 -0 l 0 -6.25 l -6.25 -0 l 0 -6.25 l 6.25 -0 l 0 -6.25 l -6.25 -0 l 0 6.25 l -6.25 -0 l 0 -6.25 l -6.25 -0 l 0 6.25 l -6.25 -0 l 0 6.25 l 6.25 -0 " fill="none" stroke="black" />
</svg>
