<svg xmlns="http://www.w3.org/2000/svg" version="1.1" width="510" height="350">
<path d="M 120 230 l 0 -6 l 2 -2 l 6 0 l 2 2 l 0 6 l 2 2 l 6 0 l 2 2 l 0 6 l -2 2 l -6 0 l -2 2 l 0 6 l 2 2 l 6 0 l 2 2 l 0 6 l -2 2 l -6 0 l -2 -2 l 0 -6 l -2 -2 l -6 0 l -2 2 l 0 6 l -2 2 l -6 0 l -2 2 l 0 6 l 2 2 l 6 0 l 2 2 l 0 6 l -2 2 l -6 0 l -2 -2 l 0 -6 l -2 -2 l -6 0 l -2 -2 l 0 -6 l 2 -2 l 6 0 l 2 -2 l 0 -6 l -2 -2 l -6 0 l -2 2 l 0 6 l -2 2 l -6 0 l -2 -2 l 0 -6 l -2 -2 l -6 0 l -2 2 l 0 6 l -2 2 l -6 0 l -2 2 l 0 6 l 2 2 l 6 0 l 2 2 l 0 6 l -2 2 l -6 0 l -2 -2 l 0 -6 l -2 -2 l -6 0 l -2 -2 l 0 -6 l 2 -2 l 6 0 l 2 -2 l 0 -6 l -2 -2 l -6 0 l -2 -2 l 0 -6 l 2 -2 l 6 0 l 2 2 l 0 6 l 2 2 l 6 0 l 2 -2 l 0 -6 l 2 -2 l 6 0 l 2 -2 l 0 -6 l -2 -2 l -6 0 l -2 2 l 0 6 l -2 2 l -6 0 l -2 -2 l 0 -6 l -2 -2 l -6 0 l -2 -2 l 0 -6 l 2 -2 l 6 0 l 2 -2 l 0 -6 l -2 -2 l -6 0 l -2 2 l 0 6 l -2 2 l -6 0 l -2 -2 l 0 -6 l -2 -2 l -6 0 l -2 2 l 0 6 l -2 2 l -6 0 l -2 2 l 0 6 l 2 2 l 6 0 l 2 2 l 0 6 l -2 2 l -6 0 l -2 -2 l 0 -6 l -2 -2 l -6 0 l -2 -2 l 0 -6 l 2 -2 l 6 0 l 2 -2 l 0 -6 l -2 -2 l -6 0 l -2 -2 l 0 -6 l 2 -2 l 6 0 l 2 2 l 0 6 l 2 2 l 6 0 l 2 -2 l 0 -6 l 2 -2 l 6 0 l 2 -2 l 0 -6 l -2 -2 l -6 0 l -2 -2 l 0 -6 l 2 -2 l 6 0 l 2 2 l 0 6 l 2 2 l 6 0 l 2 2 l 0 6 l -2 2 l -6 0 l -2 2 l 0 6 l 2 2 l 6 0 l 2 -2 l 0 -6 l 2 -2 l 6 0 l 2 2 l 0 6 l 2 2 l 6 0 l 2 -2 l 0 -6 l 2 -2 l 6 0 l 2 -2 l 0 -6 l -2 -2 l -6 0 l -2 2 l 0 6 l -2 2 l -6 0 l -2 -2 l 0 -6 l -2 -2 l -6 0 l -2 -2 l 0 -6 l 2 -2 l 6 0 l 2 -2 l 0 -6 l -2 -2 l -6 0 l -2 -2 l 0 -6 l 2 -2 l 6 0 l 2 2 l 0 6 l 2 2 l 6 0 l 2 -2 l 0 -6 l 2 -2 l 6 0 l 2 -2 l 0 -6 l -2 -2 l -6 0 l -2 2 l 0 6 l -2 2 l -6 0 l -2 -2 l 0 -6 l -2 -2 l -6 0 l -2 -2 l 0 -6 l 2 -2 l 6 0 l 2 -2 l 0 -6 l -2 -2 l -6 0 l -2 2 l 0 6 l -2 2 l -6 0 l -2 -2 l 0 -6 l -2 -2 l -6 0 l -2 2 l 0 6 l -2 2 l -6 0 l -2 2 l 0 6 l 2 2 l 6 0 l 2 2 l 0 6 l -2 2 l -6 0 l -2 -2 l 0 -6 l -2 -2 l -6 0 l -2 -2 l 0 -6 l 2 -2 l 6 0 l 2 -2 l 0 -6 l -2 -2 l -6 0 l -2 -2 l 0 -6 l 2 -2 l 6 0 l 2 2 l 0 6 l 2 2 l 6 0 l 2 -2 l 0 -6 l 2 -2 l 6 0 l 2 -2 l 0 -6 l -2 -2 l -6 0 l -2 -2 l 0 -6 l 2 -2 l 6 0 l 2 2 l 0 6 l 2 2 l 6 0 l 2 2 l 0 6 l -2 2 l -6 0 l -2 2 l 0 6 l 2 2 l 6 0 l 2 -2 l 0 -6 l 2 -2 l 6 0 l 2 2 l 0 6 l 2 2 l 6 0 l 2 -2 l 0 -6 l 2 -2 l 6 0 l 2 -2 l 0 -6 l -2 -2 l -6 0 l -2 -2 l 0 -6 l 2 -2 l 6 0 l 2 2 l 0 6 l 2 2 l 6 0 l 2 2 l 0 6 l -2 2 l -6 0 l -2 2 l 0 6 l 2 2 l 6 0 l 2 2 l 0 6 l -2 2 l -6 0 l -2 -2 l 0 -6 l -2 -2 l -6 0 l -2 2 l 0 6 l -2 2 l -6 0 l -2 2 l 0 6 l 2 2 l 6 0 l 2 -2 l 0 -6 l 2 -2 l 6 0 l 2 2 l 0 6 l 2 2 l 6 0 l 2 2 l 0 6 l -2 2 l -6 0 l -2 2 l 0 6 l 2 2 l 6 0 l 2 -2 l 0 -6 l 2 -2 l 6 0 l 2 2 l 0 6 l 2 2 l 6 0 l 2 -2 l 0 -6 l 2 -2 l 6 0 l 2 -2 l 0 -6 l -2 -2 l -6 0 l -2 2 l 0 6 l -2 2 l -6 0 l -2 -2 l 0 -6 l -2 -2 l -6 0 l -2 -2 l 0 -6 l 2 -2 l 6 0 l 2 -2 l 0 -6 l -2 -2 l -6 0 l -2 -2 l 0 -6 l 2 -2 l 6 0 l 2 2 l 0 6 l 2 2 l 6 0 l 2 -2 l 0 -6 l 2 -2 l 6 0 l 2 -2 l 0 -6 l -2 -2 l -6 0 l -2 -2 l 0 -6 l 2 -2 l 6 0 l 2 2 l 0 6 l 2 2 l 6 0 l 2 2 l 0 6 l -2 2 l -6 0 l -2 2 l 0 6 l 2 2 l 6 0 l 2 -2 l 0 -6 l 2 -2 l 6 0 l 2 2 l 0 6 l 2 2 l 6 0 l 2 -2 l 0 -6 l 2 -2 l 6 0 l 2 -2 l 0 -6 l -2 -2 l -6 0 l -2 2 l 0 6 l -2 2 l -6 0 l -2 -2 l 0 -6 l -2 -2 l -6 0 l -2 -2 l 0 -6 l 2 -2 l 6 0 l 2 -2 l 0 -6 l -2 -2 l -6 0 l -2 -2 l 0 -6 l 2 -2 l 6 0 l 2 2 l 0 6 l 2 2 l 6 0 l 2 -2 l 0 -6 l 2 -2 l 6 0 l 2 -2 l 0 -6 l -2 -2 l -6 0 l -2 2 l 0 6 l -2 2 l -6 0 l -2 -2 l 0 -6 l -2 -2 l -6 0 l -2 -2 l 0 -6 l 2 -2 l 6 0 l 2 -2 l 0 -6 l -2 -2 l -6 0 l -2 2 l 0 6 l -2 2 l -6 0 l -2 -2 l 0 -6 l -2 -2 l -6 0 l -2 2 l 0 6 l -2 2 l -6 0 l -2 2 l 0 6 l 2 2 l 6 0 " fill="none" stroke="black" />
</svg>
