<svg xmlns="http://www.w3.org/2000/svg" version="1.1" width="603" height="603">
<path d="M 2 602 l 85.7143 0 l 0 -85.7143 l -85.7143 0 l 0 -85.7143 l 0 -85.7143 l 85.7143 0 l 0 85.7143 l 85.7143 0 l 0 -85.7143 l 85.7143 0 l 0 85.7143 l 0 85.7143 l -85.7143 0 l 0 85.7143 l 85.7143 0 l 85.7143 0 l 0 -85.7143 l 85.7143 0 l 0 85.7143 l 85.7143 0 l 85.7143 0 l 0 -85.7143 l -85.7143 0 l 0 -85.7143 l 85.7143 0 l 0 -85.7143 l -85.7143 0 l -85.7143 0 l 0 85.7143 l -85.7143 0 l 0 -85.7143 l 0 -85.7143 l 0 -85.7143 l 85.7143 0 l 0 85.7143 l 85.7143 0 l 85.7143 0 l 0 -85.7143 l -85.7143 0 l 0 -85.7143 l 85.7143 0 l 0 -85.7143 l -85.7143 0 l -85.7143 0 l 0 85.7143 l -85.7143 0 l 0 -85.7143 l -85.7143 0 l -85.7143 0 l 0 85.7143 l 85.7143 0 l 0 85.7143 l 0 85.7143 l -85.7143 0 l 0 -85.7143 l -85.7143 0 l 0 85.7143 l -85.7143 0 l 0 -85.7143 l 0 -85.7143 l 85.7143 0 l 0 -85.7143 l -85.7143 0 " fill="none" stroke="black" />
</svg>
