<svg xmlns="http://www.w3.org/2000/svg" version="1.1" width="603" height="603">
<path d="M 2 602 l 0 -9.52381 l 9.52381 0 l 0 9.52381 l 9.52381 0 l 9.52381 0 l 0 -9.52381 l -9.52381 0 l 0 -9.52381 l 9.52381 0 l 0 -9.52381 l -9.52381 0 l -9.52381 0 l 0 9.52381 l -9.52381 0 l 0 -9.52381 l 0 -9.52381 l 9.52381 0 l 0 -9.52381 l -9.52381 0 l 0 -9.52381 l 0 -9.52381 l 9.52381 0 l 0 9.52381 l 9.52381 0 l 0 -9.52381 l 9.52381 0 l 0 9.52381 l 0 9.52381 l -9.52381 0 l 0 9.52381 l 9.52381 0 l 9.52381 0 l 9.52381 0 l 0 -9.52381 l -9.52381 0 l 0 -9.52381 l 0 -9.52381 l 9.52381 0 l 0 9.52381 l 9.52381 0 l 0 -9.52381 l 9.52381 0 l 0 9.52381 l 0 9.52381 l -9.52381 0 l 0 9.52381 l 9.52381 0 l 0 9.52381 l 0 9.52381 l -9.52381 0 l 0 -9.52381 l -9.52381 0 l -9.52381 0 l 0 9.52381 l 9.52381 0 l 0 9.52381 l -9.52381 0 l 0 9.52381 l 9.52381 0 l 9.52381 0 l 0 -9.52381 l 9.52381 0 l 0 9.52381 l 9.52381 0 l 9.52381 0 l 0 -9.52381 l -9.52381 0 l 0 -9.52381 l 0 -9.52381 l 9.52381 0 l 0 9.52381 l 9.52381 0 l 0 -9.52381 l 9.52381 0 l 0 9.52381 l 0 9.52381 l -9.52381 0 l 0 9.52381 l 9.52381 0 l 9.52381 0 l 0 -9.52381 l 9.52381 0 l 0 9.52381 l 9.52381 0 l 9.52381 0 l 0 -9.52381 l -9.52381 0 l 0 -9.52381 l 9.52381 0 l 0 -9.52381 l -9.52381 0 l -9.52381 0 l 0 9.52381 l -9.52381 0 l 0 -9.52381 l 0 -9.52381 l 0 -9.52381 l 9.52381 0 l 0 9.52381 l 9.52381 0 l 9.52381 0 l 0 -9.52381 l -9.52381 0 l 0 -9.52381 l 9.52381 0 l 0 -9.52381 l -9.52381 0 l -9.52381 0 l 0 9.52381 l -9.52381 0 l 0 -9.52381 l -9.52381 0 l -9.52381 0 l 0 9.52381 l 9.52381 0 l 0 9.52381 l 0 9.52381 l -9.52381 0 l 0 -9.52381 l -9.52381 0 l 0 9.52381 l -9.52381 0 l 0 -9.52381 l 0 -9.52381 l 9.52381 0 l 0 -9.52381 l -9.52381 0 l 0 -9.52381 l 9.52381 0 l 0 -9.52381 l -9.52381 0 l 0 -9.52381 l 0 -9.52381 l 9.52381 0 l 0 9.52381 l 9.52381 0 l 0 -9.52381 l 9.52381 0 l 0 9.52381 l 0 9.52381 l -9.52381 0 l 0 9.52381 l 9.52381 0 l 9.52381 0 l 0 -9.52381 l 9.52381 0 l 0 9.52381 l 9.52381 0 l 9.52381 0 l 0 -9.52381 l -9.52381 0 l 0 -9.52381 l 9.52381 0 l 0 -9.52381 l -9.52381 0 l -9.52381 0 l 0 9.52381 l -9.52381 0 l 0 -9.52381 l 0 -9.52381 l 0 -9.52381 l 9.52381 0 l 0 9.52381 l 9.52381 0 l 9.52381 0 l 0 -9.52381 l -9.52381 0 l 0 -9.52381 l 9.52381 0 l 0 -9.52381 l -9.52381 0 l -9.52381 0 l 0 9.52381 l -9.52381 0 l 0 -9.52381 l -9.52381 0 l -9.52381 0 l 0 9.52381 l 9.52381 0 l 0 9.52381 l 0 9.52381 l -9.52381 0 l 0 -9.52381 l -9.52381 0 l 0 9.52381 l -9.52381 0 l 0 -9.52381 l 0 -9.52381 l 9.52381 0 l 0 -9.52381 l -9.52381 0 l -9.52381 0 l 0 9.52381 l -9.52381 0 l 0 -9.52381 l -9.52381 0 l -9.52381 0 l 0 9.52381 l 9.52381 0 l 0 9.52381 l -9.52381 0 l 0 9.52381 l 9.52381 0 l 9.52381 0 l 0 -9.52381 l 9.52381 0 l 0 9.52381 l 0 9.52381 l -9.52381 0 l 0 9.52381 l 9.52381 0 l 0 9.52381 l 0 9.52381 l -9.52381 0 l 0 -9.52381 l -9.52381 0 l 0 9.52381 l -9.52381 0 l 0 -9.52381 l 0 -9.52381 l 9.52381 0 l 0 -9.52381 l -9.52381 0 l -9.52381 0 l -9.52381 0 l 0 9.52381 l 9.52381 0 l 0 9.52381 l 0 9.52381 l -9.52381 0 l 0 -9.52381 l -9.52381 0 l 0 9.52381 l -9.52381 0 l 0 -9.52381 l 0 -9.52381 l 9.52381 0 l 0 -9.52381 l -9.52381 0 l 0 -9.52381 l 0 -9.52381 l 9.52381 0 l 0 9.52381 l 9.52381 0 l 9.52381 0 l 0 -9.52381 l -9.52381 0 l 0 -9.52381 l 9.52381 0 l 0 -9.52381 l -9.52381 0 l -9.52381 0 l 0 9.52381 l -9.52381 0 l 0 -9.52381 l 0 -9.52381 l 9.52381 0 l 0 -9.52381 l -9.52381 0 l 0 -9.52381 l 0 -9.52381 l 9.52381 0 l 0 9.52381 l 9.52381 0 l 0 -9.52381 l 9.52381 0 l 0 9.52381 l 0 9.52381 l -9.52381 0 l 0 9.52381 l 9.52381 0 l 9.52381 0 l 0 -9.52381 l 9.52381 0 l 0 9.52381 l 9.52381 0 l 9.52381 0 l 0 -9.52381 l -9.52381 0 l 0 -9.52381 l 9.52381 0 l 0 -9.52381 l -9.52381 0 l -9.52381 0 l 0 9.52381 l -9.52381 0 l 0 -9.52381 l 0 -9.52381 l 0 -9.52381 l 9.52381 0 l 0 9.52381 l 9.52381 0 l 9.52381 0 l 0 -9.52381 l -9.52381 0 l 0 -9.52381 l 9.52381 0 l 0 -9.52381 l -9.52381 0 l -9.52381 0 l 0 9.52381 l -9.52381 0 l 0 -9.52381 l -9.52381 0 l -9.52381 0 l 0 9.52381 l 9.52381 0 l 0 9.52381 l 0 9.52381 l -9.52381 0 l 0 -9.52381 l -9.52381 0 l 0 9.52381 l -9.52381 0 l 0 -9.52381 l 0 -9.52381 l 9.52381 0 l 0 -9.52381 l -9.52381 0 l 0 -9.52381 l 0 -9.52381 l 9.52381 0 l 0 9.52381 l 9.52381 0 l 9.52381 0 l 0 -9.52381 l -9.52381 0 l 0 -9.52381 l 9.52381 0 l 0 -9.52381 l -9.52381 0 l -9.52381 0 l 0 9.52381 l -9.52381 0 l 0 -9.52381 l 0 -9.52381 l 9.52381 0 l 0 -9.52381 l -9.52381 0 l 0 -9.52381 l 0 -9.52381 l 9.52381 0 l 0 9.52381 l 9.52381 0 l 0 -9.52381 l 9.52381 0 l 0 9.52381 l 0 9.52381 l -9.52381 0 l 0 9.52381 l 9.52381 0 l 9.52381 0 l 9.52381 0 l 0 -9.52381 l -9.52381 0 l 0 -9.52381 l 0 -9.52381 l 9.52381 0 l 0 9.52381 l 9.52381 0 l 0 -9.52381 l 9.52381 0 l 0 9.52381 l 0 9.52381 l -9.52381 0 l 0 9.52381 l 9.52381 0 l 0 9.52381 l 0 9.52381 l -9.52381 0 l 0 -9.52381 l -9.52381 0 l -9.52381 0 l 0 9.52381 l 9.52381 0 l 0 9.52381 l -9.52381 0 l 0 9.52381 l 9.52381 0 l 9.52381 0 l 0 -9.52381 l 9.52381 0 l 0 9.52381 l 9.52381 0 l 0 -9.52381 l 9.52381 0 l 0 9.52381 l 9.52381 0 l 9.52381 0 l 0 -9.52381 l -9.52381 0 l 0 -9.52381 l 9.52381 0 l 0 -9.52381 l -9.52381 0 l -9.52381 0 l 0 9.52381 l -9.52381 0 l 0 -9.52381 l 0 -9.52381 l 9.52381 0 l 0 -9.52381 l -9.52381 0 l 0 -9.52381 l 0 -9.52381 l 9.52381 0 l 0 9.52381 l 9.52381 0 l 0 -9.52381 l 9.52381 0 l 0 9.52381 l 0 9.52381 l -9.52381 0 l 0 9.52381 l 9.52381 0 l 9.52381 0 l 9.52381 0 l 0 -9.52381 l -9.52381 0 l 0 -9.52381 l 0 -9.52381 l 9.52381 0 l 0 9.52381 l 9.52381 0 l 0 -9.52381 l 9.52381 0 l 0 9.52381 l 0 9.52381 l -9.52381 0 l 0 9.52381 l 9.52381 0 l 0 9.52381 l 0 9.52381 l -9.52381 0 l 0 -9.52381 l -9.52381 0 l -9.52381 0 l 0 9.52381 l 9.52381 0 l 0 9.52381 l -9.52381 0 l 0 9.52381 l 9.52381 0 l 9.52381 0 l 0 -9.52381 l 9.52381 0 l 0 9.52381 l 0 9.52381 l -9.52381 0 l 0 9.52381 l 9.52381 0 l 0 9.52381 l 0 9.52381 l -9.52381 0 l 0 -9.52381 l -9.52381 0 l 0 9.52381 l -9.52381 0 l 0 -9.52381 l 0 -9.52381 l 9.52381 0 l 0 -9.52381 l -9.52381 0 l -9.52381 0 l 0 9.52381 l -9.52381 0 l 0 -9.52381 l -9.52381 0 l -9.52381 0 l 0 9.52381 l 9.52381 0 l 0 9.52381 l -9.52381 0 l 0 9.52381 l 9.52381 0 l 9.52381 0 l 0 -9.52381 l 9.52381 0 l 0 9.52381 l 0 9.52381 l 0 9.52381 l -9.52381 0 l 0 -9.52381 l -9.52381 0 l -9.52381 0 l 0 9.52381 l 9.52381 0 l 0 9.52381 l -9.52381 0 l 0 9.52381 l 9.52381 0 l 9.52381 0 l 0 -9.52381 l 9.52381 0 l 0 9.52381 l 9.52381 0 l 9.52381 0 l 0 -9.52381 l -9.52381 0 l 0 -9.52381 l 0 -9.52381 l 9.52381 0 l 0 9.52381 l 9.52381 0 l 0 -9.52381 l 9.52381 0 l 0 9.52381 l 0 9.52381 l -9.52381 0 l 0 9.52381 l 9.52381 0 l 9.52381 0 l 9.52381 0 l 0 -9.52381 l -9.52381 0 l 0 -9.52381 l 0 -9.52381 l 9.52381 0 l 0 9.52381 l 9.52381 0 l 0 -9.52381 l 9.52381 0 l 0 9.52381 l 0 9.52381 l -9.52381 0 l 0 9.52381 l 9.52381 0 l 9.52381 0 l 0 -9.52381 l 9.52381 0 l 0 9.52381 l 9.52381 0 l 9.52381 0 l 0 -9.52381 l -9.52381 0 l 0 -9.52381 l 9.52381 0 l 0 -9.52381 l -9.52381 0 l -9.52381 0 l 0 9.52381 l -9.52381 0 l 0 -9.52381 l 0 -9.52381 l 0 -9.52381 l 9.52381 0 l 0 9.52381 l 9.52381 0 l 9.52381 0 l 0 -9.52381 l -9.52381 0 l 0 -9.52381 l 9.52381 0 l 0 -9.52381 l -9.52381 0 l -9.52381 0 l 0 9.52381 l -9.52381 0 l 0 -9.52381 l -9.52381 0 l -9.52381 0 l 0 9.52381 l 9.52381 0 l 0 9.52381 l 0 9.52381 l -9.52381 0 l 0 -9.52381 l -9.52381 0 l 0 9.52381 l -9.52381 0 l 0 -9.52381 l 0 -9.52381 l 9.52381 0 l 0 -9.52381 l -9.52381 0 l 0 -9.52381 l 0 -9.52381 l 9.52381 0 l 0 9.52381 l 9.52381 0 l 9.52381 0 l 0 -9.52381 l -9.52381 0 l 0 -9.52381 l 9.52381 0 l 0 -9.52381 l -9.52381 0 l -9.52381 0 l 0 9.52381 l -9.52381 0 l 0 -9.52381 l 0 -9.52381 l 9.52381 0 l 0 -9.52381 l -9.52381 0 l 0 -9.52381 l 0 -9.52381 l 9.52381 0 l 0 9.52381 l 9.52381 0 l 0 -9.52381 l 9.52381 0 l 0 9.52381 l 0 9.52381 l -9.52381 0 l 0 9.52381 l 9.52381 0 l 9.52381 0 l 9.52381 0 l 0 -9.52381 l -9.52381 0 l 0 -9.52381 l 0 -9.52381 l 9.52381 0 l 0 9.52381 l 9.52381 0 l 0 -9.52381 l 9.52381 0 l 0 9.52381 l 0 9.52381 l -9.52381 0 l 0 9.52381 l 9.52381 0 l 0 9.52381 l 0 9.52381 l -9.52381 0 l 0 -9.52381 l -9.52381 0 l -9.52381 0 l 0 9.52381 l 9.52381 0 l 0 9.52381 l -9.52381 0 l 0 9.52381 l 9.52381 0 l 9.52381 0 l 0 -9.52381 l 9.52381 0 l 0 9.52381 l 9.52381 0 l 0 -9.52381 l 9.52381 0 l 0 9.52381 l 9.52381 0 l 9.52381 0 l 0 -9.52381 l -9.52381 0 l 0 -9.52381 l 9.52381 0 l 0 -9.52381 l -9.52381 0 l -9.52381 0 l 0 9.52381 l -9.52381 0 l 0 -9.52381 l 0 -9.52381 l 9.52381 0 l 0 -9.52381 l -9.52381 0 l 0 -9.52381 l 0 -9.52381 l 9.52381 0 l 0 9.52381 l 9.52381 0 l 0 -9.52381 l 9.52381 0 l 0 9.52381 l 0 9.52381 l -9.52381 0 l 0 9.52381 l 9.52381 0 l 9.52381 0 l 9.52381 0 l 0 -9.52381 l -9.52381 0 l 0 -9.52381 l 0 -9.52381 l 9.52381 0 l 0 9.52381 l 9.52381 0 l 0 -9.52381 l 9.52381 0 l 0 9.52381 l 0 9.52381 l -9.52381 0 l 0 9.52381 l 9.52381 0 l 0 9.52381 l 0 9.52381 l -9.52381 0 l 0 -9.52381 l -9.52381 0 l -9.52381 0 l 0 9.52381 l 9.52381 0 l 0 9.52381 l -9.52381 0 l 0 9.52381 l 9.52381 0 l 9.52381 0 l 0 -9.52381 l 9.52381 0 l 0 9.52381 l 0 9.52381 l -9.52381 0 l 0 9.52381 l 9.52381 0 l 0 9.52381 l 0 9.52381 l -9.52381 0 l 0 -9.52381 l -9.52381 0 l 0 9.52381 l -9.52381 0 l 0 -9.52381 l 0 -9.52381 l 9.52381 0 l 0 -9.52381 l -9.52381 0 l -9.52381 0 l 0 9.52381 l -9.52381 0 l 0 -9.52381 l -9.52381 0 l -9.52381 0 l 0 9.52381 l 9.52381 0 l 0 9.52381 l -9.52381 0 l 0 9.52381 l 9.52381 0 l 9.52381 0 l 0 -9.52381 l 9.52381 0 l 0 9.52381 l 0 9.52381 l 0 9.52381 l -9.52381 0 l 0 -9.52381 l -9.52381 0 l -9.52381 0 l 0 9.52381 l 9.52381 0 l 0 9.52381 l -9.52381 0 l 0 9.52381 l 9.52381 0 l 9.52381 0 l 0 -9.52381 l 9.52381 0 l 0 9.52381 l 9.52381 0 l 9.52381 0 l 0 -9.52381 l -9.52381 0 l 0 -9.52381 l 0 -9.52381 l 9.52381 0 l 0 9.52381 l 9.52381 0 l 0 -9.52381 l 9.52381 0 l 0 9.52381 l 0 9.52381 l -9.52381 0 l 0 9.52381 l 9.52381 0 l 0 9.52381 l 0 9.52381 l -9.52381 0 l 0 -9.52381 l -9.52381 0 l -9.52381 0 l 0 9.52381 l 9.52381 0 l 0 9.52381 l -9.52381 0 l 0 9.52381 l 9.52381 0 l 9.52381 0 l 0 -9.52381 l 9.52381 0 l 0 9.52381 l 0 9.52381 l -9.52381 0 l 0 9.52381 l 9.52381 0 l 0 9.52381 l 0 9.52381 l -9.52381 0 l 0 -9.52381 l -9.52381 0 l 0 9.52381 l -9.52381 0 l 0 -9.52381 l 0 -9.52381 l 9.52381 0 l 0 -9.52381 l -9.52381 0 l -9.52381 0 l -9.52381 0 l 0 9.52381 l 9.52381 0 l 0 9.52381 l 0 9.52381 l -9.52381 0 l 0 -9.52381 l -9.52381 0 l 0 9.52381 l -9.52381 0 l 0 -9.52381 l 0 -9.52381 l 9.52381 0 l 0 -9.52381 l -9.52381 0 l 0 -9.52381 l 0 -9.52381 l 9.52381 0 l 0 9.52381 l 9.52381 0 l 9.52381 0 l 0 -9.52381 l -9.52381 0 l 0 -9.52381 l 9.52381 0 l 0 -9.52381 l -9.52381 0 l -9.52381 0 l 0 9.52381 l -9.52381 0 l 0 -9.52381 l -9.52381 0 l -9.52381 0 l 0 9.52381 l 9.52381 0 l 0 9.52381 l 0 9.52381 l -9.52381 0 l 0 -9.52381 l -9.52381 0 l 0 9.52381 l -9.52381 0 l 0 -9.52381 l 0 -9.52381 l 9.52381 0 l 0 -9.52381 l -9.52381 0 l -9.52381 0 l 0 9.52381 l -9.52381 0 l 0 -9.52381 l -9.52381 0 l -9.52381 0 l 0 9.52381 l 9.52381 0 l 0 9.52381 l -9.52381 0 l 0 9.52381 l 9.52381 0 l 9.52381 0 l 0 -9.52381 l 9.52381 0 l 0 9.52381 l 0 9.52381 l 0 9.52381 l -9.52381 0 l 0 -9.52381 l -9.52381 0 l -9.52381 0 l 0 9.52381 l 9.52381 0 l 0 9.52381 l -9.52381 0 l 0 9.52381 l 9.52381 0 l 9.52381 0 l 0 -9.52381 l 9.52381 0 l 0 9.52381 l 9.52381 0 l 9.52381 0 l 0 -9.52381 l -9.52381 0 l 0 -9.52381 l 0 -9.52381 l 9.52381 0 l 0 9.52381 l 9.52381 0 l 0 -9.52381 l 9.52381 0 l 0 9.52381 l 0 9.52381 l -9.52381 0 l 0 9.52381 l 9.52381 0 l 0 9.52381 l -9.52381 0 l 0 9.52381 l 9.52381 0 l 0 9.52381 l 0 9.52381 l -9.52381 0 l 0 -9.52381 l -9.52381 0 l 0 9.52381 l -9.52381 0 l 0 -9.52381 l 0 -9.52381 l 9.52381 0 l 0 -9.52381 l -9.52381 0 l -9.52381 0 l 0 9.52381 l -9.52381 0 l 0 -9.52381 l -9.52381 0 l -9.52381 0 l 0 9.52381 l 9.52381 0 l 0 9.52381 l -9.52381 0 l 0 9.52381 l 9.52381 0 l 9.52381 0 l 0 -9.52381 l 9.52381 0 l 0 9.52381 l 0 9.52381 l 0 9.52381 l -9.52381 0 l 0 -9.52381 l -9.52381 0 l -9.52381 0 l 0 9.52381 l 9.52381 0 l 0 9.52381 l -9.52381 0 l 0 9.52381 l 9.52381 0 l 9.52381 0 l 0 -9.52381 l 9.52381 0 l 0 9.52381 l 9.52381 0 l 9.52381 0 l 0 -9.52381 l -9.52381 0 l 0 -9.52381 l 0 -9.52381 l 9.52381 0 l 0 9.52381 l 9.52381 0 l 0 -9.52381 l 9.52381 0 l 0 9.52381 l 0 9.52381 l -9.52381 0 l 0 9.52381 l 9.52381 0 l 9.52381 0 l 0 -9.52381 l 9.52381 0 l 0 9.52381 l 9.52381 0 l 9.52381 0 l 0 -9.52381 l -9.52381 0 l 0 -9.52381 l 9.52381 0 l 0 -9.52381 l -9.52381 0 l -9.52381 0 l 0 9.52381 l -9.52381 0 l 0 -9.52381 l 0 -9.52381 l 9.52381 0 l 0 -9.52381 l -9.52381 0 l 0 -9.52381 l 0 -9.52381 l 9.52381 0 l 0 9.52381 l 9.52381 0 l 0 -9.52381 l 9.52381 0 l 0 9.52381 l 0 9.52381 l -9.52381 0 l 0 9.52381 l 9.52381 0 l 9.52381 0 l 9.52381 0 l 0 -9.52381 l -9.52381 0 l 0 -9.52381 l 0 -9.52381 l 9.52381 0 l 0 9.52381 l 9.52381 0 l 0 -9.52381 l 9.52381 0 l 0 9.52381 l 0 9.52381 l -9.52381 0 l 0 9.52381 l 9.52381 0 l 0 9.52381 l 0 9.52381 l -9.52381 0 l 0 -9.52381 l -9.52381 0 l -9.52381 0 l 0 9.52381 l 9.52381 0 l 0 9.52381 l -9.52381 0 l 0 9.52381 l 9.52381 0 l 9.52381 0 l 0 -9.52381 l 9.52381 0 l 0 9.52381 l 9.52381 0 l 9.52381 0 l 0 -9.52381 l -9.52381 0 l 0 -9.52381 l 0 -9.52381 l 9.52381 0 l 0 9.52381 l 9.52381 0 l 0 -9.52381 l 9.52381 0 l 0 9.52381 l 0 9.52381 l -9.52381 0 l 0 9.52381 l 9.52381 0 l 9.52381 0 l 0 -9.52381 l 9.52381 0 l 0 9.52381 l 9.52381 0 l 9.52381 0 l 0 -9.52381 l -9.52381 0 l 0 -9.52381 l 9.52381 0 l 0 -9.52381 l -9.52381 0 l -9.52381 0 l 0 9.52381 l -9.52381 0 l 0 -9.52381 l 0 -9.52381 l 0 -9.52381 l 9.52381 0 l 0 9.52381 l 9.52381 0 l 9.52381 0 l 0 -9.52381 l -9.52381 0 l 0 -9.52381 l 9.52381 0 l 0 -9.52381 l -9.52381 0 l -9.52381 0 l 0 9.52381 l -9.52381 0 l 0 -9.52381 l -9.52381 0 l -9.52381 0 l 0 9.52381 l 9.52381 0 l 0 9.52381 l 0 9.52381 l -9.52381 0 l 0 -9.52381 l -9.52381 0 l 0 9.52381 l -9.52381 0 l 0 -9.52381 l 0 -9.52381 l 9.52381 0 l 0 -9.52381 l -9.52381 0 l 0 -9.52381 l 0 -9.52381 l 9.52381 0 l 0 9.52381 l 9.52381 0 l 9.52381 0 l 0 -9.52381 l -9.52381 0 l 0 -9.52381 l 9.52381 0 l 0 -9.52381 l -9.52381 0 l -9.52381 0 l 0 9.52381 l -9.52381 0 l 0 -9.52381 l 0 -9.52381 l 9.52381 0 l 0 -9.52381 l -9.52381 0 l 0 -9.52381 l 0 -9.52381 l 9.52381 0 l 0 9.52381 l 9.52381 0 l 0 -9.52381 l 9.52381 0 l 0 9.52381 l 0 9.52381 l -9.52381 0 l 0 9.52381 l 9.52381 0 l 9.52381 0 l 9.52381 0 l 0 -9.52381 l -9.52381 0 l 0 -9.52381 l 0 -9.52381 l 9.52381 0 l 0 9.52381 l 9.52381 0 l 0 -9.52381 l 9.52381 0 l 0 9.52381 l 0 9.52381 l -9.52381 0 l 0 9.52381 l 9.52381 0 l 0 9.52381 l 0 9.52381 l -9.52381 0 l 0 -9.52381 l -9.52381 0 l -9.52381 0 l 0 9.52381 l 9.52381 0 l 0 9.52381 l -9.52381 0 l 0 9.52381 l 9.52381 0 l 9.52381 0 l 0 -9.52381 l 9.52381 0 l 0 9.52381 l 9.52381 0 l 0 -9.52381 l 9.52381 0 l 0 9.52381 l 9.52381 0 l 9.52381 0 l 0 -9.52381 l -9.52381 0 l 0 -9.52381 l 9.52381 0 l 0 -9.52381 l -9.52381 0 l -9.52381 0 l 0 9.52381 l -9.52381 0 l 0 -9.52381 l 0 -9.52381 l 9.52381 0 l 0 -9.52381 l -9.52381 0 l 0 -9.52381 l 0 -9.52381 l 9.52381 0 l 0 9.52381 l 9.52381 0 l 0 -9.52381 l 9.52381 0 l 0 9.52381 l 0 9.52381 l -9.52381 0 l 0 9.52381 l 9.52381 0 l 9.52381 0 l 9.52381 0 l 0 -9.52381 l -9.52381 0 l 0 -9.52381 l 0 -9.52381 l 9.52381 0 l 0 9.52381 l 9.52381 0 l 0 -9.52381 l 9.52381 0 l 0 9.52381 l 0 9.52381 l -9.52381 0 l 0 9.52381 l 9.52381 0 l 0 9.52381 l 0 9.52381 l -9.52381 0 l 0 -9.52381 l -9.52381 0 l -9.52381 0 l 0 9.52381 l 9.52381 0 l 0 9.52381 l -9.52381 0 l 0 9.52381 l 9.52381 0 l 9.52381 0 l 0 -9.52381 l 9.52381 0 l 0 9.52381 l 0 9.52381 l -9.52381 0 l 0 9.52381 l 9.52381 0 l 0 9.52381 l 0 9.52381 l -9.52381 0 l 0 -9.52381 l -9.52381 0 l 0 9.52381 l -9.52381 0 l 0 -9.52381 l 0 -9.52381 l 9.52381 0 l 0 -9.52381 l -9.52381 0 l -9.52381 0 l 0 9.52381 l -9.52381 0 l 0 -9.52381 l -9.52381 0 l -9.52381 0 l 0 9.52381 l 9.52381 0 l 0 9.52381 l -9.52381 0 l 0 9.52381 l 9.52381 0 l 9.52381 0 l 0 -9.52381 l 9.52381 0 l 0 9.52381 l 0 9.52381 l 0 9.52381 l -9.52381 0 l 0 -9.52381 l -9.52381 0 l -9.52381 0 l 0 9.52381 l 9.52381 0 l 0 9.52381 l -9.52381 0 l 0 9.52381 l 9.52381 0 l 9.52381 0 l 0 -9.52381 l 9.52381 0 l 0 9.52381 l 9.52381 0 l 9.52381 0 l 0 -9.52381 l -9.52381 0 l 0 -9.52381 l 0 -9.52381 l 9.52381 0 l 0 9.52381 l 9.52381 0 l 0 -9.52381 l 9.52381 0 l 0 9.52381 l 0 9.52381 l -9.52381 0 l 0 9.52381 l 9.52381 0 l 9.52381 0 l 0 -9.52381 l 9.52381 0 l 0 9.52381 l 9.52381 0 l 9.52381 0 l 0 -9.52381 l -9.52381 0 l 0 -9.52381 l 9.52381 0 l 0 -9.52381 l -9.52381 0 l -9.52381 0 l 0 9.52381 l -9.52381 0 l 0 -9.52381 l 0 -9.52381 l 9.52381 0 l 0 -9.52381 l -9.52381 0 l 0 -9.52381 l 0 -9.52381 l 9.52381 0 l 0 9.52381 l 9.52381 0 l 0 -9.52381 l 9.52381 0 l 0 9.52381 l 0 9.52381 l -9.52381 0 l 0 9.52381 l 9.52381 0 l 9.52381 0 l 9.52381 0 l 0 -9.52381 l -9.52381 0 l 0 -9.52381 l 0 -9.52381 l 9.52381 0 l 0 9.52381 l 9.52381 0 l 0 -9.52381 l 9.52381 0 l 0 9.52381 l 0 9.52381 l -9.52381 0 l 0 9.52381 l 9.52381 0 l 0 9.52381 l 0 9.52381 l -9.52381 0 l 0 -9.52381 l -9.52381 0 l -9.52381 0 l 0 9.52381 l 9.52381 0 l 0 9.52381 l -9.52381 0 l 0 9.52381 l 9.52381 0 l 9.52381 0 l 0 -9.52381 l 9.52381 0 l 0 9.52381 l 9.52381 0 l 9.52381 0 l 0 -9.52381 l -9.52381 0 l 0 -9.52381 l 0 -9.52381 l 9.52381 0 l 0 9.52381 l 9.52381 0 l 0 -9.52381 l 9.52381 0 l 0 9.52381 l 0 9.52381 l -9.52381 0 l 0 9.52381 l 9.52381 0 l 9.52381 0 l 0 -9.52381 l 9.52381 0 l 0 9.52381 l 9.52381 0 l 9.52381 0 l 0 -9.52381 l -9.52381 0 l 0 -9.52381 l 9.52381 0 l 0 -9.52381 l -9.52381 0 l -9.52381 0 l 0 9.52381 l -9.52381 0 l 0 -9.52381 l 0 -9.52381 l 0 -9.52381 l 9.52381 0 l 0 9.52381 l 9.52381 0 l 9.52381 0 l 0 -9.52381 l -9.52381 0 l 0 -9.52381 l 9.52381 0 l 0 -9.52381 l -9.52381 0 l -9.52381 0 l 0 9.52381 l -9.52381 0 l 0 -9.52381 l -9.52381 0 l -9.52381 0 l 0 9.52381 l 9.52381 0 l 0 9.52381 l 0 9.52381 l -9.52381 0 l 0 -9.52381 l -9.52381 0 l 0 9.52381 l -9.52381 0 l 0 -9.52381 l 0 -9.52381 l 9.52381 0 l 0 -9.52381 l -9.52381 0 l 0 -9.52381 l 9.52381 0 l 0 -9.52381 l -9.52381 0 l 0 -9.52381 l 0 -9.52381 l 9.52381 0 l 0 9.52381 l 9.52381 0 l 0 -9.52381 l 9.52381 0 l 0 9.52381 l 0 9.52381 l -9.52381 0 l 0 9.52381 l 9.52381 0 l 9.52381 0 l 0 -9.52381 l 9.52381 0 l 0 9.52381 l 9.52381 0 l 9.52381 0 l 0 -9.52381 l -9.52381 0 l 0 -9.52381 l 9.52381 0 l 0 -9.52381 l -9.52381 0 l -9.52381 0 l 0 9.52381 l -9.52381 0 l 0 -9.52381 l 0 -9.52381 l 0 -9.52381 l 9.52381 0 l 0 9.52381 l 9.52381 0 l 9.52381 0 l 0 -9.52381 l -9.52381 0 l 0 -9.52381 l 9.52381 0 l 0 -9.52381 l -9.52381 0 l -9.52381 0 l 0 9.52381 l -9.52381 0 l 0 -9.52381 l -9.52381 0 l -9.52381 0 l 0 9.52381 l 9.52381 0 l 0 9.52381 l 0 9.52381 l -9.52381 0 l 0 -9.52381 l -9.52381 0 l 0 9.52381 l -9.52381 0 l 0 -9.52381 l 0 -9.52381 l 9.52381 0 l 0 -9.52381 l -9.52381 0 l -9.52381 0 l 0 9.52381 l -9.52381 0 l 0 -9.52381 l -9.52381 0 l -9.52381 0 l 0 9.52381 l 9.52381 0 l 0 9.52381 l -9.52381 0 l 0 9.52381 l 9.52381 0 l 9.52381 0 l 0 -9.52381 l 9.52381 0 l 0 9.52381 l 0 9.52381 l -9.52381 0 l 0 9.52381 l 9.52381 0 l 0 9.52381 l 0 9.52381 l -9.52381 0 l 0 -9.52381 l -9.52381 0 l 0 9.52381 l -9.52381 0 l 0 -9.52381 l 0 -9.52381 l 9.52381 0 l 0 -9.52381 l -9.52381 0 l -9.52381 0 l -9.52381 0 l 0 9.52381 l 9.52381 0 l 0 9.52381 l 0 9.52381 l -9.52381 0 l 0 -9.52381 l -9.52381 0 l 0 9.52381 l -9.52381 0 l 0 -9.52381 l 0 -9.52381 l 9.52381 0 l 0 -9.52381 l -9.52381 0 l 0 -9.52381 l 0 -9.52381 l 9.52381 0 l 0 9.52381 l 9.52381 0 l 9.52381 0 l 0 -9.52381 l -9.52381 0 l 0 -9.52381 l 9.52381 0 l 0 -9.52381 l -9.52381 0 l -9.52381 0 l 0 9.52381 l -9.52381 0 l 0 -9.52381 l 0 -9.52381 l 0 -9.52381 l 9.52381 0 l 0 9.52381 l 9.52381 0 l 9.52381 0 l 0 -9.52381 l -9.52381 0 l 0 -9.52381 l 9.52381 0 l 0 -9.52381 l -9.52381 0 l -9.52381 0 l 0 9.52381 l -9.52381 0 l 0 -9.52381 l 0 -9.52381 l 9.52381 0 l 0 -9.52381 l -9.52381 0 l 0 -9.52381 l 0 -9.52381 l 9.52381 0 l 0 9.52381 l 9.52381 0 l 0 -9.52381 l 9.52381 0 l 0 9.52381 l 0 9.52381 l -9.52381 0 l 0 9.52381 l 9.52381 0 l 9.52381 0 l 9.52381 0 l 0 -9.52381 l -9.52381 0 l 0 -9.52381 l 0 -9.52381 l 9.52381 0 l 0 9.52381 l 9.52381 0 l 0 -9.52381 l 9.52381 0 l 0 9.52381 l 0 9.52381 l -9.52381 0 l 0 9.52381 l 9.52381 0 l 0 9.52381 l 0 9.52381 l -9.52381 0 l 0 -9.52381 l -9.52381 0 l -9.52381 0 l 0 9.52381 l 9.52381 0 l 0 9.52381 l -9.52381 0 l 0 9.52381 l 9.52381 0 l 9.52381 0 l 0 -9.52381 l 9.52381 0 l 0 9.52381 l 9.52381 0 l 9.52381 0 l 0 -9.52381 l -9.52381 0 l 0 -9.52381 l 0 -9.52381 l 9.52381 0 l 0 9.52381 l 9.52381 0 l 0 -9.52381 l 9.52381 0 l 0 9.52381 l 0 9.52381 l -9.52381 0 l 0 9.52381 l 9.52381 0 l 9.52381 0 l 0 -9.52381 l 9.52381 0 l 0 9.52381 l 9.52381 0 l 9.52381 0 l 0 -9.52381 l -9.52381 0 l 0 -9.52381 l 9.52381 0 l 0 -9.52381 l -9.52381 0 l -9.52381 0 l 0 9.52381 l -9.52381 0 l 0 -9.52381 l 0 -9.52381 l 0 -9.52381 l 9.52381 0 l 0 9.52381 l 9.52381 0 l 9.52381 0 l 0 -9.52381 l -9.52381 0 l 0 -9.52381 l 9.52381 0 l 0 -9.52381 l -9.52381 0 l -9.52381 0 l 0 9.52381 l -9.52381 0 l 0 -9.52381 l -9.52381 0 l -9.52381 0 l 0 9.52381 l 9.52381 0 l 0 9.52381 l 0 9.52381 l -9.52381 0 l 0 -9.52381 l -9.52381 0 l 0 9.52381 l -9.52381 0 l 0 -9.52381 l 0 -9.52381 l 9.52381 0 l 0 -9.52381 l -9.52381 0 l 0 -9.52381 l 9.52381 0 l 0 -9.52381 l -9.52381 0 l 0 -9.52381 l 0 -9.52381 l 9.52381 0 l 0 9.52381 l 9.52381 0 l 0 -9.52381 l 9.52381 0 l 0 9.52381 l 0 9.52381 l -9.52381 0 l 0 9.52381 l 9.52381 0 l 9.52381 0 l 0 -9.52381 l 9.52381 0 l 0 9.52381 l 9.52381 0 l 9.52381 0 l 0 -9.52381 l -9.52381 0 l 0 -9.52381 l 9.52381 0 l 0 -9.52381 l -9.52381 0 l -9.52381 0 l 0 9.52381 l -9.52381 0 l 0 -9.52381 l 0 -9.52381 l 0 -9.52381 l 9.52381 0 l 0 9.52381 l 9.52381 0 l 9.52381 0 l 0 -9.52381 l -9.52381 0 l 0 -9.52381 l 9.52381 0 l 0 -9.52381 l -9.52381 0 l -9.52381 0 l 0 9.52381 l -9.52381 0 l 0 -9.52381 l -9.52381 0 l -9.52381 0 l 0 9.52381 l 9.52381 0 l 0 9.52381 l 0 9.52381 l -9.52381 0 l 0 -9.52381 l -9.52381 0 l 0 9.52381 l -9.52381 0 l 0 -9.52381 l 0 -9.52381 l 9.52381 0 l 0 -9.52381 l -9.52381 0 l -9.52381 0 l 0 9.52381 l -9.52381 0 l 0 -9.52381 l -9.52381 0 l -9.52381 0 l 0 9.52381 l 9.52381 0 l 0 9.52381 l -9.52381 0 l 0 9.52381 l 9.52381 0 l 9.52381 0 l 0 -9.52381 l 9.52381 0 l 0 9.52381 l 0 9.52381 l -9.52381 0 l 0 9.52381 l 9.52381 0 l 0 9.52381 l 0 9.52381 l -9.52381 0 l 0 -9.52381 l -9.52381 0 l 0 9.52381 l -9.52381 0 l 0 -9.52381 l 0 -9.52381 l 9.52381 0 l 0 -9.52381 l -9.52381 0 l -9.52381 0 l -9.52381 0 l 0 9.52381 l 9.52381 0 l 0 9.52381 l 0 9.52381 l -9.52381 0 l 0 -9.52381 l -9.52381 0 l 0 9.52381 l -9.52381 0 l 0 -9.52381 l 0 -9.52381 l 9.52381 0 l 0 -9.52381 l -9.52381 0 l 0 -9.52381 l 0 -9.52381 l 9.52381 0 l 0 9.52381 l 9.52381 0 l 9.52381 0 l 0 -9.52381 l -9.52381 0 l 0 -9.52381 l 9.52381 0 l 0 -9.52381 l -9.52381 0 l -9.52381 0 l 0 9.52381 l -9.52381 0 l 0 -9.52381 l -9.52381 0 l -9.52381 0 l 0 9.52381 l 9.52381 0 l 0 9.52381 l 0 9.52381 l -9.52381 0 l 0 -9.52381 l -9.52381 0 l 0 9.52381 l -9.52381 0 l 0 -9.52381 l 0 -9.52381 l 9.52381 0 l 0 -9.52381 l -9.52381 0 l -9.52381 0 l 0 9.52381 l -9.52381 0 l 0 -9.52381 l -9.52381 0 l -9.52381 0 l 0 9.52381 l 9.52381 0 l 0 9.52381 l -9.52381 0 l 0 9.52381 l 9.52381 0 l 9.52381 0 l 0 -9.52381 l 9.52381 0 l 0 9.52381 l 0 9.52381 l 0 9.52381 l -9.52381 0 l 0 -9.52381 l -9.52381 0 l -9.52381 0 l 0 9.52381 l 9.52381 0 l 0 9.52381 l -9.52381 0 l 0 9.52381 l 9.52381 0 l 9.52381 0 l 0 -9.52381 l 9.52381 0 l 0 9.52381 l 9.52381 0 l 9.52381 0 l 0 -9.52381 l -9.52381 0 l 0 -9.52381 l 0 -9.52381 l 9.52381 0 l 0 9.52381 l 9.52381 0 l 0 -9.52381 l 9.52381 0 l 0 9.52381 l 0 9.52381 l -9.52381 0 l 0 9.52381 l 9.52381 0 l 0 9.52381 l 0 9.52381 l -9.52381 0 l 0 -9.52381 l -9.52381 0 l -9.52381 0 l 0 9.52381 l 9.52381 0 l 0 9.52381 l -9.52381 0 l 0 9.52381 l 9.52381 0 l 9.52381 0 l 0 -9.52381 l 9.52381 0 l 0 9.52381 l 0 9.52381 l -9.52381 0 l 0 9.52381 l 9.52381 0 l 0 9.52381 l 0 9.52381 l -9.52381 0 l 0 -9.52381 l -9.52381 0 l 0 9.52381 l -9.52381 0 l 0 -9.52381 l 0 -9.52381 l 9.52381 0 l 0 -9.52381 l -9.52381 0 l -9.52381 0 l -9.52381 0 l 0 9.52381 l 9.52381 0 l 0 9.52381 l 0 9.52381 l -9.52381 0 l 0 -9.52381 l -9.52381 0 l 0 9.52381 l -9.52381 0 l 0 -9.52381 l 0 -9.52381 l 9.52381 0 l 0 -9.52381 l -9.52381 0 l 0 -9.52381 l 0 -9.52381 l 9.52381 0 l 0 9.52381 l 9.52381 0 l 9.52381 0 l 0 -9.52381 l -9.52381 0 l 0 -9.52381 l 9.52381 0 l 0 -9.52381 l -9.52381 0 l -9.52381 0 l 0 9.52381 l -9.52381 0 l 0 -9.52381 l -9.52381 0 l 0 9.52381 l -9.52381 0 l 0 -9.52381 l -9.52381 0 l -9.52381 0 l 0 9.52381 l 9.52381 0 l 0 9.52381 l -9.52381 0 l 0 9.52381 l 9.52381 0 l 9.52381 0 l 0 -9.52381 l 9.52381 0 l 0 9.52381 l 0 9.52381 l -9.52381 0 l 0 9.52381 l 9.52381 0 l 0 9.52381 l 0 9.52381 l -9.52381 0 l 0 -9.52381 l -9.52381 0 l 0 9.52381 l -9.52381 0 l 0 -9.52381 l 0 -9.52381 l 9.52381 0 l 0 -9.52381 l -9.52381 0 l -9.52381 0 l -9.52381 0 l 0 9.52381 l 9.52381 0 l 0 9.52381 l 0 9.52381 l -9.52381 0 l 0 -9.52381 l -9.52381 0 l 0 9.52381 l -9.52381 0 l 0 -9.52381 l 0 -9.52381 l 9.52381 0 l 0 -9.52381 l -9.52381 0 l 0 -9.52381 l 0 -9.52381 l 9.52381 0 l 0 9.52381 l 9.52381 0 l 9.52381 0 l 0 -9.52381 l -9.52381 0 l 0 -9.52381 l 9.52381 0 l 0 -9.52381 l -9.52381 0 l -9.52381 0 l 0 9.52381 l -9.52381 0 l 0 -9.52381 l 0 -9.52381 l 9.52381 0 l 0 -9.52381 l -9.52381 0 l 0 -9.52381 l 0 -9.52381 l 9.52381 0 l 0 9.52381 l 9.52381 0 l 0 -9.52381 l 9.52381 0 l 0 9.52381 l 0 9.52381 l -9.52381 0 l 0 9.52381 l 9.52381 0 l 9.52381 0 l 0 -9.52381 l 9.52381 0 l 0 9.52381 l 9.52381 0 l 9.52381 0 l 0 -9.52381 l -9.52381 0 l 0 -9.52381 l 9.52381 0 l 0 -9.52381 l -9.52381 0 l -9.52381 0 l 0 9.52381 l -9.52381 0 l 0 -9.52381 l 0 -9.52381 l 0 -9.52381 l 9.52381 0 l 0 9.52381 l 9.52381 0 l 9.52381 0 l 0 -9.52381 l -9.52381 0 l 0 -9.52381 l 9.52381 0 l 0 -9.52381 l -9.52381 0 l -9.52381 0 l 0 9.52381 l -9.52381 0 l 0 -9.52381 l -9.52381 0 l -9.52381 0 l 0 9.52381 l 9.52381 0 l 0 9.52381 l 0 9.52381 l -9.52381 0 l 0 -9.52381 l -9.52381 0 l 0 9.52381 l -9.52381 0 l 0 -9.52381 l 0 -9.52381 l 9.52381 0 l 0 -9.52381 l -9.52381 0 l 0 -9.52381 l 9.52381 0 l 0 -9.52381 l -9.52381 0 l 0 -9.52381 l 0 -9.52381 l 9.52381 0 l 0 9.52381 l 9.52381 0 l 0 -9.52381 l 9.52381 0 l 0 9.52381 l 0 9.52381 l -9.52381 0 l 0 9.52381 l 9.52381 0 l 9.52381 0 l 0 -9.52381 l 9.52381 0 l 0 9.52381 l 9.52381 0 l 9.52381 0 l 0 -9.52381 l -9.52381 0 l 0 -9.52381 l 9.52381 0 l 0 -9.52381 l -9.52381 0 l -9.52381 0 l 0 9.52381 l -9.52381 0 l 0 -9.52381 l 0 -9.52381 l 0 -9.52381 l 9.52381 0 l 0 9.52381 l 9.52381 0 l 9.52381 0 l 0 -9.52381 l -9.52381 0 l 0 -9.52381 l 9.52381 0 l 0 -9.52381 l -9.52381 0 l -9.52381 0 l 0 9.52381 l -9.52381 0 l 0 -9.52381 l -9.52381 0 l -9.52381 0 l 0 9.52381 l 9.52381 0 l 0 9.52381 l 0 9.52381 l -9.52381 0 l 0 -9.52381 l -9.52381 0 l 0 9.52381 l -9.52381 0 l 0 -9.52381 l 0 -9.52381 l 9.52381 0 l 0 -9.52381 l -9.52381 0 l 0 -9.52381 l 0 -9.52381 l 9.52381 0 l 0 9.52381 l 9.52381 0 l 9.52381 0 l 0 -9.52381 l -9.52381 0 l 0 -9.52381 l 9.52381 0 l 0 -9.52381 l -9.52381 0 l -9.52381 0 l 0 9.52381 l -9.52381 0 l 0 -9.52381 l 0 -9.52381 l 9.52381 0 l 0 -9.52381 l -9.52381 0 l 0 -9.52381 l 0 -9.52381 l 9.52381 0 l 0 9.52381 l 9.52381 0 l 0 -9.52381 l 9.52381 0 l 0 9.52381 l 0 9.52381 l -9.52381 0 l 0 9.52381 l 9.52381 0 l 9.52381 0 l 9.52381 0 l 0 -9.52381 l -9.52381 0 l 0 -9.52381 l 0 -9.52381 l 9.52381 0 l 0 9.52381 l 9.52381 0 l 0 -9.52381 l 9.52381 0 l 0 9.52381 l 0 9.52381 l -9.52381 0 l 0 9.52381 l 9.52381 0 l 0 9.52381 l 0 9.52381 l -9.52381 0 l 0 -9.52381 l -9.52381 0 l -9.52381 0 l 0 9.52381 l 9.52381 0 l 0 9.52381 l -9.52381 0 l 0 9.52381 l 9.52381 0 l 9.52381 0 l 0 -9.52381 l 9.52381 0 l 0 9.52381 l 9.52381 0 l 0 -9.52381 l 9.52381 0 l 0 9.52381 l 9.52381 0 l 9.52381 0 l 0 -9.52381 l -9.52381 0 l 0 -9.52381 l 9.52381 0 l 0 -9.52381 l -9.52381 0 l -9.52381 0 l 0 9.52381 l -9.52381 0 l 0 -9.52381 l 0 -9.52381 l 9.52381 0 l 0 -9.52381 l -9.52381 0 l 0 -9.52381 l 0 -9.52381 l 9.52381 0 l 0 9.52381 l 9.52381 0 l 0 -9.52381 l 9.52381 0 l 0 9.52381 l 0 9.52381 l -9.52381 0 l 0 9.52381 l 9.52381 0 l 9.52381 0 l 9.52381 0 l 0 -9.52381 l -9.52381 0 l 0 -9.52381 l 0 -9.52381 l 9.52381 0 l 0 9.52381 l 9.52381 0 l 0 -9.52381 l 9.52381 0 l 0 9.52381 l 0 9.52381 l -9.52381 0 l 0 9.52381 l 9.52381 0 l 0 9.52381 l 0 9.52381 l -9.52381 0 l 0 -9.52381 l -9.52381 0 l -9.52381 0 l 0 9.52381 l 9.52381 0 l 0 9.52381 l -9.52381 0 l 0 9.52381 l 9.52381 0 l 9.52381 0 l 0 -9.52381 l 9.52381 0 l 0 9.52381 l 0 9.52381 l -9.52381 0 l 0 9.52381 l 9.52381 0 l 0 9.52381 l 0 9.52381 l -9.52381 0 l 0 -9.52381 l -9.52381 0 l 0 9.52381 l -9.52381 0 l 0 -9.52381 l 0 -9.52381 l 9.52381 0 l 0 -9.52381 l -9.52381 0 l -9.52381 0 l 0 9.52381 l -9.52381 0 l 0 -9.52381 l -9.52381 0 l -9.52381 0 l 0 9.52381 l 9.52381 0 l 0 9.52381 l -9.52381 0 l 0 9.52381 l 9.52381 0 l 9.52381 0 l 0 -9.52381 l 9.52381 0 l 0 9.52381 l 0 9.52381 l 0 9.52381 l -9.52381 0 l 0 -9.52381 l -9.52381 0 l -9.52381 0 l 0 9.52381 l 9.52381 0 l 0 9.52381 l -9.52381 0 l 0 9.52381 l 9.52381 0 l 9.52381 0 l 0 -9.52381 l 9.52381 0 l 0 9.52381 l 9.52381 0 l 9.52381 0 l 0 -9.52381 l -9.52381 0 l 0 -9.52381 l 0 -9.52381 l 9.52381 0 l 0 9.52381 l 9.52381 0 l 0 -9.52381 l 9.52381 0 l 0 9.52381 l 0 9.52381 l -9.52381 0 l 0 9.52381 l 9.52381 0 l 9.52381 0 l 0 -9.52381 l 9.52381 0 l 0 9.52381 l 9.52381 0 l 9.52381 0 l 0 -9.52381 l -9.52381 0 l 0 -9.52381 l 9.52381 0 l 0 -9.52381 l -9.52381 0 l -9.52381 0 l 0 9.52381 l -9.52381 0 l 0 -9.52381 l 0 -9.52381 l 9.52381 0 l 0 -9.52381 l -9.52381 0 l 0 -9.52381 l 0 -9.52381 l 9.52381 0 l 0 9.52381 l 9.52381 0 l 0 -9.52381 l 9.52381 0 l 0 9.52381 l 0 9.52381 l -9.52381 0 l 0 9.52381 l 9.52381 0 l 9.52381 0 l 9.52381 0 l 0 -9.52381 l -9.52381 0 l 0 -9.52381 l 0 -9.52381 l 9.52381 0 l 0 9.52381 l 9.52381 0 l 0 -9.52381 l 9.52381 0 l 0 9.52381 l 0 9.52381 l -9.52381 0 l 0 9.52381 l 9.52381 0 l 0 9.52381 l 0 9.52381 l -9.52381 0 l 0 -9.52381 l -9.52381 0 l -9.52381 0 l 0 9.52381 l 9.52381 0 l 0 9.52381 l -9.52381 0 l 0 9.52381 l 9.52381 0 l 9.52381 0 l 0 -9.52381 l 9.52381 0 l 0 9.52381 l 9.52381 0 l 9.52381 0 l 0 -9.52381 l -9.52381 0 l 0 -9.52381 l 0 -9.52381 l 9.52381 0 l 0 9.52381 l 9.52381 0 l 0 -9.52381 l 9.52381 0 l 0 9.52381 l 0 9.52381 l -9.52381 0 l 0 9.52381 l 9.52381 0 l 9.52381 0 l 0 -9.52381 l 9.52381 0 l 0 9.52381 l 9.52381 0 l 9.52381 0 l 0 -9.52381 l -9.52381 0 l 0 -9.52381 l 9.52381 0 l 0 -9.52381 l -9.52381 0 l -9.52381 0 l 0 9.52381 l -9.52381 0 l 0 -9.52381 l 0 -9.52381 l 0 -9.52381 l 9.52381 0 l 0 9.52381 l 9.52381 0 l 9.52381 0 l 0 -9.52381 l -9.52381 0 l 0 -9.52381 l 9.52381 0 l 0 -9.52381 l -9.52381 0 l -9.52381 0 l 0 9.52381 l -9.52381 0 l 0 -9.52381 l -9.52381 0 l -9.52381 0 l 0 9.52381 l 9.52381 0 l 0 9.52381 l 0 9.52381 l -9.52381 0 l 0 -9.52381 l -9.52381 0 l 0 9.52381 l -9.52381 0 l 0 -9.52381 l 0 -9.52381 l 9.52381 0 l 0 -9.52381 l -9.52381 0 l 0 -9.52381 l 9.52381 0 l 0 -9.52381 l -9.52381 0 l 0 -9.52381 l 0 -9.52381 l 9.52381 0 l 0 9.52381 l 9.52381 0 l 0 -9.52381 l 9.52381 0 l 0 9.52381 l 0 9.52381 l -9.52381 0 l 0 9.52381 l 9.52381 0 l 9.52381 0 l 0 -9.52381 l 9.52381 0 l 0 9.52381 l 9.52381 0 l 9.52381 0 l 0 -9.52381 l -9.52381 0 l 0 -9.52381 l 9.52381 0 l 0 -9.52381 l -9.52381 0 l -9.52381 0 l 0 9.52381 l -9.52381 0 l 0 -9.52381 l 0 -9.52381 l 0 -9.52381 l 9.52381 0 l 0 9.52381 l 9.52381 0 l 9.52381 0 l 0 -9.52381 l -9.52381 0 l 0 -9.52381 l 9.52381 0 l 0 -9.52381 l -9.52381 0 l -9.52381 0 l 0 9.52381 l -9.52381 0 l 0 -9.52381 l -9.52381 0 l -9.52381 0 l 0 9.52381 l 9.52381 0 l 0 9.52381 l 0 9.52381 l -9.52381 0 l 0 -9.52381 l -9.52381 0 l 0 9.52381 l -9.52381 0 l 0 -9.52381 l 0 -9.52381 l 9.52381 0 l 0 -9.52381 l -9.52381 0 l -9.52381 0 l 0 9.52381 l -9.52381 0 l 0 -9.52381 l -9.52381 0 l -9.52381 0 l 0 9.52381 l 9.52381 0 l 0 9.52381 l -9.52381 0 l 0 9.52381 l 9.52381 0 l 9.52381 0 l 0 -9.52381 l 9.52381 0 l 0 9.52381 l 0 9.52381 l -9.52381 0 l 0 9.52381 l 9.52381 0 l 0 9.52381 l 0 9.52381 l -9.52381 0 l 0 -9.52381 l -9.52381 0 l 0 9.52381 l -9.52381 0 l 0 -9.52381 l 0 -9.52381 l 9.52381 0 l 0 -9.52381 l -9.52381 0 l -9.52381 0 l -9.52381 0 l 0 9.52381 l 9.52381 0 l 0 9.52381 l 0 9.52381 l -9.52381 0 l 0 -9.52381 l -9.52381 0 l 0 9.52381 l -9.52381 0 l 0 -9.52381 l 0 -9.52381 l 9.52381 0 l 0 -9.52381 l -9.52381 0 l 0 -9.52381 l 0 -9.52381 l 9.52381 0 l 0 9.52381 l 9.52381 0 l 9.52381 0 l 0 -9.52381 l -9.52381 0 l 0 -9.52381 l 9.52381 0 l 0 -9.52381 l -9.52381 0 l -9.52381 0 l 0 9.52381 l -9.52381 0 l 0 -9.52381 l 0 -9.52381 l 0 -9.52381 l 9.52381 0 l 0 9.52381 l 9.52381 0 l 9.52381 0 l 0 -9.52381 l -9.52381 0 l 0 -9.52381 l 9.52381 0 l 0 -9.52381 l -9.52381 0 l -9.52381 0 l 0 9.52381 l -9.52381 0 l 0 -9.52381 l 0 -9.52381 l 9.52381 0 l 0 -9.52381 l -9.52381 0 l 0 -9.52381 l 0 -9.52381 l 9.52381 0 l 0 9.52381 l 9.52381 0 l 0 -9.52381 l 9.52381 0 l 0 9.52381 l 0 9.52381 l -9.52381 0 l 0 9.52381 l 9.52381 0 l 9.52381 0 l 9.52381 0 l 0 -9.52381 l -9.52381 0 l 0 -9.52381 l 0 -9.52381 l 9.52381 0 l 0 9.52381 l 9.52381 0 l 0 -9.52381 l 9.52381 0 l 0 9.52381 l 0 9.52381 l -9.52381 0 l 0 9.52381 l 9.52381 0 l 0 9.52381 l 0 9.52381 l -9.52381 0 l 0 -9.52381 l -9.52381 0 l -9.52381 0 l 0 9.52381 l 9.52381 0 l 0 9.52381 l -9.52381 0 l 0 9.52381 l 9.52381 0 l 9.52381 0 l 0 -9.52381 l 9.52381 0 l 0 9.52381 l 9.52381 0 l 9.52381 0 l 0 -9.52381 l -9.52381 0 l 0 -9.52381 l 0 -9.52381 l 9.52381 0 l 0 9.52381 l 9.52381 0 l 0 -9.52381 l 9.52381 0 l 0 9.52381 l 0 9.52381 l -9.52381 0 l 0 9.52381 l 9.52381 0 l 9.52381 0 l 0 -9.52381 l 9.52381 0 l 0 9.52381 l 9.52381 0 l 9.52381 0 l 0 -9.52381 l -9.52381 0 l 0 -9.52381 l 9.52381 0 l 0 -9.52381 l -9.52381 0 l -9.52381 0 l 0 9.52381 l -9.52381 0 l 0 -9.52381 l 0 -9.52381 l 0 -9.52381 l 9.52381 0 l 0 9.52381 l 9.52381 0 l 9.52381 0 l 0 -9.52381 l -9.52381 0 l 0 -9.52381 l 9.52381 0 l 0 -9.52381 l -9.52381 0 l -9.52381 0 l 0 9.52381 l -9.52381 0 l 0 -9.52381 l -9.52381 0 l -9.52381 0 l 0 9.52381 l 9.52381 0 l 0 9.52381 l 0 9.52381 l -9.52381 0 l 0 -9.52381 l -9.52381 0 l 0 9.52381 l -9.52381 0 l 0 -9.52381 l 0 -9.52381 l 9.52381 0 l 0 -9.52381 l -9.52381 0 l 0 -9.52381 l 9.52381 0 l 0 -9.52381 l -9.52381 0 l 0 -9.52381 l 0 -9.52381 l 9.52381 0 l 0 9.52381 l 9.52381 0 l 0 -9.52381 l 9.52381 0 l 0 9.52381 l 0 9.52381 l -9.52381 0 l 0 9.52381 l 9.52381 0 l 9.52381 0 l 0 -9.52381 l 9.52381 0 l 0 9.52381 l 9.52381 0 l 9.52381 0 l 0 -9.52381 l -9.52381 0 l 0 -9.52381 l 9.52381 0 l 0 -9.52381 l -9.52381 0 l -9.52381 0 l 0 9.52381 l -9.52381 0 l 0 -9.52381 l 0 -9.52381 l 0 -9.52381 l 9.52381 0 l 0 9.52381 l 9.52381 0 l 9.52381 0 l 0 -9.52381 l -9.52381 0 l 0 -9.52381 l 9.52381 0 l 0 -9.52381 l -9.52381 0 l -9.52381 0 l 0 9.52381 l -9.52381 0 l 0 -9.52381 l -9.52381 0 l -9.52381 0 l 0 9.52381 l 9.52381 0 l 0 9.52381 l 0 9.52381 l -9.52381 0 l 0 -9.52381 l -9.52381 0 l 0 9.52381 l -9.52381 0 l 0 -9.52381 l 0 -9.52381 l 9.52381 0 l 0 -9.52381 l -9.52381 0 l -9.52381 0 l 0 9.52381 l -9.52381 0 l 0 -9.52381 l -9.52381 0 l -9.52381 0 l 0 9.52381 l 9.52381 0 l 0 9.52381 l -9.52381 0 l 0 9.52381 l 9.52381 0 l 9.52381 0 l 0 -9.52381 l 9.52381 0 l 0 9.52381 l 0 9.52381 l -9.52381 0 l 0 9.52381 l 9.52381 0 l 0 9.52381 l 0 9.52381 l -9.52381 0 l 0 -9.52381 l -9.52381 0 l 0 9.52381 l -9.52381 0 l 0 -9.52381 l 0 -9.52381 l 9.52381 0 l 0 -9.52381 l -9.52381 0 l -9.52381 0 l -9.52381 0 l 0 9.52381 l 9.52381 0 l 0 9.52381 l 0 9.52381 l -9.52381 0 l 0 -9.52381 l -9.52381 0 l 0 9.52381 l -9.52381 0 l 0 -9.52381 l 0 -9.52381 l 9.52381 0 l 0 -9.52381 l -9.52381 0 l 0 -9.52381 l 0 -9.52381 l 9.52381 0 l 0 9.52381 l 9.52381 0 l 9.52381 0 l 0 -9.52381 l -9.52381 0 l 0 -9.52381 l 9.52381 0 l 0 -9.52381 l -9.52381 0 l -9.52381 0 l 0 9.52381 l -9.52381 0 l 0 -9.52381 l -9.52381 0 l -9.52381 0 l 0 9.52381 l 9.52381 0 l 0 9.52381 l 0 9.52381 l -9.52381 0 l 0 -9.52381 l -9.52381 0 l 0 9.52381 l -9.52381 0 l 0 -9.52381 l 0 -9.52381 l 9.52381 0 l 0 -9.52381 l -9.52381 0 l -9.52381 0 l 0 9.52381 l -9.52381 0 l 0 -9.52381 l -9.52381 0 l -9.52381 0 l 0 9.52381 l 9.52381 0 l 0 9.52381 l -9.52381 0 l 0 9.52381 l 9.52381 0 l 9.52381 0 l 0 -9.52381 l 9.52381 0 l 0 9.52381 l 0 9.52381 l 0 9.52381 l -9.52381 0 l 0 -9.52381 l -9.52381 0 l -9.52381 0 l 0 9.52381 l 9.52381 0 l 0 9.52381 l -9.52381 0 l 0 9.52381 l 9.52381 0 l 9.52381 0 l 0 -9.52381 l 9.52381 0 l 0 9.52381 l 9.52381 0 l 9.52381 0 l 0 -9.52381 l -9.52381 0 l 0 -9.52381 l 0 -9.52381 l 9.52381 0 l 0 9.52381 l 9.52381 0 l 0 -9.52381 l 9.52381 0 l 0 9.52381 l 0 9.52381 l -9.52381 0 l 0 9.52381 l 9.52381 0 l 0 9.52381 l 0 9.52381 l -9.52381 0 l 0 -9.52381 l -9.52381 0 l -9.52381 0 l 0 9.52381 l 9.52381 0 l 0 9.52381 l -9.52381 0 l 0 9.52381 l 9.52381 0 l 9.52381 0 l 0 -9.52381 l 9.52381 0 l 0 9.52381 l 0 9.52381 l -9.52381 0 l 0 9.52381 l 9.52381 0 l 0 9.52381 l 0 9.52381 l -9.52381 0 l 0 -9.52381 l -9.52381 0 l 0 9.52381 l -9.52381 0 l 0 -9.52381 l 0 -9.52381 l 9.52381 0 l 0 -9.52381 l -9.52381 0 l -9.52381 0 l -9.52381 0 l 0 9.52381 l 9.52381 0 l 0 9.52381 l 0 9.52381 l -9.52381 0 l 0 -9.52381 l -9.52381 0 l 0 9.52381 l -9.52381 0 l 0 -9.52381 l 0 -9.52381 l 9.52381 0 l 0 -9.52381 l -9.52381 0 l 0 -9.52381 l 0 -9.52381 l 9.52381 0 l 0 9.52381 l 9.52381 0 l 9.52381 0 l 0 -9.52381 l -9.52381 0 l 0 -9.52381 l 9.52381 0 l 0 -9.52381 l -9.52381 0 l -9.52381 0 l 0 9.52381 l -9.52381 0 l 0 -9.52381 l -9.52381 0 l 0 9.52381 l -9.52381 0 l 0 -9.52381 l -9.52381 0 l -9.52381 0 l 0 9.52381 l 9.52381 0 l 0 9.52381 l -9.52381 0 l 0 9.52381 l 9.52381 0 l 9.52381 0 l 0 -9.52381 l 9.52381 0 l 0 9.52381 l 0 9.52381 l -9.52381 0 l 0 9.52381 l 9.52381 0 l 0 9.52381 l 0 9.52381 l -9.52381 0 l 0 -9.52381 l -9.52381 0 l 0 9.52381 l -9.52381 0 l 0 -9.52381 l 0 -9.52381 l 9.52381 0 l 0 -9.52381 l -9.52381 0 l -9.52381 0 l -9.52381 0 l 0 9.52381 l 9.52381 0 l 0 9.52381 l 0 9.52381 l -9.52381 0 l 0 -9.52381 l -9.52381 0 l 0 9.52381 l -9.52381 0 l 0 -9.52381 l 0 -9.52381 l 9.52381 0 l 0 -9.52381 l -9.52381 0 l 0 -9.52381 l 0 -9.52381 l 9.52381 0 l 0 9.52381 l 9.52381 0 l 9.52381 0 l 0 -9.52381 l -9.52381 0 l 0 -9.52381 l 9.52381 0 l 0 -9.52381 l -9.52381 0 l -9.52381 0 l 0 9.52381 l -9.52381 0 l 0 -9.52381 l 0 -9.52381 l 9.52381 0 l 0 -9.52381 l -9.52381 0 l 0 -9.52381 l 0 -9.52381 l 9.52381 0 l 0 9.52381 l 9.52381 0 l 0 -9.52381 l 9.52381 0 l 0 9.52381 l 0 9.52381 l -9.52381 0 l 0 9.52381 l 9.52381 0 l 9.52381 0 l 0 -9.52381 l 9.52381 0 l 0 9.52381 l 9.52381 0 l 9.52381 0 l 0 -9.52381 l -9.52381 0 l 0 -9.52381 l 9.52381 0 l 0 -9.52381 l -9.52381 0 l -9.52381 0 l 0 9.52381 l -9.52381 0 l 0 -9.52381 l 0 -9.52381 l 0 -9.52381 l 9.52381 0 l 0 9.52381 l 9.52381 0 l 9.52381 0 l 0 -9.52381 l -9.52381 0 l 0 -9.52381 l 9.52381 0 l 0 -9.52381 l -9.52381 0 l -9.52381 0 l 0 9.52381 l -9.52381 0 l 0 -9.52381 l -9.52381 0 l -9.52381 0 l 0 9.52381 l 9.52381 0 l 0 9.52381 l 0 9.52381 l -9.52381 0 l 0 -9.52381 l -9.52381 0 l 0 9.52381 l -9.52381 0 l 0 -9.52381 l 0 -9.52381 l 9.52381 0 l 0 -9.52381 l -9.52381 0 l -9.52381 0 l 0 9.52381 l -9.52381 0 l 0 -9.52381 l -9.52381 0 l -9.52381 0 l 0 9.52381 l 9.52381 0 l 0 9.52381 l -9.52381 0 l 0 9.52381 l 9.52381 0 l 9.52381 0 l 0 -9.52381 l 9.52381 0 l 0 9.52381 l 0 9.52381 l -9.52381 0 l 0 9.52381 l 9.52381 0 l 0 9.52381 l 0 9.52381 l -9.52381 0 l 0 -9.52381 l -9.52381 0 l 0 9.52381 l -9.52381 0 l 0 -9.52381 l 0 -9.52381 l 9.52381 0 l 0 -9.52381 l -9.52381 0 l -9.52381 0 l -9.52381 0 l 0 9.52381 l 9.52381 0 l 0 9.52381 l 0 9.52381 l -9.52381 0 l 0 -9.52381 l -9.52381 0 l 0 9.52381 l -9.52381 0 l 0 -9.52381 l 0 -9.52381 l 9.52381 0 l 0 -9.52381 l -9.52381 0 l 0 -9.52381 l 0 -9.52381 l 9.52381 0 l 0 9.52381 l 9.52381 0 l 9.52381 0 l 0 -9.52381 l -9.52381 0 l 0 -9.52381 l 9.52381 0 l 0 -9.52381 l -9.52381 0 l -9.52381 0 l 0 9.52381 l -9.52381 0 l 0 -9.52381 l -9.52381 0 l -9.52381 0 l 0 9.52381 l 9.52381 0 l 0 9.52381 l 0 9.52381 l -9.52381 0 l 0 -9.52381 l -9.52381 0 l 0 9.52381 l -9.52381 0 l 0 -9.52381 l 0 -9.52381 l 9.52381 0 l 0 -9.52381 l -9.52381 0 l -9.52381 0 l 0 9.52381 l -9.52381 0 l 0 -9.52381 l -9.52381 0 l -9.52381 0 l 0 9.52381 l 9.52381 0 l 0 9.52381 l -9.52381 0 l 0 9.52381 l 9.52381 0 l 9.52381 0 l 0 -9.52381 l 9.52381 0 l 0 9.52381 l 0 9.52381 l 0 9.52381 l -9.52381 0 l 0 -9.52381 l -9.52381 0 l -9.52381 0 l 0 9.52381 l 9.52381 0 l 0 9.52381 l -9.52381 0 l 0 9.52381 l 9.52381 0 l 9.52381 0 l 0 -9.52381 l 9.52381 0 l 0 9.52381 l 9.52381 0 l 9.52381 0 l 0 -9.52381 l -9.52381 0 l 0 -9.52381 l 0 -9.52381 l 9.52381 0 l 0 9.52381 l 9.52381 0 l 0 -9.52381 l 9.52381 0 l 0 9.52381 l 0 9.52381 l -9.52381 0 l 0 9.52381 l 9.52381 0 l 0 9.52381 l -9.52381 0 l 0 9.52381 l 9.52381 0 l 0 9.52381 l 0 9.52381 l -9.52381 0 l 0 -9.52381 l -9.52381 0 l 0 9.52381 l -9.52381 0 l 0 -9.52381 l 0 -9.52381 l 9.52381 0 l 0 -9.52381 l -9.52381 0 l -9.52381 0 l 0 9.52381 l -9.52381 0 l 0 -9.52381 l -9.52381 0 l -9.52381 0 l 0 9.52381 l 9.52381 0 l 0 9.52381 l -9.52381 0 l 0 9.52381 l 9.52381 0 l 9.52381 0 l 0 -9.52381 l 9.52381 0 l 0 9.52381 l 0 9.52381 l 0 9.52381 l -9.52381 0 l 0 -9.52381 l -9.52381 0 l -9.52381 0 l 0 9.52381 l 9.52381 0 l 0 9.52381 l -9.52381 0 l 0 9.52381 l 9.52381 0 l 9.52381 0 l 0 -9.52381 l 9.52381 0 l 0 9.52381 l 9.52381 0 l 9.52381 0 l 0 -9.52381 l -9.52381 0 l 0 -9.52381 l 0 -9.52381 l 9.52381 0 l 0 9.52381 l 9.52381 0 l 0 -9.52381 l 9.52381 0 l 0 9.52381 l 0 9.52381 l -9.52381 0 l 0 9.52381 l 9.52381 0 l 9.52381 0 l 0 -9.52381 l 9.52381 0 l 0 9.52381 l 9.52381 0 l 9.52381 0 l 0 -9.52381 l -9.52381 0 l 0 -9.52381 l 9.52381 0 l 0 -9.52381 l -9.52381 0 l -9.52381 0 l 0 9.52381 l -9.52381 0 l 0 -9.52381 l 0 -9.52381 l 9.52381 0 l 0 -9.52381 l -9.52381 0 l 0 -9.52381 l 0 -9.52381 l 9.52381 0 l 0 9.52381 l 9.52381 0 l 0 -9.52381 l 9.52381 0 l 0 9.52381 l 0 9.52381 l -9.52381 0 l 0 9.52381 l 9.52381 0 l 9.52381 0 l 9.52381 0 l 0 -9.52381 l -9.52381 0 l 0 -9.52381 l 0 -9.52381 l 9.52381 0 l 0 9.52381 l 9.52381 0 l 0 -9.52381 l 9.52381 0 l 0 9.52381 l 0 9.52381 l -9.52381 0 l 0 9.52381 l 9.52381 0 l 0 9.52381 l 0 9.52381 l -9.52381 0 l 0 -9.52381 l -9.52381 0 l -9.52381 0 l 0 9.52381 l 9.52381 0 l 0 9.52381 l -9.52381 0 l 0 9.52381 l 9.52381 0 l 9.52381 0 l 0 -9.52381 l 9.52381 0 l 0 9.52381 l 0 9.52381 l -9.52381 0 l 0 9.52381 l 9.52381 0 l 0 9.52381 l 0 9.52381 l -9.52381 0 l 0 -9.52381 l -9.52381 0 l 0 9.52381 l -9.52381 0 l 0 -9.52381 l 0 -9.52381 l 9.52381 0 l 0 -9.52381 l -9.52381 0 l -9.52381 0 l 0 9.52381 l -9.52381 0 l 0 -9.52381 l -9.52381 0 l -9.52381 0 l 0 9.52381 l 9.52381 0 l 0 9.52381 l -9.52381 0 l 0 9.52381 l 9.52381 0 l 9.52381 0 l 0 -9.52381 l 9.52381 0 l 0 9.52381 l 0 9.52381 l 0 9.52381 l -9.52381 0 l 0 -9.52381 l -9.52381 0 l -9.52381 0 l 0 9.52381 l 9.52381 0 l 0 9.52381 l -9.52381 0 l 0 9.52381 l 9.52381 0 l 9.52381 0 l 0 -9.52381 l 9.52381 0 l 0 9.52381 l 9.52381 0 l 9.52381 0 l 0 -9.52381 l -9.52381 0 l 0 -9.52381 l 0 -9.52381 l 9.52381 0 l 0 9.52381 l 9.52381 0 l 0 -9.52381 l 9.52381 0 l 0 9.52381 l 0 9.52381 l -9.52381 0 l 0 9.52381 l 9.52381 0 l 0 9.52381 l 0 9.52381 l -9.52381 0 l 0 -9.52381 l -9.52381 0 l -9.52381 0 l 0 9.52381 l 9.52381 0 l 0 9.52381 l -9.52381 0 l 0 9.52381 l 9.52381 0 l 9.52381 0 l 0 -9.52381 l 9.52381 0 l 0 9.52381 l 0 9.52381 l -9.52381 0 l 0 9.52381 l 9.52381 0 l 0 9.52381 l 0 9.52381 l -9.52381 0 l 0 -9.52381 l -9.52381 0 l 0 9.52381 l -9.52381 0 l 0 -9.52381 l 0 -9.52381 l 9.52381 0 l 0 -9.52381 l -9.52381 0 l -9.52381 0 l -9.52381 0 l 0 9.52381 l 9.52381 0 l 0 9.52381 l 0 9.52381 l -9.52381 0 l 0 -9.52381 l -9.52381 0 l 0 9.52381 l -9.52381 0 l 0 -9.52381 l 0 -9.52381 l 9.52381 0 l 0 -9.52381 l -9.52381 0 l 0 -9.52381 l 0 -9.52381 l 9.52381 0 l 0 9.52381 l 9.52381 0 l 9.52381 0 l 0 -9.52381 l -9.52381 0 l 0 -9.52381 l 9.52381 0 l 0 -9.52381 l -9.52381 0 l -9.52381 0 l 0 9.52381 l -9.52381 0 l 0 -9.52381 l -9.52381 0 l 0 9.52381 l -9.52381 0 l 0 -9.52381 l -9.52381 0 l -9.52381 0 l 0 9.52381 l 9.52381 0 l 0 9.52381 l -9.52381 0 l 0 9.52381 l 9.52381 0 l 9.52381 0 l 0 -9.52381 l 9.52381 0 l 0 9.52381 l 0 9.52381 l -9.52381 0 l 0 9.52381 l 9.52381 0 l 0 9.52381 l 0 9.52381 l -9.52381 0 l 0 -9.52381 l -9.52381 0 l 0 9.52381 l -9.52381 0 l 0 -9.52381 l 0 -9.52381 l 9.52381 0 l 0 -9.52381 l -9.52381 0 l -9.52381 0 l -9.52381 0 l 0 9.52381 l 9.52381 0 l 0 9.52381 l 0 9.52381 l -9.52381 0 l 0 -9.52381 l -9.52381 0 l 0 9.52381 l -9.52381 0 l 0 -9.52381 l 0 -9.52381 l 9.52381 0 l 0 -9.52381 l -9.52381 0 l 0 -9.52381 l 0 -9.52381 l 9.52381 0 l 0 9.52381 l 9.52381 0 l 9.52381 0 l 0 -9.52381 l -9.52381 0 l 0 -9.52381 l 9.52381 0 l 0 -9.52381 l -9.52381 0 l -9.52381 0 l 0 9.52381 l -9.52381 0 l 0 -9.52381 l 0 -9.52381 l 9.52381 0 l 0 -9.52381 l -9.52381 0 l 0 -9.52381 l 0 -9.52381 l 9.52381 0 l 0 9.52381 l 9.52381 0 l 0 -9.52381 l 9.52381 0 l 0 9.52381 l 0 9.52381 l -9.52381 0 l 0 9.52381 l 9.52381 0 l 9.52381 0 l 0 -9.52381 l 9.52381 0 l 0 9.52381 l 9.52381 0 l 9.52381 0 l 0 -9.52381 l -9.52381 0 l 0 -9.52381 l 9.52381 0 l 0 -9.52381 l -9.52381 0 l -9.52381 0 l 0 9.52381 l -9.52381 0 l 0 -9.52381 l 0 -9.52381 l 0 -9.52381 l 9.52381 0 l 0 9.52381 l 9.52381 0 l 9.52381 0 l 0 -9.52381 l -9.52381 0 l 0 -9.52381 l 9.52381 0 l 0 -9.52381 l -9.52381 0 l -9.52381 0 l 0 9.52381 l -9.52381 0 l 0 -9.52381 l -9.52381 0 l -9.52381 0 l 0 9.52381 l 9.52381 0 l 0 9.52381 l 0 9.52381 l -9.52381 0 l 0 -9.52381 l -9.52381 0 l 0 9.52381 l -9.52381 0 l 0 -9.52381 l 0 -9.52381 l 9.52381 0 l 0 -9.52381 l -9.52381 0 l -9.52381 0 l -9.52381 0 l 0 9.52381 l 9.52381 0 l 0 9.52381 l 0 9.52381 l -9.52381 0 l 0 -9.52381 l -9.52381 0 l 0 9.52381 l -9.52381 0 l 0 -9.52381 l 0 -9.52381 l 9.52381 0 l 0 -9.52381 l -9.52381 0 l -9.52381 0 l 0 9.52381 l -9.52381 0 l 0 -9.52381 l -9.52381 0 l -9.52381 0 l 0 9.52381 l 9.52381 0 l 0 9.52381 l -9.52381 0 l 0 9.52381 l 9.52381 0 l 9.52381 0 l 0 -9.52381 l 9.52381 0 l 0 9.52381 l 0 9.52381 l 0 9.52381 l -9.52381 0 l 0 -9.52381 l -9.52381 0 l -9.52381 0 l 0 9.52381 l 9.52381 0 l 0 9.52381 l -9.52381 0 l 0 9.52381 l 9.52381 0 l 9.52381 0 l 0 -9.52381 l 9.52381 0 l 0 9.52381 l 9.52381 0 l 9.52381 0 l 0 -9.52381 l -9.52381 0 l 0 -9.52381 l 0 -9.52381 l 9.52381 0 l 0 9.52381 l 9.52381 0 l 0 -9.52381 l 9.52381 0 l 0 9.52381 l 0 9.52381 l -9.52381 0 l 0 9.52381 l 9.52381 0 l 0 9.52381 l 0 9.52381 l -9.52381 0 l 0 -9.52381 l -9.52381 0 l -9.52381 0 l 0 9.52381 l 9.52381 0 l 0 9.52381 l -9.52381 0 l 0 9.52381 l 9.52381 0 l 9.52381 0 l 0 -9.52381 l 9.52381 0 l 0 9.52381 l 0 9.52381 l -9.52381 0 l 0 9.52381 l 9.52381 0 l 0 9.52381 l 0 9.52381 l -9.52381 0 l 0 -9.52381 l -9.52381 0 l 0 9.52381 l -9.52381 0 l 0 -9.52381 l 0 -9.52381 l 9.52381 0 l 0 -9.52381 l -9.52381 0 l -9.52381 0 l -9.52381 0 l 0 9.52381 l 9.52381 0 l 0 9.52381 l 0 9.52381 l -9.52381 0 l 0 -9.52381 l -9.52381 0 l 0 9.52381 l -9.52381 0 l 0 -9.52381 l 0 -9.52381 l 9.52381 0 l 0 -9.52381 l -9.52381 0 l 0 -9.52381 l 0 -9.52381 l 9.52381 0 l 0 9.52381 l 9.52381 0 l 9.52381 0 l 0 -9.52381 l -9.52381 0 l 0 -9.52381 l 9.52381 0 l 0 -9.52381 l -9.52381 0 l -9.52381 0 l 0 9.52381 l -9.52381 0 l 0 -9.52381 l -9.52381 0 l 0 9.52381 l -9.52381 0 l 0 -9.52381 l -9.52381 0 l -9.52381 0 l 0 9.52381 l 9.52381 0 l 0 9.52381 l -9.52381 0 l 0 9.52381 l 9.52381 0 l 9.52381 0 l 0 -9.52381 l 9.52381 0 l 0 9.52381 l 0 9.52381 l -9.52381 0 l 0 9.52381 l 9.52381 0 l 0 9.52381 l 0 9.52381 l -9.52381 0 l 0 -9.52381 l -9.52381 0 l 0 9.52381 l -9.52381 0 l 0 -9.52381 l 0 -9.52381 l 9.52381 0 l 0 -9.52381 l -9.52381 0 l -9.52381 0 l -9.52381 0 l 0 9.52381 l 9.52381 0 l 0 9.52381 l 0 9.52381 l -9.52381 0 l 0 -9.52381 l -9.52381 0 l 0 9.52381 l -9.52381 0 l 0 -9.52381 l 0 -9.52381 l 9.52381 0 l 0 -9.52381 l -9.52381 0 l 0 -9.52381 l 0 -9.52381 l 9.52381 0 l 0 9.52381 l 9.52381 0 l 9.52381 0 l 0 -9.52381 l -9.52381 0 l 0 -9.52381 l 9.52381 0 l 0 -9.52381 l -9.52381 0 l -9.52381 0 l 0 9.52381 l -9.52381 0 l 0 -9.52381 l 0 -9.52381 l 9.52381 0 l 0 -9.52381 l -9.52381 0 l 0 -9.52381 l 0 -9.52381 l 9.52381 0 l 0 9.52381 l 9.52381 0 l 0 -9.52381 l 9.52381 0 l 0 9.52381 l 0 9.52381 l -9.52381 0 l 0 9.52381 l 9.52381 0 l 9.52381 0 l 0 -9.52381 l 9.52381 0 l 0 9.52381 l 9.52381 0 l 9.52381 0 l 0 -9.52381 l -9.52381 0 l 0 -9.52381 l 9.52381 0 l 0 -9.52381 l -9.52381 0 l -9.52381 0 l 0 9.52381 l -9.52381 0 l 0 -9.52381 l 0 -9.52381 l 0 -9.52381 l 9.52381 0 l 0 9.52381 l 9.52381 0 l 9.52381 0 l 0 -9.52381 l -9.52381 0 l 0 -9.52381 l 9.52381 0 l 0 -9.52381 l -9.52381 0 l -9.52381 0 l 0 9.52381 l -9.52381 0 l 0 -9.52381 l -9.52381 0 l -9.52381 0 l 0 9.52381 l 9.52381 0 l 0 9.52381 l 0 9.52381 l -9.52381 0 l 0 -9.52381 l -9.52381 0 l 0 9.52381 l -9.52381 0 l 0 -9.52381 l 0 -9.52381 l 9.52381 0 l 0 -9.52381 l -9.52381 0 l 0 -9.52381 l 0 -9.52381 l 9.52381 0 l 0 9.52381 l 9.52381 0 l 9.52381 0 l 0 -9.52381 l -9.52381 0 l 0 -9.52381 l 9.52381 0 l 0 -9.52381 l -9.52381 0 l -9.52381 0 l 0 9.52381 l -9.52381 0 l 0 -9.52381 l 0 -9.52381 l 9.52381 0 l 0 -9.52381 l -9.52381 0 l 0 -9.52381 l 0 -9.52381 l 9.52381 0 l 0 9.52381 l 9.52381 0 l 0 -9.52381 l 9.52381 0 l 0 9.52381 l 0 9.52381 l -9.52381 0 l 0 9.52381 l 9.52381 0 l 9.52381 0 l 9.52381 0 l 0 -9.52381 l -9.52381 0 l 0 -9.52381 l 0 -9.52381 l 9.52381 0 l 0 9.52381 l 9.52381 0 l 0 -9.52381 l 9.52381 0 l 0 9.52381 l 0 9.52381 l -9.52381 0 l 0 9.52381 l 9.52381 0 l 0 9.52381 l 0 9.52381 l -9.52381 0 l 0 -9.52381 l -9.52381 0 l -9.52381 0 l 0 9.52381 l 9.52381 0 l 0 9.52381 l -9.52381 0 l 0 9.52381 l 9.52381 0 l 9.52381 0 l 0 -9.52381 l 9.52381 0 l 0 9.52381 l 9.52381 0 l 9.52381 0 l 0 -9.52381 l -9.52381 0 l 0 -9.52381 l 0 -9.52381 l 9.52381 0 l 0 9.52381 l 9.52381 0 l 0 -9.52381 l 9.52381 0 l 0 9.52381 l 0 9.52381 l -9.52381 0 l 0 9.52381 l 9.52381 0 l 9.52381 0 l 0 -9.52381 l 9.52381 0 l 0 9.52381 l 9.52381 0 l 9.52381 0 l 0 -9.52381 l -9.52381 0 l 0 -9.52381 l 9.52381 0 l 0 -9.52381 l -9.52381 0 l -9.52381 0 l 0 9.52381 l -9.52381 0 l 0 -9.52381 l 0 -9.52381 l 0 -9.52381 l 9.52381 0 l 0 9.52381 l 9.52381 0 l 9.52381 0 l 0 -9.52381 l -9.52381 0 l 0 -9.52381 l 9.52381 0 l 0 -9.52381 l -9.52381 0 l -9.52381 0 l 0 9.52381 l -9.52381 0 l 0 -9.52381 l -9.52381 0 l -9.52381 0 l 0 9.52381 l 9.52381 0 l 0 9.52381 l 0 9.52381 l -9.52381 0 l 0 -9.52381 l -9.52381 0 l 0 9.52381 l -9.52381 0 l 0 -9.52381 l 0 -9.52381 l 9.52381 0 l 0 -9.52381 l -9.52381 0 l 0 -9.52381 l 9.52381 0 l 0 -9.52381 l -9.52381 0 l 0 -9.52381 l 0 -9.52381 l 9.52381 0 l 0 9.52381 l 9.52381 0 l 0 -9.52381 l 9.52381 0 l 0 9.52381 l 0 9.52381 l -9.52381 0 l 0 9.52381 l 9.52381 0 l 9.52381 0 l 0 -9.52381 l 9.52381 0 l 0 9.52381 l 9.52381 0 l 9.52381 0 l 0 -9.52381 l -9.52381 0 l 0 -9.52381 l 9.52381 0 l 0 -9.52381 l -9.52381 0 l -9.52381 0 l 0 9.52381 l -9.52381 0 l 0 -9.52381 l 0 -9.52381 l 0 -9.52381 l 9.52381 0 l 0 9.52381 l 9.52381 0 l 9.52381 0 l 0 -9.52381 l -9.52381 0 l 0 -9.52381 l 9.52381 0 l 0 -9.52381 l -9.52381 0 l -9.52381 0 l 0 9.52381 l -9.52381 0 l 0 -9.52381 l -9.52381 0 l -9.52381 0 l 0 9.52381 l 9.52381 0 l 0 9.52381 l 0 9.52381 l -9.52381 0 l 0 -9.52381 l -9.52381 0 l 0 9.52381 l -9.52381 0 l 0 -9.52381 l 0 -9.52381 l 9.52381 0 l 0 -9.52381 l -9.52381 0 l -9.52381 0 l 0 9.52381 l -9.52381 0 l 0 -9.52381 l -9.52381 0 l -9.52381 0 l 0 9.52381 l 9.52381 0 l 0 9.52381 l -9.52381 0 l 0 9.52381 l 9.52381 0 l 9.52381 0 l 0 -9.52381 l 9.52381 0 l 0 9.52381 l 0 9.52381 l -9.52381 0 l 0 9.52381 l 9.52381 0 l 0 9.52381 l 0 9.52381 l -9.52381 0 l 0 -9.52381 l -9.52381 0 l 0 9.52381 l -9.52381 0 l 0 -9.52381 l 0 -9.52381 l 9.52381 0 l 0 -9.52381 l -9.52381 0 l -9.52381 0 l -9.52381 0 l 0 9.52381 l 9.52381 0 l 0 9.52381 l 0 9.52381 l -9.52381 0 l 0 -9.52381 l -9.52381 0 l 0 9.52381 l -9.52381 0 l 0 -9.52381 l 0 -9.52381 l 9.52381 0 l 0 -9.52381 l -9.52381 0 l 0 -9.52381 l 0 -9.52381 l 9.52381 0 l 0 9.52381 l 9.52381 0 l 9.52381 0 l 0 -9.52381 l -9.52381 0 l 0 -9.52381 l 9.52381 0 l 0 -9.52381 l -9.52381 0 l -9.52381 0 l 0 9.52381 l -9.52381 0 l 0 -9.52381 " fill="none" stroke="black" />
</svg>
