<svg xmlns="http://www.w3.org/2000/svg" version="1.1" width="1200" height="360">
<path d="M 0 360 l 1.64609 -0 l 0.823045 -1.42556 l 0.823045 1.42556 l 1.64609 -0 l 0.823045 -1.42556 l -0.823045 -1.42556 l 1.64609 -0 l 0.823045 -1.42556 l 0.823045 1.42556 l 1.64609 -0 l -0.823045 1.42556 l 0.823045 1.42556 l 1.64609 -0 l 0.823045 -1.42556 l 0.823045 1.42556 l 1.64609 -0 l 0.823045 -1.42556 l -0.823045 -1.42556 l 1.64609 -0 l 0.823045 -1.42556 l -0.823045 -1.42556 l -1.64609 -2.01588e-16 l 0.823045 -1.42556 l -0.823045 -1.42556 l 1.64609 -0 l 0.823045 -1.42556 l 0.823045 1.42556 l 1.64609 -0 l 0.823045 -1.42556 l -0.823045 -1.42556 l 1.64609 -0 l 0.823045 -1.42556 l 0.823045 1.42556 l 1.64609 -0 l -0.823045 1.42556 l 0.823045 1.42556 l 1.64609 -0 l 0.823045 -1.42556 l 0.823045 1.42556 l 1.64609 -0 l -0.823045 1.42556 l 0.823045 1.42556 l -1.64609 -2.01588e-16 l -0.823045 1.42556 l 0.823045 1.42556 l 1.64609 -0 l -0.823045 1.42556 l 0.823045 1.42556 l 1.64609 -0 l 0.823045 -1.42556 l 0.823045 1.42556 l 1.64609 -0 l 0.823045 -1.42556 l -0.823045 -1.42556 l 1.64609 -0 l 0.823045 -1.42556 l 0.823045 1.42556 l 1.64609 -0 l -0.823045 1.42556 l 0.823045 1.42556 l 1.64609 -0 l 0.823045 -1.42556 l 0.823045 1.42556 l 1.64609 -0 l 0.823045 -1.42556 l -0.823045 -1.42556 l 1.64609 -0 l 0.823045 -1.42556 l -0.823045 -1.42556 l -1.64609 -2.01588e-16 l 0.823045 -1.42556 l -0.823045 -1.42556 l 1.64609 -0 l 0.823045 -1.42556 l 0.823045 1.42556 l 1.64609 -0 l 0.823045 -1.42556 l -0.823045 -1.42556 l 1.64609 -0 l 0.823045 -1.42556 l -0.823045 -1.42556 l -1.64609 -2.01588e-16 l 0.823045 -1.42556 l -0.823045 -1.42556 l -1.64609 -2.01588e-16 l -0.823045 1.42556 l -0.823045 -1.42556 l -1.64609 -2.01588e-16 l 0.823045 -1.42556 l -0.823045 -1.42556 l 1.64609 -0 l 0.823045 -1.42556 l -0.823045 -1.42556 l -1.64609 -2.01588e-16 l 0.823045 -1.42556 l -0.823045 -1.42556 l 1.64609 -0 l 0.823045 -1.42556 l 0.823045 1.42556 l 1.64609 -0 l 0.823045 -1.42556 l -0.823045 -1.42556 l 1.64609 -0 l 0.823045 -1.42556 l 0.823045 1.42556 l 1.64609 -0 l -0.823045 1.42556 l 0.823045 1.42556 l 1.64609 -0 l 0.823045 -1.42556 l 0.823045 1.42556 l 1.64609 -0 l 0.823045 -1.42556 l -0.823045 -1.42556 l 1.64609 -0 l 0.823045 -1.42556 l -0.823045 -1.42556 l -1.64609 -2.01588e-16 l 0.823045 -1.42556 l -0.823045 -1.42556 l 1.64609 -0 l 0.823045 -1.42556 l 0.823045 1.42556 l 1.64609 -0 l 0.823045 -1.42556 l -0.823045 -1.42556 l 1.64609 -0 l 0.823045 -1.42556 l 0.823045 1.42556 l 1.64609 -0 l -0.823045 1.42556 l 0.823045 1.42556 l 1.64609 -0 l 0.823045 -1.42556 l 0.823045 1.42556 l 1.64609 -0 l -0.823045 1.42556 l 0.823045 1.42556 l -1.64609 -2.01588e-16 l -0.823045 1.42556 l 0.823045 1.42556 l 1.64609 -0 l -0.823045 1.42556 l 0.823045 1.42556 l 1.64609 -0 l 0.823045 -1.42556 l 0.823045 1.42556 l 1.64609 -0 l 0.823045 -1.42556 l -0.823045 -1.42556 l 1.64609 -0 l 0.823045 -1.42556 l 0.823045 1.42556 l 1.64609 -0 l -0.823045 1.42556 l 0.823045 1.42556 l 1.64609 -0 l 0.823045 -1.42556 l 0.823045 1.42556 l 1.64609 -0 l -0.823045 1.42556 l 0.823045 1.42556 l -1.64609 -2.01588e-16 l -0.823045 1.42556 l 0.823045 1.42556 l 1.64609 -0 l -0.823045 1.42556 l 0.823045 1.42556 l -1.64609 -2.01588e-16 l -0.823045 1.42556 l -0.823045 -1.42556 l -1.64609 -2.01588e-16 l -0.823045 1.42556 l 0.823045 1.42556 l -1.64609 -2.01588e-16 l -0.823045 1.42556 l 0.823045 1.42556 l 1.64609 -0 l -0.823045 1.42556 l 0.823045 1.42556 l 1.64609 -0 l 0.823045 -1.42556 l 0.823045 1.42556 l 1.64609 -0 l -0.823045 1.42556 l 0.823045 1.42556 l -1.64609 -2.01588e-16 l -0.823045 1.42556 l 0.823045 1.42556 l 1.64609 -0 l -0.823045 1.42556 l 0.823045 1.42556 l 1.64609 -0 l 0.823045 -1.42556 l 0.823045 1.42556 l 1.64609 -0 l 0.823045 -1.42556 l -0.823045 -1.42556 l 1.64609 -0 l 0.823045 -1.42556 l 0.823045 1.42556 l 1.64609 -0 l -0.823045 1.42556 l 0.823045 1.42556 l 1.64609 -0 l 0.823045 -1.42556 l 0.823045 1.42556 l 1.64609 -0 l 0.823045 -1.42556 l -0.823045 -1.42556 l 1.64609 -0 l 0.823045 -1.42556 l -0.823045 -1.42556 l -1.64609 -2.01588e-16 l 0.823045 -1.42556 l -0.823045 -1.42556 l 1.64609 -0 l 0.823045 -1.42556 l 0.823045 1.42556 l 1.64609 -0 l 0.823045 -1.42556 l -0.823045 -1.42556 l 1.64609 -0 l 0.823045 -1.42556 l 0.823045 1.42556 l 1.64609 -0 l -0.823045 1.42556 l 0.823045 1.42556 l 1.64609 -0 l 0.823045 -1.42556 l 0.823045 1.42556 l 1.64609 -0 l -0.823045 1.42556 l 0.823045 1.42556 l -1.64609 -2.01588e-16 l -0.823045 1.42556 l 0.823045 1.42556 l 1.64609 -0 l -0.823045 1.42556 l 0.823045 1.42556 l 1.64609 -0 l 0.823045 -1.42556 l 0.823045 1.42556 l 1.64609 -0 l 0.823045 -1.42556 l -0.823045 -1.42556 l 1.64609 -0 l 0.823045 -1.42556 l 0.823045 1.42556 l 1.64609 -0 l -0.823045 1.42556 l 0.823045 1.42556 l 1.64609 -0 l 0.823045 -1.42556 l 0.823045 1.42556 l 1.64609 -0 l 0.823045 -1.42556 l -0.823045 -1.42556 l 1.64609 -0 l 0.823045 -1.42556 l -0.823045 -1.42556 l -1.64609 -2.01588e-16 l 0.823045 -1.42556 l -0.823045 -1.42556 l 1.64609 -0 l 0.823045 -1.42556 l 0.823045 1.42556 l 1.64609 -0 l 0.823045 -1.42556 l -0.823045 -1.42556 l 1.64609 -0 l 0.823045 -1.42556 l -0.823045 -1.42556 l -1.64609 -2.01588e-16 l 0.823045 -1.42556 l -0.823045 -1.42556 l -1.64609 -2.01588e-16 l -0.823045 1.42556 l -0.823045 -1.42556 l -1.64609 -2.01588e-16 l 0.823045 -1.42556 l -0.823045 -1.42556 l 1.64609 -0 l 0.823045 -1.42556 l -0.823045 -1.42556 l -1.64609 -2.01588e-16 l 0.823045 -1.42556 l -0.823045 -1.42556 l 1.64609 -0 l 0.823045 -1.42556 l 0.823045 1.42556 l 1.64609 -0 l 0.823045 -1.42556 l -0.823045 -1.42556 l 1.64609 -0 l 0.823045 -1.42556 l 0.823045 1.42556 l 1.64609 -0 l -0.823045 1.42556 l 0.823045 1.42556 l 1.64609 -0 l 0.823045 -1.42556 l 0.823045 1.42556 l 1.64609 -0 l 0.823045 -1.42556 l -0.823045 -1.42556 l 1.64609 -0 l 0.823045 -1.42556 l -0.823045 -1.42556 l -1.64609 -2.01588e-16 l 0.823045 -1.42556 l -0.823045 -1.42556 l 1.64609 -0 l 0.823045 -1.42556 l 0.823045 1.42556 l 1.64609 -0 l 0.823045 -1.42556 l -0.823045 -1.42556 l 1.64609 -0 l 0.823045 -1.42556 l -0.823045 -1.42556 l -1.64609 -2.01588e-16 l 0.823045 -1.42556 l -0.823045 -1.42556 l -1.64609 -2.01588e-16 l -0.823045 1.42556 l -0.823045 -1.42556 l -1.64609 -2.01588e-16 l 0.823045 -1.42556 l -0.823045 -1.42556 l 1.64609 -0 l 0.823045 -1.42556 l -0.823045 -1.42556 l -1.64609 -2.01588e-16 l 0.823045 -1.42556 l -0.823045 -1.42556 l -1.64609 -2.01588e-16 l -0.823045 1.42556 l -0.823045 -1.42556 l -1.64609 -2.01588e-16 l -0.823045 1.42556 l 0.823045 1.42556 l -1.64609 -2.01588e-16 l -0.823045 1.42556 l -0.823045 -1.42556 l -1.64609 -2.01588e-16 l 0.823045 -1.42556 l -0.823045 -1.42556 l -1.64609 -2.01588e-16 l -0.823045 1.42556 l -0.823045 -1.42556 l -1.64609 -2.01588e-16 l 0.823045 -1.42556 l -0.823045 -1.42556 l 1.64609 -0 l 0.823045 -1.42556 l -0.823045 -1.42556 l -1.64609 -2.01588e-16 l 0.823045 -1.42556 l -0.823045 -1.42556 l 1.64609 -0 l 0.823045 -1.42556 l 0.823045 1.42556 l 1.64609 -0 l 0.823045 -1.42556 l -0.823045 -1.42556 l 1.64609 -0 l 0.823045 -1.42556 l -0.823045 -1.42556 l -1.64609 -2.01588e-16 l 0.823045 -1.42556 l -0.823045 -1.42556 l -1.64609 -2.01588e-16 l -0.823045 1.42556 l -0.823045 -1.42556 l -1.64609 -2.01588e-16 l 0.823045 -1.42556 l -0.823045 -1.42556 l 1.64609 -0 l 0.823045 -1.42556 l -0.823045 -1.42556 l -1.64609 -2.01588e-16 l 0.823045 -1.42556 l -0.823045 -1.42556 l 1.64609 -0 l 0.823045 -1.42556 l 0.823045 1.42556 l 1.64609 -0 l 0.823045 -1.42556 l -0.823045 -1.42556 l 1.64609 -0 l 0.823045 -1.42556 l 0.823045 1.42556 l 1.64609 -0 l -0.823045 1.42556 l 0.823045 1.42556 l 1.64609 -0 l 0.823045 -1.42556 l 0.823045 1.42556 l 1.64609 -0 l 0.823045 -1.42556 l -0.823045 -1.42556 l 1.64609 -0 l 0.823045 -1.42556 l -0.823045 -1.42556 l -1.64609 -2.01588e-16 l 0.823045 -1.42556 l -0.823045 -1.42556 l 1.64609 -0 l 0.823045 -1.42556 l 0.823045 1.42556 l 1.64609 -0 l 0.823045 -1.42556 l -0.823045 -1.42556 l 1.64609 -0 l 0.823045 -1.42556 l 0.823045 1.42556 l 1.64609 -0 l -0.823045 1.42556 l 0.823045 1.42556 l 1.64609 -0 l 0.823045 -1.42556 l 0.823045 1.42556 l 1.64609 -0 l -0.823045 1.42556 l 0.823045 1.42556 l -1.64609 -2.01588e-16 l -0.823045 1.42556 l 0.823045 1.42556 l 1.64609 -0 l -0.823045 1.42556 l 0.823045 1.42556 l 1.64609 -0 l 0.823045 -1.42556 l 0.823045 1.42556 l 1.64609 -0 l 0.823045 -1.42556 l -0.823045 -1.42556 l 1.64609 -0 l 0.823045 -1.42556 l 0.823045 1.42556 l 1.64609 -0 l -0.823045 1.42556 l 0.823045 1.42556 l 1.64609 -0 l 0.823045 -1.42556 l 0.823045 1.42556 l 1.64609 -0 l 0.823045 -1.42556 l -0.823045 -1.42556 l 1.64609 -0 l 0.823045 -1.42556 l -0.823045 -1.42556 l -1.64609 -2.01588e-16 l 0.823045 -1.42556 l -0.823045 -1.42556 l 1.64609 -0 l 0.823045 -1.42556 l 0.823045 1.42556 l 1.64609 -0 l 0.823045 -1.42556 l -0.823045 -1.42556 l 1.64609 -0 l 0.823045 -1.42556 l -0.823045 -1.42556 l -1.64609 -2.01588e-16 l 0.823045 -1.42556 l -0.823045 -1.42556 l -1.64609 -2.01588e-16 l -0.823045 1.42556 l -0.823045 -1.42556 l -1.64609 -2.01588e-16 l 0.823045 -1.42556 l -0.823045 -1.42556 l 1.64609 -0 l 0.823045 -1.42556 l -0.823045 -1.42556 l -1.64609 -2.01588e-16 l 0.823045 -1.42556 l -0.823045 -1.42556 l 1.64609 -0 l 0.823045 -1.42556 l 0.823045 1.42556 l 1.64609 -0 l 0.823045 -1.42556 l -0.823045 -1.42556 l 1.64609 -0 l 0.823045 -1.42556 l 0.823045 1.42556 l 1.64609 -0 l -0.823045 1.42556 l 0.823045 1.42556 l 1.64609 -0 l 0.823045 -1.42556 l 0.823045 1.42556 l 1.64609 -0 l 0.823045 -1.42556 l -0.823045 -1.42556 l 1.64609 -0 l 0.823045 -1.42556 l -0.823045 -1.42556 l -1.64609 -2.01588e-16 l 0.823045 -1.42556 l -0.823045 -1.42556 l 1.64609 -0 l 0.823045 -1.42556 l 0.823045 1.42556 l 1.64609 -0 l 0.823045 -1.42556 l -0.823045 -1.42556 l 1.64609 -0 l 0.823045 -1.42556 l 0.823045 1.42556 l 1.64609 -0 l -0.823045 1.42556 l 0.823045 1.42556 l 1.64609 -0 l 0.823045 -1.42556 l 0.823045 1.42556 l 1.64609 -0 l -0.823045 1.42556 l 0.823045 1.42556 l -1.64609 -2.01588e-16 l -0.823045 1.42556 l 0.823045 1.42556 l 1.64609 -0 l -0.823045 1.42556 l 0.823045 1.42556 l 1.64609 -0 l 0.823045 -1.42556 l 0.823045 1.42556 l 1.64609 -0 l 0.823045 -1.42556 l -0.823045 -1.42556 l 1.64609 -0 l 0.823045 -1.42556 l 0.823045 1.42556 l 1.64609 -0 l -0.823045 1.42556 l 0.823045 1.42556 l 1.64609 -0 l 0.823045 -1.42556 l 0.823045 1.42556 l 1.64609 -0 l -0.823045 1.42556 l 0.823045 1.42556 l -1.64609 -2.01588e-16 l -0.823045 1.42556 l 0.823045 1.42556 l 1.64609 -0 l -0.823045 1.42556 l 0.823045 1.42556 l -1.64609 -2.01588e-16 l -0.823045 1.42556 l -0.823045 -1.42556 l -1.64609 -2.01588e-16 l -0.823045 1.42556 l 0.823045 1.42556 l -1.64609 -2.01588e-16 l -0.823045 1.42556 l 0.823045 1.42556 l 1.64609 -0 l -0.823045 1.42556 l 0.823045 1.42556 l 1.64609 -0 l 0.823045 -1.42556 l 0.823045 1.42556 l 1.64609 -0 l -0.823045 1.42556 l 0.823045 1.42556 l -1.64609 -2.01588e-16 l -0.823045 1.42556 l 0.823045 1.42556 l 1.64609 -0 l -0.823045 1.42556 l 0.823045 1.42556 l 1.64609 -0 l 0.823045 -1.42556 l 0.823045 1.42556 l 1.64609 -0 l 0.823045 -1.42556 l -0.823045 -1.42556 l 1.64609 -0 l 0.823045 -1.42556 l 0.823045 1.42556 l 1.64609 -0 l -0.823045 1.42556 l 0.823045 1.42556 l 1.64609 -0 l 0.823045 -1.42556 l 0.823045 1.42556 l 1.64609 -0 l 0.823045 -1.42556 l -0.823045 -1.42556 l 1.64609 -0 l 0.823045 -1.42556 l -0.823045 -1.42556 l -1.64609 -2.01588e-16 l 0.823045 -1.42556 l -0.823045 -1.42556 l 1.64609 -0 l 0.823045 -1.42556 l 0.823045 1.42556 l 1.64609 -0 l 0.823045 -1.42556 l -0.823045 -1.42556 l 1.64609 -0 l 0.823045 -1.42556 l 0.823045 1.42556 l 1.64609 -0 l -0.823045 1.42556 l 0.823045 1.42556 l 1.64609 -0 l 0.823045 -1.42556 l 0.823045 1.42556 l 1.64609 -0 l -0.823045 1.42556 l 0.823045 1.42556 l -1.64609 -2.01588e-16 l -0.823045 1.42556 l 0.823045 1.42556 l 1.64609 -0 l -0.823045 1.42556 l 0.823045 1.42556 l 1.64609 -0 l 0.823045 -1.42556 l 0.823045 1.42556 l 1.64609 -0 l 0.823045 -1.42556 l -0.823045 -1.42556 l 1.64609 -0 l 0.823045 -1.42556 l 0.823045 1.42556 l 1.64609 -0 l -0.823045 1.42556 l 0.823045 1.42556 l 1.64609 -0 l 0.823045 -1.42556 l 0.823045 1.42556 l 1.64609 -0 l -0.823045 1.42556 l 0.823045 1.42556 l -1.64609 -2.01588e-16 l -0.823045 1.42556 l 0.823045 1.42556 l 1.64609 -0 l -0.823045 1.42556 l 0.823045 1.42556 l -1.64609 -2.01588e-16 l -0.823045 1.42556 l -0.823045 -1.42556 l -1.64609 -2.01588e-16 l -0.823045 1.42556 l 0.823045 1.42556 l -1.64609 -2.01588e-16 l -0.823045 1.42556 l 0.823045 1.42556 l 1.64609 -0 l -0.823045 1.42556 l 0.823045 1.42556 l 1.64609 -0 l 0.823045 -1.42556 l 0.823045 1.42556 l 1.64609 -0 l -0.823045 1.42556 l 0.823045 1.42556 l -1.64609 -2.01588e-16 l -0.823045 1.42556 l 0.823045 1.42556 l 1.64609 -0 l -0.823045 1.42556 l 0.823045 1.42556 l -1.64609 -2.01588e-16 l -0.823045 1.42556 l -0.823045 -1.42556 l -1.64609 -2.01588e-16 l -0.823045 1.42556 l 0.823045 1.42556 l -1.64609 -2.01588e-16 l -0.823045 1.42556 l -0.823045 -1.42556 l -1.64609 -2.01588e-16 l 0.823045 -1.42556 l -0.823045 -1.42556 l -1.64609 -2.01588e-16 l -0.823045 1.42556 l -0.823045 -1.42556 l -1.64609 -2.01588e-16 l -0.823045 1.42556 l 0.823045 1.42556 l -1.64609 -2.01588e-16 l -0.823045 1.42556 l 0.823045 1.42556 l 1.64609 -0 l -0.823045 1.42556 l 0.823045 1.42556 l -1.64609 -2.01588e-16 l -0.823045 1.42556 l -0.823045 -1.42556 l -1.64609 -2.01588e-16 l -0.823045 1.42556 l 0.823045 1.42556 l -1.64609 -2.01588e-16 l -0.823045 1.42556 l 0.823045 1.42556 l 1.64609 -0 l -0.823045 1.42556 l 0.823045 1.42556 l 1.64609 -0 l 0.823045 -1.42556 l 0.823045 1.42556 l 1.64609 -0 l -0.823045 1.42556 l 0.823045 1.42556 l -1.64609 -2.01588e-16 l -0.823045 1.42556 l 0.823045 1.42556 l 1.64609 -0 l -0.823045 1.42556 l 0.823045 1.42556 l 1.64609 -0 l 0.823045 -1.42556 l 0.823045 1.42556 l 1.64609 -0 l 0.823045 -1.42556 l -0.823045 -1.42556 l 1.64609 -0 l 0.823045 -1.42556 l 0.823045 1.42556 l 1.64609 -0 l -0.823045 1.42556 l 0.823045 1.42556 l 1.64609 -0 l 0.823045 -1.42556 l 0.823045 1.42556 l 1.64609 -0 l -0.823045 1.42556 l 0.823045 1.42556 l -1.64609 -2.01588e-16 l -0.823045 1.42556 l 0.823045 1.42556 l 1.64609 -0 l -0.823045 1.42556 l 0.823045 1.42556 l -1.64609 -2.01588e-16 l -0.823045 1.42556 l -0.823045 -1.42556 l -1.64609 -2.01588e-16 l -0.823045 1.42556 l 0.823045 1.42556 l -1.64609 -2.01588e-16 l -0.823045 1.42556 l 0.823045 1.42556 l 1.64609 -0 l -0.823045 1.42556 l 0.823045 1.42556 l 1.64609 -0 l 0.823045 -1.42556 l 0.823045 1.42556 l 1.64609 -0 l -0.823045 1.42556 l 0.823045 1.42556 l -1.64609 -2.01588e-16 l -0.823045 1.42556 l 0.823045 1.42556 l 1.64609 -0 l -0.823045 1.42556 l 0.823045 1.42556 l 1.64609 -0 l 0.823045 -1.42556 l 0.823045 1.42556 l 1.64609 -0 l 0.823045 -1.42556 l -0.823045 -1.42556 l 1.64609 -0 l 0.823045 -1.42556 l 0.823045 1.42556 l 1.64609 -0 l -0.823045 1.42556 l 0.823045 1.42556 l 1.64609 -0 l 0.823045 -1.42556 l 0.823045 1.42556 l 1.64609 -0 l 0.823045 -1.42556 l -0.823045 -1.42556 l 1.64609 -0 l 0.823045 -1.42556 l -0.823045 -1.42556 l -1.64609 -2.01588e-16 l 0.823045 -1.42556 l -0.823045 -1.42556 l 1.64609 -0 l 0.823045 -1.42556 l 0.823045 1.42556 l 1.64609 -0 l 0.823045 -1.42556 l -0.823045 -1.42556 l 1.64609 -0 l 0.823045 -1.42556 l 0.823045 1.42556 l 1.64609 -0 l -0.823045 1.42556 l 0.823045 1.42556 l 1.64609 -0 l 0.823045 -1.42556 l 0.823045 1.42556 l 1.64609 -0 l -0.823045 1.42556 l 0.823045 1.42556 l -1.64609 -2.01588e-16 l -0.823045 1.42556 l 0.823045 1.42556 l 1.64609 -0 l -0.823045 1.42556 l 0.823045 1.42556 l 1.64609 -0 l 0.823045 -1.42556 l 0.823045 1.42556 l 1.64609 -0 l 0.823045 -1.42556 l -0.823045 -1.42556 l 1.64609 -0 l 0.823045 -1.42556 l 0.823045 1.42556 l 1.64609 -0 l -0.823045 1.42556 l 0.823045 1.42556 l 1.64609 -0 l 0.823045 -1.42556 l 0.823045 1.42556 l 1.64609 -0 l 0.823045 -1.42556 l -0.823045 -1.42556 l 1.64609 -0 l 0.823045 -1.42556 l -0.823045 -1.42556 l -1.64609 -2.01588e-16 l 0.823045 -1.42556 l -0.823045 -1.42556 l 1.64609 -0 l 0.823045 -1.42556 l 0.823045 1.42556 l 1.64609 -0 l 0.823045 -1.42556 l -0.823045 -1.42556 l 1.64609 -0 l 0.823045 -1.42556 l -0.823045 -1.42556 l -1.64609 -2.01588e-16 l 0.823045 -1.42556 l -0.823045 -1.42556 l -1.64609 -2.01588e-16 l -0.823045 1.42556 l -0.823045 -1.42556 l -1.64609 -2.01588e-16 l 0.823045 -1.42556 l -0.823045 -1.42556 l 1.64609 -0 l 0.823045 -1.42556 l -0.823045 -1.42556 l -1.64609 -2.01588e-16 l 0.823045 -1.42556 l -0.823045 -1.42556 l 1.64609 -0 l 0.823045 -1.42556 l 0.823045 1.42556 l 1.64609 -0 l 0.823045 -1.42556 l -0.823045 -1.42556 l 1.64609 -0 l 0.823045 -1.42556 l 0.823045 1.42556 l 1.64609 -0 l -0.823045 1.42556 l 0.823045 1.42556 l 1.64609 -0 l 0.823045 -1.42556 l 0.823045 1.42556 l 1.64609 -0 l 0.823045 -1.42556 l -0.823045 -1.42556 l 1.64609 -0 l 0.823045 -1.42556 l -0.823045 -1.42556 l -1.64609 -2.01588e-16 l 0.823045 -1.42556 l -0.823045 -1.42556 l 1.64609 -0 l 0.823045 -1.42556 l 0.823045 1.42556 l 1.64609 -0 l 0.823045 -1.42556 l -0.823045 -1.42556 l 1.64609 -0 l 0.823045 -1.42556 l 0.823045 1.42556 l 1.64609 -0 l -0.823045 1.42556 l 0.823045 1.42556 l 1.64609 -0 l 0.823045 -1.42556 l 0.823045 1.42556 l 1.64609 -0 l -0.823045 1.42556 l 0.823045 1.42556 l -1.64609 -2.01588e-16 l -0.823045 1.42556 l 0.823045 1.42556 l 1.64609 -0 l -0.823045 1.42556 l 0.823045 1.42556 l 1.64609 -0 l 0.823045 -1.42556 l 0.823045 1.42556 l 1.64609 -0 l 0.823045 -1.42556 l -0.823045 -1.42556 l 1.64609 -0 l 0.823045 -1.42556 l 0.823045 1.42556 l 1.64609 -0 l -0.823045 1.42556 l 0.823045 1.42556 l 1.64609 -0 l 0.823045 -1.42556 l 0.823045 1.42556 l 1.64609 -0 l -0.823045 1.42556 l 0.823045 1.42556 l -1.64609 -2.01588e-16 l -0.823045 1.42556 l 0.823045 1.42556 l 1.64609 -0 l -0.823045 1.42556 l 0.823045 1.42556 l -1.64609 -2.01588e-16 l -0.823045 1.42556 l -0.823045 -1.42556 l -1.64609 -2.01588e-16 l -0.823045 1.42556 l 0.823045 1.42556 l -1.64609 -2.01588e-16 l -0.823045 1.42556 l 0.823045 1.42556 l 1.64609 -0 l -0.823045 1.42556 l 0.823045 1.42556 l 1.64609 -0 l 0.823045 -1.42556 l 0.823045 1.42556 l 1.64609 -0 l -0.823045 1.42556 l 0.823045 1.42556 l -1.64609 -2.01588e-16 l -0.823045 1.42556 l 0.823045 1.42556 l 1.64609 -0 l -0.823045 1.42556 l 0.823045 1.42556 l 1.64609 -0 l 0.823045 -1.42556 l 0.823045 1.42556 l 1.64609 -0 l 0.823045 -1.42556 l -0.823045 -1.42556 l 1.64609 -0 l 0.823045 -1.42556 l 0.823045 1.42556 l 1.64609 -0 l -0.823045 1.42556 l 0.823045 1.42556 l 1.64609 -0 l 0.823045 -1.42556 l 0.823045 1.42556 l 1.64609 -0 l 0.823045 -1.42556 l -0.823045 -1.42556 l 1.64609 -0 l 0.823045 -1.42556 l -0.823045 -1.42556 l -1.64609 -2.01588e-16 l 0.823045 -1.42556 l -0.823045 -1.42556 l 1.64609 -0 l 0.823045 -1.42556 l 0.823045 1.42556 l 1.64609 -0 l 0.823045 -1.42556 l -0.823045 -1.42556 l 1.64609 -0 l 0.823045 -1.42556 l 0.823045 1.42556 l 1.64609 -0 l -0.823045 1.42556 l 0.823045 1.42556 l 1.64609 -0 l 0.823045 -1.42556 l 0.823045 1.42556 l 1.64609 -0 l -0.823045 1.42556 l 0.823045 1.42556 l -1.64609 -2.01588e-16 l -0.823045 1.42556 l 0.823045 1.42556 l 1.64609 -0 l -0.823045 1.42556 l 0.823045 1.42556 l 1.64609 -0 l 0.823045 -1.42556 l 0.823045 1.42556 l 1.64609 -0 l 0.823045 -1.42556 l -0.823045 -1.42556 l 1.64609 -0 l 0.823045 -1.42556 l 0.823045 1.42556 l 1.64609 -0 l -0.823045 1.42556 l 0.823045 1.42556 l 1.64609 -0 l 0.823045 -1.42556 l 0.823045 1.42556 l 1.64609 -0 l 0.823045 -1.42556 l -0.823045 -1.42556 l 1.64609 -0 l 0.823045 -1.42556 l -0.823045 -1.42556 l -1.64609 -2.01588e-16 l 0.823045 -1.42556 l -0.823045 -1.42556 l 1.64609 -0 l 0.823045 -1.42556 l 0.823045 1.42556 l 1.64609 -0 l 0.823045 -1.42556 l -0.823045 -1.42556 l 1.64609 -0 l 0.823045 -1.42556 l -0.823045 -1.42556 l -1.64609 -2.01588e-16 l 0.823045 -1.42556 l -0.823045 -1.42556 l -1.64609 -2.01588e-16 l -0.823045 1.42556 l -0.823045 -1.42556 l -1.64609 -2.01588e-16 l 0.823045 -1.42556 l -0.823045 -1.42556 l 1.64609 -0 l 0.823045 -1.42556 l -0.823045 -1.42556 l -1.64609 -2.01588e-16 l 0.823045 -1.42556 l -0.823045 -1.42556 l 1.64609 -0 l 0.823045 -1.42556 l 0.823045 1.42556 l 1.64609 -0 l 0.823045 -1.42556 l -0.823045 -1.42556 l 1.64609 -0 l 0.823045 -1.42556 l 0.823045 1.42556 l 1.64609 -0 l -0.823045 1.42556 l 0.823045 1.42556 l 1.64609 -0 l 0.823045 -1.42556 l 0.823045 1.42556 l 1.64609 -0 l 0.823045 -1.42556 l -0.823045 -1.42556 l 1.64609 -0 l 0.823045 -1.42556 l -0.823045 -1.42556 l -1.64609 -2.01588e-16 l 0.823045 -1.42556 l -0.823045 -1.42556 l 1.64609 -0 l 0.823045 -1.42556 l 0.823045 1.42556 l 1.64609 -0 l 0.823045 -1.42556 l -0.823045 -1.42556 l 1.64609 -0 l 0.823045 -1.42556 l -0.823045 -1.42556 l -1.64609 -2.01588e-16 l 0.823045 -1.42556 l -0.823045 -1.42556 l -1.64609 -2.01588e-16 l -0.823045 1.42556 l -0.823045 -1.42556 l -1.64609 -2.01588e-16 l 0.823045 -1.42556 l -0.823045 -1.42556 l 1.64609 -0 l 0.823045 -1.42556 l -0.823045 -1.42556 l -1.64609 -2.01588e-16 l 0.823045 -1.42556 l -0.823045 -1.42556 l -1.64609 -2.01588e-16 l -0.823045 1.42556 l -0.823045 -1.42556 l -1.64609 -2.01588e-16 l -0.823045 1.42556 l 0.823045 1.42556 l -1.64609 -2.01588e-16 l -0.823045 1.42556 l -0.823045 -1.42556 l -1.64609 -2.01588e-16 l 0.823045 -1.42556 l -0.823045 -1.42556 l -1.64609 -2.01588e-16 l -0.823045 1.42556 l -0.823045 -1.42556 l -1.64609 -2.01588e-16 l 0.823045 -1.42556 l -0.823045 -1.42556 l 1.64609 -0 l 0.823045 -1.42556 l -0.823045 -1.42556 l -1.64609 -2.01588e-16 l 0.823045 -1.42556 l -0.823045 -1.42556 l 1.64609 -0 l 0.823045 -1.42556 l 0.823045 1.42556 l 1.64609 -0 l 0.823045 -1.42556 l -0.823045 -1.42556 l 1.64609 -0 l 0.823045 -1.42556 l -0.823045 -1.42556 l -1.64609 -2.01588e-16 l 0.823045 -1.42556 l -0.823045 -1.42556 l -1.64609 -2.01588e-16 l -0.823045 1.42556 l -0.823045 -1.42556 l -1.64609 -2.01588e-16 l 0.823045 -1.42556 l -0.823045 -1.42556 l 1.64609 -0 l 0.823045 -1.42556 l -0.823045 -1.42556 l -1.64609 -2.01588e-16 l 0.823045 -1.42556 l -0.823045 -1.42556 l 1.64609 -0 l 0.823045 -1.42556 l 0.823045 1.42556 l 1.64609 -0 l 0.823045 -1.42556 l -0.823045 -1.42556 l 1.64609 -0 l 0.823045 -1.42556 l 0.823045 1.42556 l 1.64609 -0 l -0.823045 1.42556 l 0.823045 1.42556 l 1.64609 -0 l 0.823045 -1.42556 l 0.823045 1.42556 l 1.64609 -0 l 0.823045 -1.42556 l -0.823045 -1.42556 l 1.64609 -0 l 0.823045 -1.42556 l -0.823045 -1.42556 l -1.64609 -2.01588e-16 l 0.823045 -1.42556 l -0.823045 -1.42556 l 1.64609 -0 l 0.823045 -1.42556 l 0.823045 1.42556 l 1.64609 -0 l 0.823045 -1.42556 l -0.823045 -1.42556 l 1.64609 -0 l 0.823045 -1.42556 l 0.823045 1.42556 l 1.64609 -0 l -0.823045 1.42556 l 0.823045 1.42556 l 1.64609 -0 l 0.823045 -1.42556 l 0.823045 1.42556 l 1.64609 -0 l -0.823045 1.42556 l 0.823045 1.42556 l -1.64609 -2.01588e-16 l -0.823045 1.42556 l 0.823045 1.42556 l 1.64609 -0 l -0.823045 1.42556 l 0.823045 1.42556 l 1.64609 -0 l 0.823045 -1.42556 l 0.823045 1.42556 l 1.64609 -0 l 0.823045 -1.42556 l -0.823045 -1.42556 l 1.64609 -0 l 0.823045 -1.42556 l 0.823045 1.42556 l 1.64609 -0 l -0.823045 1.42556 l 0.823045 1.42556 l 1.64609 -0 l 0.823045 -1.42556 l 0.823045 1.42556 l 1.64609 -0 l 0.823045 -1.42556 l -0.823045 -1.42556 l 1.64609 -0 l 0.823045 -1.42556 l -0.823045 -1.42556 l -1.64609 -2.01588e-16 l 0.823045 -1.42556 l -0.823045 -1.42556 l 1.64609 -0 l 0.823045 -1.42556 l 0.823045 1.42556 l 1.64609 -0 l 0.823045 -1.42556 l -0.823045 -1.42556 l 1.64609 -0 l 0.823045 -1.42556 l -0.823045 -1.42556 l -1.64609 -2.01588e-16 l 0.823045 -1.42556 l -0.823045 -1.42556 l -1.64609 -2.01588e-16 l -0.823045 1.42556 l -0.823045 -1.42556 l -1.64609 -2.01588e-16 l 0.823045 -1.42556 l -0.823045 -1.42556 l 1.64609 -0 l 0.823045 -1.42556 l -0.823045 -1.42556 l -1.64609 -2.01588e-16 l 0.823045 -1.42556 l -0.823045 -1.42556 l 1.64609 -0 l 0.823045 -1.42556 l 0.823045 1.42556 l 1.64609 -0 l 0.823045 -1.42556 l -0.823045 -1.42556 l 1.64609 -0 l 0.823045 -1.42556 l 0.823045 1.42556 l 1.64609 -0 l -0.823045 1.42556 l 0.823045 1.42556 l 1.64609 -0 l 0.823045 -1.42556 l 0.823045 1.42556 l 1.64609 -0 l 0.823045 -1.42556 l -0.823045 -1.42556 l 1.64609 -0 l 0.823045 -1.42556 l -0.823045 -1.42556 l -1.64609 -2.01588e-16 l 0.823045 -1.42556 l -0.823045 -1.42556 l 1.64609 -0 l 0.823045 -1.42556 l 0.823045 1.42556 l 1.64609 -0 l 0.823045 -1.42556 l -0.823045 -1.42556 l 1.64609 -0 l 0.823045 -1.42556 l -0.823045 -1.42556 l -1.64609 -2.01588e-16 l 0.823045 -1.42556 l -0.823045 -1.42556 l -1.64609 -2.01588e-16 l -0.823045 1.42556 l -0.823045 -1.42556 l -1.64609 -2.01588e-16 l 0.823045 -1.42556 l -0.823045 -1.42556 l 1.64609 -0 l 0.823045 -1.42556 l -0.823045 -1.42556 l -1.64609 -2.01588e-16 l 0.823045 -1.42556 l -0.823045 -1.42556 l -1.64609 -2.01588e-16 l -0.823045 1.42556 l -0.823045 -1.42556 l -1.64609 -2.01588e-16 l -0.823045 1.42556 l 0.823045 1.42556 l -1.64609 -2.01588e-16 l -0.823045 1.42556 l -0.823045 -1.42556 l -1.64609 -2.01588e-16 l 0.823045 -1.42556 l -0.823045 -1.42556 l -1.64609 -2.01588e-16 l -0.823045 1.42556 l -0.823045 -1.42556 l -1.64609 -2.01588e-16 l 0.823045 -1.42556 l -0.823045 -1.42556 l 1.64609 -0 l 0.823045 -1.42556 l -0.823045 -1.42556 l -1.64609 -2.01588e-16 l 0.823045 -1.42556 l -0.823045 -1.42556 l 1.64609 -0 l 0.823045 -1.42556 l 0.823045 1.42556 l 1.64609 -0 l 0.823045 -1.42556 l -0.823045 -1.42556 l 1.64609 -0 l 0.823045 -1.42556 l -0.823045 -1.42556 l -1.64609 -2.01588e-16 l 0.823045 -1.42556 l -0.823045 -1.42556 l -1.64609 -2.01588e-16 l -0.823045 1.42556 l -0.823045 -1.42556 l -1.64609 -2.01588e-16 l 0.823045 -1.42556 l -0.823045 -1.42556 l 1.64609 -0 l 0.823045 -1.42556 l -0.823045 -1.42556 l -1.64609 -2.01588e-16 l 0.823045 -1.42556 l -0.823045 -1.42556 l -1.64609 -2.01588e-16 l -0.823045 1.42556 l -0.823045 -1.42556 l -1.64609 -2.01588e-16 l -0.823045 1.42556 l 0.823045 1.42556 l -1.64609 -2.01588e-16 l -0.823045 1.42556 l -0.823045 -1.42556 l -1.64609 -2.01588e-16 l 0.823045 -1.42556 l -0.823045 -1.42556 l -1.64609 -2.01588e-16 l -0.823045 1.42556 l -0.823045 -1.42556 l -1.64609 -2.01588e-16 l -0.823045 1.42556 l 0.823045 1.42556 l -1.64609 -2.01588e-16 l -0.823045 1.42556 l 0.823045 1.42556 l 1.64609 -0 l -0.823045 1.42556 l 0.823045 1.42556 l -1.64609 -2.01588e-16 l -0.823045 1.42556 l -0.823045 -1.42556 l -1.64609 -2.01588e-16 l -0.823045 1.42556 l 0.823045 1.42556 l -1.64609 -2.01588e-16 l -0.823045 1.42556 l -0.823045 -1.42556 l -1.64609 -2.01588e-16 l 0.823045 -1.42556 l -0.823045 -1.42556 l -1.64609 -2.01588e-16 l -0.823045 1.42556 l -0.823045 -1.42556 l -1.64609 -2.01588e-16 l 0.823045 -1.42556 l -0.823045 -1.42556 l 1.64609 -0 l 0.823045 -1.42556 l -0.823045 -1.42556 l -1.64609 -2.01588e-16 l 0.823045 -1.42556 l -0.823045 -1.42556 l -1.64609 -2.01588e-16 l -0.823045 1.42556 l -0.823045 -1.42556 l -1.64609 -2.01588e-16 l -0.823045 1.42556 l 0.823045 1.42556 l -1.64609 -2.01588e-16 l -0.823045 1.42556 l -0.823045 -1.42556 l -1.64609 -2.01588e-16 l 0.823045 -1.42556 l -0.823045 -1.42556 l -1.64609 -2.01588e-16 l -0.823045 1.42556 l -0.823045 -1.42556 l -1.64609 -2.01588e-16 l 0.823045 -1.42556 l -0.823045 -1.42556 l 1.64609 -0 l 0.823045 -1.42556 l -0.823045 -1.42556 l -1.64609 -2.01588e-16 l 0.823045 -1.42556 l -0.823045 -1.42556 l 1.64609 -0 l 0.823045 -1.42556 l 0.823045 1.42556 l 1.64609 -0 l 0.823045 -1.42556 l -0.823045 -1.42556 l 1.64609 -0 l 0.823045 -1.42556 l -0.823045 -1.42556 l -1.64609 -2.01588e-16 l 0.823045 -1.42556 l -0.823045 -1.42556 l -1.64609 -2.01588e-16 l -0.823045 1.42556 l -0.823045 -1.42556 l -1.64609 -2.01588e-16 l 0.823045 -1.42556 l -0.823045 -1.42556 l 1.64609 -0 l 0.823045 -1.42556 l -0.823045 -1.42556 l -1.64609 -2.01588e-16 l 0.823045 -1.42556 l -0.823045 -1.42556 l 1.64609 -0 l 0.823045 -1.42556 l 0.823045 1.42556 l 1.64609 -0 l 0.823045 -1.42556 l -0.823045 -1.42556 l 1.64609 -0 l 0.823045 -1.42556 l 0.823045 1.42556 l 1.64609 -0 l -0.823045 1.42556 l 0.823045 1.42556 l 1.64609 -0 l 0.823045 -1.42556 l 0.823045 1.42556 l 1.64609 -0 l 0.823045 -1.42556 l -0.823045 -1.42556 l 1.64609 -0 l 0.823045 -1.42556 l -0.823045 -1.42556 l -1.64609 -2.01588e-16 l 0.823045 -1.42556 l -0.823045 -1.42556 l 1.64609 -0 l 0.823045 -1.42556 l 0.823045 1.42556 l 1.64609 -0 l 0.823045 -1.42556 l -0.823045 -1.42556 l 1.64609 -0 l 0.823045 -1.42556 l -0.823045 -1.42556 l -1.64609 -2.01588e-16 l 0.823045 -1.42556 l -0.823045 -1.42556 l -1.64609 -2.01588e-16 l -0.823045 1.42556 l -0.823045 -1.42556 l -1.64609 -2.01588e-16 l 0.823045 -1.42556 l -0.823045 -1.42556 l 1.64609 -0 l 0.823045 -1.42556 l -0.823045 -1.42556 l -1.64609 -2.01588e-16 l 0.823045 -1.42556 l -0.823045 -1.42556 l -1.64609 -2.01588e-16 l -0.823045 1.42556 l -0.823045 -1.42556 l -1.64609 -2.01588e-16 l -0.823045 1.42556 l 0.823045 1.42556 l -1.64609 -2.01588e-16 l -0.823045 1.42556 l -0.823045 -1.42556 l -1.64609 -2.01588e-16 l 0.823045 -1.42556 l -0.823045 -1.42556 l -1.64609 -2.01588e-16 l -0.823045 1.42556 l -0.823045 -1.42556 l -1.64609 -2.01588e-16 l 0.823045 -1.42556 l -0.823045 -1.42556 l 1.64609 -0 l 0.823045 -1.42556 l -0.823045 -1.42556 l -1.64609 -2.01588e-16 l 0.823045 -1.42556 l -0.823045 -1.42556 l 1.64609 -0 l 0.823045 -1.42556 l 0.823045 1.42556 l 1.64609 -0 l 0.823045 -1.42556 l -0.823045 -1.42556 l 1.64609 -0 l 0.823045 -1.42556 l -0.823045 -1.42556 l -1.64609 -2.01588e-16 l 0.823045 -1.42556 l -0.823045 -1.42556 l -1.64609 -2.01588e-16 l -0.823045 1.42556 l -0.823045 -1.42556 l -1.64609 -2.01588e-16 l 0.823045 -1.42556 l -0.823045 -1.42556 l 1.64609 -0 l 0.823045 -1.42556 l -0.823045 -1.42556 l -1.64609 -2.01588e-16 l 0.823045 -1.42556 l -0.823045 -1.42556 l 1.64609 -0 l 0.823045 -1.42556 l 0.823045 1.42556 l 1.64609 -0 l 0.823045 -1.42556 l -0.823045 -1.42556 l 1.64609 -0 l 0.823045 -1.42556 l 0.823045 1.42556 l 1.64609 -0 l -0.823045 1.42556 l 0.823045 1.42556 l 1.64609 -0 l 0.823045 -1.42556 l 0.823045 1.42556 l 1.64609 -0 l 0.823045 -1.42556 l -0.823045 -1.42556 l 1.64609 -0 l 0.823045 -1.42556 l -0.823045 -1.42556 l -1.64609 -2.01588e-16 l 0.823045 -1.42556 l -0.823045 -1.42556 l 1.64609 -0 l 0.823045 -1.42556 l 0.823045 1.42556 l 1.64609 -0 l 0.823045 -1.42556 l -0.823045 -1.42556 l 1.64609 -0 l 0.823045 -1.42556 l 0.823045 1.42556 l 1.64609 -0 l -0.823045 1.42556 l 0.823045 1.42556 l 1.64609 -0 l 0.823045 -1.42556 l 0.823045 1.42556 l 1.64609 -0 l -0.823045 1.42556 l 0.823045 1.42556 l -1.64609 -2.01588e-16 l -0.823045 1.42556 l 0.823045 1.42556 l 1.64609 -0 l -0.823045 1.42556 l 0.823045 1.42556 l 1.64609 -0 l 0.823045 -1.42556 l 0.823045 1.42556 l 1.64609 -0 l 0.823045 -1.42556 l -0.823045 -1.42556 l 1.64609 -0 l 0.823045 -1.42556 l 0.823045 1.42556 l 1.64609 -0 l -0.823045 1.42556 l 0.823045 1.42556 l 1.64609 -0 l 0.823045 -1.42556 l 0.823045 1.42556 l 1.64609 -0 l 0.823045 -1.42556 l -0.823045 -1.42556 l 1.64609 -0 l 0.823045 -1.42556 l -0.823045 -1.42556 l -1.64609 -2.01588e-16 l 0.823045 -1.42556 l -0.823045 -1.42556 l 1.64609 -0 l 0.823045 -1.42556 l 0.823045 1.42556 l 1.64609 -0 l 0.823045 -1.42556 l -0.823045 -1.42556 l 1.64609 -0 l 0.823045 -1.42556 l -0.823045 -1.42556 l -1.64609 -2.01588e-16 l 0.823045 -1.42556 l -0.823045 -1.42556 l -1.64609 -2.01588e-16 l -0.823045 1.42556 l -0.823045 -1.42556 l -1.64609 -2.01588e-16 l 0.823045 -1.42556 l -0.823045 -1.42556 l 1.64609 -0 l 0.823045 -1.42556 l -0.823045 -1.42556 l -1.64609 -2.01588e-16 l 0.823045 -1.42556 l -0.823045 -1.42556 l 1.64609 -0 l 0.823045 -1.42556 l 0.823045 1.42556 l 1.64609 -0 l 0.823045 -1.42556 l -0.823045 -1.42556 l 1.64609 -0 l 0.823045 -1.42556 l 0.823045 1.42556 l 1.64609 -0 l -0.823045 1.42556 l 0.823045 1.42556 l 1.64609 -0 l 0.823045 -1.42556 l 0.823045 1.42556 l 1.64609 -0 l 0.823045 -1.42556 l -0.823045 -1.42556 l 1.64609 -0 l 0.823045 -1.42556 l -0.823045 -1.42556 l -1.64609 -2.01588e-16 l 0.823045 -1.42556 l -0.823045 -1.42556 l 1.64609 -0 l 0.823045 -1.42556 l 0.823045 1.42556 l 1.64609 -0 l 0.823045 -1.42556 l -0.823045 -1.42556 l 1.64609 -0 l 0.823045 -1.42556 l 0.823045 1.42556 l 1.64609 -0 l -0.823045 1.42556 l 0.823045 1.42556 l 1.64609 -0 l 0.823045 -1.42556 l 0.823045 1.42556 l 1.64609 -0 l -0.823045 1.42556 l 0.823045 1.42556 l -1.64609 -2.01588e-16 l -0.823045 1.42556 l 0.823045 1.42556 l 1.64609 -0 l -0.823045 1.42556 l 0.823045 1.42556 l 1.64609 -0 l 0.823045 -1.42556 l 0.823045 1.42556 l 1.64609 -0 l 0.823045 -1.42556 l -0.823045 -1.42556 l 1.64609 -0 l 0.823045 -1.42556 l 0.823045 1.42556 l 1.64609 -0 l -0.823045 1.42556 l 0.823045 1.42556 l 1.64609 -0 l 0.823045 -1.42556 l 0.823045 1.42556 l 1.64609 -0 l -0.823045 1.42556 l 0.823045 1.42556 l -1.64609 -2.01588e-16 l -0.823045 1.42556 l 0.823045 1.42556 l 1.64609 -0 l -0.823045 1.42556 l 0.823045 1.42556 l -1.64609 -2.01588e-16 l -0.823045 1.42556 l -0.823045 -1.42556 l -1.64609 -2.01588e-16 l -0.823045 1.42556 l 0.823045 1.42556 l -1.64609 -2.01588e-16 l -0.823045 1.42556 l 0.823045 1.42556 l 1.64609 -0 l -0.823045 1.42556 l 0.823045 1.42556 l 1.64609 -0 l 0.823045 -1.42556 l 0.823045 1.42556 l 1.64609 -0 l -0.823045 1.42556 l 0.823045 1.42556 l -1.64609 -2.01588e-16 l -0.823045 1.42556 l 0.823045 1.42556 l 1.64609 -0 l -0.823045 1.42556 l 0.823045 1.42556 l 1.64609 -0 l 0.823045 -1.42556 l 0.823045 1.42556 l 1.64609 -0 l 0.823045 -1.42556 l -0.823045 -1.42556 l 1.64609 -0 l 0.823045 -1.42556 l 0.823045 1.42556 l 1.64609 -0 l -0.823045 1.42556 l 0.823045 1.42556 l 1.64609 -0 l 0.823045 -1.42556 l 0.823045 1.42556 l 1.64609 -0 l 0.823045 -1.42556 l -0.823045 -1.42556 l 1.64609 -0 l 0.823045 -1.42556 l -0.823045 -1.42556 l -1.64609 -2.01588e-16 l 0.823045 -1.42556 l -0.823045 -1.42556 l 1.64609 -0 l 0.823045 -1.42556 l 0.823045 1.42556 l 1.64609 -0 l 0.823045 -1.42556 l -0.823045 -1.42556 l 1.64609 -0 l 0.823045 -1.42556 l 0.823045 1.42556 l 1.64609 -0 l -0.823045 1.42556 l 0.823045 1.42556 l 1.64609 -0 l 0.823045 -1.42556 l 0.823045 1.42556 l 1.64609 -0 l -0.823045 1.42556 l 0.823045 1.42556 l -1.64609 -2.01588e-16 l -0.823045 1.42556 l 0.823045 1.42556 l 1.64609 -0 l -0.823045 1.42556 l 0.823045 1.42556 l 1.64609 -0 l 0.823045 -1.42556 l 0.823045 1.42556 l 1.64609 -0 l 0.823045 -1.42556 l -0.823045 -1.42556 l 1.64609 -0 l 0.823045 -1.42556 l 0.823045 1.42556 l 1.64609 -0 l -0.823045 1.42556 l 0.823045 1.42556 l 1.64609 -0 l 0.823045 -1.42556 l 0.823045 1.42556 l 1.64609 -0 l 0.823045 -1.42556 l -0.823045 -1.42556 l 1.64609 -0 l 0.823045 -1.42556 l -0.823045 -1.42556 l -1.64609 -2.01588e-16 l 0.823045 -1.42556 l -0.823045 -1.42556 l 1.64609 -0 l 0.823045 -1.42556 l 0.823045 1.42556 l 1.64609 -0 l 0.823045 -1.42556 l -0.823045 -1.42556 l 1.64609 -0 l 0.823045 -1.42556 l -0.823045 -1.42556 l -1.64609 -2.01588e-16 l 0.823045 -1.42556 l -0.823045 -1.42556 l -1.64609 -2.01588e-16 l -0.823045 1.42556 l -0.823045 -1.42556 l -1.64609 -2.01588e-16 l 0.823045 -1.42556 l -0.823045 -1.42556 l 1.64609 -0 l 0.823045 -1.42556 l -0.823045 -1.42556 l -1.64609 -2.01588e-16 l 0.823045 -1.42556 l -0.823045 -1.42556 l 1.64609 -0 l 0.823045 -1.42556 l 0.823045 1.42556 l 1.64609 -0 l 0.823045 -1.42556 l -0.823045 -1.42556 l 1.64609 -0 l 0.823045 -1.42556 l 0.823045 1.42556 l 1.64609 -0 l -0.823045 1.42556 l 0.823045 1.42556 l 1.64609 -0 l 0.823045 -1.42556 l 0.823045 1.42556 l 1.64609 -0 l 0.823045 -1.42556 l -0.823045 -1.42556 l 1.64609 -0 l 0.823045 -1.42556 l -0.823045 -1.42556 l -1.64609 -2.01588e-16 l 0.823045 -1.42556 l -0.823045 -1.42556 l 1.64609 -0 l 0.823045 -1.42556 l 0.823045 1.42556 l 1.64609 -0 l 0.823045 -1.42556 l -0.823045 -1.42556 l 1.64609 -0 l 0.823045 -1.42556 l -0.823045 -1.42556 l -1.64609 -2.01588e-16 l 0.823045 -1.42556 l -0.823045 -1.42556 l -1.64609 -2.01588e-16 l -0.823045 1.42556 l -0.823045 -1.42556 l -1.64609 -2.01588e-16 l 0.823045 -1.42556 l -0.823045 -1.42556 l 1.64609 -0 l 0.823045 -1.42556 l -0.823045 -1.42556 l -1.64609 -2.01588e-16 l 0.823045 -1.42556 l -0.823045 -1.42556 l -1.64609 -2.01588e-16 l -0.823045 1.42556 l -0.823045 -1.42556 l -1.64609 -2.01588e-16 l -0.823045 1.42556 l 0.823045 1.42556 l -1.64609 -2.01588e-16 l -0.823045 1.42556 l -0.823045 -1.42556 l -1.64609 -2.01588e-16 l 0.823045 -1.42556 l -0.823045 -1.42556 l -1.64609 -2.01588e-16 l -0.823045 1.42556 l -0.823045 -1.42556 l -1.64609 -2.01588e-16 l 0.823045 -1.42556 l -0.823045 -1.42556 l 1.64609 -0 l 0.823045 -1.42556 l -0.823045 -1.42556 l -1.64609 -2.01588e-16 l 0.823045 -1.42556 l -0.823045 -1.42556 l 1.64609 -0 l 0.823045 -1.42556 l 0.823045 1.42556 l 1.64609 -0 l 0.823045 -1.42556 l -0.823045 -1.42556 l 1.64609 -0 l 0.823045 -1.42556 l -0.823045 -1.42556 l -1.64609 -2.01588e-16 l 0.823045 -1.42556 l -0.823045 -1.42556 l -1.64609 -2.01588e-16 l -0.823045 1.42556 l -0.823045 -1.42556 l -1.64609 -2.01588e-16 l 0.823045 -1.42556 l -0.823045 -1.42556 l 1.64609 -0 l 0.823045 -1.42556 l -0.823045 -1.42556 l -1.64609 -2.01588e-16 l 0.823045 -1.42556 l -0.823045 -1.42556 l 1.64609 -0 l 0.823045 -1.42556 l 0.823045 1.42556 l 1.64609 -0 l 0.823045 -1.42556 l -0.823045 -1.42556 l 1.64609 -0 l 0.823045 -1.42556 l 0.823045 1.42556 l 1.64609 -0 l -0.823045 1.42556 l 0.823045 1.42556 l 1.64609 -0 l 0.823045 -1.42556 l 0.823045 1.42556 l 1.64609 -0 l 0.823045 -1.42556 l -0.823045 -1.42556 l 1.64609 -0 l 0.823045 -1.42556 l -0.823045 -1.42556 l -1.64609 -2.01588e-16 l 0.823045 -1.42556 l -0.823045 -1.42556 l 1.64609 -0 l 0.823045 -1.42556 l 0.823045 1.42556 l 1.64609 -0 l 0.823045 -1.42556 l -0.823045 -1.42556 l 1.64609 -0 l 0.823045 -1.42556 l 0.823045 1.42556 l 1.64609 -0 l -0.823045 1.42556 l 0.823045 1.42556 l 1.64609 -0 l 0.823045 -1.42556 l 0.823045 1.42556 l 1.64609 -0 l -0.823045 1.42556 l 0.823045 1.42556 l -1.64609 -2.01588e-16 l -0.823045 1.42556 l 0.823045 1.42556 l 1.64609 -0 l -0.823045 1.42556 l 0.823045 1.42556 l 1.64609 -0 l 0.823045 -1.42556 l 0.823045 1.42556 l 1.64609 -0 l 0.823045 -1.42556 l -0.823045 -1.42556 l 1.64609 -0 l 0.823045 -1.42556 l 0.823045 1.42556 l 1.64609 -0 l -0.823045 1.42556 l 0.823045 1.42556 l 1.64609 -0 l 0.823045 -1.42556 l 0.823045 1.42556 l 1.64609 -0 l 0.823045 -1.42556 l -0.823045 -1.42556 l 1.64609 -0 l 0.823045 -1.42556 l -0.823045 -1.42556 l -1.64609 -2.01588e-16 l 0.823045 -1.42556 l -0.823045 -1.42556 l 1.64609 -0 l 0.823045 -1.42556 l 0.823045 1.42556 l 1.64609 -0 l 0.823045 -1.42556 l -0.823045 -1.42556 l 1.64609 -0 l 0.823045 -1.42556 l -0.823045 -1.42556 l -1.64609 -2.01588e-16 l 0.823045 -1.42556 l -0.823045 -1.42556 l -1.64609 -2.01588e-16 l -0.823045 1.42556 l -0.823045 -1.42556 l -1.64609 -2.01588e-16 l 0.823045 -1.42556 l -0.823045 -1.42556 l 1.64609 -0 l 0.823045 -1.42556 l -0.823045 -1.42556 l -1.64609 -2.01588e-16 l 0.823045 -1.42556 l -0.823045 -1.42556 l 1.64609 -0 l 0.823045 -1.42556 l 0.823045 1.42556 l 1.64609 -0 l 0.823045 -1.42556 l -0.823045 -1.42556 l 1.64609 -0 l 0.823045 -1.42556 l 0.823045 1.42556 l 1.64609 -0 l -0.823045 1.42556 l 0.823045 1.42556 l 1.64609 -0 l 0.823045 -1.42556 l 0.823045 1.42556 l 1.64609 -0 l 0.823045 -1.42556 l -0.823045 -1.42556 l 1.64609 -0 l 0.823045 -1.42556 l -0.823045 -1.42556 l -1.64609 -2.01588e-16 l 0.823045 -1.42556 l -0.823045 -1.42556 l 1.64609 -0 l 0.823045 -1.42556 l 0.823045 1.42556 l 1.64609 -0 l 0.823045 -1.42556 l -0.823045 -1.42556 l 1.64609 -0 l 0.823045 -1.42556 l 0.823045 1.42556 l 1.64609 -0 l -0.823045 1.42556 l 0.823045 1.42556 l 1.64609 -0 l 0.823045 -1.42556 l 0.823045 1.42556 l 1.64609 -0 l -0.823045 1.42556 l 0.823045 1.42556 l -1.64609 -2.01588e-16 l -0.823045 1.42556 l 0.823045 1.42556 l 1.64609 -0 l -0.823045 1.42556 l 0.823045 1.42556 l 1.64609 -0 l 0.823045 -1.42556 l 0.823045 1.42556 l 1.64609 -0 l 0.823045 -1.42556 l -0.823045 -1.42556 l 1.64609 -0 l 0.823045 -1.42556 l 0.823045 1.42556 l 1.64609 -0 l -0.823045 1.42556 l 0.823045 1.42556 l 1.64609 -0 l 0.823045 -1.42556 l 0.823045 1.42556 l 1.64609 -0 l -0.823045 1.42556 l 0.823045 1.42556 l -1.64609 -2.01588e-16 l -0.823045 1.42556 l 0.823045 1.42556 l 1.64609 -0 l -0.823045 1.42556 l 0.823045 1.42556 l -1.64609 -2.01588e-16 l -0.823045 1.42556 l -0.823045 -1.42556 l -1.64609 -2.01588e-16 l -0.823045 1.42556 l 0.823045 1.42556 l -1.64609 -2.01588e-16 l -0.823045 1.42556 l 0.823045 1.42556 l 1.64609 -0 l -0.823045 1.42556 l 0.823045 1.42556 l 1.64609 -0 l 0.823045 -1.42556 l 0.823045 1.42556 l 1.64609 -0 l -0.823045 1.42556 l 0.823045 1.42556 l -1.64609 -2.01588e-16 l -0.823045 1.42556 l 0.823045 1.42556 l 1.64609 -0 l -0.823045 1.42556 l 0.823045 1.42556 l 1.64609 -0 l 0.823045 -1.42556 l 0.823045 1.42556 l 1.64609 -0 l 0.823045 -1.42556 l -0.823045 -1.42556 l 1.64609 -0 l 0.823045 -1.42556 l 0.823045 1.42556 l 1.64609 -0 l -0.823045 1.42556 l 0.823045 1.42556 l 1.64609 -0 l 0.823045 -1.42556 l 0.823045 1.42556 l 1.64609 -0 l 0.823045 -1.42556 l -0.823045 -1.42556 l 1.64609 -0 l 0.823045 -1.42556 l -0.823045 -1.42556 l -1.64609 -2.01588e-16 l 0.823045 -1.42556 l -0.823045 -1.42556 l 1.64609 -0 l 0.823045 -1.42556 l 0.823045 1.42556 l 1.64609 -0 l 0.823045 -1.42556 l -0.823045 -1.42556 l 1.64609 -0 l 0.823045 -1.42556 l 0.823045 1.42556 l 1.64609 -0 l -0.823045 1.42556 l 0.823045 1.42556 l 1.64609 -0 l 0.823045 -1.42556 l 0.823045 1.42556 l 1.64609 -0 l -0.823045 1.42556 l 0.823045 1.42556 l -1.64609 -2.01588e-16 l -0.823045 1.42556 l 0.823045 1.42556 l 1.64609 -0 l -0.823045 1.42556 l 0.823045 1.42556 l 1.64609 -0 l 0.823045 -1.42556 l 0.823045 1.42556 l 1.64609 -0 l 0.823045 -1.42556 l -0.823045 -1.42556 l 1.64609 -0 l 0.823045 -1.42556 l 0.823045 1.42556 l 1.64609 -0 l -0.823045 1.42556 l 0.823045 1.42556 l 1.64609 -0 l 0.823045 -1.42556 l 0.823045 1.42556 l 1.64609 -0 l -0.823045 1.42556 l 0.823045 1.42556 l -1.64609 -2.01588e-16 l -0.823045 1.42556 l 0.823045 1.42556 l 1.64609 -0 l -0.823045 1.42556 l 0.823045 1.42556 l -1.64609 -2.01588e-16 l -0.823045 1.42556 l -0.823045 -1.42556 l -1.64609 -2.01588e-16 l -0.823045 1.42556 l 0.823045 1.42556 l -1.64609 -2.01588e-16 l -0.823045 1.42556 l 0.823045 1.42556 l 1.64609 -0 l -0.823045 1.42556 l 0.823045 1.42556 l 1.64609 -0 l 0.823045 -1.42556 l 0.823045 1.42556 l 1.64609 -0 l -0.823045 1.42556 l 0.823045 1.42556 l -1.64609 -2.01588e-16 l -0.823045 1.42556 l 0.823045 1.42556 l 1.64609 -0 l -0.823045 1.42556 l 0.823045 1.42556 l -1.64609 -2.01588e-16 l -0.823045 1.42556 l -0.823045 -1.42556 l -1.64609 -2.01588e-16 l -0.823045 1.42556 l 0.823045 1.42556 l -1.64609 -2.01588e-16 l -0.823045 1.42556 l -0.823045 -1.42556 l -1.64609 -2.01588e-16 l 0.823045 -1.42556 l -0.823045 -1.42556 l -1.64609 -2.01588e-16 l -0.823045 1.42556 l -0.823045 -1.42556 l -1.64609 -2.01588e-16 l -0.823045 1.42556 l 0.823045 1.42556 l -1.64609 -2.01588e-16 l -0.823045 1.42556 l 0.823045 1.42556 l 1.64609 -0 l -0.823045 1.42556 l 0.823045 1.42556 l -1.64609 -2.01588e-16 l -0.823045 1.42556 l -0.823045 -1.42556 l -1.64609 -2.01588e-16 l -0.823045 1.42556 l 0.823045 1.42556 l -1.64609 -2.01588e-16 l -0.823045 1.42556 l 0.823045 1.42556 l 1.64609 -0 l -0.823045 1.42556 l 0.823045 1.42556 l 1.64609 -0 l 0.823045 -1.42556 l 0.823045 1.42556 l 1.64609 -0 l -0.823045 1.42556 l 0.823045 1.42556 l -1.64609 -2.01588e-16 l -0.823045 1.42556 l 0.823045 1.42556 l 1.64609 -0 l -0.823045 1.42556 l 0.823045 1.42556 l 1.64609 -0 l 0.823045 -1.42556 l 0.823045 1.42556 l 1.64609 -0 l 0.823045 -1.42556 l -0.823045 -1.42556 l 1.64609 -0 l 0.823045 -1.42556 l 0.823045 1.42556 l 1.64609 -0 l -0.823045 1.42556 l 0.823045 1.42556 l 1.64609 -0 l 0.823045 -1.42556 l 0.823045 1.42556 l 1.64609 -0 l -0.823045 1.42556 l 0.823045 1.42556 l -1.64609 -2.01588e-16 l -0.823045 1.42556 l 0.823045 1.42556 l 1.64609 -0 l -0.823045 1.42556 l 0.823045 1.42556 l -1.64609 -2.01588e-16 l -0.823045 1.42556 l -0.823045 -1.42556 l -1.64609 -2.01588e-16 l -0.823045 1.42556 l 0.823045 1.42556 l -1.64609 -2.01588e-16 l -0.823045 1.42556 l 0.823045 1.42556 l 1.64609 -0 l -0.823045 1.42556 l 0.823045 1.42556 l 1.64609 -0 l 0.823045 -1.42556 l 0.823045 1.42556 l 1.64609 -0 l -0.823045 1.42556 l 0.823045 1.42556 l -1.64609 -2.01588e-16 l -0.823045 1.42556 l 0.823045 1.42556 l 1.64609 -0 l -0.823045 1.42556 l 0.823045 1.42556 l 1.64609 -0 l 0.823045 -1.42556 l 0.823045 1.42556 l 1.64609 -0 l 0.823045 -1.42556 l -0.823045 -1.42556 l 1.64609 -0 l 0.823045 -1.42556 l 0.823045 1.42556 l 1.64609 -0 l -0.823045 1.42556 l 0.823045 1.42556 l 1.64609 -0 l 0.823045 -1.42556 l 0.823045 1.42556 l 1.64609 -0 l 0.823045 -1.42556 l -0.823045 -1.42556 l 1.64609 -0 l 0.823045 -1.42556 l -0.823045 -1.42556 l -1.64609 -2.01588e-16 l 0.823045 -1.42556 l -0.823045 -1.42556 l 1.64609 -0 l 0.823045 -1.42556 l 0.823045 1.42556 l 1.64609 -0 l 0.823045 -1.42556 l -0.823045 -1.42556 l 1.64609 -0 l 0.823045 -1.42556 l 0.823045 1.42556 l 1.64609 -0 l -0.823045 1.42556 l 0.823045 1.42556 l 1.64609 -0 l 0.823045 -1.42556 l 0.823045 1.42556 l 1.64609 -0 l -0.823045 1.42556 l 0.823045 1.42556 l -1.64609 -2.01588e-16 l -0.823045 1.42556 l 0.823045 1.42556 l 1.64609 -0 l -0.823045 1.42556 l 0.823045 1.42556 l 1.64609 -0 l 0.823045 -1.42556 l 0.823045 1.42556 l 1.64609 -0 l 0.823045 -1.42556 l -0.823045 -1.42556 l 1.64609 -0 l 0.823045 -1.42556 l 0.823045 1.42556 l 1.64609 -0 l -0.823045 1.42556 l 0.823045 1.42556 l 1.64609 -0 l 0.823045 -1.42556 l 0.823045 1.42556 l 1.64609 -0 l 0.823045 -1.42556 l -0.823045 -1.42556 l 1.64609 -0 l 0.823045 -1.42556 l -0.823045 -1.42556 l -1.64609 -2.01588e-16 l 0.823045 -1.42556 l -0.823045 -1.42556 l 1.64609 -0 l 0.823045 -1.42556 l 0.823045 1.42556 l 1.64609 -0 l 0.823045 -1.42556 l -0.823045 -1.42556 l 1.64609 -0 l 0.823045 -1.42556 l -0.823045 -1.42556 l -1.64609 -2.01588e-16 l 0.823045 -1.42556 l -0.823045 -1.42556 l -1.64609 -2.01588e-16 l -0.823045 1.42556 l -0.823045 -1.42556 l -1.64609 -2.01588e-16 l 0.823045 -1.42556 l -0.823045 -1.42556 l 1.64609 -0 l 0.823045 -1.42556 l -0.823045 -1.42556 l -1.64609 -2.01588e-16 l 0.823045 -1.42556 l -0.823045 -1.42556 l 1.64609 -0 l 0.823045 -1.42556 l 0.823045 1.42556 l 1.64609 -0 l 0.823045 -1.42556 l -0.823045 -1.42556 l 1.64609 -0 l 0.823045 -1.42556 l 0.823045 1.42556 l 1.64609 -0 l -0.823045 1.42556 l 0.823045 1.42556 l 1.64609 -0 l 0.823045 -1.42556 l 0.823045 1.42556 l 1.64609 -0 l 0.823045 -1.42556 l -0.823045 -1.42556 l 1.64609 -0 l 0.823045 -1.42556 l -0.823045 -1.42556 l -1.64609 -2.01588e-16 l 0.823045 -1.42556 l -0.823045 -1.42556 l 1.64609 -0 l 0.823045 -1.42556 l 0.823045 1.42556 l 1.64609 -0 l 0.823045 -1.42556 l -0.823045 -1.42556 l 1.64609 -0 l 0.823045 -1.42556 l 0.823045 1.42556 l 1.64609 -0 l -0.823045 1.42556 l 0.823045 1.42556 l 1.64609 -0 l 0.823045 -1.42556 l 0.823045 1.42556 l 1.64609 -0 l -0.823045 1.42556 l 0.823045 1.42556 l -1.64609 -2.01588e-16 l -0.823045 1.42556 l 0.823045 1.42556 l 1.64609 -0 l -0.823045 1.42556 l 0.823045 1.42556 l 1.64609 -0 l 0.823045 -1.42556 l 0.823045 1.42556 l 1.64609 -0 l 0.823045 -1.42556 l -0.823045 -1.42556 l 1.64609 -0 l 0.823045 -1.42556 l 0.823045 1.42556 l 1.64609 -0 l -0.823045 1.42556 l 0.823045 1.42556 l 1.64609 -0 l 0.823045 -1.42556 l 0.823045 1.42556 l 1.64609 -0 l -0.823045 1.42556 l 0.823045 1.42556 l -1.64609 -2.01588e-16 l -0.823045 1.42556 l 0.823045 1.42556 l 1.64609 -0 l -0.823045 1.42556 l 0.823045 1.42556 l -1.64609 -2.01588e-16 l -0.823045 1.42556 l -0.823045 -1.42556 l -1.64609 -2.01588e-16 l -0.823045 1.42556 l 0.823045 1.42556 l -1.64609 -2.01588e-16 l -0.823045 1.42556 l 0.823045 1.42556 l 1.64609 -0 l -0.823045 1.42556 l 0.823045 1.42556 l 1.64609 -0 l 0.823045 -1.42556 l 0.823045 1.42556 l 1.64609 -0 l -0.823045 1.42556 l 0.823045 1.42556 l -1.64609 -2.01588e-16 l -0.823045 1.42556 l 0.823045 1.42556 l 1.64609 -0 l -0.823045 1.42556 l 0.823045 1.42556 l 1.64609 -0 l 0.823045 -1.42556 l 0.823045 1.42556 l 1.64609 -0 l 0.823045 -1.42556 l -0.823045 -1.42556 l 1.64609 -0 l 0.823045 -1.42556 l 0.823045 1.42556 l 1.64609 -0 l -0.823045 1.42556 l 0.823045 1.42556 l 1.64609 -0 l 0.823045 -1.42556 l 0.823045 1.42556 l 1.64609 -0 l 0.823045 -1.42556 l -0.823045 -1.42556 l 1.64609 -0 l 0.823045 -1.42556 l -0.823045 -1.42556 l -1.64609 -2.01588e-16 l 0.823045 -1.42556 l -0.823045 -1.42556 l 1.64609 -0 l 0.823045 -1.42556 l 0.823045 1.42556 l 1.64609 -0 l 0.823045 -1.42556 l -0.823045 -1.42556 l 1.64609 -0 l 0.823045 -1.42556 l 0.823045 1.42556 l 1.64609 -0 l -0.823045 1.42556 l 0.823045 1.42556 l 1.64609 -0 l 0.823045 -1.42556 l 0.823045 1.42556 l 1.64609 -0 l -0.823045 1.42556 l 0.823045 1.42556 l -1.64609 -2.01588e-16 l -0.823045 1.42556 l 0.823045 1.42556 l 1.64609 -0 l -0.823045 1.42556 l 0.823045 1.42556 l 1.64609 -0 l 0.823045 -1.42556 l 0.823045 1.42556 l 1.64609 -0 l 0.823045 -1.42556 l -0.823045 -1.42556 l 1.64609 -0 l 0.823045 -1.42556 l 0.823045 1.42556 l 1.64609 -0 l -0.823045 1.42556 l 0.823045 1.42556 l 1.64609 -0 l 0.823045 -1.42556 l 0.823045 1.42556 l 1.64609 -0 l -0.823045 1.42556 l 0.823045 1.42556 l -1.64609 -2.01588e-16 l -0.823045 1.42556 l 0.823045 1.42556 l 1.64609 -0 l -0.823045 1.42556 l 0.823045 1.42556 l -1.64609 -2.01588e-16 l -0.823045 1.42556 l -0.823045 -1.42556 l -1.64609 -2.01588e-16 l -0.823045 1.42556 l 0.823045 1.42556 l -1.64609 -2.01588e-16 l -0.823045 1.42556 l 0.823045 1.42556 l 1.64609 -0 l -0.823045 1.42556 l 0.823045 1.42556 l 1.64609 -0 l 0.823045 -1.42556 l 0.823045 1.42556 l 1.64609 -0 l -0.823045 1.42556 l 0.823045 1.42556 l -1.64609 -2.01588e-16 l -0.823045 1.42556 l 0.823045 1.42556 l 1.64609 -0 l -0.823045 1.42556 l 0.823045 1.42556 l -1.64609 -2.01588e-16 l -0.823045 1.42556 l -0.823045 -1.42556 l -1.64609 -2.01588e-16 l -0.823045 1.42556 l 0.823045 1.42556 l -1.64609 -2.01588e-16 l -0.823045 1.42556 l -0.823045 -1.42556 l -1.64609 -2.01588e-16 l 0.823045 -1.42556 l -0.823045 -1.42556 l -1.64609 -2.01588e-16 l -0.823045 1.42556 l -0.823045 -1.42556 l -1.64609 -2.01588e-16 l -0.823045 1.42556 l 0.823045 1.42556 l -1.64609 -2.01588e-16 l -0.823045 1.42556 l 0.823045 1.42556 l 1.64609 -0 l -0.823045 1.42556 l 0.823045 1.42556 l -1.64609 -2.01588e-16 l -0.823045 1.42556 l -0.823045 -1.42556 l -1.64609 -2.01588e-16 l -0.823045 1.42556 l 0.823045 1.42556 l -1.64609 -2.01588e-16 l -0.823045 1.42556 l 0.823045 1.42556 l 1.64609 -0 l -0.823045 1.42556 l 0.823045 1.42556 l 1.64609 -0 l 0.823045 -1.42556 l 0.823045 1.42556 l 1.64609 -0 l -0.823045 1.42556 l 0.823045 1.42556 l -1.64609 -2.01588e-16 l -0.823045 1.42556 l 0.823045 1.42556 l 1.64609 -0 l -0.823045 1.42556 l 0.823045 1.42556 l 1.64609 -0 l 0.823045 -1.42556 l 0.823045 1.42556 l 1.64609 -0 l 0.823045 -1.42556 l -0.823045 -1.42556 l 1.64609 -0 l 0.823045 -1.42556 l 0.823045 1.42556 l 1.64609 -0 l -0.823045 1.42556 l 0.823045 1.42556 l 1.64609 -0 l 0.823045 -1.42556 l 0.823045 1.42556 l 1.64609 -0 l -0.823045 1.42556 l 0.823045 1.42556 l -1.64609 -2.01588e-16 l -0.823045 1.42556 l 0.823045 1.42556 l 1.64609 -0 l -0.823045 1.42556 l 0.823045 1.42556 l -1.64609 -2.01588e-16 l -0.823045 1.42556 l -0.823045 -1.42556 l -1.64609 -2.01588e-16 l -0.823045 1.42556 l 0.823045 1.42556 l -1.64609 -2.01588e-16 l -0.823045 1.42556 l 0.823045 1.42556 l 1.64609 -0 l -0.823045 1.42556 l 0.823045 1.42556 l 1.64609 -0 l 0.823045 -1.42556 l 0.823045 1.42556 l 1.64609 -0 l -0.823045 1.42556 l 0.823045 1.42556 l -1.64609 -2.01588e-16 l -0.823045 1.42556 l 0.823045 1.42556 l 1.64609 -0 l -0.823045 1.42556 l 0.823045 1.42556 l -1.64609 -2.01588e-16 l -0.823045 1.42556 l -0.823045 -1.42556 l -1.64609 -2.01588e-16 l -0.823045 1.42556 l 0.823045 1.42556 l -1.64609 -2.01588e-16 l -0.823045 1.42556 l -0.823045 -1.42556 l -1.64609 -2.01588e-16 l 0.823045 -1.42556 l -0.823045 -1.42556 l -1.64609 -2.01588e-16 l -0.823045 1.42556 l -0.823045 -1.42556 l -1.64609 -2.01588e-16 l -0.823045 1.42556 l 0.823045 1.42556 l -1.64609 -2.01588e-16 l -0.823045 1.42556 l 0.823045 1.42556 l 1.64609 -0 l -0.823045 1.42556 l 0.823045 1.42556 l -1.64609 -2.01588e-16 l -0.823045 1.42556 l -0.823045 -1.42556 l -1.64609 -2.01588e-16 l -0.823045 1.42556 l 0.823045 1.42556 l -1.64609 -2.01588e-16 l -0.823045 1.42556 l -0.823045 -1.42556 l -1.64609 -2.01588e-16 l 0.823045 -1.42556 l -0.823045 -1.42556 l -1.64609 -2.01588e-16 l -0.823045 1.42556 l -0.823045 -1.42556 l -1.64609 -2.01588e-16 l 0.823045 -1.42556 l -0.823045 -1.42556 l 1.64609 -0 l 0.823045 -1.42556 l -0.823045 -1.42556 l -1.64609 -2.01588e-16 l 0.823045 -1.42556 l -0.823045 -1.42556 l -1.64609 -2.01588e-16 l -0.823045 1.42556 l -0.823045 -1.42556 l -1.64609 -2.01588e-16 l -0.823045 1.42556 l 0.823045 1.42556 l -1.64609 -2.01588e-16 l -0.823045 1.42556 l -0.823045 -1.42556 l -1.64609 -2.01588e-16 l 0.823045 -1.42556 l -0.823045 -1.42556 l -1.64609 -2.01588e-16 l -0.823045 1.42556 l -0.823045 -1.42556 l -1.64609 -2.01588e-16 l -0.823045 1.42556 l 0.823045 1.42556 l -1.64609 -2.01588e-16 l -0.823045 1.42556 l 0.823045 1.42556 l 1.64609 -0 l -0.823045 1.42556 l 0.823045 1.42556 l -1.64609 -2.01588e-16 l -0.823045 1.42556 l -0.823045 -1.42556 l -1.64609 -2.01588e-16 l -0.823045 1.42556 l 0.823045 1.42556 l -1.64609 -2.01588e-16 l -0.823045 1.42556 l 0.823045 1.42556 l 1.64609 -0 l -0.823045 1.42556 l 0.823045 1.42556 l 1.64609 -0 l 0.823045 -1.42556 l 0.823045 1.42556 l 1.64609 -0 l -0.823045 1.42556 l 0.823045 1.42556 l -1.64609 -2.01588e-16 l -0.823045 1.42556 l 0.823045 1.42556 l 1.64609 -0 l -0.823045 1.42556 l 0.823045 1.42556 l -1.64609 -2.01588e-16 l -0.823045 1.42556 l -0.823045 -1.42556 l -1.64609 -2.01588e-16 l -0.823045 1.42556 l 0.823045 1.42556 l -1.64609 -2.01588e-16 l -0.823045 1.42556 l -0.823045 -1.42556 l -1.64609 -2.01588e-16 l 0.823045 -1.42556 l -0.823045 -1.42556 l -1.64609 -2.01588e-16 l -0.823045 1.42556 l -0.823045 -1.42556 l -1.64609 -2.01588e-16 l -0.823045 1.42556 l 0.823045 1.42556 l -1.64609 -2.01588e-16 l -0.823045 1.42556 l 0.823045 1.42556 l 1.64609 -0 l -0.823045 1.42556 l 0.823045 1.42556 l -1.64609 -2.01588e-16 l -0.823045 1.42556 l -0.823045 -1.42556 l -1.64609 -2.01588e-16 l -0.823045 1.42556 l 0.823045 1.42556 l -1.64609 -2.01588e-16 l -0.823045 1.42556 l 0.823045 1.42556 l 1.64609 -0 l -0.823045 1.42556 l 0.823045 1.42556 l 1.64609 -0 l 0.823045 -1.42556 l 0.823045 1.42556 l 1.64609 -0 l -0.823045 1.42556 l 0.823045 1.42556 l -1.64609 -2.01588e-16 l -0.823045 1.42556 l 0.823045 1.42556 l 1.64609 -0 l -0.823045 1.42556 l 0.823045 1.42556 l 1.64609 -0 l 0.823045 -1.42556 l 0.823045 1.42556 l 1.64609 -0 l 0.823045 -1.42556 l -0.823045 -1.42556 l 1.64609 -0 l 0.823045 -1.42556 l 0.823045 1.42556 l 1.64609 -0 l -0.823045 1.42556 l 0.823045 1.42556 l 1.64609 -0 l 0.823045 -1.42556 l 0.823045 1.42556 l 1.64609 -0 l -0.823045 1.42556 l 0.823045 1.42556 l -1.64609 -2.01588e-16 l -0.823045 1.42556 l 0.823045 1.42556 l 1.64609 -0 l -0.823045 1.42556 l 0.823045 1.42556 l -1.64609 -2.01588e-16 l -0.823045 1.42556 l -0.823045 -1.42556 l -1.64609 -2.01588e-16 l -0.823045 1.42556 l 0.823045 1.42556 l -1.64609 -2.01588e-16 l -0.823045 1.42556 l 0.823045 1.42556 l 1.64609 -0 l -0.823045 1.42556 l 0.823045 1.42556 l 1.64609 -0 l 0.823045 -1.42556 l 0.823045 1.42556 l 1.64609 -0 l -0.823045 1.42556 l 0.823045 1.42556 l -1.64609 -2.01588e-16 l -0.823045 1.42556 l 0.823045 1.42556 l 1.64609 -0 l -0.823045 1.42556 l 0.823045 1.42556 l 1.64609 -0 l 0.823045 -1.42556 l 0.823045 1.42556 l 1.64609 -0 l 0.823045 -1.42556 l -0.823045 -1.42556 l 1.64609 -0 l 0.823045 -1.42556 l 0.823045 1.42556 l 1.64609 -0 l -0.823045 1.42556 l 0.823045 1.42556 l 1.64609 -0 l 0.823045 -1.42556 l 0.823045 1.42556 l 1.64609 -0 l 0.823045 -1.42556 l -0.823045 -1.42556 l 1.64609 -0 l 0.823045 -1.42556 l -0.823045 -1.42556 l -1.64609 -2.01588e-16 l 0.823045 -1.42556 l -0.823045 -1.42556 l 1.64609 -0 l 0.823045 -1.42556 l 0.823045 1.42556 l 1.64609 -0 l 0.823045 -1.42556 l -0.823045 -1.42556 l 1.64609 -0 l 0.823045 -1.42556 l 0.823045 1.42556 l 1.64609 -0 l -0.823045 1.42556 l 0.823045 1.42556 l 1.64609 -0 l 0.823045 -1.42556 l 0.823045 1.42556 l 1.64609 -0 l -0.823045 1.42556 l 0.823045 1.42556 l -1.64609 -2.01588e-16 l -0.823045 1.42556 l 0.823045 1.42556 l 1.64609 -0 l -0.823045 1.42556 l 0.823045 1.42556 l 1.64609 -0 l 0.823045 -1.42556 l 0.823045 1.42556 l 1.64609 -0 l 0.823045 -1.42556 l -0.823045 -1.42556 l 1.64609 -0 l 0.823045 -1.42556 l 0.823045 1.42556 l 1.64609 -0 l -0.823045 1.42556 l 0.823045 1.42556 l 1.64609 -0 l 0.823045 -1.42556 l 0.823045 1.42556 l 1.64609 -0 l -0.823045 1.42556 l 0.823045 1.42556 l -1.64609 -2.01588e-16 l -0.823045 1.42556 l 0.823045 1.42556 l 1.64609 -0 l -0.823045 1.42556 l 0.823045 1.42556 l -1.64609 -2.01588e-16 l -0.823045 1.42556 l -0.823045 -1.42556 l -1.64609 -2.01588e-16 l -0.823045 1.42556 l 0.823045 1.42556 l -1.64609 -2.01588e-16 l -0.823045 1.42556 l 0.823045 1.42556 l 1.64609 -0 l -0.823045 1.42556 l 0.823045 1.42556 l 1.64609 -0 l 0.823045 -1.42556 l 0.823045 1.42556 l 1.64609 -0 l -0.823045 1.42556 l 0.823045 1.42556 l -1.64609 -2.01588e-16 l -0.823045 1.42556 l 0.823045 1.42556 l 1.64609 -0 l -0.823045 1.42556 l 0.823045 1.42556 l -1.64609 -2.01588e-16 l -0.823045 1.42556 l -0.823045 -1.42556 l -1.64609 -2.01588e-16 l -0.823045 1.42556 l 0.823045 1.42556 l -1.64609 -2.01588e-16 l -0.823045 1.42556 l -0.823045 -1.42556 l -1.64609 -2.01588e-16 l 0.823045 -1.42556 l -0.823045 -1.42556 l -1.64609 -2.01588e-16 l -0.823045 1.42556 l -0.823045 -1.42556 l -1.64609 -2.01588e-16 l -0.823045 1.42556 l 0.823045 1.42556 l -1.64609 -2.01588e-16 l -0.823045 1.42556 l 0.823045 1.42556 l 1.64609 -0 l -0.823045 1.42556 l 0.823045 1.42556 l -1.64609 -2.01588e-16 l -0.823045 1.42556 l -0.823045 -1.42556 l -1.64609 -2.01588e-16 l -0.823045 1.42556 l 0.823045 1.42556 l -1.64609 -2.01588e-16 l -0.823045 1.42556 l 0.823045 1.42556 l 1.64609 -0 l -0.823045 1.42556 l 0.823045 1.42556 l 1.64609 -0 l 0.823045 -1.42556 l 0.823045 1.42556 l 1.64609 -0 l -0.823045 1.42556 l 0.823045 1.42556 l -1.64609 -2.01588e-16 l -0.823045 1.42556 l 0.823045 1.42556 l 1.64609 -0 l -0.823045 1.42556 l 0.823045 1.42556 l 1.64609 -0 l 0.823045 -1.42556 l 0.823045 1.42556 l 1.64609 -0 l 0.823045 -1.42556 l -0.823045 -1.42556 l 1.64609 -0 l 0.823045 -1.42556 l 0.823045 1.42556 l 1.64609 -0 l -0.823045 1.42556 l 0.823045 1.42556 l 1.64609 -0 l 0.823045 -1.42556 l 0.823045 1.42556 l 1.64609 -0 l -0.823045 1.42556 l 0.823045 1.42556 l -1.64609 -2.01588e-16 l -0.823045 1.42556 l 0.823045 1.42556 l 1.64609 -0 l -0.823045 1.42556 l 0.823045 1.42556 l -1.64609 -2.01588e-16 l -0.823045 1.42556 l -0.823045 -1.42556 l -1.64609 -2.01588e-16 l -0.823045 1.42556 l 0.823045 1.42556 l -1.64609 -2.01588e-16 l -0.823045 1.42556 l 0.823045 1.42556 l 1.64609 -0 l -0.823045 1.42556 l 0.823045 1.42556 l 1.64609 -0 l 0.823045 -1.42556 l 0.823045 1.42556 l 1.64609 -0 l -0.823045 1.42556 l 0.823045 1.42556 l -1.64609 -2.01588e-16 l -0.823045 1.42556 l 0.823045 1.42556 l 1.64609 -0 l -0.823045 1.42556 l 0.823045 1.42556 l 1.64609 -0 l 0.823045 -1.42556 l 0.823045 1.42556 l 1.64609 -0 l 0.823045 -1.42556 l -0.823045 -1.42556 l 1.64609 -0 l 0.823045 -1.42556 l 0.823045 1.42556 l 1.64609 -0 l -0.823045 1.42556 l 0.823045 1.42556 l 1.64609 -0 l 0.823045 -1.42556 l 0.823045 1.42556 l 1.64609 -0 l 0.823045 -1.42556 l -0.823045 -1.42556 l 1.64609 -0 l 0.823045 -1.42556 l -0.823045 -1.42556 l -1.64609 -2.01588e-16 l 0.823045 -1.42556 l -0.823045 -1.42556 l 1.64609 -0 l 0.823045 -1.42556 l 0.823045 1.42556 l 1.64609 -0 l 0.823045 -1.42556 l -0.823045 -1.42556 l 1.64609 -0 l 0.823045 -1.42556 l 0.823045 1.42556 l 1.64609 -0 l -0.823045 1.42556 l 0.823045 1.42556 l 1.64609 -0 l 0.823045 -1.42556 l 0.823045 1.42556 l 1.64609 -0 l -0.823045 1.42556 l 0.823045 1.42556 l -1.64609 -2.01588e-16 l -0.823045 1.42556 l 0.823045 1.42556 l 1.64609 -0 l -0.823045 1.42556 l 0.823045 1.42556 l 1.64609 -0 l 0.823045 -1.42556 l 0.823045 1.42556 l 1.64609 -0 l 0.823045 -1.42556 l -0.823045 -1.42556 l 1.64609 -0 l 0.823045 -1.42556 l 0.823045 1.42556 l 1.64609 -0 l -0.823045 1.42556 l 0.823045 1.42556 l 1.64609 -0 l 0.823045 -1.42556 l 0.823045 1.42556 l 1.64609 -0 l 0.823045 -1.42556 l -0.823045 -1.42556 l 1.64609 -0 l 0.823045 -1.42556 l -0.823045 -1.42556 l -1.64609 -2.01588e-16 l 0.823045 -1.42556 l -0.823045 -1.42556 l 1.64609 -0 l 0.823045 -1.42556 l 0.823045 1.42556 l 1.64609 -0 l 0.823045 -1.42556 l -0.823045 -1.42556 l 1.64609 -0 l 0.823045 -1.42556 l -0.823045 -1.42556 l -1.64609 -2.01588e-16 l 0.823045 -1.42556 l -0.823045 -1.42556 l -1.64609 -2.01588e-16 l -0.823045 1.42556 l -0.823045 -1.42556 l -1.64609 -2.01588e-16 l 0.823045 -1.42556 l -0.823045 -1.42556 l 1.64609 -0 l 0.823045 -1.42556 l -0.823045 -1.42556 l -1.64609 -2.01588e-16 l 0.823045 -1.42556 l -0.823045 -1.42556 l 1.64609 -0 l 0.823045 -1.42556 l 0.823045 1.42556 l 1.64609 -0 l 0.823045 -1.42556 l -0.823045 -1.42556 l 1.64609 -0 l 0.823045 -1.42556 l 0.823045 1.42556 l 1.64609 -0 l -0.823045 1.42556 l 0.823045 1.42556 l 1.64609 -0 l 0.823045 -1.42556 l 0.823045 1.42556 l 1.64609 -0 l 0.823045 -1.42556 l -0.823045 -1.42556 l 1.64609 -0 l 0.823045 -1.42556 l -0.823045 -1.42556 l -1.64609 -2.01588e-16 l 0.823045 -1.42556 l -0.823045 -1.42556 l 1.64609 -0 l 0.823045 -1.42556 l 0.823045 1.42556 l 1.64609 -0 l 0.823045 -1.42556 l -0.823045 -1.42556 l 1.64609 -0 l 0.823045 -1.42556 l 0.823045 1.42556 l 1.64609 -0 l -0.823045 1.42556 l 0.823045 1.42556 l 1.64609 -0 l 0.823045 -1.42556 l 0.823045 1.42556 l 1.64609 -0 l -0.823045 1.42556 l 0.823045 1.42556 l -1.64609 -2.01588e-16 l -0.823045 1.42556 l 0.823045 1.42556 l 1.64609 -0 l -0.823045 1.42556 l 0.823045 1.42556 l 1.64609 -0 l 0.823045 -1.42556 l 0.823045 1.42556 l 1.64609 -0 l 0.823045 -1.42556 l -0.823045 -1.42556 l 1.64609 -0 l 0.823045 -1.42556 l 0.823045 1.42556 l 1.64609 -0 l -0.823045 1.42556 l 0.823045 1.42556 l 1.64609 -0 l 0.823045 -1.42556 l 0.823045 1.42556 l 1.64609 -0 l -0.823045 1.42556 l 0.823045 1.42556 l -1.64609 -2.01588e-16 l -0.823045 1.42556 l 0.823045 1.42556 l 1.64609 -0 l -0.823045 1.42556 l 0.823045 1.42556 l -1.64609 -2.01588e-16 l -0.823045 1.42556 l -0.823045 -1.42556 l -1.64609 -2.01588e-16 l -0.823045 1.42556 l 0.823045 1.42556 l -1.64609 -2.01588e-16 l -0.823045 1.42556 l 0.823045 1.42556 l 1.64609 -0 l -0.823045 1.42556 l 0.823045 1.42556 l 1.64609 -0 l 0.823045 -1.42556 l 0.823045 1.42556 l 1.64609 -0 l -0.823045 1.42556 l 0.823045 1.42556 l -1.64609 -2.01588e-16 l -0.823045 1.42556 l 0.823045 1.42556 l 1.64609 -0 l -0.823045 1.42556 l 0.823045 1.42556 l 1.64609 -0 l 0.823045 -1.42556 l 0.823045 1.42556 l 1.64609 -0 l 0.823045 -1.42556 l -0.823045 -1.42556 l 1.64609 -0 l 0.823045 -1.42556 l 0.823045 1.42556 l 1.64609 -0 l -0.823045 1.42556 l 0.823045 1.42556 l 1.64609 -0 l 0.823045 -1.42556 l 0.823045 1.42556 l 1.64609 -0 l 0.823045 -1.42556 l -0.823045 -1.42556 l 1.64609 -0 l 0.823045 -1.42556 l -0.823045 -1.42556 l -1.64609 -2.01588e-16 l 0.823045 -1.42556 l -0.823045 -1.42556 l 1.64609 -0 l 0.823045 -1.42556 l 0.823045 1.42556 l 1.64609 -0 l 0.823045 -1.42556 l -0.823045 -1.42556 l 1.64609 -0 l 0.823045 -1.42556 l 0.823045 1.42556 l 1.64609 -0 l -0.823045 1.42556 l 0.823045 1.42556 l 1.64609 -0 l 0.823045 -1.42556 l 0.823045 1.42556 l 1.64609 -0 l -0.823045 1.42556 l 0.823045 1.42556 l -1.64609 -2.01588e-16 l -0.823045 1.42556 l 0.823045 1.42556 l 1.64609 -0 l -0.823045 1.42556 l 0.823045 1.42556 l 1.64609 -0 l 0.823045 -1.42556 l 0.823045 1.42556 l 1.64609 -0 l 0.823045 -1.42556 l -0.823045 -1.42556 l 1.64609 -0 l 0.823045 -1.42556 l 0.823045 1.42556 l 1.64609 -0 l -0.823045 1.42556 l 0.823045 1.42556 l 1.64609 -0 l 0.823045 -1.42556 l 0.823045 1.42556 l 1.64609 -0 l 0.823045 -1.42556 l -0.823045 -1.42556 l 1.64609 -0 l 0.823045 -1.42556 l -0.823045 -1.42556 l -1.64609 -2.01588e-16 l 0.823045 -1.42556 l -0.823045 -1.42556 l 1.64609 -0 l 0.823045 -1.42556 l 0.823045 1.42556 l 1.64609 -0 l 0.823045 -1.42556 l -0.823045 -1.42556 l 1.64609 -0 l 0.823045 -1.42556 l -0.823045 -1.42556 l -1.64609 -2.01588e-16 l 0.823045 -1.42556 l -0.823045 -1.42556 l -1.64609 -2.01588e-16 l -0.823045 1.42556 l -0.823045 -1.42556 l -1.64609 -2.01588e-16 l 0.823045 -1.42556 l -0.823045 -1.42556 l 1.64609 -0 l 0.823045 -1.42556 l -0.823045 -1.42556 l -1.64609 -2.01588e-16 l 0.823045 -1.42556 l -0.823045 -1.42556 l 1.64609 -0 l 0.823045 -1.42556 l 0.823045 1.42556 l 1.64609 -0 l 0.823045 -1.42556 l -0.823045 -1.42556 l 1.64609 -0 l 0.823045 -1.42556 l 0.823045 1.42556 l 1.64609 -0 l -0.823045 1.42556 l 0.823045 1.42556 l 1.64609 -0 l 0.823045 -1.42556 l 0.823045 1.42556 l 1.64609 -0 l 0.823045 -1.42556 l -0.823045 -1.42556 l 1.64609 -0 l 0.823045 -1.42556 l -0.823045 -1.42556 l -1.64609 -2.01588e-16 l 0.823045 -1.42556 l -0.823045 -1.42556 l 1.64609 -0 l 0.823045 -1.42556 l 0.823045 1.42556 l 1.64609 -0 l 0.823045 -1.42556 l -0.823045 -1.42556 l 1.64609 -0 l 0.823045 -1.42556 l -0.823045 -1.42556 l -1.64609 -2.01588e-16 l 0.823045 -1.42556 l -0.823045 -1.42556 l -1.64609 -2.01588e-16 l -0.823045 1.42556 l -0.823045 -1.42556 l -1.64609 -2.01588e-16 l 0.823045 -1.42556 l -0.823045 -1.42556 l 1.64609 -0 l 0.823045 -1.42556 l -0.823045 -1.42556 l -1.64609 -2.01588e-16 l 0.823045 -1.42556 l -0.823045 -1.42556 l -1.64609 -2.01588e-16 l -0.823045 1.42556 l -0.823045 -1.42556 l -1.64609 -2.01588e-16 l -0.823045 1.42556 l 0.823045 1.42556 l -1.64609 -2.01588e-16 l -0.823045 1.42556 l -0.823045 -1.42556 l -1.64609 -2.01588e-16 l 0.823045 -1.42556 l -0.823045 -1.42556 l -1.64609 -2.01588e-16 l -0.823045 1.42556 l -0.823045 -1.42556 l -1.64609 -2.01588e-16 l 0.823045 -1.42556 l -0.823045 -1.42556 l 1.64609 -0 l 0.823045 -1.42556 l -0.823045 -1.42556 l -1.64609 -2.01588e-16 l 0.823045 -1.42556 l -0.823045 -1.42556 l 1.64609 -0 l 0.823045 -1.42556 l 0.823045 1.42556 l 1.64609 -0 l 0.823045 -1.42556 l -0.823045 -1.42556 l 1.64609 -0 l 0.823045 -1.42556 l -0.823045 -1.42556 l -1.64609 -2.01588e-16 l 0.823045 -1.42556 l -0.823045 -1.42556 l -1.64609 -2.01588e-16 l -0.823045 1.42556 l -0.823045 -1.42556 l -1.64609 -2.01588e-16 l 0.823045 -1.42556 l -0.823045 -1.42556 l 1.64609 -0 l 0.823045 -1.42556 l -0.823045 -1.42556 l -1.64609 -2.01588e-16 l 0.823045 -1.42556 l -0.823045 -1.42556 l 1.64609 -0 l 0.823045 -1.42556 l 0.823045 1.42556 l 1.64609 -0 l 0.823045 -1.42556 l -0.823045 -1.42556 l 1.64609 -0 l 0.823045 -1.42556 l 0.823045 1.42556 l 1.64609 -0 l -0.823045 1.42556 l 0.823045 1.42556 l 1.64609 -0 l 0.823045 -1.42556 l 0.823045 1.42556 l 1.64609 -0 l 0.823045 -1.42556 l -0.823045 -1.42556 l 1.64609 -0 l 0.823045 -1.42556 l -0.823045 -1.42556 l -1.64609 -2.01588e-16 l 0.823045 -1.42556 l -0.823045 -1.42556 l 1.64609 -0 l 0.823045 -1.42556 l 0.823045 1.42556 l 1.64609 -0 l 0.823045 -1.42556 l -0.823045 -1.42556 l 1.64609 -0 l 0.823045 -1.42556 l 0.823045 1.42556 l 1.64609 -0 l -0.823045 1.42556 l 0.823045 1.42556 l 1.64609 -0 l 0.823045 -1.42556 l 0.823045 1.42556 l 1.64609 -0 l -0.823045 1.42556 l 0.823045 1.42556 l -1.64609 -2.01588e-16 l -0.823045 1.42556 l 0.823045 1.42556 l 1.64609 -0 l -0.823045 1.42556 l 0.823045 1.42556 l 1.64609 -0 l 0.823045 -1.42556 l 0.823045 1.42556 l 1.64609 -0 l 0.823045 -1.42556 l -0.823045 -1.42556 l 1.64609 -0 l 0.823045 -1.42556 l 0.823045 1.42556 l 1.64609 -0 l -0.823045 1.42556 l 0.823045 1.42556 l 1.64609 -0 l 0.823045 -1.42556 l 0.823045 1.42556 l 1.64609 -0 l 0.823045 -1.42556 l -0.823045 -1.42556 l 1.64609 -0 l 0.823045 -1.42556 l -0.823045 -1.42556 l -1.64609 -2.01588e-16 l 0.823045 -1.42556 l -0.823045 -1.42556 l 1.64609 -0 l 0.823045 -1.42556 l 0.823045 1.42556 l 1.64609 -0 l 0.823045 -1.42556 l -0.823045 -1.42556 l 1.64609 -0 l 0.823045 -1.42556 l -0.823045 -1.42556 l -1.64609 -2.01588e-16 l 0.823045 -1.42556 l -0.823045 -1.42556 l -1.64609 -2.01588e-16 l -0.823045 1.42556 l -0.823045 -1.42556 l -1.64609 -2.01588e-16 l 0.823045 -1.42556 l -0.823045 -1.42556 l 1.64609 -0 l 0.823045 -1.42556 l -0.823045 -1.42556 l -1.64609 -2.01588e-16 l 0.823045 -1.42556 l -0.823045 -1.42556 l 1.64609 -0 l 0.823045 -1.42556 l 0.823045 1.42556 l 1.64609 -0 l 0.823045 -1.42556 l -0.823045 -1.42556 l 1.64609 -0 l 0.823045 -1.42556 l 0.823045 1.42556 l 1.64609 -0 l -0.823045 1.42556 l 0.823045 1.42556 l 1.64609 -0 l 0.823045 -1.42556 l 0.823045 1.42556 l 1.64609 -0 l 0.823045 -1.42556 l -0.823045 -1.42556 l 1.64609 -0 l 0.823045 -1.42556 l -0.823045 -1.42556 l -1.64609 -2.01588e-16 l 0.823045 -1.42556 l -0.823045 -1.42556 l 1.64609 -0 l 0.823045 -1.42556 l 0.823045 1.42556 l 1.64609 -0 l 0.823045 -1.42556 l -0.823045 -1.42556 l 1.64609 -0 l 0.823045 -1.42556 l 0.823045 1.42556 l 1.64609 -0 l -0.823045 1.42556 l 0.823045 1.42556 l 1.64609 -0 l 0.823045 -1.42556 l 0.823045 1.42556 l 1.64609 -0 l -0.823045 1.42556 l 0.823045 1.42556 l -1.64609 -2.01588e-16 l -0.823045 1.42556 l 0.823045 1.42556 l 1.64609 -0 l -0.823045 1.42556 l 0.823045 1.42556 l 1.64609 -0 l 0.823045 -1.42556 l 0.823045 1.42556 l 1.64609 -0 l 0.823045 -1.42556 l -0.823045 -1.42556 l 1.64609 -0 l 0.823045 -1.42556 l 0.823045 1.42556 l 1.64609 -0 l -0.823045 1.42556 l 0.823045 1.42556 l 1.64609 -0 l 0.823045 -1.42556 l 0.823045 1.42556 l 1.64609 -0 l -0.823045 1.42556 l 0.823045 1.42556 l -1.64609 -2.01588e-16 l -0.823045 1.42556 l 0.823045 1.42556 l 1.64609 -0 l -0.823045 1.42556 l 0.823045 1.42556 l -1.64609 -2.01588e-16 l -0.823045 1.42556 l -0.823045 -1.42556 l -1.64609 -2.01588e-16 l -0.823045 1.42556 l 0.823045 1.42556 l -1.64609 -2.01588e-16 l -0.823045 1.42556 l 0.823045 1.42556 l 1.64609 -0 l -0.823045 1.42556 l 0.823045 1.42556 l 1.64609 -0 l 0.823045 -1.42556 l 0.823045 1.42556 l 1.64609 -0 l -0.823045 1.42556 l 0.823045 1.42556 l -1.64609 -2.01588e-16 l -0.823045 1.42556 l 0.823045 1.42556 l 1.64609 -0 l -0.823045 1.42556 l 0.823045 1.42556 l 1.64609 -0 l 0.823045 -1.42556 l 0.823045 1.42556 l 1.64609 -0 l 0.823045 -1.42556 l -0.823045 -1.42556 l 1.64609 -0 l 0.823045 -1.42556 l 0.823045 1.42556 l 1.64609 -0 l -0.823045 1.42556 l 0.823045 1.42556 l 1.64609 -0 l 0.823045 -1.42556 l 0.823045 1.42556 l 1.64609 -0 l 0.823045 -1.42556 l -0.823045 -1.42556 l 1.64609 -0 l 0.823045 -1.42556 l -0.823045 -1.42556 l -1.64609 -2.01588e-16 l 0.823045 -1.42556 l -0.823045 -1.42556 l 1.64609 -0 l 0.823045 -1.42556 l 0.823045 1.42556 l 1.64609 -0 l 0.823045 -1.42556 l -0.823045 -1.42556 l 1.64609 -0 l 0.823045 -1.42556 l 0.823045 1.42556 l 1.64609 -0 l -0.823045 1.42556 l 0.823045 1.42556 l 1.64609 -0 l 0.823045 -1.42556 l 0.823045 1.42556 l 1.64609 -0 l -0.823045 1.42556 l 0.823045 1.42556 l -1.64609 -2.01588e-16 l -0.823045 1.42556 l 0.823045 1.42556 l 1.64609 -0 l -0.823045 1.42556 l 0.823045 1.42556 l 1.64609 -0 l 0.823045 -1.42556 l 0.823045 1.42556 l 1.64609 -0 l 0.823045 -1.42556 l -0.823045 -1.42556 l 1.64609 -0 l 0.823045 -1.42556 l 0.823045 1.42556 l 1.64609 -0 l -0.823045 1.42556 l 0.823045 1.42556 l 1.64609 -0 l 0.823045 -1.42556 l 0.823045 1.42556 l 1.64609 -0 l -0.823045 1.42556 l 0.823045 1.42556 l -1.64609 -2.01588e-16 l -0.823045 1.42556 l 0.823045 1.42556 l 1.64609 -0 l -0.823045 1.42556 l 0.823045 1.42556 l -1.64609 -2.01588e-16 l -0.823045 1.42556 l -0.823045 -1.42556 l -1.64609 -2.01588e-16 l -0.823045 1.42556 l 0.823045 1.42556 l -1.64609 -2.01588e-16 l -0.823045 1.42556 l 0.823045 1.42556 l 1.64609 -0 l -0.823045 1.42556 l 0.823045 1.42556 l 1.64609 -0 l 0.823045 -1.42556 l 0.823045 1.42556 l 1.64609 -0 l -0.823045 1.42556 l 0.823045 1.42556 l -1.64609 -2.01588e-16 l -0.823045 1.42556 l 0.823045 1.42556 l 1.64609 -0 l -0.823045 1.42556 l 0.823045 1.42556 l -1.64609 -2.01588e-16 l -0.823045 1.42556 l -0.823045 -1.42556 l -1.64609 -2.01588e-16 l -0.823045 1.42556 l 0.823045 1.42556 l -1.64609 -2.01588e-16 l -0.823045 1.42556 l -0.823045 -1.42556 l -1.64609 -2.01588e-16 l 0.823045 -1.42556 l -0.823045 -1.42556 l -1.64609 -2.01588e-16 l -0.823045 1.42556 l -0.823045 -1.42556 l -1.64609 -2.01588e-16 l -0.823045 1.42556 l 0.823045 1.42556 l -1.64609 -2.01588e-16 l -0.823045 1.42556 l 0.823045 1.42556 l 1.64609 -0 l -0.823045 1.42556 l 0.823045 1.42556 l -1.64609 -2.01588e-16 l -0.823045 1.42556 l -0.823045 -1.42556 l -1.64609 -2.01588e-16 l -0.823045 1.42556 l 0.823045 1.42556 l -1.64609 -2.01588e-16 l -0.823045 1.42556 l 0.823045 1.42556 l 1.64609 -0 l -0.823045 1.42556 l 0.823045 1.42556 l 1.64609 -0 l 0.823045 -1.42556 l 0.823045 1.42556 l 1.64609 -0 l -0.823045 1.42556 l 0.823045 1.42556 l -1.64609 -2.01588e-16 l -0.823045 1.42556 l 0.823045 1.42556 l 1.64609 -0 l -0.823045 1.42556 l 0.823045 1.42556 l 1.64609 -0 l 0.823045 -1.42556 l 0.823045 1.42556 l 1.64609 -0 l 0.823045 -1.42556 l -0.823045 -1.42556 l 1.64609 -0 l 0.823045 -1.42556 l 0.823045 1.42556 l 1.64609 -0 l -0.823045 1.42556 l 0.823045 1.42556 l 1.64609 -0 l 0.823045 -1.42556 l 0.823045 1.42556 l 1.64609 -0 l -0.823045 1.42556 l 0.823045 1.42556 l -1.64609 -2.01588e-16 l -0.823045 1.42556 l 0.823045 1.42556 l 1.64609 -0 l -0.823045 1.42556 l 0.823045 1.42556 l -1.64609 -2.01588e-16 l -0.823045 1.42556 l -0.823045 -1.42556 l -1.64609 -2.01588e-16 l -0.823045 1.42556 l 0.823045 1.42556 l -1.64609 -2.01588e-16 l -0.823045 1.42556 l 0.823045 1.42556 l 1.64609 -0 l -0.823045 1.42556 l 0.823045 1.42556 l 1.64609 -0 l 0.823045 -1.42556 l 0.823045 1.42556 l 1.64609 -0 l -0.823045 1.42556 l 0.823045 1.42556 l -1.64609 -2.01588e-16 l -0.823045 1.42556 l 0.823045 1.42556 l 1.64609 -0 l -0.823045 1.42556 l 0.823045 1.42556 l 1.64609 -0 l 0.823045 -1.42556 l 0.823045 1.42556 l 1.64609 -0 l 0.823045 -1.42556 l -0.823045 -1.42556 l 1.64609 -0 l 0.823045 -1.42556 l 0.823045 1.42556 l 1.64609 -0 l -0.823045 1.42556 l 0.823045 1.42556 l 1.64609 -0 l 0.823045 -1.42556 l 0.823045 1.42556 l 1.64609 -0 l 0.823045 -1.42556 l -0.823045 -1.42556 l 1.64609 -0 l 0.823045 -1.42556 l -0.823045 -1.42556 l -1.64609 -2.01588e-16 l 0.823045 -1.42556 l -0.823045 -1.42556 l 1.64609 -0 l 0.823045 -1.42556 l 0.823045 1.42556 l 1.64609 -0 l 0.823045 -1.42556 l -0.823045 -1.42556 l 1.64609 -0 l 0.823045 -1.42556 l 0.823045 1.42556 l 1.64609 -0 l -0.823045 1.42556 l 0.823045 1.42556 l 1.64609 -0 l 0.823045 -1.42556 l 0.823045 1.42556 l 1.64609 -0 l -0.823045 1.42556 l 0.823045 1.42556 l -1.64609 -2.01588e-16 l -0.823045 1.42556 l 0.823045 1.42556 l 1.64609 -0 l -0.823045 1.42556 l 0.823045 1.42556 l 1.64609 -0 l 0.823045 -1.42556 l 0.823045 1.42556 l 1.64609 -0 l 0.823045 -1.42556 l -0.823045 -1.42556 l 1.64609 -0 l 0.823045 -1.42556 l 0.823045 1.42556 l 1.64609 -0 l -0.823045 1.42556 l 0.823045 1.42556 l 1.64609 -0 l 0.823045 -1.42556 l 0.823045 1.42556 l 1.64609 -0 l 0.823045 -1.42556 l -0.823045 -1.42556 l 1.64609 -0 l 0.823045 -1.42556 l -0.823045 -1.42556 l -1.64609 -2.01588e-16 l 0.823045 -1.42556 l -0.823045 -1.42556 l 1.64609 -0 l 0.823045 -1.42556 l 0.823045 1.42556 l 1.64609 -0 l 0.823045 -1.42556 l -0.823045 -1.42556 l 1.64609 -0 l 0.823045 -1.42556 l -0.823045 -1.42556 l -1.64609 -2.01588e-16 l 0.823045 -1.42556 l -0.823045 -1.42556 l -1.64609 -2.01588e-16 l -0.823045 1.42556 l -0.823045 -1.42556 l -1.64609 -2.01588e-16 l 0.823045 -1.42556 l -0.823045 -1.42556 l 1.64609 -0 l 0.823045 -1.42556 l -0.823045 -1.42556 l -1.64609 -2.01588e-16 l 0.823045 -1.42556 l -0.823045 -1.42556 l 1.64609 -0 l 0.823045 -1.42556 l 0.823045 1.42556 l 1.64609 -0 l 0.823045 -1.42556 l -0.823045 -1.42556 l 1.64609 -0 l 0.823045 -1.42556 l 0.823045 1.42556 l 1.64609 -0 l -0.823045 1.42556 l 0.823045 1.42556 l 1.64609 -0 l 0.823045 -1.42556 l 0.823045 1.42556 l 1.64609 -0 l 0.823045 -1.42556 l -0.823045 -1.42556 l 1.64609 -0 l 0.823045 -1.42556 l -0.823045 -1.42556 l -1.64609 -2.01588e-16 l 0.823045 -1.42556 l -0.823045 -1.42556 l 1.64609 -0 l 0.823045 -1.42556 l 0.823045 1.42556 l 1.64609 -0 l 0.823045 -1.42556 l -0.823045 -1.42556 l 1.64609 -0 l 0.823045 -1.42556 l 0.823045 1.42556 l 1.64609 -0 l -0.823045 1.42556 l 0.823045 1.42556 l 1.64609 -0 l 0.823045 -1.42556 l 0.823045 1.42556 l 1.64609 -0 l -0.823045 1.42556 l 0.823045 1.42556 l -1.64609 -2.01588e-16 l -0.823045 1.42556 l 0.823045 1.42556 l 1.64609 -0 l -0.823045 1.42556 l 0.823045 1.42556 l 1.64609 -0 l 0.823045 -1.42556 l 0.823045 1.42556 l 1.64609 -0 l 0.823045 -1.42556 l -0.823045 -1.42556 l 1.64609 -0 l 0.823045 -1.42556 l 0.823045 1.42556 l 1.64609 -0 l -0.823045 1.42556 l 0.823045 1.42556 l 1.64609 -0 l 0.823045 -1.42556 l 0.823045 1.42556 l 1.64609 -0 l -0.823045 1.42556 l 0.823045 1.42556 l -1.64609 -2.01588e-16 l -0.823045 1.42556 l 0.823045 1.42556 l 1.64609 -0 l -0.823045 1.42556 l 0.823045 1.42556 l -1.64609 -2.01588e-16 l -0.823045 1.42556 l -0.823045 -1.42556 l -1.64609 -2.01588e-16 l -0.823045 1.42556 l 0.823045 1.42556 l -1.64609 -2.01588e-16 l -0.823045 1.42556 l 0.823045 1.42556 l 1.64609 -0 l -0.823045 1.42556 l 0.823045 1.42556 l 1.64609 -0 l 0.823045 -1.42556 l 0.823045 1.42556 l 1.64609 -0 l -0.823045 1.42556 l 0.823045 1.42556 l -1.64609 -2.01588e-16 l -0.823045 1.42556 l 0.823045 1.42556 l 1.64609 -0 l -0.823045 1.42556 l 0.823045 1.42556 l 1.64609 -0 l 0.823045 -1.42556 l 0.823045 1.42556 l 1.64609 -0 l 0.823045 -1.42556 l -0.823045 -1.42556 l 1.64609 -0 l 0.823045 -1.42556 l 0.823045 1.42556 l 1.64609 -0 l -0.823045 1.42556 l 0.823045 1.42556 l 1.64609 -0 l 0.823045 -1.42556 l 0.823045 1.42556 l 1.64609 -0 l 0.823045 -1.42556 l -0.823045 -1.42556 l 1.64609 -0 l 0.823045 -1.42556 l -0.823045 -1.42556 l -1.64609 -2.01588e-16 l 0.823045 -1.42556 l -0.823045 -1.42556 l 1.64609 -0 l 0.823045 -1.42556 l 0.823045 1.42556 l 1.64609 -0 l 0.823045 -1.42556 l -0.823045 -1.42556 l 1.64609 -0 l 0.823045 -1.42556 l 0.823045 1.42556 l 1.64609 -0 l -0.823045 1.42556 l 0.823045 1.42556 l 1.64609 -0 l 0.823045 -1.42556 l 0.823045 1.42556 l 1.64609 -0 l -0.823045 1.42556 l 0.823045 1.42556 l -1.64609 -2.01588e-16 l -0.823045 1.42556 l 0.823045 1.42556 l 1.64609 -0 l -0.823045 1.42556 l 0.823045 1.42556 l 1.64609 -0 l 0.823045 -1.42556 l 0.823045 1.42556 l 1.64609 -0 l 0.823045 -1.42556 l -0.823045 -1.42556 l 1.64609 -0 l 0.823045 -1.42556 l 0.823045 1.42556 l 1.64609 -0 l -0.823045 1.42556 l 0.823045 1.42556 l 1.64609 -0 l 0.823045 -1.42556 l 0.823045 1.42556 l 1.64609 -0 " fill="none" stroke="black" />
</svg>
