<svg xmlns="http://www.w3.org/2000/svg" version="1.1" width="620" height="620">
<path d="M 610 310 L 609.589 283.853 L 608.357 257.906 L 606.307 232.354 L 603.444 207.394 L 599.778 183.215 L 595.317 160 L 590.074 137.927 L 584.064 117.164 L 577.302 97.868 L 569.808 80.1867 L 561.601 64.2544 L 552.705 50.1924 L 543.144 38.1077 L 532.943 28.0922 L 522.132 20.2223 L 510.739 14.5577 L 498.796 11.1416 L 486.336 10 L 473.392 11.1416 L 460 14.5577 L 446.197 20.2223 L 432.021 28.0922 L 417.51 38.1077 L 402.705 50.1924 L 387.646 64.2544 L 372.374 80.1867 L 356.93 97.868 L 341.359 117.164 L 325.701 137.927 L 310 160 L 294.299 183.215 L 278.641 207.394 L 263.07 232.354 L 247.626 257.906 L 232.354 283.853 L 217.295 310 L 202.49 336.147 L 187.979 362.094 L 173.803 387.646 L 160 412.606 L 146.608 436.785 L 133.664 460 L 121.204 482.073 L 109.261 502.836 L 97.868 522.132 L 87.0566 539.813 L 76.8562 555.746 L 67.2949 569.808 L 58.3988 581.892 L 50.1924 591.908 L 42.698 599.778 L 35.9364 605.442 L 29.9259 608.858 L 24.683 610 L 20.2223 608.858 L 16.5557 605.442 L 13.6935 599.778 L 11.6434 591.908 L 10.4111 581.892 L 10 569.808 L 10.4111 555.746 L 11.6434 539.813 L 13.6935 522.132 L 16.5557 502.836 L 20.2223 482.073 L 24.683 460 L 29.9259 436.785 L 35.9364 412.606 L 42.698 387.646 L 50.1924 362.094 L 58.3988 336.147 L 67.2949 310 L 76.8562 283.853 L 87.0566 257.906 L 97.868 232.354 L 109.261 207.394 L 121.204 183.215 L 133.664 160 L 146.608 137.927 L 160 117.164 L 173.803 97.868 L 187.979 80.1867 L 202.49 64.2544 L 217.295 50.1924 L 232.354 38.1077 L 247.626 28.0922 L 263.07 20.2223 L 278.641 14.5577 L 294.299 11.1416 L 310 10 L 325.701 11.1416 L 341.359 14.5577 L 356.93 20.2223 L 372.374 28.0922 L 387.646 38.1077 L 402.705 50.1924 L 417.51 64.2544 L 432.021 80.1867 L 446.197 97.868 L 460 117.164 L 473.392 137.927 L 486.336 160 L 498.796 183.215 L 510.739 207.394 L 522.132 232.354 L 532.943 257.906 L 543.144 283.853 L 552.705 310 L 561.601 336.147 L 569.808 362.094 L 577.302 387.646 L 584.064 412.606 L 590.074 436.785 L 595.317 460 L 599.778 482.073 L 603.444 502.836 L 606.307 522.132 L 608.357 539.813 L 609.589 555.746 L 610 569.808 L 609.589 581.892 L 608.357 591.908 L 606.307 599.778 L 603.444 605.442 L 599.778 608.858 L 595.317 610 L 590.074 608.858 L 584.064 605.442 L 577.302 599.778 L 569.808 591.908 L 561.601 581.892 L 552.705 569.808 L 543.144 555.746 L 532.943 539.813 L 522.132 522.132 L 510.739 502.836 L 498.796 482.073 L 486.336 460 L 473.392 436.785 L 460 412.606 L 446.197 387.646 L 432.021 362.094 L 417.51 336.147 L 402.705 310 L 387.646 283.853 L 372.374 257.906 L 356.93 232.354 L 341.359 207.394 L 325.701 183.215 L 310 160 L 294.299 137.927 L 278.641 117.164 L 263.07 97.868 L 247.626 80.1867 L 232.354 64.2544 L 217.295 50.1924 L 202.49 38.1077 L 187.979 28.0922 L 173.803 20.2223 L 160 14.5577 L 146.608 11.1416 L 133.664 10 L 121.204 11.1416 L 109.261 14.5577 L 97.868 20.2223 L 87.0566 28.0922 L 76.8562 38.1077 L 67.2949 50.1924 L 58.3988 64.2544 L 50.1924 80.1867 L 42.698 97.868 L 35.9364 117.164 L 29.9259 137.927 L 24.683 160 L 20.2223 183.215 L 16.5557 207.394 L 13.6935 232.354 L 11.6434 257.906 L 10.4111 283.853 L 10 310 L 10.4111 336.147 L 11.6434 362.094 L 13.6935 387.646 L 16.5557 412.606 L 20.2223 436.785 L 24.683 460 L 29.9259 482.073 L 35.9364 502.836 L 42.698 522.132 L 50.1924 539.813 L 58.3988 555.746 L 67.2949 569.808 L 76.8562 581.892 L 87.0566 591.908 L 97.868 599.778 L 109.261 605.442 L 121.204 608.858 L 133.664 610 L 146.608 608.858 L 160 605.442 L 173.803 599.778 L 187.979 591.908 L 202.49 581.892 L 217.295 569.808 L 232.354 555.746 L 247.626 539.813 L 263.07 522.132 L 278.641 502.836 L 294.299 482.073 L 310 460 L 325.701 436.785 L 341.359 412.606 L 356.93 387.646 L 372.374 362.094 L 387.646 336.147 L 402.705 310 L 417.51 283.853 L 432.021 257.906 L 446.197 232.354 L 460 207.394 L 473.392 183.215 L 486.336 160 L 498.796 137.927 L 510.739 117.164 L 522.132 97.868 L 532.943 80.1867 L 543.144 64.2544 L 552.705 50.1924 L 561.601 38.1077 L 569.808 28.0922 L 577.302 20.2223 L 584.064 14.5577 L 590.074 11.1416 L 595.317 10 L 599.778 11.1416 L 603.444 14.5577 L 606.307 20.2223 L 608.357 28.0922 L 609.589 38.1077 L 610 50.1924 L 609.589 64.2544 L 608.357 80.1867 L 606.307 97.868 L 603.444 117.164 L 599.778 137.927 L 595.317 160 L 590.074 183.215 L 584.064 207.394 L 577.302 232.354 L 569.808 257.906 L 561.601 283.853 L 552.705 310 L 543.144 336.147 L 532.943 362.094 L 522.132 387.646 L 510.739 412.606 L 498.796 436.785 L 486.336 460 L 473.392 482.073 L 460 502.836 L 446.197 522.132 L 432.021 539.813 L 417.51 555.746 L 402.705 569.808 L 387.646 581.892 L 372.374 591.908 L 356.93 599.778 L 341.359 605.442 L 325.701 608.858 L 310 610 L 294.299 608.858 L 278.641 605.442 L 263.07 599.778 L 247.626 591.908 L 232.354 581.892 L 217.295 569.808 L 202.49 555.746 L 187.979 539.813 L 173.803 522.132 L 160 502.836 L 146.608 482.073 L 133.664 460 L 121.204 436.785 L 109.261 412.606 L 97.868 387.646 L 87.0566 362.094 L 76.8562 336.147 L 67.2949 310 L 58.3988 283.853 L 50.1924 257.906 L 42.698 232.354 L 35.9364 207.394 L 29.9259 183.215 L 24.683 160 L 20.2223 137.927 L 16.5557 117.164 L 13.6935 97.868 L 11.6434 80.1867 L 10.4111 64.2544 L 10 50.1924 L 10.4111 38.1077 L 11.6434 28.0922 L 13.6935 20.2223 L 16.5557 14.5577 L 20.2223 11.1416 L 24.683 10 L 29.9259 11.1416 L 35.9364 14.5577 L 42.698 20.2223 L 50.1924 28.0922 L 58.3988 38.1077 L 67.2949 50.1924 L 76.8562 64.2544 L 87.0566 80.1867 L 97.868 97.868 L 109.261 117.164 L 121.204 137.927 L 133.664 160 L 146.608 183.215 L 160 207.394 L 173.803 232.354 L 187.979 257.906 L 202.49 283.853 L 217.295 310 L 232.354 336.147 L 247.626 362.094 L 263.07 387.646 L 278.641 412.606 L 294.299 436.785 L 310 460 L 325.701 482.073 L 341.359 502.836 L 356.93 522.132 L 372.374 539.813 L 387.646 555.746 L 402.705 569.808 L 417.51 581.892 L 432.021 591.908 L 446.197 599.778 L 460 605.442 L 473.392 608.858 L 486.336 610 L 498.796 608.858 L 510.739 605.442 L 522.132 599.778 L 532.943 591.908 L 543.144 581.892 L 552.705 569.808 L 561.601 555.746 L 569.808 539.813 L 577.302 522.132 L 584.064 502.836 L 590.074 482.073 L 595.317 460 L 599.778 436.785 L 603.444 412.606 L 606.307 387.646 L 608.357 362.094 L 609.589 336.147 L 610 310 " fill="none" stroke="black" />
</svg>
