<svg xmlns="http://www.w3.org/2000/svg" version="1.1" width="400" height="460">
<path d="M 210 490.167 M 210.26 490.303 M 210.752 490.406 M 211.456 490.47 M 212.363 490.489 M 213.469 490.453 M 214.775 490.351 M 216.288 490.166 M 218.02 489.881 M 219.984 489.472 M 222.201 488.91 M 224.693 488.16 M 227.485 487.177 M 230.608 485.905 M 234.094 484.277 M 237.98 482.209 M 242.305 479.598 M 247.112 476.319 M 252.447 472.218 M 258.355 467.109 M 264.884 460.771 M 272.078 452.94 M 279.978 443.305 M 288.616 431.512 M 298.01 417.161 M 308.156 399.82 M 319.02 379.044 M 330.526 354.409 M 342.54 325.572 M 354.857 292.35 M 367.181 254.822 M 379.115 213.459 M 390.151 169.25 M 399.677 123.799 M 407 79.338 M 411.397 38.6052 M 412.191 4.54097 M 408.852 -20.187 M 401.097 -33.7366 M 388.969 -35.5549 M 372.871 -26.5636 M 353.527 -8.96467 M 331.874 14.2791 M 308.935 40.0917 M 285.675 65.8281 M 262.904 89.5747 M 241.231 110.195 M 221.059 127.207 M 202.612 140.59 M 185.978 150.602 M 171.15 157.643 M 158.065 162.165 M 146.628 164.619 M 136.733 165.433 M 128.276 165.002 M 121.157 163.685 M 115.288 161.809 M 110.587 159.669 M 106.981 157.526 M 104.4 155.606 M 102.778 154.099 M 102.045 153.158 M 102.13 152.896 M 102.959 153.385 M 104.452 154.659 M 106.523 156.718 M 109.087 159.531 M 112.054 163.042 M 115.335 167.179 M 118.844 171.857 M 122.499 176.987 M 126.223 182.481 M 129.949 188.254 M 133.616 194.228 M 137.171 200.336 M 140.573 206.517 M 143.788 212.722 M 146.788 218.909 M 149.555 225.046 M 152.077 231.105 M 154.346 237.067 M 156.361 242.914 M 158.122 248.634 M 159.632 254.215 M 160.899 259.651 M 161.928 264.934 M 162.728 270.058 M 163.307 275.016 M 163.674 279.804 M 163.834 284.415 M 163.796 288.842 M 163.566 293.079 M 163.148 297.117 M 162.546 300.947 M 161.763 304.559 M 160.8 307.94 M 159.658 311.078 M 158.336 313.955 M 156.833 316.554 M 155.145 318.854 L 153.269 320.831 L 151.201 322.459 L 148.936 323.706 L 146.469 324.54 L 143.794 324.922 L 140.908 324.809 L 137.806 324.156 L 134.485 322.912 L 130.944 321.022 L 127.183 318.429 L 123.207 315.073 L 119.025 310.896 L 114.65 305.839 L 110.101 299.849 L 105.405 292.883 L 100.597 284.911 L 95.724 275.921 L 90.8408 265.931 L 86.016 254.99 L 81.3296 243.19 L 76.8739 230.668 L 72.7518 217.615 L 69.0749 204.274 L 65.9601 190.941 L 63.5247 177.951 L 61.8807 165.67 L 61.128 154.469 L 61.3465 144.701 L 62.5899 136.675 L 64.8793 130.628 L 68.1992 126.706 L 72.4966 124.953 L 77.6828 125.31 L 83.6378 127.624 L 90.2184 131.671 L 97.2663 137.179 L 104.618 143.853 L 112.115 151.403 L 119.609 159.562 L 126.97 168.094 L 134.087 176.809 L 140.873 185.556 L 147.263 194.224 L 153.214 202.735 L 158.698 211.039 L 163.707 219.107 L 168.243 226.927 L 172.319 234.495 L 175.957 241.816 L 179.182 248.898 L 182.025 255.752 L 184.515 262.39 L 186.685 268.823 L 188.566 275.06 L 190.188 281.114 L 191.581 286.991 L 192.77 292.7 L 193.78 298.249 L 194.634 303.644 L 195.352 308.889 L 195.951 313.992 L 196.447 318.956 L 196.855 323.786 L 197.186 328.485 L 197.452 333.058 L 197.66 337.509 L 197.82 341.84 L 197.936 346.056 L 198.016 350.158 L 198.063 354.151 L 198.08 358.037 L 198.072 361.819 L 198.04 365.499 L 197.986 369.081 L 197.912 372.567 L 197.818 375.959 L 197.704 379.259 L 197.571 382.471 L 197.418 385.595 L 197.246 388.635 L 197.051 391.592 L 196.835 394.467 L 196.595 397.264 L 196.329 399.983 L 196.035 402.626 L 195.712 405.194 L 195.355 407.688 L 194.963 410.11 L 194.531 412.46 L 194.056 414.739 L 193.533 416.946 L 192.959 419.082 L 192.326 421.145 L 191.63 423.136 L 190.864 425.051 L 190.02 426.89 L 189.091 428.647 L 188.068 430.319 L 186.94 431.9 L 185.698 433.383 L 184.329 434.759 L 182.819 436.017 L 181.154 437.142 L 179.319 438.117 L 177.295 438.921 L 175.064 439.528 L 172.603 439.905 L 169.891 440.014 L 166.902 439.807 L 163.609 439.227 L 159.984 438.204 L 155.997 436.655 L 151.615 434.48 L 146.805 431.559 L 141.536 427.751 L 135.773 422.891 L 129.489 416.786 L 122.657 409.215 L 115.259 399.933 L 107.289 388.666 L 98.756 375.129 L 89.6903 359.03 L 80.1526 340.1 L 70.2406 318.121 L 60.0995 292.975 L 49.9304 264.697 L 39.9989 233.546 L 30.6392 200.076 L 22.2523 165.187 L 15.2948 130.154 L 10.2546 96.591 L 7.61308 66.3331 L 7.79348 41.2319 L 11.1028 22.883 L 17.6763 12.3412 L 27.4391 9.90342 L 40.0965 15.037 L 55.1595 26.4866 L 72.0029 42.5309 L 89.9413 61.3074 L 108.306 81.1049 L 126.507 100.557 L 144.071 118.716 L 160.655 135.031 L 176.037 149.267 L 190.1 161.416 L 202.81 171.605 L 214.19 180.035 L 224.301 186.931 L 233.23 192.519 L 241.071 197.009 L 247.926 200.586 L 253.891 203.415 L 259.059 205.635 L 263.515 207.365 L 267.337 208.707 L 270.595 209.746 L 273.351 210.557 L 275.661 211.201 L 277.574 211.73 L 279.135 212.189 L 280.382 212.615 L 281.351 213.038 L 282.073 213.485 L 282.579 213.974 L 282.893 214.523 L 283.04 215.143 L 283.043 215.841 L 282.922 216.623 L 282.697 217.49 L 282.385 218.443 L 282.005 219.477 L 281.571 220.589 L 281.098 221.771 L 280.601 223.017 L 280.092 224.317 L 279.582 225.662 L 279.083 227.042 L 278.604 228.445 L 278.155 229.861 L 277.743 231.279 L 277.375 232.687 L 277.057 234.074 L 276.795 235.429 L 276.594 236.742 L 276.456 238.001 L 276.385 239.196 L 276.383 240.318 L 276.452 241.356 L 276.591 242.302 L 276.803 243.145 L 277.085 243.879 L 277.437 244.496 L 277.857 244.987 L 278.344 245.347 L 278.893 245.57 L 279.503 245.65 L 280.168 245.583 L 280.884 245.366 L 281.647 244.997 L 282.45 244.475 L 283.287 243.801 L 284.151 242.977 L 285.035 242.005 L 285.931 240.892 L 286.831 239.644 L 287.725 238.271 L 288.605 236.783 L 289.461 235.193 L 290.282 233.517 L 291.06 231.77 L 291.783 229.972 L 292.444 228.142 L 293.031 226.303 L 293.537 224.477 L 293.952 222.686 L 294.27 220.955 L 294.485 219.307 L 294.591 217.765 L 294.583 216.351 L 294.462 215.084 L 294.224 213.983 L 293.871 213.064 L 293.407 212.34 L 292.834 211.821 L 292.16 211.514 L 291.391 211.422 L 290.536 211.546 L 289.606 211.884 L 288.61 212.43 L 287.562 213.175 L 286.474 214.11 L 285.358 215.221 L 284.227 216.494 L 283.094 217.914 L 281.973 219.464 L 280.874 221.126 L 279.81 222.882 L 278.791 224.716 L 277.827 226.608 L 276.928 228.541 L 276.101 230.498 L 275.354 232.462 L 274.693 234.416 L 274.123 236.345 L 273.649 238.233 L 273.274 240.066 L 273.001 241.828 L 272.832 243.507 L 272.768 245.089 L 272.809 246.562 L 272.955 247.913 L 273.206 249.129 L 273.56 250.201 L 274.015 251.117 L 274.569 251.865 L 275.218 252.438 L 275.958 252.825 L 276.786 253.018 L 277.697 253.009 L 278.683 252.792 L 279.741 252.361 L 280.861 251.713 L 282.036 250.845 L 283.257 249.757 L 284.516 248.451 L 285.8 246.931 L 287.099 245.203 L 288.4 243.278 L 289.691 241.169 L 290.957 238.891 L 292.184 236.465 L 293.356 233.913 L 294.46 231.263 L 295.478 228.545 L 296.397 225.791 L 297.2 223.036 L 297.875 220.318 L 298.408 217.675 L 298.787 215.147 L 299.003 212.77 L 299.049 210.583 L 298.919 208.618 L 298.611 206.908 L 298.126 205.478 L 297.466 204.351 L 296.638 203.542 L 295.651 203.063 L 294.517 202.916 L 293.251 203.102 L 291.867 203.614 L 290.385 204.44 L 288.824 205.563 L 287.203 206.965 L 285.543 208.622 L 283.865 210.51 L 282.189 212.602 L 280.534 214.871 L 278.918 217.29 L 277.358 219.833 L 275.869 222.471 L 274.465 225.181 L 273.158 227.937 L 271.96 230.717 L 270.878 233.498 L 269.92 236.26 L 269.093 238.983 L 268.4 241.648 L 267.845 244.238 L 267.432 246.736 L 267.16 249.126 L 267.031 251.392 L 267.045 253.52 L 267.2 255.493 L 267.496 257.299 L 267.931 258.921 L 268.502 260.347 L 269.207 261.563 L 270.043 262.553 L 271.004 263.306 L 272.088 263.806 L 273.29 264.042 L 274.603 264 L 276.02 263.67 L 277.536 263.041 L 279.141 262.104 L 280.825 260.851 L 282.579 259.279 L 284.389 257.384 L 286.241 255.169 L 288.121 252.64 L 290.011 249.805 L 291.893 246.681 L 293.746 243.289 L 295.548 239.657 L 297.277 235.818 L 298.908 231.814 L 300.416 227.691 L 301.776 223.504 L 302.963 219.31 L 303.954 215.174 L 304.725 211.161 L 305.258 207.338 L 305.534 203.772 L 305.542 200.526 L 305.272 197.658 L 304.721 195.218 L 303.89 193.25 L 302.786 191.783 L 301.422 190.84 L 299.815 190.428 L 297.987 190.544 L 295.966 191.175 L 293.78 192.299 L 291.462 193.883 L 289.046 195.891 L 286.565 198.281 L 284.053 201.007 L 281.543 204.025 L 279.065 207.289 L 276.648 210.754 L 274.318 214.379 L 272.096 218.124 L 270.003 221.952 L 268.054 225.83 L 266.263 229.729 L 264.641 233.62 L 263.195 237.48 L 261.932 241.285 L 260.855 245.015 L 259.967 248.652 L 259.267 252.178 L 258.757 255.577 L 258.434 258.832 L 258.296 261.929 L 258.343 264.852 L 258.57 267.586 L 258.976 270.116 L 259.557 272.425 L 260.311 274.498 L 261.235 276.317 L 262.325 277.864 L 263.579 279.122 L 264.993 280.07 L 266.565 280.69 L 268.288 280.96 L 270.16 280.86 L 272.174 280.368 L 274.323 279.465 L 276.599 278.13 L 278.992 276.346 L 281.491 274.097 L 284.081 271.369 L 286.745 268.156 L 289.465 264.455 L 292.216 260.271 L 294.972 255.618 L 297.705 250.52 L 300.38 245.013 L 302.962 239.145 L 305.41 232.979 L 307.683 226.592 L 309.738 220.075 L 311.53 213.531 L 313.015 207.074 L 314.154 200.826 L 314.908 194.912 L 315.247 189.455 L 315.145 184.572 L 314.586 180.368 L 313.567 176.93 L 312.09 174.324 L 310.174 172.593 L 307.844 171.753 L 305.138 171.794 L 302.101 172.685 L 298.786 174.373 L 295.251 176.79 L 291.556 179.856 L 287.76 183.486 L 283.922 187.593 L 280.098 192.09 L 276.339 196.896 L 272.69 201.937 L 269.19 207.146 L 265.87 212.464 L 262.758 217.843 L 259.872 223.24 L 257.228 228.619 L 254.834 233.95 L 252.696 239.211 L 250.814 244.38 L 249.188 249.441 L 247.814 254.379 L 246.686 259.182 L 245.799 263.838 L 245.146 268.337 L 244.72 272.669 L 244.514 276.824 L 244.521 280.79 L 244.736 284.558 L 245.153 288.115 L 245.769 291.449 L 246.579 294.544 L 247.581 297.387 L 248.774 299.958 L 250.156 302.24 L 251.728 304.21 L 253.488 305.844 L 255.439 307.117 L 257.581 308 L 259.915 308.46 L 262.442 308.464 L 265.16 307.975 L 268.07 306.954 L 271.167 305.36 L 274.448 303.151 L 277.904 300.285 L 281.524 296.721 L 285.294 292.422 L 289.193 287.357 L 293.196 281.502 L 297.27 274.846 L 301.375 267.396 L 305.466 259.175 L 309.485 250.235 L 313.37 240.654 L 317.05 230.546 L 320.445 220.057 L 323.473 209.368 L 326.048 198.693 L 328.086 188.271 L 329.504 178.361 L 330.232 169.224 L 330.212 161.111 L 329.402 154.248 L 327.784 148.817 L 325.363 144.946 L 322.172 142.699 L 318.266 142.073 L 313.722 143.005 L 308.639 145.373 L 303.125 149.017 L 297.298 153.751 L 291.278 159.375 L 285.177 165.695 L 279.103 172.528 L 273.15 179.713 L 267.396 187.112 L 261.908 194.612 L 256.735 202.126 L 251.911 209.587 L 247.46 216.947 L 243.392 224.173 L 239.71 231.244 L 236.408 238.145 L 233.474 244.87 L 230.892 251.418 L 228.644 257.786 L 226.71 263.979 L 225.068 269.998 L 223.697 275.847 L 222.577 281.528 L 221.689 287.045 L 221.016 292.399 L 220.54 297.594 L 220.247 302.629 L 220.126 307.507 L 220.165 312.227 L 220.355 316.79 L 220.691 321.193 L 221.166 325.434 L 221.777 329.512 L 222.524 333.422 L 223.405 337.158 L 224.422 340.715 L 225.578 344.083 L 226.877 347.255 L 228.325 350.216 L 229.929 352.954 L 231.697 355.45 L 233.638 357.685 L 235.764 359.633 L 238.085 361.267 L 240.615 362.553 L 243.366 363.451 L 246.353 363.917 L 249.59 363.896 L 253.092 363.33 L 256.872 362.149 L 260.945 360.274 L 265.321 357.619 L 270.01 354.086 L 275.016 349.571 L 280.341 343.96 L 285.977 337.139 L 291.908 328.99 L 298.109 319.405 L 304.537 308.289 L 311.135 295.576 L 317.825 281.241 L 324.509 265.317 L 331.061 247.915 L 337.332 229.241 L 343.148 209.614 L 348.313 189.472 L 352.619 169.37 L 355.85 149.963 L 357.801 131.968 L 358.289 116.111 L 357.177 103.053 L 354.384 93.3232 L 349.903 87.2511 L 343.805 84.9279 L 336.238 86.1984 L 327.417 90.6897 L 317.608 97.8687 L 307.102 107.116 L 296.198 117.801 L 285.177 129.34 L 274.289 141.243 L 263.742 153.127 L 253.695 164.718 L 244.264 175.84 L 235.519 186.395 L 227.497 196.346 L 220.202 205.693 L 213.617 214.464 L 207.707 222.697 L 202.426 230.44 L 197.721 237.736 L 193.533 244.629 L 189.804 251.156 L 186.476 257.349 L 183.492 263.233 L 180.8 268.83 L 178.349 274.155 L 176.093 279.22 L 173.989 284.033 L 171.999 288.598 L 170.088 292.917 L 168.223 296.986 L 166.374 300.803 L 164.517 304.359 L 162.625 307.646 L 160.678 310.651 L 158.654 313.358 L 156.536 315.75 L 154.307 317.805 L 151.95 319.499 L 149.451 320.803 L 146.797 321.685 L 143.976 322.108 L 140.977 322.033 L 137.792 321.415 L 134.414 320.207 L 130.84 318.355 L 127.066 315.806 L 123.097 312.504 L 118.939 308.392 L 114.603 303.416 L 110.109 297.528 L 105.483 290.688 L 100.758 282.87 L 95.9792 274.069 L 91.2016 264.304 L 86.4911 253.627 L 81.9255 242.13 L 77.5939 229.951 L 73.5956 217.275 L 70.0377 204.339 L 67.032 191.426 L 64.6905 178.861 L 63.1194 166.99 L 62.4131 156.167 L 62.647 146.728 L 63.871 138.964 L 66.1041 133.1 L 69.3308 129.277 L 73.5001 127.536 L 78.5269 127.825 L 84.2969 130.003 L 90.6733 133.86 L 97.5053 139.141 L 104.637 145.568 L 111.915 152.866 L 119.198 160.779 L 126.359 169.083 L 133.292 177.59 L 139.911 186.153 L 146.151 194.661 L 151.969 203.036 L 157.336 211.226 L 162.243 219.2 L 166.69 226.942 L 170.689 234.446 L 174.258 241.714 L 177.422 248.754 L 180.207 255.573 L 182.644 262.181 L 184.762 268.589 L 186.591 274.807 L 188.16 280.843 L 189.496 286.705 L 190.625 292.401 L 191.571 297.938 L 192.354 303.321 L 192.993 308.556 L 193.507 313.648 L 193.908 318.601 L 194.211 323.42 L 194.427 328.108 L 194.565 332.668 L 194.633 337.105 L 194.638 341.42 L 194.585 345.617 L 194.478 349.699 L 194.32 353.668 L 194.114 357.526 L 193.859 361.276 L 193.558 364.919 L 193.21 368.457 L 192.812 371.892 L 192.365 375.224 L 191.864 378.455 L 191.308 381.585 L 190.692 384.613 L 190.013 387.54 L 189.264 390.365 L 188.44 393.085 L 187.534 395.698 L 186.54 398.2 L 185.448 400.586 L 184.251 402.851 L 182.936 404.987 L 181.494 406.983 L 179.912 408.828 L 178.177 410.507 L 176.273 412.002 L 174.185 413.29 L 171.894 414.345 L 169.383 415.133 L 166.629 415.616 L 163.612 415.746 L 160.307 415.466 L 156.689 414.708 L 152.734 413.394 L 148.413 411.427 L 143.701 408.697 L 138.572 405.075 L 133 400.41 L 126.966 394.534 L 120.454 387.257 L 113.457 378.37 L 105.979 367.651 L 98.0387 354.875 L 89.678 339.825 L 80.9637 322.311 L 71.9963 302.206 L 62.9166 279.473 L 53.9113 254.217 L 45.2184 226.73 L 37.128 197.537 L 29.9781 167.43 L 24.1435 137.471 L 20.0145 108.952 L 17.9668 83.2998 L 18.3231 61.9242 L 21.3106 46.0274 L 27.023 36.4109 L 35.3945 33.333 L 46.1937 36.4586 L 59.0423 44.9253 L 73.4544 57.5064 L 88.8898 72.8253 L 104.81 89.5604 L 120.726 106.594 L 136.227 123.09 L 151.002 138.496 L 164.834 152.512 L 177.592 165.028 L 189.219 176.064 L 199.713 185.718 L 209.111 194.126 L 217.476 201.437 L 224.888 207.798 L 231.435 213.341 L 237.207 218.183 L 242.292 222.422 L 246.773 226.14 L 250.729 229.405 L 254.232 232.27 L 257.347 234.78 L 260.131 236.967 L 262.636 238.859 L 264.908 240.476 L 266.985 241.836 L 268.902 242.949 L 270.687 243.826 L 272.366 244.474 L 273.957 244.9 L 275.478 245.108 L 276.942 245.104 L 278.358 244.891 L 279.736 244.474 L 281.078 243.86 L 282.388 243.055 L 283.667 242.066 L 284.912 240.902 L 286.121 239.574 L 287.29 238.095 L 288.413 236.48 L 289.483 234.744 L 290.492 232.907 L 291.433 230.99 L 292.297 229.013 L 293.075 227.003 L 293.758 224.984 L 294.338 222.984 L 294.807 221.029 L 295.158 219.146 L 295.386 217.364 L 295.486 215.708 L 295.453 214.202 L 295.288 212.869 L 294.991 211.73 L 294.563 210.801 L 294.008 210.095 L 293.333 209.623 L 292.545 209.391 L 291.653 209.401 L 290.669 209.652 L 289.604 210.139 L 288.472 210.854 L 287.287 211.786 L 286.062 212.922 L 284.814 214.245 L 283.555 215.739 L 282.301 217.385 L 281.067 219.165 L 279.864 221.057 L 278.705 223.042 L 277.603 225.101 L 276.567 227.213 L 275.607 229.36 L 274.732 231.523 L 273.947 233.683 L 273.261 235.825 L 272.677 237.93 L 272.2 239.983 L 271.833 241.969 L 271.579 243.872 L 271.438 245.679 L 271.413 247.376 L 271.502 248.949 L 271.705 250.386 L 272.022 251.674 L 272.45 252.801 L 272.987 253.755 L 273.63 254.525 L 274.375 255.1 L 275.22 255.471 L 276.158 255.629 L 277.184 255.563 L 278.293 255.269 L 279.477 254.738 L 280.729 253.967 L 282.039 252.952 L 283.399 251.694 L 284.798 250.194 L 286.224 248.456 L 287.664 246.487 L 289.105 244.3 L 290.531 241.907 L 291.929 239.329 L 293.28 236.587 L 294.569 233.708 L 295.777 230.723 L 296.887 227.667 L 297.883 224.578 L 298.746 221.497 L 299.461 218.467 L 300.013 215.532 L 300.39 212.739 L 300.581 210.129 L 300.578 207.746 L 300.375 205.628 L 299.97 203.808 L 299.366 202.317 L 298.566 201.177 L 297.579 200.403 L 296.416 200.005 L 295.093 199.985 L 293.626 200.338 L 292.035 201.053 L 290.341 202.113 L 288.567 203.498 L 286.736 205.182 L 284.872 207.137 L 282.998 209.335 L 281.136 211.743 L 279.307 214.33 L 277.531 217.067 L 275.826 219.922 L 274.209 222.868 L 272.693 225.876 L 271.291 228.921 L 270.013 231.978 L 268.868 235.026 L 267.863 238.041 L 267.003 241.005 L 266.292 243.898 L 265.733 246.704 L 265.328 249.404 L 265.077 251.983 L 264.98 254.424 L 265.037 256.713 L 265.247 258.835 L 265.607 260.774 L 266.116 262.515 L 266.77 264.044 L 267.568 265.345 L 268.505 266.404 L 269.578 267.205 L 270.783 267.734 L 272.113 267.976 L 273.565 267.916 L 275.13 267.541 L 276.803 266.839 L 278.573 265.799 L 280.432 264.41 L 282.367 262.666 L 284.366 260.564 L 286.415 258.103 L 288.496 255.288 L 290.591 252.128 L 292.679 248.64 L 294.738 244.845 L 296.743 240.774 L 298.669 236.465 L 300.486 231.963 L 302.168 227.324 L 303.684 222.608 L 305.007 217.883 L 306.107 213.225 L 306.959 208.71 L 307.539 204.417 L 307.827 200.424 L 307.809 196.806 L 307.474 193.629 L 306.818 190.954 L 305.843 188.826 L 304.558 187.281 L 302.979 186.339 L 301.127 186.006 L 299.029 186.274 L 296.717 187.123 L 294.226 188.521 L 291.595 190.428 L 288.862 192.797 L 286.067 195.576 L 283.249 198.712 L 280.445 202.15 L 277.689 205.839 L 275.012 209.728 L 272.441 213.769 L 270.002 217.922 L 267.713 222.146 L 265.591 226.407 L 263.65 230.674 L 261.898 234.919 L 260.344 239.119 L 258.991 243.251 L 257.842 247.296 L 256.897 251.235 L 256.156 255.053 L 255.618 258.734 L 255.28 262.262 L 255.138 265.624 L 255.191 268.805 L 255.434 271.79 L 255.864 274.564 L 256.479 277.112 L 257.275 279.416 L 258.25 281.459 L 259.401 283.224 L 260.724 284.69 L 262.218 285.837 L 263.88 286.642 L 265.707 287.084 L 267.694 287.139 L 269.838 286.781 L 272.133 285.987 L 274.572 284.731 L 277.147 282.991 L 279.846 280.744 L 282.658 277.97 L 285.565 274.656 L 288.549 270.79 L 291.587 266.371 L 294.652 261.406 L 297.713 255.913 L 300.734 249.922 L 303.676 243.479 L 306.496 236.648 L 309.145 229.508 L 311.573 222.158 L 313.729 214.714 L 315.56 207.304 L 317.016 200.073 L 318.05 193.169 L 318.619 186.743 L 318.691 180.94 L 318.243 175.894 L 317.261 171.716 L 315.747 168.495 L 313.717 166.288 L 311.198 165.12 L 308.231 164.984 L 304.87 165.842 L 301.174 167.631 L 297.212 170.266 L 293.055 173.65 L 288.775 177.677 L 284.441 182.238 L 280.119 187.231 L 275.869 192.557 L 271.745 198.129 L 267.789 203.869 L 264.041 209.712 L 260.527 215.602 L 257.27 221.494 L 254.284 227.351 L 251.578 233.144 L 249.155 238.849 L 247.015 244.449 L 245.154 249.928 L 243.565 255.275 L 242.242 260.48 L 241.174 265.534 L 240.352 270.429 L 239.767 275.159 L 239.409 279.716 L 239.27 284.092 L 239.343 288.279 L 239.62 292.268 L 240.095 296.049 L 240.765 299.611 L 241.627 302.942 L 242.677 306.027 L 243.915 308.85 L 245.342 311.392 L 246.958 313.633 L 248.765 315.549 L 250.766 317.114 L 252.965 318.298 L 255.363 319.067 L 257.966 319.386 L 260.775 319.214 L 263.793 318.507 L 267.022 317.218 L 270.46 315.296 L 274.105 312.689 L 277.949 309.343 L 281.983 305.207 L 286.193 300.229 L 290.555 294.367 L 295.043 287.586 L 299.621 279.867 L 304.242 271.209 L 308.851 261.639 L 313.383 251.213 L 317.761 240.028 L 321.898 228.221 L 325.698 215.978 L 329.058 203.528 L 331.873 191.145 L 334.036 179.139 L 335.449 167.836 L 336.024 157.567 L 335.695 148.645 L 334.416 141.336 L 332.174 135.847 L 328.987 132.3 L 324.906 130.732 L 320.014 131.088 L 314.419 133.236 L 308.254 136.979 L 301.659 142.08 L 294.783 148.281 L 287.769 155.324 L 280.752 162.97 L 273.852 171.009 L 267.169 179.263 L 260.786 187.592 L 254.764 195.888 L 249.147 204.075 L 243.961 212.1 L 239.218 219.929 L 234.918 227.546 L 231.052 234.943 L 227.602 242.118 L 224.547 249.076 L 221.862 255.824 L 219.518 262.37 L 217.489 268.722 L 215.747 274.888 L 214.263 280.876 L 213.014 286.695 L 211.975 292.349 L 211.123 297.844 L 210.44 303.188 L 209.908 308.382 L 209.511 313.433 L 209.235 318.344 L 209.068 323.119 L 209.002 327.759 L 209.027 332.269 L 209.138 336.65 L 209.328 340.905 L 209.596 345.036 L 209.937 349.044 L 210.351 352.929 L 210.838 356.694 L 211.398 360.337 L 212.034 363.859 L 212.749 367.258 L 213.546 370.534 L 214.431 373.683 L 215.408 376.702 L 216.486 379.587 L 217.671 382.331 L 218.972 384.926 L 220.399 387.364 L 221.963 389.633 L 223.677 391.717 L 225.552 393.6 L 227.604 395.26 L 229.848 396.672 L 232.302 397.804 L 234.983 398.62 L 237.911 399.075 L 241.107 399.117 L 244.592 398.685 L 248.39 397.705 L 252.521 396.092 L 257.01 393.747 L 261.877 390.555 L 267.143 386.387 L 272.823 381.095 L 278.928 374.517 L 285.461 366.476 L 292.417 356.789 L 299.774 345.268 L 307.493 331.738 L 315.514 316.048 L 323.745 298.102 L 332.065 277.877 L 340.313 255.467 L 348.286 231.113 L 355.739 205.243 L 362.389 178.492 L 367.921 151.711 L 372.009 125.937 L 374.332 102.328 L 374.61 82.0569 L 372.632 66.1679 L 368.288 55.4343 L 361.593 50.2346 L 352.697 50.491 L 341.875 55.6866 L 329.502 64.9603 L 316.018 77.2536 L 301.879 91.4703 L 287.523 106.611 L 273.335 121.858 L 259.628 136.616 L 246.636 150.498 L 234.516 163.296 L 223.358 174.934 L 213.197 185.43 L 204.026 194.855 L 195.804 203.307 L 188.473 210.894 L 181.96 217.719 L 176.184 223.88 L 171.067 229.457 L 166.527 234.521 L 162.488 239.128 L 158.878 243.323 L 155.63 247.141 L 152.686 250.609 L 149.989 253.745 L 147.491 256.561 L 145.149 259.066 L 142.926 261.263 L 140.787 263.151 L 138.706 264.728 L 136.657 265.989 L 134.62 266.927 L 132.58 267.534 L 130.523 267.801 L 128.438 267.717 L 126.321 267.275 L 124.166 266.465 L 121.974 265.28 L 119.747 263.713 L 117.489 261.761 L 115.209 259.425 L 112.918 256.708 L 110.629 253.62 L 108.36 250.174 L 106.129 246.394 L 103.958 242.307 L 101.873 237.952 L 99.8982 233.374 L 98.063 228.626 L 96.3958 223.772 L 94.9261 218.882 L 93.6826 214.031 L 92.6926 209.301 L 91.9814 204.775 L 91.5705 200.536 L 91.4772 196.663 L 91.7137 193.232 L 92.286 190.306 L 93.1935 187.94 L 94.4287 186.173 L 95.9772 185.031 L 97.8181 184.525 L 99.9243 184.648 L 102.263 185.384 L 104.799 186.699 L 107.492 188.554 L 110.301 190.9 L 113.184 193.683 L 116.101 196.847 L 119.012 200.335 L 121.882 204.09 L 124.675 208.061 L 127.364 212.198 L 129.923 216.455 L 132.329 220.792 L 134.566 225.171 L 136.618 229.562 L 138.477 233.934 L 140.134 238.264 L 141.584 242.528 L 142.826 246.706 L 143.857 250.782 L 144.68 254.737 L 145.296 258.558 L 145.707 262.229 L 145.916 265.735 L 145.928 269.063 L 145.745 272.199 L 145.37 275.127 L 144.809 277.832 L 144.062 280.299 L 143.133 282.509 L 142.026 284.445 L 140.741 286.087 L 139.282 287.416 L 137.652 288.408 L 135.852 289.041 L 133.886 289.29 L 131.757 289.13 L 129.471 288.536 L 127.032 287.481 L 124.449 285.939 L 121.731 283.886 L 118.889 281.298 L 115.938 278.158 L 112.895 274.449 L 109.782 270.165 L 106.625 265.306 L 103.452 259.884 L 100.299 253.921 L 97.2041 247.457 L 94.2112 240.548 L 91.368 233.268 L 88.726 225.709 L 86.3391 217.986 L 84.2626 210.227 L 82.5509 202.578 L 81.2565 195.195 L 80.4264 188.238 L 80.101 181.864 L 80.3107 176.224 L 81.0745 171.446 L 82.3979 167.638 L 84.2721 164.875 L 86.6736 163.198 L 89.5645 162.613 L 92.8945 163.091 L 96.6024 164.575 L 100.619 166.982 L 104.87 170.211 L 109.28 174.151 L 113.774 178.686 L 118.28 183.705 L 122.733 189.1 L 127.074 194.775 L 131.254 200.644 L 135.231 206.635 L 138.972 212.686 L 142.453 218.748 L 145.657 224.78 L 148.573 230.751 L 151.196 236.635 L 153.528 242.414 L 155.57 248.073 L 157.33 253.599 L 158.816 258.983 L 160.038 264.217 L 161.006 269.295 L 161.731 274.209 L 162.223 278.954 L 162.492 283.523 L 162.546 287.909 L 162.394 292.105 L 162.041 296.102 L 161.494 299.891 L 160.756 303.46 L 159.83 306.797 L 158.717 309.889 L 157.419 312.718 L 155.933 315.267 L 154.259 317.513 L 152.393 319.434 L 150.332 321.001 L 148.072 322.185 L 145.608 322.951 L 142.937 323.261 L 140.054 323.073 L 136.956 322.34 L 133.641 321.014 L 130.109 319.039 L 126.361 316.36 L 122.403 312.92 L 118.244 308.661 L 113.9 303.527 L 109.39 297.47 L 104.743 290.45 L 99.9963 282.443 L 95.1957 273.443 L 90.3987 263.473 L 85.6741 252.59 L 81.1023 240.89 L 76.7752 228.518 L 72.7945 215.668 L 69.27 202.586 L 66.3155 189.564 L 64.0444 176.935 L 62.5637 165.053 L 61.9673 154.276 L 62.3291 144.942 L 63.6963 137.339 L 66.0842 131.686 L 69.4724 128.112 L 73.8045 126.646 L 78.9899 127.22 L 84.9093 129.681 L 91.4212 133.805 L 98.3714 139.327 L 105.602 145.965 L 112.958 153.439 L 120.298 161.493 L 127.498 169.906 L 134.451 178.493 L 141.076 187.112 L 147.309 195.657 L 153.109 204.052 L 158.452 212.251 L 163.329 220.224 L 167.744 227.959 L 171.708 235.452 L 175.244 242.706 L 178.374 249.73 L 181.129 256.532 L 183.539 263.123 L 185.633 269.513 L 187.442 275.713 L 188.996 281.731 L 190.321 287.577 L 191.443 293.256 L 192.387 298.777 L 193.172 304.145 L 193.819 309.365 L 194.344 314.443 L 194.762 319.383 L 195.086 324.189 L 195.328 328.865 L 195.497 333.414 L 195.601 337.841 L 195.647 342.148 L 195.641 346.338 L 195.586 350.415 L 195.487 354.38 L 195.346 358.236 L 195.164 361.986 L 194.942 365.633 L 194.681 369.177 L 194.38 372.621 L 194.038 375.967 L 193.654 379.216 L 193.225 382.37 L 192.748 385.428 L 192.22 388.393 L 191.638 391.263 L 190.997 394.039 L 190.291 396.72 L 189.516 399.305 L 188.663 401.791 L 187.727 404.175 L 186.7 406.454 L 185.571 408.621 L 184.332 410.671 L 182.971 412.594 L 181.478 414.381 L 179.837 416.017 L 178.035 417.487 L 176.057 418.77 L 173.884 419.843 L 171.499 420.675 L 168.88 421.232 L 166.005 421.469 L 162.852 421.336 L 159.395 420.769 L 155.607 419.695 L 151.461 418.026 L 146.929 415.656 L 141.983 412.464 L 136.596 408.307 L 130.743 403.02 L 124.403 396.419 L 117.562 388.295 L 110.216 378.422 L 102.373 366.561 L 94.0595 352.472 L 85.3277 335.932 L 76.2589 316.758 L 66.9729 294.842 L 57.6348 270.195 L 48.4613 242.995 L 39.7247 213.645 L 31.7522 182.815 L 24.9188 151.469 L 19.6309 120.852 L 16.2996 92.4207 L 15.3035 67.7137 L 16.9443 48.159 L 21.4019 34.8587 L 28.698 28.3958 L 38.6766 28.7212 L 51.0111 35.1618 L 65.236 46.5532 L 80.7989 61.4571 L 97.1222 78.4001 L 113.659 96.0716 L 129.936 113.442 L 145.579 129.802 L 160.318 144.733 L 173.981 158.054 L 186.48 169.748 L 197.791 179.901 L 207.939 188.656 L 216.982 196.178 L 224.997 202.63 L 232.073 208.166 L 238.303 212.922 L 243.777 217.013 L 248.583 220.539 L 252.804 223.58 L 256.515 226.204 L 259.784 228.464 L 262.671 230.404 L 265.232 232.061 L 267.514 233.462 L 269.558 234.632 L 271.401 235.588 L 273.073 236.347 L 274.601 236.922 L 276.007 237.322 L 277.311 237.559 L 278.526 237.641 L 279.667 237.575 L 280.742 237.37 L 281.759 237.033 L 282.723 236.573 L 283.639 235.996 L 284.509 235.314 L 285.333 234.534 L 286.112 233.667 L 286.843 232.724 L 287.526 231.717 L 288.157 230.658 L 288.734 229.56 L 289.253 228.438 L 289.711 227.304 L 290.105 226.175 L 290.431 225.064 L 290.687 223.987 L 290.87 222.957 L 290.978 221.989 L 291.011 221.096 L 290.967 220.29 L 290.847 219.584 L 290.651 218.986 L 290.383 218.505 L 290.044 218.149 L 289.639 217.922 L 289.171 217.828 L 288.647 217.868 L 288.072 218.043 L 287.452 218.351 L 286.796 218.788 L 286.11 219.349 L 285.401 220.028 L 284.679 220.817 L 283.952 221.708 L 283.226 222.69 L 282.511 223.753 L 281.814 224.887 L 281.142 226.08 L 280.501 227.32 L 279.9 228.595 L 279.343 229.894 L 278.836 231.203 L 278.384 232.512 L 277.992 233.809 L 277.662 235.082 L 277.398 236.32 L 277.202 237.512 L 277.077 238.648 L 277.024 239.718 L 277.044 240.711 L 277.136 241.619 L 277.3 242.432 L 277.536 243.143 L 277.842 243.743 L 278.216 244.226 L 278.657 244.585 L 279.16 244.813 L 279.722 244.907 L 280.34 244.861 L 281.008 244.673 L 281.723 244.341 L 282.478 243.863 L 283.267 243.24 L 284.083 242.474 L 284.92 241.567 L 285.77 240.526 L 286.624 239.356 L 287.475 238.066 L 288.313 236.665 L 289.13 235.167 L 289.916 233.585 L 290.661 231.934 L 291.356 230.233 L 291.993 228.499 L 292.562 226.753 L 293.054 225.017 L 293.462 223.311 L 293.779 221.658 L 293.998 220.08 L 294.115 218.599 L 294.126 217.235 L 294.029 216.007 L 293.822 214.933 L 293.506 214.029 L 293.084 213.306 L 292.558 212.776 L 291.936 212.445 L 291.222 212.317 L 290.425 212.394 L 289.555 212.674 L 288.621 213.152 L 287.635 213.822 L 286.608 214.673 L 285.552 215.696 L 284.479 216.875 L 283.402 218.198 L 282.333 219.649 L 281.283 221.211 L 280.263 222.867 L 279.284 224.601 L 278.355 226.395 L 277.486 228.233 L 276.684 230.097 L 275.957 231.972 L 275.31 233.841 L 274.75 235.689 L 274.28 237.501 L 273.904 239.263 L 273.625 240.96 L 273.446 242.579 L 273.367 244.108 L 273.389 245.533 L 273.512 246.842 L 273.735 248.025 L 274.058 249.069 L 274.478 249.965 L 274.993 250.702 L 275.601 251.271 L 276.296 251.662 L 277.076 251.868 L 277.936 251.882 L 278.869 251.697 L 279.87 251.308 L 280.932 250.712 L 282.048 249.907 L 283.209 248.892 L 284.405 247.669 L 285.627 246.243 L 286.863 244.619 L 288.103 242.807 L 289.333 240.82 L 290.541 238.672 L 291.712 236.382 L 292.834 233.973 L 293.89 231.468 L 294.867 228.896 L 295.75 226.288 L 296.526 223.676 L 297.181 221.095 L 297.703 218.581 L 298.081 216.171 L 298.305 213.899 L 298.37 211.802 L 298.269 209.91 L 298 208.253 L 297.563 206.857 L 296.961 205.743 L 296.2 204.926 L 295.287 204.419 L 294.233 204.225 L 293.052 204.346 L 291.757 204.776 L 290.366 205.505 L 288.897 206.52 L 287.368 207.803 L 285.799 209.333 L 284.208 211.087 L 282.615 213.042 L 281.038 215.172 L 279.494 217.451 L 278 219.855 L 276.57 222.356 L 275.219 224.932 L 273.958 227.558 L 272.797 230.211 L 271.746 232.871 L 270.812 235.517 L 270.002 238.13 L 269.319 240.691 L 268.769 243.182 L 268.353 245.587 L 268.074 247.89 L 267.932 250.076 L 267.927 252.129 L 268.059 254.035 L 268.327 255.779 L 268.73 257.349 L 269.264 258.728 L 269.927 259.906 L 270.716 260.866 L 271.628 261.598 L 272.657 262.087 L 273.8 262.322 L 275.05 262.292 L 276.401 261.984 L 277.846 261.39 L 279.376 260.502 L 280.982 259.313 L 282.654 257.819 L 284.379 256.02 L 286.145 253.916 L 287.935 251.515 L 289.735 248.826 L 291.526 245.864 L 293.289 242.651 L 295.003 239.211 L 296.647 235.579 L 298.197 231.791 L 299.631 227.892 L 300.925 223.933 L 302.055 219.969 L 303 216.057 L 303.738 212.259 L 304.252 208.638 L 304.525 205.254 L 304.545 202.167 L 304.305 199.431 L 303.8 197.094 L 303.031 195.195 L 302.006 193.764 L 300.735 192.822 L 299.234 192.378 L 297.523 192.431 L 295.628 192.971 L 293.574 193.977 L 291.392 195.423 L 289.114 197.275 L 286.769 199.496 L 284.392 202.043 L 282.011 204.876 L 279.655 207.952 L 277.353 211.229 L 275.129 214.666 L 273.004 218.227 L 270.998 221.876 L 269.126 225.581 L 267.403 229.312 L 265.838 233.042 L 264.441 236.746 L 263.218 240.401 L 262.173 243.988 L 261.308 247.487 L 260.626 250.881 L 260.126 254.152 L 259.807 257.284 L 259.669 260.262 L 259.709 263.071 L 259.925 265.695 L 260.315 268.118 L 260.876 270.325 L 261.605 272.3 L 262.5 274.026 L 263.556 275.486 L 264.772 276.661 L 266.143 277.533 L 267.665 278.084 L 269.334 278.293 L 271.145 278.143 L 273.092 277.612 L 275.167 276.683 L 277.362 275.339 L 279.666 273.562 L 282.068 271.341 L 284.552 268.664 L 287.103 265.528 L 289.699 261.932 L 292.32 257.883 L 294.939 253.399 L 297.527 248.505 L 300.052 243.237 L 302.48 237.644 L 304.774 231.787 L 306.894 225.741 L 308.799 219.592 L 310.449 213.437 L 311.804 207.383 L 312.828 201.542 L 313.485 196.028 L 313.75 190.955 L 313.6 186.428 L 313.022 182.542 L 312.013 179.374 L 310.578 176.984 L 308.734 175.409 L 306.507 174.664 L 303.931 174.739 L 301.049 175.606 L 297.91 177.218 L 294.566 179.513 L 291.074 182.419 L 287.488 185.859 L 283.863 189.753 L 280.251 194.023 L 276.699 198.593 L 273.249 203.394 L 269.937 208.364 L 266.795 213.447 L 263.847 218.596 L 261.112 223.77 L 258.606 228.933 L 256.337 234.056 L 254.312 239.115 L 252.532 244.089 L 250.998 248.959 L 249.706 253.712 L 248.653 258.332 L 247.834 262.808 L 247.243 267.128 L 246.874 271.28 L 246.72 275.254 L 246.778 279.038 L 247.04 282.619 L 247.503 285.986 L 248.162 289.123 L 249.015 292.016 L 250.059 294.648 L 251.291 297.001 L 252.712 299.055 L 254.321 300.787 L 256.116 302.174 L 258.098 303.187 L 260.268 303.8 L 262.624 303.98 L 265.165 303.694 L 267.891 302.906 L 270.796 301.58 L 273.877 299.678 L 277.126 297.162 L 280.532 293.995 L 284.082 290.145 L 287.757 285.582 L 291.533 280.284 L 295.381 274.243 L 299.266 267.46 L 303.146 259.955 L 306.971 251.772 L 310.685 242.976 L 314.222 233.664 L 317.514 223.959 L 320.486 214.018 L 323.06 204.026 L 325.158 194.193 L 326.706 184.746 L 327.636 175.92 L 327.89 167.948 L 327.425 161.041 L 326.218 155.38 L 324.265 151.104 L 321.585 148.296 L 318.22 146.984 L 314.231 147.137 L 309.7 148.674 L 304.72 151.471 L 299.397 155.374 L 293.836 160.211 L 288.145 165.807 L 282.426 171.991 L 276.769 178.606 L 271.257 185.515 L 265.957 192.6 L 260.922 199.768 L 256.195 206.942 L 251.804 214.067 L 247.766 221.1 L 244.09 228.012 L 240.775 234.782 L 237.816 241.399 L 235.203 247.853 L 232.92 254.141 L 230.951 260.262 L 229.278 266.215 L 227.882 272.001 L 226.747 277.62 L 225.853 283.074 L 225.185 288.363 L 224.727 293.487 L 224.467 298.447 L 224.393 303.241 L 224.494 307.869 L 224.763 312.326 L 225.193 316.611 L 225.779 320.719 L 226.519 324.645 L 227.412 328.381 L 228.457 331.919 L 229.657 335.25 L 231.015 338.361 L 232.536 341.238 L 234.226 343.863 L 236.092 346.217 L 238.142 348.275 L 240.386 350.011 L 242.834 351.39 L 245.498 352.378 L 248.389 352.929 L 251.518 352.995 L 254.899 352.52 L 258.54 351.439 L 262.454 349.682 L 266.649 347.171 L 271.129 343.818 L 275.898 339.532 L 280.951 334.215 L 286.28 327.769 L 291.867 320.098 L 297.682 311.113 L 303.686 300.744 L 309.821 288.945 L 316.015 275.71 L 322.175 261.085 L 328.188 245.184 L 333.919 228.2 L 339.214 210.422 L 343.903 192.236 L 347.803 174.123 L 350.731 156.639 L 352.511 140.393 L 352.99 125.993 L 352.049 114 L 349.62 104.867 L 345.695 98.8904 L 340.33 96.177 L 333.644 96.6352 L 325.816 99.9927 L 317.066 105.838 L 307.644 113.675 L 297.804 122.982 L 287.795 133.26 L 277.839 144.072 L 268.13 155.062 L 258.82 165.962 L 250.023 176.584 L 241.818 186.81 L 234.247 196.579 L 227.329 205.867 L 221.058 214.677 L 215.41 223.032 L 210.351 230.96 L 205.838 238.494 L 201.823 245.668 L 198.254 252.512 L 195.08 259.053 L 192.252 265.315 L 189.72 271.317 L 187.44 277.075 L 185.368 282.602 L 183.465 287.907 L 181.694 292.996 L 180.022 297.875 L 178.419 302.546 L 176.857 307.008 L 175.309 311.261 L 173.754 315.301 L 172.169 319.121 L 170.535 322.715 L 168.833 326.073 L 167.044 329.182 L 165.153 332.028 L 163.143 334.592 L 160.999 336.854 L 158.704 338.789 L 156.246 340.368 L 153.609 341.556 L 150.779 342.316 L 147.742 342.604 L 144.487 342.369 L 141.002 341.556 L 137.276 340.102 L 133.302 337.939 L 129.074 334.992 L 124.591 331.183 L 119.857 326.428 L 114.881 320.646 L 109.679 313.755 L 104.278 305.686 L 98.7145 296.379 L 93.0385 285.801 L 87.3145 273.95 L 81.6233 260.867 L 76.0629 246.649 L 70.7487 231.458 L 65.8128 215.533 L 61.4009 199.193 L 57.6685 182.832 L 54.7736 166.911 L 52.8686 151.936 L 52.0893 138.423 L 52.5443 126.861 L 54.3037 117.662 L 57.3905 111.128 L 61.7744 107.412 L 67.3714 106.511 L 74.0471 108.268 L 81.6264 112.396 L 89.9051 118.52 L 98.6653 126.216 L 107.689 135.06 L 116.772 144.655 L 125.732 154.661 L 134.417 164.805 L 142.707 174.878 L 150.511 184.737 L 157.774 194.289 L 164.461 203.482 L 170.563 212.295 L 176.089 220.727 L 181.059 228.791 L 185.504 236.507 L 189.463 243.897 L 192.976 250.985 L 196.089 257.795 L 198.844 264.346 L 201.286 270.657 L 203.455 276.744 L 205.39 282.618 L 207.129 288.292 L 208.705 293.775 L 210.149 299.073 L 211.49 304.192 L 212.753 309.136 L 213.963 313.909 L 215.14 318.512 L 216.306 322.946 L 217.477 327.21 L 218.67 331.304 L 219.903 335.224 L 221.189 338.966 L 222.542 342.524 L 223.978 345.892 L 225.51 349.059 L 227.151 352.015 L 228.915 354.745 L 230.816 357.233 L 232.869 359.458 L 235.089 361.395 L 237.489 363.018 L 240.087 364.292 L 242.897 365.177 L 245.937 365.628 L 249.222 365.592 L 252.769 365.007 L 256.593 363.805 L 260.709 361.904 L 265.13 359.218 L 269.865 355.646 L 274.92 351.082 L 280.298 345.412 L 285.991 338.515 L 291.984 330.273 L 298.252 320.573 L 304.752 309.318 L 311.427 296.437 L 318.199 281.904 L 324.966 265.75 L 331.602 248.087 L 337.955 229.125 L 343.848 209.188 L 349.08 188.725 L 353.437 168.305 L 356.699 148.602 L 358.656 130.351 L 359.122 114.297 L 357.956 101.118 L 355.078 91.3517 L 350.48 85.3304 L 344.237 83.1375 L 336.505 84.6028 L 327.504 89.3325 L 317.509 96.7704 L 306.82 106.276 L 295.741 117.199 L 284.559 128.946 L 273.527 141.019 L 262.855 153.033 L 252.701 164.717 L 243.181 175.897 L 234.365 186.483 L 226.284 196.439 L 218.943 205.773 L 212.321 214.514 L 206.381 222.707 L 201.076 230.4 L 196.35 237.639 L 192.143 244.468 L 188.397 250.926 L 185.051 257.045 L 182.049 262.852 L 179.337 268.367 L 176.864 273.606 L 174.584 278.58 L 172.454 283.297 L 170.435 287.761 L 168.491 291.972 L 166.59 295.928 L 164.703 299.623 L 162.803 303.05 L 160.867 306.198 L 158.871 309.054 L 156.797 311.601 L 154.626 313.821 L 152.342 315.69 L 149.928 317.183 L 147.371 318.271 L 144.66 318.92 L 141.781 319.094 L 138.728 318.751 L 135.491 317.847 L 132.067 316.334 L 128.453 314.161 L 124.65 311.277 L 120.663 307.628 L 116.502 303.162 L 112.183 297.833 L 107.728 291.6 L 103.168 284.435 L 98.5404 276.327 L 93.8951 267.284 L 89.2907 257.346 L 84.7973 246.586 L 80.4953 235.116 L 76.4755 223.094 L 72.8367 210.725 L 69.6835 198.259 L 67.1223 185.985 L 65.2564 174.223 L 64.1807 163.305 L 63.9748 153.557 L 64.6974 145.276 L 66.3803 138.705 L 69.0245 134.019 L 72.5977 131.304 L 77.0349 130.557 L 82.2415 131.691 L 88.0981 134.542 L 94.4682 138.894 L 101.206 144.497 L 108.164 151.091 L 115.201 158.424 L 122.189 166.267 L 129.015 174.424 L 135.586 182.731 L 141.829 191.064 L 147.689 199.327 L 153.132 207.456 L 158.136 215.406 L 162.696 223.151 L 166.815 230.679 L 170.506 237.984 L 173.789 245.07 L 176.688 251.941 L 179.228 258.604 L 181.437 265.069 L 183.344 271.343 L 184.976 277.435 L 186.36 283.353 L 187.521 289.102 L 188.48 294.69 L 189.261 300.122 L 189.881 305.404 L 190.358 310.539 L 190.706 315.531 L 190.938 320.386 L 191.065 325.105 L 191.096 329.692 L 191.039 334.149 L 190.899 338.479 L 190.681 342.683 L 190.389 346.764 L 190.023 350.723 L 189.586 354.561 L 189.076 358.278 L 188.493 361.874 L 187.834 365.349 L 187.095 368.702 L 186.273 371.93 L 185.362 375.032 L 184.357 378.003 L 183.25 380.839 L 182.034 383.532 L 180.698 386.075 L 179.234 388.458 L 177.629 390.668 L 175.872 392.69 L 173.949 394.505 L 171.844 396.091 L 169.543 397.422 L 167.027 398.463 L 164.278 399.177 L 161.276 399.517 L 158 399.429 L 154.428 398.846 L 150.537 397.694 L 146.304 395.882 L 141.708 393.307 L 136.726 389.85 L 131.341 385.376 L 125.537 379.734 L 119.304 372.755 L 112.642 364.26 L 105.56 354.062 L 98.0853 341.976 L 90.2607 327.829 L 82.1556 311.483 L 73.8686 292.857 L 65.5328 271.957 L 57.3212 248.915 L 49.4487 224.021 L 42.1723 197.76 L 35.7863 170.831 L 30.6116 144.146 L 26.9777 118.787 L 25.1978 95.9366 L 25.538 76.7504 L 28.1842 62.2166 L 33.2129 53.0103 L 40.5713 49.3849 L 50.0721 51.1309 L 61.4075 57.6172 L 74.1777 67.9047 L 87.9322 80.9023 L 102.213 95.5236 L 116.594 110.81 L 130.709 126.004 L 144.264 140.569 L 157.049 154.173 L 168.927 166.652 L 179.823 177.961 L 189.718 188.138 L 198.629 197.265 L 206.603 205.446 L 213.705 212.788 L 220.009 219.395 L 225.596 225.36 L 230.547 230.761 L 234.941 235.665 L 238.855 240.126 L 242.358 244.185 L 245.515 247.875 L 248.385 251.221 L 251.02 254.239 L 253.468 256.94 L 255.771 259.332 L 257.964 261.416 L 260.08 263.192 L 262.145 264.657 L 264.182 265.804 L 266.211 266.628 L 268.246 267.12 L 270.3 267.271 L 272.381 267.072 L 274.496 266.514 L 276.646 265.589 L 278.831 264.29 L 281.049 262.613 L 283.294 260.555 L 285.555 258.119 L 287.823 255.309 L 290.081 252.138 L 292.314 248.622 L 294.5 244.785 L 296.618 240.659 L 298.642 236.284 L 300.547 231.707 L 302.304 226.985 L 303.885 222.182 L 305.262 217.368 L 306.405 212.621 L 307.29 208.021 L 307.893 203.649 L 308.194 199.587 L 308.177 195.91 L 307.833 192.689 L 307.158 189.984 L 306.155 187.843 L 304.833 186.301 L 303.21 185.378 L 301.307 185.08 L 299.152 185.398 L 296.78 186.308 L 294.226 187.778 L 291.53 189.766 L 288.734 192.221 L 285.876 195.09 L 282.997 198.318 L 280.136 201.85 L 277.326 205.63 L 274.6 209.609 L 271.985 213.738 L 269.506 217.975 L 267.182 222.28 L 265.03 226.618 L 263.063 230.958 L 261.291 235.273 L 259.72 239.539 L 258.353 243.734 L 257.194 247.839 L 256.243 251.836 L 255.498 255.71 L 254.958 259.444 L 254.62 263.024 L 254.481 266.436 L 254.538 269.665 L 254.787 272.697 L 255.225 275.517 L 255.849 278.109 L 256.655 280.456 L 257.642 282.542 L 258.805 284.348 L 260.144 285.853 L 261.655 287.038 L 263.336 287.879 L 265.183 288.354 L 267.194 288.438 L 269.364 288.107 L 271.688 287.334 L 274.16 286.094 L 276.77 284.363 L 279.51 282.116 L 282.365 279.335 L 285.321 276.001 L 288.358 272.103 L 291.453 267.638 L 294.58 262.611 L 297.707 257.039 L 300.798 250.951 L 303.814 244.392 L 306.709 237.425 L 309.435 230.131 L 311.941 222.61 L 314.172 214.979 L 316.075 207.371 L 317.597 199.934 L 318.69 192.822 L 319.308 186.192 L 319.417 180.196 L 318.992 174.972 L 318.018 170.639 L 316.497 167.289 L 314.443 164.983 L 311.884 163.748 L 308.862 163.577 L 305.432 164.432 L 301.655 166.246 L 297.603 168.931 L 293.349 172.386 L 288.966 176.499 L 284.528 181.16 L 280.102 186.258 L 275.75 191.695 L 271.526 197.377 L 267.477 203.228 L 263.64 209.178 L 260.044 215.171 L 256.712 221.162 L 253.656 227.114 L 250.887 232.998 L 248.407 238.791 L 246.215 244.474 L 244.307 250.034 L 242.675 255.46 L 241.312 260.742 L 240.207 265.871 L 239.351 270.842 L 238.733 275.648 L 238.344 280.281 L 238.175 284.735 L 238.217 289.002 L 238.463 293.074 L 238.908 296.942 L 239.546 300.594 L 240.375 304.02 L 241.391 307.206 L 242.595 310.135 L 243.986 312.792 L 245.565 315.155 L 247.335 317.201 L 249.298 318.906 L 251.457 320.24 L 253.818 321.171 L 256.383 321.663 L 259.157 321.676 L 262.142 321.166 L 265.342 320.085 L 268.756 318.382 L 272.383 316.004 L 276.218 312.895 L 280.255 308.999 L 284.479 304.261 L 288.872 298.633 L 293.41 292.071 L 298.058 284.549 L 302.775 276.053 L 307.508 266.598 L 312.194 256.227 L 316.757 245.02 L 321.113 233.101 L 325.165 220.642 L 328.809 207.865 L 331.935 195.036 L 334.432 182.467 L 336.193 170.495 L 337.122 159.469 L 337.138 149.726 L 336.185 141.567 L 334.235 135.233 L 331.296 130.886 L 327.409 128.595 L 322.647 128.333 L 317.117 129.984 L 310.949 133.359 L 304.288 138.217 L 297.287 144.289 L 290.099 151.303 L 282.868 158.999 L 275.724 167.145 L 268.777 175.548 L 262.118 184.05 L 255.817 192.53 L 249.924 200.903 L 244.469 209.11 L 239.47 217.113 L 234.928 224.891 L 230.834 232.437 L 227.173 239.751 L 223.922 246.836 L 221.055 253.7 L 218.544 260.354 L 216.359 266.805 L 214.47 273.065 L 212.85 279.142 L 211.47 285.044 L 210.305 290.778 L 209.331 296.351 L 208.527 301.77 L 207.874 307.039 L 207.353 312.164 L 206.951 317.148 L 206.653 321.997 L 206.448 326.713 L 206.327 331.3 L 206.282 335.761 L 206.306 340.1 L 206.394 344.319 L 206.541 348.42 L 206.746 352.406 L 207.005 356.279 L 207.318 360.04 L 207.686 363.692 L 208.108 367.236 L 208.586 370.671 L 209.123 374 L 209.722 377.222 L 210.386 380.337 L 211.121 383.344 L 211.931 386.241 L 212.822 389.026 L 213.801 391.696 L 214.877 394.245 L 216.058 396.668 L 217.353 398.958 L 218.773 401.105 L 220.33 403.097 L 222.037 404.921 L 223.908 406.558 L 225.959 407.988 L 228.207 409.184 L 230.669 410.116 L 233.366 410.745 L 236.318 411.027 L 239.549 410.907 L 243.082 410.322 L 246.941 409.194 L 251.154 407.435 L 255.743 404.939 L 260.736 401.584 L 266.155 397.228 L 272.019 391.713 L 278.345 384.858 L 285.14 376.467 L 292.4 366.331 L 300.109 354.234 L 308.23 339.97 L 316.701 323.356 L 325.43 304.26 L 334.289 282.636 L 343.104 258.56 L 351.657 232.28 L 359.678 204.256 L 366.851 175.192 L 372.824 146.048 L 377.225 118.012 L 379.691 92.4191 L 379.902 70.621 L 377.617 53.8173 L 372.716 42.8727 L 365.225 38.1704 L 355.326 39.5424 L 343.346 46.3027 L 329.726 57.3772 L 314.97 71.4931 L 299.599 87.3744 L 284.096 103.899 L 268.878 120.187 L 254.273 135.631 L 240.519 149.867 L 227.765 162.729 L 216.089 174.194 L 205.512 184.325 L 196.007 193.237 L 187.523 201.062 L 179.988 207.938 L 173.317 213.991 L 167.424 219.333 L 162.222 224.062 L 157.627 228.257 L 153.559 231.985 L 149.947 235.297 L 146.723 238.237 L 143.827 240.836 L 141.205 243.119 L 138.811 245.105 L 136.604 246.807 L 134.546 248.236 L 132.609 249.397 L 130.765 250.296 L 128.993 250.934 L 127.276 251.315 L 125.599 251.438 L 123.951 251.305 L 122.326 250.917 L 120.717 250.276 L 119.122 249.385 L 117.542 248.249 L 115.979 246.875 L 114.438 245.27 L 112.924 243.447 L 111.446 241.419 L 110.014 239.205 L 108.638 236.824 L 107.331 234.3 L 106.105 231.662 L 104.974 228.939 L 103.952 226.166 L 103.052 223.379 L 102.288 220.617 L 101.673 217.918 L 101.217 215.323 L 100.929 212.872 L 100.819 210.605 L 100.89 208.555 L 101.146 206.758 L 101.586 205.241 L 102.207 204.027 L 103.004 203.136 L 103.967 202.578 L 105.085 202.36 L 106.343 202.483 L 107.725 202.939 L 109.213 203.719 L 110.787 204.806 L 112.426 206.182 L 114.11 207.822 L 115.817 209.703 L 117.527 211.797 L 119.219 214.076 L 120.876 216.513 L 122.479 219.081 L 124.012 221.751 L 125.462 224.498 L 126.814 227.297 L 128.059 230.124 L 129.187 232.957 L 130.189 235.773 L 131.061 238.554 L 131.796 241.28 L 132.392 243.934 L 132.845 246.498 L 133.154 248.955 L 133.318 251.291 L 133.337 253.49 L 133.213 255.537 L 132.945 257.416 L 132.536 259.115 L 131.989 260.618 L 131.305 261.911 L 130.488 262.98 L 129.542 263.811 L 128.471 264.39 L 127.279 264.704 L 125.973 264.74 L 124.557 264.486 L 123.041 263.93 L 121.431 263.064 L 119.736 261.878 L 117.969 260.367 L 116.14 258.528 L 114.263 256.361 L 112.353 253.869 L 110.428 251.063 L 108.505 247.956 L 106.605 244.567 L 104.749 240.923 L 102.962 237.057 L 101.267 233.008 L 99.6904 228.823 L 98.2573 224.554 L 96.9936 220.262 L 95.9244 216.01 L 95.0731 211.866 L 94.461 207.897 L 94.1066 204.174 L 94.0244 200.762 L 94.2247 197.724 L 94.7128 195.112 L 95.4887 192.974 L 96.5465 191.344 L 97.8749 190.247 L 99.4571 189.693 L 101.271 189.683 L 103.291 190.205 L 105.487 191.237 L 107.826 192.749 L 110.274 194.702 L 112.796 197.056 L 115.358 199.764 L 117.925 202.778 L 120.465 206.053 L 122.95 209.542 L 125.351 213.201 L 127.646 216.99 L 129.814 220.87 L 131.838 224.808 L 133.703 228.772 L 135.399 232.733 L 136.916 236.667 L 138.248 240.55 L 139.392 244.362 L 140.345 248.083 L 141.106 251.696 L 141.675 255.185 L 142.054 258.532 L 142.245 261.724 L 142.249 264.745 L 142.069 267.58 L 141.709 270.213 L 141.171 272.629 L 140.457 274.811 L 139.571 276.743 L 138.516 278.407 L 137.294 279.785 L 135.909 280.857 L 134.364 281.603 L 132.663 282.003 L 130.811 282.034 L 128.812 281.677 L 126.673 280.908 L 124.402 279.708 L 122.007 278.057 L 119.499 275.937 L 116.893 273.334 L 114.204 270.236 L 111.45 266.64 L 108.654 262.546 L 105.841 257.964 L 103.04 252.915 L 100.284 247.431 L 97.6093 241.556 L 95.0547 235.348 L 92.6628 228.882 L 90.4779 222.245 L 88.5454 215.54 L 86.9103 208.881 L 85.6163 202.392 L 84.7034 196.2 L 84.2068 190.435 L 84.1545 185.222 L 84.566 180.673 L 85.4511 176.885 L 86.8082 173.934 L 88.6244 171.873 L 90.8755 170.725 L 93.5263 170.491 L 96.5324 171.141 L 99.8414 172.629 L 103.395 174.887 L 107.133 177.835 L 110.992 181.386 L 114.911 185.448 L 118.832 189.932 L 122.7 194.752 L 126.468 199.829 L 130.094 205.093 L 133.543 210.482 L 136.787 215.941 L 139.804 221.427 L 142.577 226.902 L 145.098 232.334 L 147.358 237.699 L 149.358 242.975 L 151.096 248.145 L 152.578 253.194 L 153.808 258.11 L 154.793 262.882 L 155.54 267.499 L 156.056 271.952 L 156.348 276.23 L 156.424 280.325 L 156.29 284.226 L 155.951 287.921 L 155.412 291.399 L 154.678 294.646 L 153.75 297.648 L 152.632 300.387 L 151.324 302.847 L 149.826 305.006 L 148.138 306.842 L 146.26 308.329 L 144.19 309.44 L 141.927 310.143 L 139.469 310.406 L 136.816 310.192 L 133.968 309.462 L 130.927 308.175 L 127.696 306.287 L 124.28 303.755 L 120.688 300.535 L 116.933 296.585 L 113.031 291.869 L 109.006 286.355 L 104.885 280.022 L 100.705 272.866 L 96.509 264.897 L 92.3487 256.15 L 88.285 246.689 L 84.3867 236.609 L 80.7309 226.04 L 77.4007 215.148 L 74.4841 204.138 L 72.0704 193.244 L 70.2469 182.725 L 69.0941 172.854 L 68.6815 163.902 L 69.0624 156.12 L 70.2694 149.726 L 72.311 144.885 L 75.1694 141.7 L 78.8002 140.205 L 83.1339 140.362 L 88.0792 142.074 L 93.5281 145.191 L 99.3616 149.527 L 105.456 154.879 L 111.691 161.038 L 117.949 167.805 L 124.129 175.002 L 130.139 182.472 L 135.905 190.087 L 141.368 197.745 L 146.487 205.369 L 151.232 212.901 L 155.586 220.302 L 159.545 227.546 L 163.112 234.618 L 166.296 241.509 L 169.113 248.215 L 171.581 254.738 L 173.722 261.079 L 175.556 267.242 L 177.108 273.23 L 178.397 279.049 L 179.446 284.701 L 180.273 290.19 L 180.897 295.518 L 181.334 300.69 L 181.597 305.705 L 181.7 310.567 L 181.652 315.275 L 181.461 319.829 L 181.136 324.23 L 180.679 328.475 L 180.095 332.563 L 179.385 336.49 L 178.549 340.253 L 177.585 343.846 L 176.491 347.263 L 175.262 350.494 L 173.893 353.53 L 172.376 356.358 L 170.703 358.964 L 168.866 361.328 L 166.852 363.43 L 164.652 365.243 L 162.251 366.739 L 159.636 367.88 L 156.792 368.626 L 153.705 368.929 L 150.359 368.732 L 146.737 367.97 L 142.825 366.57 L 138.609 364.449 L 134.075 361.511 L 129.215 357.654 L 124.022 352.764 L 118.497 346.72 L 112.647 339.397 L 106.49 330.67 L 100.054 320.423 L 93.3841 308.557 L 86.5446 295.003 L 79.6198 279.741 L 72.7193 262.816 L 65.9791 244.362 L 59.5626 224.618 L 53.6595 203.948 L 48.4812 182.85 L 44.2539 161.944 L 41.2059 141.955 L 39.5532 123.663 L 39.4804 107.838 L 41.1218 95.164 L 44.5435 86.1538 L 49.7311 81.0874 L 56.5843 79.9758 L 64.9213 82.565 L 74.4928 88.3794 L 85.0029 96.7949 L 96.1344 107.124 L 107.573 118.693 L 119.03 130.908 L 130.255 143.283 L 141.048 155.459 L 151.259 167.191 L 160.786 178.333 L 169.571 188.818 L 177.592 198.631 L 184.856 207.794 L 191.392 216.346 L 197.242 224.34 L 202.46 231.827 L 207.106 238.858 L 211.241 245.477 L 214.928 251.724 L 218.227 257.629 L 221.195 263.219 L 223.887 268.514 L 226.353 273.527 L 228.64 278.269 L 230.79 282.746 L 232.842 286.959 L 234.831 290.909 L 236.788 294.59 L 238.742 297.995 L 240.718 301.115 L 242.741 303.937 L 244.83 306.446 L 247.006 308.622 L 249.285 310.445 L 251.683 311.889 L 254.214 312.926 L 256.889 313.525 L 259.72 313.651 L 262.715 313.265 L 265.879 312.327 L 269.218 310.792 L 272.732 308.614 L 276.419 305.746 L 280.272 302.142 L 284.28 297.758 L 288.426 292.553 L 292.687 286.498 L 297.032 279.573 L 301.423 271.775 L 305.813 263.123 L 310.143 253.661 L 314.347 243.468 L 318.349 232.657 L 322.065 221.382 L 325.404 209.836 L 328.27 198.253 L 330.569 186.899 L 332.207 176.061 L 333.102 166.037 L 333.186 157.115 L 332.409 149.555 L 330.747 143.569 L 328.202 139.306 L 324.807 136.841 L 320.623 136.17 L 315.737 137.217 L 310.256 139.839 L 304.305 143.849 L 298.014 149.029 L 291.516 155.15 L 284.939 161.989 L 278.401 169.342 L 272.005 177.028 L 265.836 184.897 L 259.965 192.831 L 254.442 200.738 L 249.304 208.552 L 244.572 216.226 L 240.255 223.731 L 236.351 231.049 L 232.852 238.172 L 229.741 245.096 L 226.999 251.825 L 224.604 258.361 L 222.531 264.709 L 220.756 270.876 L 219.254 276.867 L 218.002 282.687 L 216.979 288.342 L 216.162 293.837 L 215.535 299.175 L 215.08 304.359 L 214.782 309.394 L 214.629 314.281 L 214.611 319.022 L 214.717 323.619 L 214.943 328.073 L 215.281 332.384 L 215.728 336.552 L 216.283 340.576 L 216.944 344.454 L 217.712 348.185 L 218.59 351.764 L 219.581 355.187 L 220.689 358.448 L 221.921 361.54 L 223.282 364.454 L 224.782 367.177 L 226.431 369.696 L 228.237 371.995 L 230.215 374.053 L 232.376 375.845 L 234.734 377.344 L 237.305 378.516 L 240.105 379.319 L 243.151 379.707 L 246.461 379.625 L 250.053 379.007 L 253.945 377.78 L 258.154 375.859 L 262.698 373.145 L 267.59 369.529 L 272.842 364.891 L 278.459 359.096 L 284.44 352.005 L 290.777 343.471 L 297.446 333.35 L 304.413 321.51 L 311.62 307.843 L 318.989 292.282 L 326.417 274.824 L 333.769 255.554 L 340.879 234.667 L 347.548 212.5 L 353.55 189.541 L 358.633 166.437 L 362.536 143.976 L 365.001 123.045 L 365.797 104.559 L 364.741 89.3666 L 361.721 78.1525 L 356.716 71.3417 L 349.806 69.0415 L 341.17 71.0293 L 331.073 76.7941 L 319.842 85.6202 L 307.838 96.6936 L 295.425 109.206 L 282.939 122.436 L 270.674 135.797 L 258.866 148.86 L 247.692 161.336 L 237.268 173.064 L 227.664 183.972 L 218.905 194.058 L 210.981 203.357 L 203.861 211.929 L 197.495 219.841 L 191.822 227.164 L 186.776 233.96 L 182.287 240.286 L 178.287 246.189 L 174.709 251.709 L 171.489 256.876 L 168.568 261.714 L 165.892 266.239 L 163.411 270.463 L 161.079 274.392 L 158.855 278.028 L 156.704 281.369 L 154.591 284.41 L 152.488 287.142 L 150.37 289.555 L 148.213 291.633 L 145.998 293.36 L 143.707 294.717 L 141.326 295.682 L 138.843 296.231 L 136.247 296.337 L 133.532 295.973 L 130.693 295.108 L 127.727 293.713 L 124.637 291.757 L 121.426 289.211 L 118.102 286.047 L 114.679 282.242 L 111.174 277.778 L 107.608 272.647 L 104.011 266.849 L 100.415 260.401 L 96.8603 253.333 L 93.3944 245.699 L 90.069 237.57 L 86.9421 229.046 L 84.0759 220.249 L 81.5358 211.326 L 79.3881 202.446 L 77.6979 193.795 L 76.5259 185.569 L 75.9257 177.967 L 75.9401 171.178 L 76.5985 165.373 L 77.9142 160.692 L 79.8827 157.238 L 82.4809 155.071 L 85.6672 154.203 L 89.3836 154.601 L 93.5578 156.193 L 98.1068 158.874 L 102.941 162.514 L 107.968 166.973 L 113.098 172.104 L 118.243 177.767 L 123.325 183.831 L 128.275 190.179 L 133.035 196.71 L 137.557 203.341 L 141.804 210.005 L 145.751 216.648 L 149.379 223.23 L 152.681 229.72 L 155.655 236.095 L 158.302 242.34 L 160.631 248.443 L 162.653 254.397 L 164.379 260.197 L 165.825 265.838 L 167.004 271.317 L 167.93 276.632 L 168.619 281.781 L 169.082 286.761 L 169.332 291.568 L 169.379 296.2 L 169.231 300.652 L 168.898 304.919 L 168.383 308.994 L 167.692 312.869 L 166.828 316.536 L 165.791 319.984 L 164.581 323.2 L 163.196 326.17 L 161.633 328.876 L 159.888 331.298 L 157.956 333.412 L 155.83 335.193 L 153.503 336.609 L 150.968 337.625 L 148.215 338.202 L 145.238 338.293 L 142.028 337.848 L 138.578 336.812 L 134.882 335.121 L 130.937 332.708 L 126.741 329.502 L 122.298 325.426 L 117.614 320.404 L 112.704 314.361 L 107.589 307.226 L 102.301 298.939 L 96.8801 289.46 L 91.3824 278.772 L 85.8762 266.893 L 80.446 253.887 L 75.1921 239.876 L 70.2306 225.043 L 65.6915 209.645 L 61.7161 194.01 L 58.4513 178.532 L 56.0434 163.66 L 54.6288 149.87 L 54.3249 137.632 L 55.2192 127.376 L 57.3608 119.452 L 60.7526 114.092 L 65.3481 111.392 L 71.0521 111.305 L 77.7257 113.648 L 85.1958 118.134 L 93.2669 124.403 L 101.734 132.064 L 110.398 140.733 L 119.07 150.055 L 127.589 159.732 L 135.817 169.52 L 143.649 179.24 L 151.008 188.765 L 157.843 198.014 L 164.129 206.939 L 169.858 215.522 L 175.039 223.762 L 179.694 231.667 L 183.853 239.255 L 187.551 246.544 L 190.827 253.556 L 193.722 260.309 L 196.277 266.822 L 198.532 273.11 L 200.525 279.188 L 202.293 285.066 L 203.869 290.756 L 205.284 296.267 L 206.567 301.604 L 207.743 306.774 L 208.838 311.782 L 209.871 316.632 L 210.863 321.326 L 211.832 325.868 L 212.793 330.257 L 213.762 334.496 L 214.752 338.584 L 215.777 342.52 L 216.85 346.301 L 217.983 349.925 L 219.186 353.387 L 220.473 356.682 L 221.855 359.801 L 223.345 362.737 L 224.954 365.476 L 226.696 368.006 L 228.585 370.309 L 230.634 372.365 L 232.859 374.148 L 235.275 375.631 L 237.899 376.777 L 240.748 377.547 L 243.841 377.892 L 247.194 377.756 L 250.826 377.074 L 254.757 375.771 L 259.002 373.761 L 263.579 370.946 L 268.501 367.216 L 273.777 362.45 L 279.413 356.517 L 285.406 349.278 L 291.745 340.589 L 298.405 330.313 L 305.347 318.323 L 312.512 304.521 L 319.82 288.853 L 327.162 271.329 L 334.402 252.051 L 341.371 231.232 L 347.87 209.226 L 353.671 186.536 L 358.527 163.818 L 362.181 141.859 L 364.384 121.534 L 364.915 103.732 L 363.605 89.2628 L 360.356 78.7641 L 355.162 72.6115 L 348.115 70.8684 L 339.4 73.2813 L 329.288 79.3253 L 318.102 88.289 L 306.2 99.3772 L 293.933 111.81 L 281.628 124.896 L 269.566 138.082 L 257.973 150.958 L 247.016 163.257 L 236.806 174.827 L 227.406 185.603 L 218.836 195.585 L 211.087 204.807 L 204.126 213.328 L 197.903 221.212 L 192.357 228.526 L 187.423 235.33 L 183.034 241.677 L 179.12 247.614 L 175.617 253.177 L 172.462 258.395 L 169.598 263.291 L 166.971 267.88 L 164.532 272.173 L 162.235 276.176 L 160.042 279.891 L 157.916 283.314 L 155.824 286.441 L 153.738 289.263 L 151.632 291.768 L 149.484 293.942 L 147.273 295.769 L 144.982 297.227 L 142.597 298.295 L 140.104 298.947 L 137.493 299.157 L 134.757 298.896 L 131.889 298.131 L 128.887 296.83 L 125.751 294.961 L 122.485 292.491 L 119.096 289.389 L 115.596 285.628 L 112 281.185 L 108.33 276.046 L 104.613 270.208 L 100.883 263.679 L 97.1795 256.486 L 93.5498 248.676 L 90.047 240.317 L 86.7308 231.506 L 83.6658 222.364 L 80.921 213.041 L 78.5669 203.71 L 76.6737 194.567 L 75.308 185.818 L 74.5296 177.677 L 74.3876 170.352 L 74.9178 164.03 L 76.1389 158.871 L 78.0509 154.994 L 80.6335 152.472 L 83.8468 151.327 L 87.632 151.53 L 91.9147 153.008 L 96.608 155.652 L 101.617 159.324 L 106.844 163.871 L 112.191 169.138 L 117.567 174.971 L 122.885 181.227 L 128.072 187.781 L 133.064 194.524 L 137.811 201.367 L 142.273 208.238 L 146.423 215.081 L 150.241 221.854 L 153.72 228.527 L 156.856 235.076 L 159.655 241.486 L 162.123 247.748 L 164.274 253.855 L 166.121 259.802 L 167.679 265.587 L 168.965 271.21 L 169.995 276.667 L 170.783 281.959 L 171.345 287.084 L 171.693 292.04 L 171.839 296.826 L 171.794 301.438 L 171.565 305.873 L 171.16 310.126 L 170.584 314.191 L 169.84 318.062 L 168.93 321.73 L 167.855 325.184 L 166.613 328.413 L 165.202 331.403 L 163.617 334.137 L 161.854 336.595 L 159.906 338.754 L 157.765 340.588 L 155.424 342.066 L 152.874 343.154 L 150.104 343.811 L 147.106 343.99 L 143.87 343.641 L 140.387 342.705 L 136.649 341.117 L 132.65 338.807 L 128.387 335.699 L 123.861 331.71 L 119.075 326.757 L 114.041 320.755 L 108.779 313.622 L 103.314 305.286 L 97.6885 295.691 L 91.9536 284.804 L 86.1774 272.627 L 80.4444 259.21 L 74.8569 244.657 L 69.5348 229.145 L 64.6147 212.928 L 60.247 196.341 L 56.5908 179.798 L 53.8072 163.778 L 52.0498 148.803 L 51.4538 135.397 L 52.1247 124.05 L 54.127 115.169 L 57.4759 109.038 L 62.1314 105.786 L 67.9988 105.379 L 74.9334 107.632 L 82.7501 112.23 L 91.2375 118.774 L 100.172 126.828 L 109.334 135.96 L 118.517 145.773 L 127.543 155.935 L 136.263 166.178 L 144.56 176.306 L 152.351 186.183 L 159.583 195.727 L 166.228 204.893 L 172.281 213.666 L 177.752 222.05 L 182.667 230.061 L 187.059 237.72 L 190.968 245.052 L 194.437 252.083 L 197.511 258.834 L 200.234 265.327 L 202.651 271.579 L 204.802 277.606 L 206.728 283.421 L 208.465 289.034 L 210.047 294.455 L 211.505 299.688 L 212.867 304.741 L 214.159 309.616 L 215.406 314.316 L 216.628 318.842 L 217.846 323.194 L 219.077 327.37 L 220.339 331.369 L 221.648 335.186 L 223.02 338.816 L 224.468 342.251 L 226.007 345.482 L 227.652 348.498 L 229.416 351.286 L 231.314 353.828 L 233.359 356.105 L 235.568 358.092 L 237.954 359.763 L 240.533 361.083 L 243.322 362.014 L 246.334 362.512 L 249.587 362.524 L 253.097 361.991 L 256.877 360.845 L 260.943 359.008 L 265.305 356.395 L 269.974 352.911 L 274.955 348.452 L 280.248 342.908 L 285.846 336.164 L 291.735 328.109 L 297.887 318.633 L 304.263 307.647 L 310.805 295.085 L 317.437 280.923 L 324.06 265.195 L 330.553 248.011 L 336.768 229.572 L 342.535 210.191 L 347.662 190.296 L 351.942 170.43 L 355.165 151.235 L 357.129 133.412 L 357.654 117.673 L 356.604 104.669 L 353.899 94.923 L 349.528 88.7666 L 343.559 86.299 L 336.135 87.3795 L 327.465 91.6531 L 317.807 98.6057 L 307.448 107.635 L 296.68 118.122 L 285.782 129.495 L 275.002 141.264 L 264.545 153.048 L 254.572 164.571 L 245.2 175.652 L 236.502 186.19 L 228.515 196.141 L 221.247 205.504 L 214.681 214.3 L 208.786 222.569 L 203.516 230.353 L 198.82 237.696 L 194.64 244.64 L 190.919 251.222 L 187.599 257.472 L 184.625 263.417 L 181.945 269.077 L 179.508 274.469 L 177.268 279.604 L 175.184 284.491 L 173.216 289.134 L 171.329 293.534 L 169.492 297.691 L 167.674 301.601 L 165.85 305.257 L 163.995 308.65 L 162.087 311.769 L 160.106 314.6 L 158.033 317.126 L 155.85 319.325 L 153.542 321.175 L 151.093 322.647 L 148.49 323.712 L 145.72 324.333 L 142.772 324.471 L 139.637 324.082 L 136.306 323.119 L 132.773 321.529 L 129.036 319.256 L 125.094 316.243 L 120.953 312.43 L 116.621 307.759 L 112.114 302.176 L 107.455 295.632 L 102.673 288.093 L 97.8107 279.538 L 92.9175 269.974 L 88.0563 259.436 L 83.3018 247.997 L 78.7408 235.776 L 74.4714 222.942 L 70.6017 209.715 L 67.2462 196.37 L 64.5223 183.227 L 62.5445 170.641 L 61.4179 158.981 L 61.2312 148.611 L 62.0492 139.86 L 63.9066 132.995 L 66.8033 128.203 L 70.7014 125.568 L 75.5267 125.074 L 81.1715 126.605 L 87.5014 129.963 L 94.3636 134.895 L 101.596 141.113 L 109.038 148.323 L 116.536 156.247 L 123.952 164.637 L 131.168 173.285 L 138.087 182.022 L 144.636 190.722 L 150.761 199.296 L 156.43 207.681 L 161.626 215.842 L 166.349 223.759 L 170.606 231.426 L 174.415 238.844 L 177.802 246.02 L 180.793 252.964 L 183.42 259.687 L 185.714 266.201 L 187.706 272.516 L 189.427 278.643 L 190.907 284.59 L 192.172 290.367 L 193.249 295.98 L 194.16 301.436 L 194.926 306.742 L 195.566 311.902 L 196.097 316.922 L 196.533 321.806 L 196.888 326.558 L 197.171 331.182 L 197.393 335.683 L 197.562 340.062 L 197.685 344.324 L 197.768 348.472 L 197.815 352.509 L 197.83 356.437 L 197.817 360.261 L 197.778 363.982 L 197.715 367.602 L 197.629 371.126 L 197.521 374.554 L 197.392 377.89 L 197.241 381.136 L 197.068 384.293 L 196.872 387.364 L 196.653 390.351 L 196.408 393.256 L 196.137 396.08 L 195.837 398.824 L 195.505 401.491 L 195.14 404.081 L 194.738 406.596 L 194.296 409.036 L 193.809 411.401 L 193.274 413.692 L 192.685 415.909 L 192.038 418.051 L 191.326 420.116 L 190.542 422.103 L 189.68 424.009 L 188.73 425.831 L 187.685 427.564 L 186.535 429.202 L 185.267 430.738 L 183.871 432.163 L 182.333 433.463 L 180.637 434.626 L 178.769 435.633 L 176.71 436.461 L 174.441 437.085 L 171.941 437.47 L 169.186 437.577 L 166.152 437.358 L 162.813 436.752 L 159.139 435.69 L 155.1 434.085 L 150.665 431.835 L 145.801 428.819 L 140.477 424.894 L 134.661 419.892 L 128.324 413.619 L 121.444 405.854 L 114.005 396.349 L 106.002 384.836 L 97.4493 371.032 L 88.3819 354.656 L 78.8656 335.451 L 69.0047 313.221 L 58.9512 287.872 L 48.9133 259.476 L 39.1634 228.332 L 30.0406 195.035 L 21.9481 160.527 L 15.3401 126.112 L 10.696 93.4069 L 8.48108 64.2205 L 9.09558 40.3386 L 12.8175 23.2571 L 19.7507 13.9107 L 29.7911 12.481 L 42.6221 18.3499 L 57.744 30.2247 L 74.5334 46.3992 L 92.3179 65.067 L 110.45 84.5945 L 128.363 103.694 L 145.608 121.484 L 161.861 137.46 L 176.916 151.415 L 190.668 163.352 L 203.089 173.401 L 214.206 181.758 L 224.082 188.639 L 232.804 194.262 L 240.466 198.825 L 247.168 202.507 L 253.007 205.461 L 258.074 207.82 L 262.454 209.695 L 266.223 211.182 L 269.451 212.361 L 272.199 213.3 L 274.522 214.055 L 276.469 214.676 L 278.083 215.203 L 279.402 215.67 L 280.461 216.107 L 281.289 216.537 L 281.915 216.98 L 282.362 217.451 L 282.653 217.962 L 282.809 218.522 L 282.849 219.138 L 282.789 219.814 L 282.645 220.55 L 282.433 221.347 L 282.167 222.203 L 281.858 223.113 L 281.519 224.073 L 281.161 225.078 L 280.794 226.12 L 280.428 227.191 L 280.07 228.285 L 279.729 229.393 L 279.412 230.505 L 279.125 231.613 L 278.874 232.708 L 278.663 233.781 L 278.496 234.823 L 278.378 235.826 L 278.311 236.78 L 278.296 237.678 L 278.336 238.512 L 278.432 239.273 L 278.585 239.955 L 278.793 240.55 L 279.056 241.053 L 279.374 241.457 L 279.744 241.758 L 280.164 241.95 L 280.632 242.03 L 281.144 241.995 L 281.697 241.842 L 282.286 241.571 L 282.907 241.18 L 283.555 240.671 L 284.225 240.045 L 284.91 239.307 L 285.604 238.459 L 286.301 237.509 L 286.994 236.463 L 287.675 235.33 L 288.338 234.12 L 288.974 232.845 L 289.577 231.516 L 290.139 230.148 L 290.652 228.756 L 291.111 227.356 L 291.508 225.964 L 291.837 224.597 L 292.092 223.272 L 292.271 222.006 L 292.367 220.816 L 292.379 219.718 L 292.305 218.727 L 292.145 217.856 L 291.897 217.117 L 291.565 216.52 L 291.152 216.074 L 290.66 215.785 L 290.095 215.657 L 289.464 215.691 L 288.773 215.887 L 288.03 216.242 L 287.243 216.753 L 286.422 217.411 L 285.576 218.209 L 284.713 219.138 L 283.845 220.187 L 282.981 221.344 L 282.129 222.596 L 281.299 223.93 L 280.499 225.332 L 279.738 226.789 L 279.023 228.286 L 278.362 229.81 L 277.759 231.347 L 277.221 232.883 L 276.753 234.404 L 276.359 235.898 L 276.042 237.353 L 275.805 238.755 L 275.649 240.092 L 275.578 241.355 L 275.59 242.531 L 275.687 243.609 L 275.868 244.581 L 276.132 245.436 L 276.478 246.165 L 276.903 246.76 L 277.405 247.213 L 277.98 247.517 L 278.626 247.665 L 279.337 247.653 L 280.109 247.476 L 280.936 247.13 L 281.812 246.613 L 282.73 245.926 L 283.683 245.068 L 284.663 244.043 L 285.662 242.856 L 286.669 241.512 L 287.676 240.021 L 288.672 238.393 L 289.646 236.643 L 290.587 234.786 L 291.485 232.839 L 292.327 230.824 L 293.102 228.761 L 293.8 226.677 L 294.409 224.595 L 294.92 222.544 L 295.324 220.549 L 295.613 218.639 L 295.78 216.841 L 295.82 215.18 L 295.729 213.68 L 295.507 212.364 L 295.153 211.251 L 294.669 210.358 L 294.06 209.696 L 293.332 209.275 L 292.493 209.099 L 291.553 209.171 L 290.523 209.488 L 289.416 210.043 L 288.245 210.827 L 287.024 211.828 L 285.768 213.032 L 284.492 214.423 L 283.212 215.982 L 281.94 217.689 L 280.691 219.526 L 279.48 221.473 L 278.316 223.507 L 277.213 225.611 L 276.181 227.763 L 275.228 229.945 L 274.363 232.138 L 273.593 234.324 L 272.923 236.486 L 272.359 238.607 L 271.904 240.67 L 271.562 242.662 L 271.333 244.566 L 271.221 246.37 L 271.225 248.058 L 271.345 249.618 L 271.58 251.037 L 271.93 252.302 L 272.391 253.401 L 272.963 254.323 L 273.641 255.056 L 274.421 255.59 L 275.301 255.915 L 276.274 256.021 L 277.335 255.9 L 278.478 255.545 L 279.695 254.949 L 280.979 254.109 L 282.321 253.022 L 283.71 251.688 L 285.136 250.108 L 286.587 248.289 L 288.049 246.238 L 289.509 243.967 L 290.951 241.491 L 292.36 238.832 L 293.718 236.011 L 295.008 233.059 L 296.213 230.006 L 297.314 226.889 L 298.295 223.748 L 299.137 220.625 L 299.825 217.565 L 300.344 214.613 L 300.682 211.816 L 300.829 209.216 L 300.776 206.857 L 300.52 204.777 L 300.058 203.009 L 299.394 201.582 L 298.533 200.516 L 297.484 199.827 L 296.26 199.522 L 294.876 199.601 L 293.351 200.057 L 291.706 200.877 L 289.962 202.043 L 288.143 203.532 L 286.272 205.317 L 284.374 207.37 L 282.472 209.66 L 280.588 212.154 L 278.743 214.822 L 276.958 217.632 L 275.249 220.554 L 273.633 223.56 L 272.124 226.621 L 270.734 229.712 L 269.472 232.809 L 268.347 235.889 L 267.365 238.932 L 266.531 241.917 L 265.849 244.827 L 265.322 247.643 L 264.95 250.348 L 264.735 252.927 L 264.675 255.364 L 264.77 257.643 L 265.019 259.75 L 265.419 261.669 L 265.969 263.385 L 266.665 264.883 L 267.506 266.148 L 268.486 267.166 L 269.602 267.92 L 270.851 268.395 L 272.225 268.577 L 273.721 268.452 L 275.331 268.005 L 277.047 267.224 L 278.861 266.098 L 280.761 264.617 L 282.738 262.775 L 284.777 260.569 L 286.862 257.999 L 288.978 255.07 L 291.103 251.793 L 293.219 248.185 L 295.299 244.27 L 297.321 240.081 L 299.256 235.658 L 301.077 231.048 L 302.753 226.309 L 304.256 221.506 L 305.555 216.708 L 306.623 211.994 L 307.433 207.442 L 307.962 203.133 L 308.19 199.147 L 308.103 195.559 L 307.692 192.435 L 306.954 189.834 L 305.893 187.801 L 304.519 186.368 L 302.849 185.553 L 300.906 185.358 L 298.721 185.772 L 296.325 186.771 L 293.756 188.32 L 291.053 190.375 L 288.257 192.887 L 285.408 195.802 L 282.544 199.065 L 279.703 202.622 L 276.92 206.418 L 274.224 210.403 L 271.644 214.532 L 269.202 218.761 L 266.918 223.052 L 264.807 227.372 L 262.882 231.69 L 261.152 235.979 L 259.622 240.215 L 258.298 244.378 L 257.18 248.447 L 256.269 252.407 L 255.563 256.24 L 255.061 259.932 L 254.761 263.468 L 254.658 266.833 L 254.749 270.013 L 255.032 272.993 L 255.503 275.759 L 256.159 278.294 L 256.997 280.582 L 258.013 282.605 L 259.206 284.345 L 260.573 285.781 L 262.112 286.893 L 263.819 287.657 L 265.691 288.052 L 267.726 288.052 L 269.918 287.632 L 272.262 286.768 L 274.752 285.433 L 277.377 283.604 L 280.129 281.259 L 282.992 278.377 L 285.951 274.943 L 288.986 270.949 L 292.074 266.391 L 295.186 261.277 L 298.291 255.627 L 301.352 249.473 L 304.329 242.865 L 307.175 235.868 L 309.842 228.566 L 312.279 221.063 L 314.433 213.477 L 316.248 205.945 L 317.676 198.613 L 318.666 191.637 L 319.178 185.171 L 319.179 179.362 L 318.645 174.345 L 317.566 170.232 L 315.946 167.109 L 313.802 165.029 L 311.164 164.013 L 308.077 164.047 L 304.595 165.087 L 300.784 167.064 L 296.714 169.888 L 292.457 173.454 L 288.086 177.655 L 283.674 182.378 L 279.286 187.518 L 274.982 192.977 L 270.815 198.667 L 266.828 204.511 L 263.058 210.444 L 259.533 216.412 L 256.272 222.372 L 253.289 228.287 L 250.591 234.131 L 248.18 239.881 L 246.056 245.52 L 244.213 251.033 L 242.644 256.411 L 241.341 261.644 L 240.294 266.724 L 239.492 271.644 L 238.927 276.397 L 238.589 280.976 L 238.468 285.375 L 238.558 289.584 L 238.85 293.595 L 239.34 297.4 L 240.023 300.986 L 240.897 304.342 L 241.958 307.453 L 243.207 310.303 L 244.643 312.874 L 246.268 315.146 L 248.084 317.094 L 250.095 318.693 L 252.303 319.912 L 254.713 320.718 L 257.327 321.075 L 260.151 320.941 L 263.186 320.272 L 266.434 319.02 L 269.895 317.133 L 273.567 314.558 L 277.444 311.239 L 281.517 307.121 L 285.771 302.151 L 290.185 296.284 L 294.733 289.482 L 299.379 281.721 L 304.076 272.997 L 308.771 263.332 L 313.398 252.78 L 317.877 241.433 L 322.123 229.429 L 326.036 216.952 L 329.512 204.234 L 332.44 191.555 L 334.713 179.229 L 336.227 167.596 L 336.891 156.998 L 336.631 147.761 L 335.4 140.168 L 333.182 134.434 L 329.991 130.695 L 325.878 128.992 L 320.927 129.273 L 315.249 131.402 L 308.977 135.177 L 302.259 140.351 L 295.247 146.655 L 288.089 153.823 L 280.925 161.606 L 273.877 169.784 L 267.052 178.174 L 260.532 186.632 L 254.382 195.047 L 248.646 203.341 L 243.351 211.461 L 238.509 219.375 L 234.119 227.066 L 230.171 234.527 L 226.647 241.759 L 223.525 248.768 L 220.777 255.56 L 218.376 262.146 L 216.292 268.534 L 214.496 274.734 L 212.961 280.753 " fill="none" stroke="black" />
</svg>
