<svg xmlns="http://www.w3.org/2000/svg" version="1.1" width="602" height="602">
<path d="M 10.6774 601 l 9.67742 -9.67742 l 19.3548 0 l 9.67742 9.67742 l 9.67742 -9.67742 l -9.67742 -9.67742 l 0 -19.3548 l 9.67742 -9.67742 l 19.3548 0 l 9.67742 9.67742 l 0 19.3548 l -9.67742 9.67742 l 9.67742 9.67742 l 9.67742 -9.67742 l 19.3548 0 l 9.67742 9.67742 l 9.67742 -9.67742 l -9.67742 -9.67742 l 0 -19.3548 l 9.67742 -9.67742 l -9.67742 -9.67742 l -9.67742 9.67742 l -19.3548 0 l -9.67742 -9.67742 l 0 -19.3548 l 9.67742 -9.67742 l 19.3548 0 l 9.67742 9.67742 l 9.67742 -9.67742 l -9.67742 -9.67742 l 0 -19.3548 l 9.67742 -9.67742 l 19.3548 0 l 9.67742 9.67742 l 0 19.3548 l -9.67742 9.67742 l 9.67742 9.67742 l 9.67742 -9.67742 l 19.3548 0 l 9.67742 9.67742 l 0 19.3548 l -9.67742 9.67742 l -19.3548 0 l -9.67742 -9.67742 l -9.67742 9.67742 l 9.67742 9.67742 l 0 19.3548 l -9.67742 9.67742 l 9.67742 9.67742 l 9.67742 -9.67742 l 19.3548 0 l 9.67742 9.67742 l 9.67742 -9.67742 l -9.67742 -9.67742 l 0 -19.3548 l 9.67742 -9.67742 l 19.3548 0 l 9.67742 9.67742 l 0 19.3548 l -9.67742 9.67742 l 9.67742 9.67742 l 9.67742 -9.67742 l 19.3548 0 l 9.67742 9.67742 l 9.67742 -9.67742 l -9.67742 -9.67742 l 0 -19.3548 l 9.67742 -9.67742 l -9.67742 -9.67742 l -9.67742 9.67742 l -19.3548 0 l -9.67742 -9.67742 l 0 -19.3548 l 9.67742 -9.67742 l 19.3548 0 l 9.67742 9.67742 l 9.67742 -9.67742 l -9.67742 -9.67742 l 0 -19.3548 l 9.67742 -9.67742 l -9.67742 -9.67742 l -9.67742 9.67742 l -19.3548 0 l -9.67742 -9.67742 l -9.67742 9.67742 l 9.67742 9.67742 l 0 19.3548 l -9.67742 9.67742 l -19.3548 0 l -9.67742 -9.67742 l 0 -19.3548 l 9.67742 -9.67742 l -9.67742 -9.67742 l -9.67742 9.67742 l -19.3548 0 l -9.67742 -9.67742 l 0 -19.3548 l 9.67742 -9.67742 l 19.3548 0 l 9.67742 9.67742 l 9.67742 -9.67742 l -9.67742 -9.67742 l 0 -19.3548 l 9.67742 -9.67742 l 19.3548 0 l 9.67742 9.67742 l 0 19.3548 l -9.67742 9.67742 l 9.67742 9.67742 l 9.67742 -9.67742 l 19.3548 0 l 9.67742 9.67742 l 9.67742 -9.67742 l -9.67742 -9.67742 l 0 -19.3548 l 9.67742 -9.67742 l -9.67742 -9.67742 l -9.67742 9.67742 l -19.3548 0 l -9.67742 -9.67742 l 0 -19.3548 l 9.67742 -9.67742 l 19.3548 0 l 9.67742 9.67742 l 9.67742 -9.67742 l -9.67742 -9.67742 l 0 -19.3548 l 9.67742 -9.67742 l 19.3548 0 l 9.67742 9.67742 l 0 19.3548 l -9.67742 9.67742 l 9.67742 9.67742 l 9.67742 -9.67742 l 19.3548 0 l 9.67742 9.67742 l 0 19.3548 l -9.67742 9.67742 l -19.3548 0 l -9.67742 -9.67742 l -9.67742 9.67742 l 9.67742 9.67742 l 0 19.3548 l -9.67742 9.67742 l 9.67742 9.67742 l 9.67742 -9.67742 l 19.3548 0 l 9.67742 9.67742 l 9.67742 -9.67742 l -9.67742 -9.67742 l 0 -19.3548 l 9.67742 -9.67742 l 19.3548 0 l 9.67742 9.67742 l 0 19.3548 l -9.67742 9.67742 l 9.67742 9.67742 l 9.67742 -9.67742 l 19.3548 0 l 9.67742 9.67742 l 0 19.3548 l -9.67742 9.67742 l -19.3548 0 l -9.67742 -9.67742 l -9.67742 9.67742 l 9.67742 9.67742 l 0 19.3548 l -9.67742 9.67742 l -19.3548 0 l -9.67742 -9.67742 l 0 -19.3548 l 9.67742 -9.67742 l -9.67742 -9.67742 l -9.67742 9.67742 l -19.3548 0 l -9.67742 -9.67742 l -9.67742 9.67742 l 9.67742 9.67742 l 0 19.3548 l -9.67742 9.67742 l 9.67742 9.67742 l 9.67742 -9.67742 l 19.3548 0 l 9.67742 9.67742 l 0 19.3548 l -9.67742 9.67742 l -19.3548 0 l -9.67742 -9.67742 l -9.67742 9.67742 l 9.67742 9.67742 l 0 19.3548 l -9.67742 9.67742 l 9.67742 9.67742 l 9.67742 -9.67742 l 19.3548 0 l 9.67742 9.67742 l 9.67742 -9.67742 l -9.67742 -9.67742 l 0 -19.3548 l 9.67742 -9.67742 l 19.3548 0 l 9.67742 9.67742 l 0 19.3548 l -9.67742 9.67742 l 9.67742 9.67742 l 9.67742 -9.67742 l 19.3548 0 l 9.67742 9.67742 l 9.67742 -9.67742 l -9.67742 -9.67742 l 0 -19.3548 l 9.67742 -9.67742 l -9.67742 -9.67742 l -9.67742 9.67742 l -19.3548 0 l -9.67742 -9.67742 l 0 -19.3548 l 9.67742 -9.67742 l 19.3548 0 l 9.67742 9.67742 l 9.67742 -9.67742 l -9.67742 -9.67742 l 0 -19.3548 l 9.67742 -9.67742 l 19.3548 0 l 9.67742 9.67742 l 0 19.3548 l -9.67742 9.67742 l 9.67742 9.67742 l 9.67742 -9.67742 l 19.3548 0 l 9.67742 9.67742 l 0 19.3548 l -9.67742 9.67742 l -19.3548 0 l -9.67742 -9.67742 l -9.67742 9.67742 l 9.67742 9.67742 l 0 19.3548 l -9.67742 9.67742 l 9.67742 9.67742 l 9.67742 -9.67742 l 19.3548 0 l 9.67742 9.67742 l 9.67742 -9.67742 l -9.67742 -9.67742 l 0 -19.3548 l 9.67742 -9.67742 l 19.3548 0 l 9.67742 9.67742 l 0 19.3548 l -9.67742 9.67742 l 9.67742 9.67742 l 9.67742 -9.67742 l 19.3548 0 l 9.67742 9.67742 l 9.67742 -9.67742 l -9.67742 -9.67742 l 0 -19.3548 l 9.67742 -9.67742 l -9.67742 -9.67742 l -9.67742 9.67742 l -19.3548 0 l -9.67742 -9.67742 l 0 -19.3548 l 9.67742 -9.67742 l 19.3548 0 l 9.67742 9.67742 l 9.67742 -9.67742 l -9.67742 -9.67742 l 0 -19.3548 l 9.67742 -9.67742 l -9.67742 -9.67742 l -9.67742 9.67742 l -19.3548 0 l -9.67742 -9.67742 l -9.67742 9.67742 l 9.67742 9.67742 l 0 19.3548 l -9.67742 9.67742 l -19.3548 0 l -9.67742 -9.67742 l 0 -19.3548 l 9.67742 -9.67742 l -9.67742 -9.67742 l -9.67742 9.67742 l -19.3548 0 l -9.67742 -9.67742 l 0 -19.3548 l 9.67742 -9.67742 l 19.3548 0 l 9.67742 9.67742 l 9.67742 -9.67742 l -9.67742 -9.67742 l 0 -19.3548 l 9.67742 -9.67742 l 19.3548 0 l 9.67742 9.67742 l 0 19.3548 l -9.67742 9.67742 l 9.67742 9.67742 l 9.67742 -9.67742 l 19.3548 0 l 9.67742 9.67742 l 9.67742 -9.67742 l -9.67742 -9.67742 l 0 -19.3548 l 9.67742 -9.67742 l -9.67742 -9.67742 l -9.67742 9.67742 l -19.3548 0 l -9.67742 -9.67742 l 0 -19.3548 l 9.67742 -9.67742 l 19.3548 0 l 9.67742 9.67742 l 9.67742 -9.67742 l -9.67742 -9.67742 l 0 -19.3548 l 9.67742 -9.67742 l -9.67742 -9.67742 l -9.67742 9.67742 l -19.3548 0 l -9.67742 -9.67742 l -9.67742 9.67742 l 9.67742 9.67742 l 0 19.3548 l -9.67742 9.67742 l -19.3548 0 l -9.67742 -9.67742 l 0 -19.3548 l 9.67742 -9.67742 l -9.67742 -9.67742 l -9.67742 9.67742 l -19.3548 0 l -9.67742 -9.67742 l -9.67742 9.67742 l 9.67742 9.67742 l 0 19.3548 l -9.67742 9.67742 l 9.67742 9.67742 l 9.67742 -9.67742 l 19.3548 0 l 9.67742 9.67742 l 0 19.3548 l -9.67742 9.67742 l -19.3548 0 l -9.67742 -9.67742 l -9.67742 9.67742 l 9.67742 9.67742 l 0 19.3548 l -9.67742 9.67742 l -19.3548 0 l -9.67742 -9.67742 l 0 -19.3548 l 9.67742 -9.67742 l -9.67742 -9.67742 l -9.67742 9.67742 l -19.3548 0 l -9.67742 -9.67742 l 0 -19.3548 l 9.67742 -9.67742 l 19.3548 0 l 9.67742 9.67742 l 9.67742 -9.67742 l -9.67742 -9.67742 l 0 -19.3548 l 9.67742 -9.67742 l -9.67742 -9.67742 l -9.67742 9.67742 l -19.3548 0 l -9.67742 -9.67742 l -9.67742 9.67742 l 9.67742 9.67742 l 0 19.3548 l -9.67742 9.67742 l -19.3548 0 l -9.67742 -9.67742 l 0 -19.3548 l 9.67742 -9.67742 l -9.67742 -9.67742 l -9.67742 9.67742 l -19.3548 0 l -9.67742 -9.67742 l 0 -19.3548 l 9.67742 -9.67742 l 19.3548 0 l 9.67742 9.67742 l 9.67742 -9.67742 l -9.67742 -9.67742 l 0 -19.3548 l 9.67742 -9.67742 l 19.3548 0 l 9.67742 9.67742 l 0 19.3548 l -9.67742 9.67742 l 9.67742 9.67742 l 9.67742 -9.67742 l 19.3548 0 l 9.67742 9.67742 l 9.67742 -9.67742 l -9.67742 -9.67742 l 0 -19.3548 l 9.67742 -9.67742 l -9.67742 -9.67742 l -9.67742 9.67742 l -19.3548 0 l -9.67742 -9.67742 l 0 -19.3548 l 9.67742 -9.67742 l 19.3548 0 l 9.67742 9.67742 l 9.67742 -9.67742 l -9.67742 -9.67742 l 0 -19.3548 l 9.67742 -9.67742 l 19.3548 0 l 9.67742 9.67742 l 0 19.3548 l -9.67742 9.67742 l 9.67742 9.67742 l 9.67742 -9.67742 l 19.3548 0 l 9.67742 9.67742 l 0 19.3548 l -9.67742 9.67742 l -19.3548 0 l -9.67742 -9.67742 l -9.67742 9.67742 l 9.67742 9.67742 l 0 19.3548 l -9.67742 9.67742 l 9.67742 9.67742 l 9.67742 -9.67742 l 19.3548 0 l 9.67742 9.67742 l 9.67742 -9.67742 l -9.67742 -9.67742 l 0 -19.3548 l 9.67742 -9.67742 l 19.3548 0 l 9.67742 9.67742 l 0 19.3548 l -9.67742 9.67742 l 9.67742 9.67742 l 9.67742 -9.67742 l 19.3548 0 l 9.67742 9.67742 l 9.67742 -9.67742 l -9.67742 -9.67742 l 0 -19.3548 l 9.67742 -9.67742 l -9.67742 -9.67742 l -9.67742 9.67742 l -19.3548 0 l -9.67742 -9.67742 l 0 -19.3548 l 9.67742 -9.67742 l 19.3548 0 l 9.67742 9.67742 l 9.67742 -9.67742 l -9.67742 -9.67742 l 0 -19.3548 l 9.67742 -9.67742 l -9.67742 -9.67742 l -9.67742 9.67742 l -19.3548 0 l -9.67742 -9.67742 l -9.67742 9.67742 l 9.67742 9.67742 l 0 19.3548 l -9.67742 9.67742 l -19.3548 0 l -9.67742 -9.67742 l 0 -19.3548 l 9.67742 -9.67742 l -9.67742 -9.67742 l -9.67742 9.67742 l -19.3548 0 l -9.67742 -9.67742 l 0 -19.3548 l 9.67742 -9.67742 l 19.3548 0 l 9.67742 9.67742 l 9.67742 -9.67742 l -9.67742 -9.67742 l 0 -19.3548 l 9.67742 -9.67742 l 19.3548 0 l 9.67742 9.67742 l 0 19.3548 l -9.67742 9.67742 l 9.67742 9.67742 l 9.67742 -9.67742 l 19.3548 0 l 9.67742 9.67742 l 9.67742 -9.67742 l -9.67742 -9.67742 l 0 -19.3548 l 9.67742 -9.67742 l -9.67742 -9.67742 l -9.67742 9.67742 l -19.3548 0 l -9.67742 -9.67742 l 0 -19.3548 l 9.67742 -9.67742 l 19.3548 0 l 9.67742 9.67742 l 9.67742 -9.67742 l -9.67742 -9.67742 l 0 -19.3548 l 9.67742 -9.67742 l -9.67742 -9.67742 l -9.67742 9.67742 l -19.3548 0 l -9.67742 -9.67742 l -9.67742 9.67742 l 9.67742 9.67742 l 0 19.3548 l -9.67742 9.67742 l -19.3548 0 l -9.67742 -9.67742 l 0 -19.3548 l 9.67742 -9.67742 l -9.67742 -9.67742 l -9.67742 9.67742 l -19.3548 0 l -9.67742 -9.67742 l -9.67742 9.67742 l 9.67742 9.67742 l 0 19.3548 l -9.67742 9.67742 l 9.67742 9.67742 l 9.67742 -9.67742 l 19.3548 0 l 9.67742 9.67742 l 0 19.3548 l -9.67742 9.67742 l -19.3548 0 l -9.67742 -9.67742 l -9.67742 9.67742 l 9.67742 9.67742 l 0 19.3548 l -9.67742 9.67742 l -19.3548 0 l -9.67742 -9.67742 l 0 -19.3548 l 9.67742 -9.67742 l -9.67742 -9.67742 l -9.67742 9.67742 l -19.3548 0 l -9.67742 -9.67742 l 0 -19.3548 l 9.67742 -9.67742 l 19.3548 0 l 9.67742 9.67742 l 9.67742 -9.67742 l -9.67742 -9.67742 l 0 -19.3548 l 9.67742 -9.67742 l -9.67742 -9.67742 l -9.67742 9.67742 l -19.3548 0 l -9.67742 -9.67742 l -9.67742 9.67742 l 9.67742 9.67742 l 0 19.3548 l -9.67742 9.67742 l -19.3548 0 l -9.67742 -9.67742 l 0 -19.3548 l 9.67742 -9.67742 l -9.67742 -9.67742 l -9.67742 9.67742 l -19.3548 0 l -9.67742 -9.67742 l -9.67742 9.67742 l 9.67742 9.67742 l 0 19.3548 l -9.67742 9.67742 l 9.67742 9.67742 l 9.67742 -9.67742 l 19.3548 0 l 9.67742 9.67742 l 0 19.3548 l -9.67742 9.67742 l -19.3548 0 l -9.67742 -9.67742 l -9.67742 9.67742 l 9.67742 9.67742 l 0 19.3548 l -9.67742 9.67742 l 9.67742 9.67742 l 9.67742 -9.67742 l 19.3548 0 l 9.67742 9.67742 l 9.67742 -9.67742 l -9.67742 -9.67742 l 0 -19.3548 l 9.67742 -9.67742 l 19.3548 0 l 9.67742 9.67742 l 0 19.3548 l -9.67742 9.67742 l 9.67742 9.67742 l 9.67742 -9.67742 l 19.3548 0 l 9.67742 9.67742 l 0 19.3548 l -9.67742 9.67742 l -19.3548 0 l -9.67742 -9.67742 l -9.67742 9.67742 l 9.67742 9.67742 l 0 19.3548 l -9.67742 9.67742 l -19.3548 0 l -9.67742 -9.67742 l 0 -19.3548 l 9.67742 -9.67742 l -9.67742 -9.67742 l -9.67742 9.67742 l -19.3548 0 l -9.67742 -9.67742 l -9.67742 9.67742 l 9.67742 9.67742 l 0 19.3548 l -9.67742 9.67742 l 9.67742 9.67742 l 9.67742 -9.67742 l 19.3548 0 l 9.67742 9.67742 l 0 19.3548 l -9.67742 9.67742 l -19.3548 0 l -9.67742 -9.67742 l -9.67742 9.67742 l 9.67742 9.67742 l 0 19.3548 l -9.67742 9.67742 l -19.3548 0 l -9.67742 -9.67742 l 0 -19.3548 l 9.67742 -9.67742 l -9.67742 -9.67742 l -9.67742 9.67742 l -19.3548 0 l -9.67742 -9.67742 l 0 -19.3548 l 9.67742 -9.67742 l 19.3548 0 l 9.67742 9.67742 l 9.67742 -9.67742 l -9.67742 -9.67742 l 0 -19.3548 l 9.67742 -9.67742 l -9.67742 -9.67742 l -9.67742 9.67742 l -19.3548 0 l -9.67742 -9.67742 l -9.67742 9.67742 l 9.67742 9.67742 l 0 19.3548 l -9.67742 9.67742 l -19.3548 0 l -9.67742 -9.67742 l 0 -19.3548 l 9.67742 -9.67742 l -9.67742 -9.67742 l -9.67742 9.67742 l -19.3548 0 l -9.67742 -9.67742 l 0 -19.3548 l 9.67742 -9.67742 l 19.3548 0 l 9.67742 9.67742 l 9.67742 -9.67742 l -9.67742 -9.67742 l 0 -19.3548 l 9.67742 -9.67742 l 19.3548 0 l 9.67742 9.67742 l 0 19.3548 l -9.67742 9.67742 l 9.67742 9.67742 l 9.67742 -9.67742 l 19.3548 0 l 9.67742 9.67742 l 9.67742 -9.67742 l -9.67742 -9.67742 l 0 -19.3548 l 9.67742 -9.67742 l -9.67742 -9.67742 l -9.67742 9.67742 l -19.3548 0 l -9.67742 -9.67742 l 0 -19.3548 l 9.67742 -9.67742 l 19.3548 0 l 9.67742 9.67742 l 9.67742 -9.67742 l -9.67742 -9.67742 l 0 -19.3548 l 9.67742 -9.67742 l -9.67742 -9.67742 l -9.67742 9.67742 l -19.3548 0 l -9.67742 -9.67742 l -9.67742 9.67742 l 9.67742 9.67742 l 0 19.3548 l -9.67742 9.67742 l -19.3548 0 l -9.67742 -9.67742 l 0 -19.3548 l 9.67742 -9.67742 l -9.67742 -9.67742 l -9.67742 9.67742 l -19.3548 0 l -9.67742 -9.67742 l -9.67742 9.67742 l 9.67742 9.67742 l 0 19.3548 l -9.67742 9.67742 l 9.67742 9.67742 l 9.67742 -9.67742 l 19.3548 0 l 9.67742 9.67742 l 0 19.3548 l -9.67742 9.67742 l -19.3548 0 l -9.67742 -9.67742 l -9.67742 9.67742 l 9.67742 9.67742 l 0 19.3548 l -9.67742 9.67742 l -19.3548 0 l -9.67742 -9.67742 l 0 -19.3548 l 9.67742 -9.67742 l -9.67742 -9.67742 l -9.67742 9.67742 l -19.3548 0 l -9.67742 -9.67742 l 0 -19.3548 l 9.67742 -9.67742 l 19.3548 0 l 9.67742 9.67742 l 9.67742 -9.67742 l -9.67742 -9.67742 l 0 -19.3548 l 9.67742 -9.67742 l -9.67742 -9.67742 l -9.67742 9.67742 l -19.3548 0 l -9.67742 -9.67742 l -9.67742 9.67742 l 9.67742 9.67742 l 0 19.3548 l -9.67742 9.67742 l -19.3548 0 l -9.67742 -9.67742 l 0 -19.3548 l 9.67742 -9.67742 l -9.67742 -9.67742 l -9.67742 9.67742 l -19.3548 0 l -9.67742 -9.67742 l -9.67742 9.67742 l 9.67742 9.67742 l 0 19.3548 l -9.67742 9.67742 l 9.67742 9.67742 l 9.67742 -9.67742 l 19.3548 0 l 9.67742 9.67742 l 0 19.3548 l -9.67742 9.67742 l -19.3548 0 l -9.67742 -9.67742 l -9.67742 9.67742 l 9.67742 9.67742 l 0 19.3548 l -9.67742 9.67742 l 9.67742 9.67742 l 9.67742 -9.67742 l 19.3548 0 l 9.67742 9.67742 l 9.67742 -9.67742 l -9.67742 -9.67742 l 0 -19.3548 l 9.67742 -9.67742 l 19.3548 0 l 9.67742 9.67742 l 0 19.3548 l -9.67742 9.67742 l 9.67742 9.67742 l 9.67742 -9.67742 l 19.3548 0 l 9.67742 9.67742 l 0 19.3548 l -9.67742 9.67742 l -19.3548 0 l -9.67742 -9.67742 l -9.67742 9.67742 l 9.67742 9.67742 l 0 19.3548 l -9.67742 9.67742 l -19.3548 0 l -9.67742 -9.67742 l 0 -19.3548 l 9.67742 -9.67742 l -9.67742 -9.67742 l -9.67742 9.67742 l -19.3548 0 l -9.67742 -9.67742 l -9.67742 9.67742 l 9.67742 9.67742 l 0 19.3548 l -9.67742 9.67742 l 9.67742 9.67742 l 9.67742 -9.67742 l 19.3548 0 l 9.67742 9.67742 l 0 19.3548 l -9.67742 9.67742 l -19.3548 0 l -9.67742 -9.67742 l -9.67742 9.67742 l 9.67742 9.67742 l 0 19.3548 l -9.67742 9.67742 l 9.67742 9.67742 l 9.67742 -9.67742 l 19.3548 0 l 9.67742 9.67742 l 9.67742 -9.67742 l -9.67742 -9.67742 l 0 -19.3548 l 9.67742 -9.67742 l 19.3548 0 l 9.67742 9.67742 l 0 19.3548 l -9.67742 9.67742 l 9.67742 9.67742 l 9.67742 -9.67742 l 19.3548 0 l 9.67742 9.67742 l 9.67742 -9.67742 l -9.67742 -9.67742 l 0 -19.3548 l 9.67742 -9.67742 l -9.67742 -9.67742 l -9.67742 9.67742 l -19.3548 0 l -9.67742 -9.67742 l 0 -19.3548 l 9.67742 -9.67742 l 19.3548 0 l 9.67742 9.67742 l 9.67742 -9.67742 l -9.67742 -9.67742 l 0 -19.3548 l 9.67742 -9.67742 l 19.3548 0 l 9.67742 9.67742 l 0 19.3548 l -9.67742 9.67742 l 9.67742 9.67742 l 9.67742 -9.67742 l 19.3548 0 l 9.67742 9.67742 l 0 19.3548 l -9.67742 9.67742 l -19.3548 0 l -9.67742 -9.67742 l -9.67742 9.67742 l 9.67742 9.67742 l 0 19.3548 l -9.67742 9.67742 l 9.67742 9.67742 l 9.67742 -9.67742 l 19.3548 0 l 9.67742 9.67742 l 9.67742 -9.67742 l -9.67742 -9.67742 l 0 -19.3548 l 9.67742 -9.67742 l 19.3548 0 l 9.67742 9.67742 l 0 19.3548 l -9.67742 9.67742 l 9.67742 9.67742 l 9.67742 -9.67742 l 19.3548 0 l 9.67742 9.67742 l 0 19.3548 l -9.67742 9.67742 l -19.3548 0 l -9.67742 -9.67742 l -9.67742 9.67742 l 9.67742 9.67742 l 0 19.3548 l -9.67742 9.67742 l -19.3548 0 l -9.67742 -9.67742 l 0 -19.3548 l 9.67742 -9.67742 l -9.67742 -9.67742 l -9.67742 9.67742 l -19.3548 0 l -9.67742 -9.67742 l -9.67742 9.67742 l 9.67742 9.67742 l 0 19.3548 l -9.67742 9.67742 l 9.67742 9.67742 l 9.67742 -9.67742 l 19.3548 0 l 9.67742 9.67742 l 0 19.3548 l -9.67742 9.67742 l -19.3548 0 l -9.67742 -9.67742 l -9.67742 9.67742 l 9.67742 9.67742 l 0 19.3548 l -9.67742 9.67742 l -19.3548 0 l -9.67742 -9.67742 l 0 -19.3548 l 9.67742 -9.67742 l -9.67742 -9.67742 l -9.67742 9.67742 l -19.3548 0 l -9.67742 -9.67742 l 0 -19.3548 l 9.67742 -9.67742 l 19.3548 0 l 9.67742 9.67742 l 9.67742 -9.67742 l -9.67742 -9.67742 l 0 -19.3548 l 9.67742 -9.67742 l -9.67742 -9.67742 l -9.67742 9.67742 l -19.3548 0 l -9.67742 -9.67742 l -9.67742 9.67742 l 9.67742 9.67742 l 0 19.3548 l -9.67742 9.67742 l -19.3548 0 l -9.67742 -9.67742 l 0 -19.3548 l 9.67742 -9.67742 l -9.67742 -9.67742 l -9.67742 9.67742 l -19.3548 0 l -9.67742 -9.67742 l -9.67742 9.67742 l 9.67742 9.67742 l 0 19.3548 l -9.67742 9.67742 l 9.67742 9.67742 l 9.67742 -9.67742 l 19.3548 0 l 9.67742 9.67742 l 0 19.3548 l -9.67742 9.67742 l -19.3548 0 l -9.67742 -9.67742 l -9.67742 9.67742 l 9.67742 9.67742 l 0 19.3548 l -9.67742 9.67742 l 9.67742 9.67742 l 9.67742 -9.67742 l 19.3548 0 l 9.67742 9.67742 l 9.67742 -9.67742 l -9.67742 -9.67742 l 0 -19.3548 l 9.67742 -9.67742 l 19.3548 0 l 9.67742 9.67742 l 0 19.3548 l -9.67742 9.67742 l 9.67742 9.67742 l 9.67742 -9.67742 l 19.3548 0 l 9.67742 9.67742 l 0 19.3548 l -9.67742 9.67742 l -19.3548 0 l -9.67742 -9.67742 l -9.67742 9.67742 l 9.67742 9.67742 l 0 19.3548 l -9.67742 9.67742 l -19.3548 0 l -9.67742 -9.67742 l 0 -19.3548 l 9.67742 -9.67742 l -9.67742 -9.67742 l -9.67742 9.67742 l -19.3548 0 l -9.67742 -9.67742 l -9.67742 9.67742 l 9.67742 9.67742 l 0 19.3548 l -9.67742 9.67742 l 9.67742 9.67742 l 9.67742 -9.67742 l 19.3548 0 l 9.67742 9.67742 l 0 19.3548 l -9.67742 9.67742 l -19.3548 0 l -9.67742 -9.67742 l -9.67742 9.67742 l 9.67742 9.67742 l 0 19.3548 l -9.67742 9.67742 l 9.67742 9.67742 Z" fill="none" stroke="black" />
</svg>
