<svg xmlns="http://www.w3.org/2000/svg" version="1.1" width="602" height="602">
<path d="M 5.7619 601 l 4.7619 -4.7619 l 9.52381 0 l 4.7619 4.7619 l 4.7619 -4.7619 l -4.7619 -4.7619 l 0 -9.52381 l 4.7619 -4.7619 l 9.52381 0 l 4.7619 4.7619 l 0 9.52381 l -4.7619 4.7619 l 4.7619 4.7619 l 4.7619 -4.7619 l 9.52381 0 l 4.7619 4.7619 l 4.7619 -4.7619 l -4.7619 -4.7619 l 0 -9.52381 l 4.7619 -4.7619 l -4.7619 -4.7619 l -4.7619 4.7619 l -9.52381 0 l -4.7619 -4.7619 l 0 -9.52381 l 4.7619 -4.7619 l 9.52381 0 l 4.7619 4.7619 l 4.7619 -4.7619 l -4.7619 -4.7619 l 0 -9.52381 l 4.7619 -4.7619 l 9.52381 0 l 4.7619 4.7619 l 0 9.52381 l -4.7619 4.7619 l 4.7619 4.7619 l 4.7619 -4.7619 l 9.52381 0 l 4.7619 4.7619 l 0 9.52381 l -4.7619 4.7619 l -9.52381 0 l -4.7619 -4.7619 l -4.7619 4.7619 l 4.7619 4.7619 l 0 9.52381 l -4.7619 4.7619 l 4.7619 4.7619 l 4.7619 -4.7619 l 9.52381 0 l 4.7619 4.7619 l 4.7619 -4.7619 l -4.7619 -4.7619 l 0 -9.52381 l 4.7619 -4.7619 l 9.52381 0 l 4.7619 4.7619 l 0 9.52381 l -4.7619 4.7619 l 4.7619 4.7619 l 4.7619 -4.7619 l 9.52381 0 l 4.7619 4.7619 l 4.7619 -4.7619 l -4.7619 -4.7619 l 0 -9.52381 l 4.7619 -4.7619 l -4.7619 -4.7619 l -4.7619 4.7619 l -9.52381 0 l -4.7619 -4.7619 l 0 -9.52381 l 4.7619 -4.7619 l 9.52381 0 l 4.7619 4.7619 l 4.7619 -4.7619 l -4.7619 -4.7619 l 0 -9.52381 l 4.7619 -4.7619 l -4.7619 -4.7619 l -4.7619 4.7619 l -9.52381 0 l -4.7619 -4.7619 l -4.7619 4.7619 l 4.7619 4.7619 l 0 9.52381 l -4.7619 4.7619 l -9.52381 0 l -4.7619 -4.7619 l 0 -9.52381 l 4.7619 -4.7619 l -4.7619 -4.7619 l -4.7619 4.7619 l -9.52381 0 l -4.7619 -4.7619 l 0 -9.52381 l 4.7619 -4.7619 l 9.52381 0 l 4.7619 4.7619 l 4.7619 -4.7619 l -4.7619 -4.7619 l 0 -9.52381 l 4.7619 -4.7619 l 9.52381 0 l 4.7619 4.7619 l 0 9.52381 l -4.7619 4.7619 l 4.7619 4.7619 l 4.7619 -4.7619 l 9.52381 0 l 4.7619 4.7619 l 4.7619 -4.7619 l -4.7619 -4.7619 l 0 -9.52381 l 4.7619 -4.7619 l -4.7619 -4.7619 l -4.7619 4.7619 l -9.52381 0 l -4.7619 -4.7619 l 0 -9.52381 l 4.7619 -4.7619 l 9.52381 0 l 4.7619 4.7619 l 4.7619 -4.7619 l -4.7619 -4.7619 l 0 -9.52381 l 4.7619 -4.7619 l 9.52381 0 l 4.7619 4.7619 l 0 9.52381 l -4.7619 4.7619 l 4.7619 4.7619 l 4.7619 -4.7619 l 9.52381 0 l 4.7619 4.7619 l 0 9.52381 l -4.7619 4.7619 l -9.52381 0 l -4.7619 -4.7619 l -4.7619 4.7619 l 4.7619 4.7619 l 0 9.52381 l -4.7619 4.7619 l 4.7619 4.7619 l 4.7619 -4.7619 l 9.52381 0 l 4.7619 4.7619 l 4.7619 -4.7619 l -4.7619 -4.7619 l 0 -9.52381 l 4.7619 -4.7619 l 9.52381 0 l 4.7619 4.7619 l 0 9.52381 l -4.7619 4.7619 l 4.7619 4.7619 l 4.7619 -4.7619 l 9.52381 0 l 4.7619 4.7619 l 0 9.52381 l -4.7619 4.7619 l -9.52381 0 l -4.7619 -4.7619 l -4.7619 4.7619 l 4.7619 4.7619 l 0 9.52381 l -4.7619 4.7619 l -9.52381 0 l -4.7619 -4.7619 l 0 -9.52381 l 4.7619 -4.7619 l -4.7619 -4.7619 l -4.7619 4.7619 l -9.52381 0 l -4.7619 -4.7619 l -4.7619 4.7619 l 4.7619 4.7619 l 0 9.52381 l -4.7619 4.7619 l 4.7619 4.7619 l 4.7619 -4.7619 l 9.52381 0 l 4.7619 4.7619 l 0 9.52381 l -4.7619 4.7619 l -9.52381 0 l -4.7619 -4.7619 l -4.7619 4.7619 l 4.7619 4.7619 l 0 9.52381 l -4.7619 4.7619 l 4.7619 4.7619 l 4.7619 -4.7619 l 9.52381 0 l 4.7619 4.7619 l 4.7619 -4.7619 l -4.7619 -4.7619 l 0 -9.52381 l 4.7619 -4.7619 l 9.52381 0 l 4.7619 4.7619 l 0 9.52381 l -4.7619 4.7619 l 4.7619 4.7619 l 4.7619 -4.7619 l 9.52381 0 l 4.7619 4.7619 l 4.7619 -4.7619 l -4.7619 -4.7619 l 0 -9.52381 l 4.7619 -4.7619 l -4.7619 -4.7619 l -4.7619 4.7619 l -9.52381 0 l -4.7619 -4.7619 l 0 -9.52381 l 4.7619 -4.7619 l 9.52381 0 l 4.7619 4.7619 l 4.7619 -4.7619 l -4.7619 -4.7619 l 0 -9.52381 l 4.7619 -4.7619 l 9.52381 0 l 4.7619 4.7619 l 0 9.52381 l -4.7619 4.7619 l 4.7619 4.7619 l 4.7619 -4.7619 l 9.52381 0 l 4.7619 4.7619 l 0 9.52381 l -4.7619 4.7619 l -9.52381 0 l -4.7619 -4.7619 l -4.7619 4.7619 l 4.7619 4.7619 l 0 9.52381 l -4.7619 4.7619 l 4.7619 4.7619 l 4.7619 -4.7619 l 9.52381 0 l 4.7619 4.7619 l 4.7619 -4.7619 l -4.7619 -4.7619 l 0 -9.52381 l 4.7619 -4.7619 l 9.52381 0 l 4.7619 4.7619 l 0 9.52381 l -4.7619 4.7619 l 4.7619 4.7619 l 4.7619 -4.7619 l 9.52381 0 l 4.7619 4.7619 l 4.7619 -4.7619 l -4.7619 -4.7619 l 0 -9.52381 l 4.7619 -4.7619 l -4.7619 -4.7619 l -4.7619 4.7619 l -9.52381 0 l -4.7619 -4.7619 l 0 -9.52381 l 4.7619 -4.7619 l 9.52381 0 l 4.7619 4.7619 l 4.7619 -4.7619 l -4.7619 -4.7619 l 0 -9.52381 l 4.7619 -4.7619 l -4.7619 -4.7619 l -4.7619 4.7619 l -9.52381 0 l -4.7619 -4.7619 l -4.7619 4.7619 l 4.7619 4.7619 l 0 9.52381 l -4.7619 4.7619 l -9.52381 0 l -4.7619 -4.7619 l 0 -9.52381 l 4.7619 -4.7619 l -4.7619 -4.7619 l -4.7619 4.7619 l -9.52381 0 l -4.7619 -4.7619 l 0 -9.52381 l 4.7619 -4.7619 l 9.52381 0 l 4.7619 4.7619 l 4.7619 -4.7619 l -4.7619 -4.7619 l 0 -9.52381 l 4.7619 -4.7619 l 9.52381 0 l 4.7619 4.7619 l 0 9.52381 l -4.7619 4.7619 l 4.7619 4.7619 l 4.7619 -4.7619 l 9.52381 0 l 4.7619 4.7619 l 4.7619 -4.7619 l -4.7619 -4.7619 l 0 -9.52381 l 4.7619 -4.7619 l -4.7619 -4.7619 l -4.7619 4.7619 l -9.52381 0 l -4.7619 -4.7619 l 0 -9.52381 l 4.7619 -4.7619 l 9.52381 0 l 4.7619 4.7619 l 4.7619 -4.7619 l -4.7619 -4.7619 l 0 -9.52381 l 4.7619 -4.7619 l -4.7619 -4.7619 l -4.7619 4.7619 l -9.52381 0 l -4.7619 -4.7619 l -4.7619 4.7619 l 4.7619 4.7619 l 0 9.52381 l -4.7619 4.7619 l -9.52381 0 l -4.7619 -4.7619 l 0 -9.52381 l 4.7619 -4.7619 l -4.7619 -4.7619 l -4.7619 4.7619 l -9.52381 0 l -4.7619 -4.7619 l -4.7619 4.7619 l 4.7619 4.7619 l 0 9.52381 l -4.7619 4.7619 l 4.7619 4.7619 l 4.7619 -4.7619 l 9.52381 0 l 4.7619 4.7619 l 0 9.52381 l -4.7619 4.7619 l -9.52381 0 l -4.7619 -4.7619 l -4.7619 4.7619 l 4.7619 4.7619 l 0 9.52381 l -4.7619 4.7619 l -9.52381 0 l -4.7619 -4.7619 l 0 -9.52381 l 4.7619 -4.7619 l -4.7619 -4.7619 l -4.7619 4.7619 l -9.52381 0 l -4.7619 -4.7619 l 0 -9.52381 l 4.7619 -4.7619 l 9.52381 0 l 4.7619 4.7619 l 4.7619 -4.7619 l -4.7619 -4.7619 l 0 -9.52381 l 4.7619 -4.7619 l -4.7619 -4.7619 l -4.7619 4.7619 l -9.52381 0 l -4.7619 -4.7619 l -4.7619 4.7619 l 4.7619 4.7619 l 0 9.52381 l -4.7619 4.7619 l -9.52381 0 l -4.7619 -4.7619 l 0 -9.52381 l 4.7619 -4.7619 l -4.7619 -4.7619 l -4.7619 4.7619 l -9.52381 0 l -4.7619 -4.7619 l 0 -9.52381 l 4.7619 -4.7619 l 9.52381 0 l 4.7619 4.7619 l 4.7619 -4.7619 l -4.7619 -4.7619 l 0 -9.52381 l 4.7619 -4.7619 l 9.52381 0 l 4.7619 4.7619 l 0 9.52381 l -4.7619 4.7619 l 4.7619 4.7619 l 4.7619 -4.7619 l 9.52381 0 l 4.7619 4.7619 l 4.7619 -4.7619 l -4.7619 -4.7619 l 0 -9.52381 l 4.7619 -4.7619 l -4.7619 -4.7619 l -4.7619 4.7619 l -9.52381 0 l -4.7619 -4.7619 l 0 -9.52381 l 4.7619 -4.7619 l 9.52381 0 l 4.7619 4.7619 l 4.7619 -4.7619 l -4.7619 -4.7619 l 0 -9.52381 l 4.7619 -4.7619 l 9.52381 0 l 4.7619 4.7619 l 0 9.52381 l -4.7619 4.7619 l 4.7619 4.7619 l 4.7619 -4.7619 l 9.52381 0 l 4.7619 4.7619 l 0 9.52381 l -4.7619 4.7619 l -9.52381 0 l -4.7619 -4.7619 l -4.7619 4.7619 l 4.7619 4.7619 l 0 9.52381 l -4.7619 4.7619 l 4.7619 4.7619 l 4.7619 -4.7619 l 9.52381 0 l 4.7619 4.7619 l 4.7619 -4.7619 l -4.7619 -4.7619 l 0 -9.52381 l 4.7619 -4.7619 l 9.52381 0 l 4.7619 4.7619 l 0 9.52381 l -4.7619 4.7619 l 4.7619 4.7619 l 4.7619 -4.7619 l 9.52381 0 l 4.7619 4.7619 l 4.7619 -4.7619 l -4.7619 -4.7619 l 0 -9.52381 l 4.7619 -4.7619 l -4.7619 -4.7619 l -4.7619 4.7619 l -9.52381 0 l -4.7619 -4.7619 l 0 -9.52381 l 4.7619 -4.7619 l 9.52381 0 l 4.7619 4.7619 l 4.7619 -4.7619 l -4.7619 -4.7619 l 0 -9.52381 l 4.7619 -4.7619 l -4.7619 -4.7619 l -4.7619 4.7619 l -9.52381 0 l -4.7619 -4.7619 l -4.7619 4.7619 l 4.7619 4.7619 l 0 9.52381 l -4.7619 4.7619 l -9.52381 0 l -4.7619 -4.7619 l 0 -9.52381 l 4.7619 -4.7619 l -4.7619 -4.7619 l -4.7619 4.7619 l -9.52381 0 l -4.7619 -4.7619 l 0 -9.52381 l 4.7619 -4.7619 l 9.52381 0 l 4.7619 4.7619 l 4.7619 -4.7619 l -4.7619 -4.7619 l 0 -9.52381 l 4.7619 -4.7619 l 9.52381 0 l 4.7619 4.7619 l 0 9.52381 l -4.7619 4.7619 l 4.7619 4.7619 l 4.7619 -4.7619 l 9.52381 0 l 4.7619 4.7619 l 4.7619 -4.7619 l -4.7619 -4.7619 l 0 -9.52381 l 4.7619 -4.7619 l -4.7619 -4.7619 l -4.7619 4.7619 l -9.52381 0 l -4.7619 -4.7619 l 0 -9.52381 l 4.7619 -4.7619 l 9.52381 0 l 4.7619 4.7619 l 4.7619 -4.7619 l -4.7619 -4.7619 l 0 -9.52381 l 4.7619 -4.7619 l 9.52381 0 l 4.7619 4.7619 l 0 9.52381 l -4.7619 4.7619 l 4.7619 4.7619 l 4.7619 -4.7619 l 9.52381 0 l 4.7619 4.7619 l 0 9.52381 l -4.7619 4.7619 l -9.52381 0 l -4.7619 -4.7619 l -4.7619 4.7619 l 4.7619 4.7619 l 0 9.52381 l -4.7619 4.7619 l 4.7619 4.7619 l 4.7619 -4.7619 l 9.52381 0 l 4.7619 4.7619 l 4.7619 -4.7619 l -4.7619 -4.7619 l 0 -9.52381 l 4.7619 -4.7619 l 9.52381 0 l 4.7619 4.7619 l 0 9.52381 l -4.7619 4.7619 l 4.7619 4.7619 l 4.7619 -4.7619 l 9.52381 0 l 4.7619 4.7619 l 0 9.52381 l -4.7619 4.7619 l -9.52381 0 l -4.7619 -4.7619 l -4.7619 4.7619 l 4.7619 4.7619 l 0 9.52381 l -4.7619 4.7619 l -9.52381 0 l -4.7619 -4.7619 l 0 -9.52381 l 4.7619 -4.7619 l -4.7619 -4.7619 l -4.7619 4.7619 l -9.52381 0 l -4.7619 -4.7619 l -4.7619 4.7619 l 4.7619 4.7619 l 0 9.52381 l -4.7619 4.7619 l 4.7619 4.7619 l 4.7619 -4.7619 l 9.52381 0 l 4.7619 4.7619 l 0 9.52381 l -4.7619 4.7619 l -9.52381 0 l -4.7619 -4.7619 l -4.7619 4.7619 l 4.7619 4.7619 l 0 9.52381 l -4.7619 4.7619 l 4.7619 4.7619 l 4.7619 -4.7619 l 9.52381 0 l 4.7619 4.7619 l 4.7619 -4.7619 l -4.7619 -4.7619 l 0 -9.52381 l 4.7619 -4.7619 l 9.52381 0 l 4.7619 4.7619 l 0 9.52381 l -4.7619 4.7619 l 4.7619 4.7619 l 4.7619 -4.7619 l 9.52381 0 l 4.7619 4.7619 l 4.7619 -4.7619 l -4.7619 -4.7619 l 0 -9.52381 l 4.7619 -4.7619 l -4.7619 -4.7619 l -4.7619 4.7619 l -9.52381 0 l -4.7619 -4.7619 l 0 -9.52381 l 4.7619 -4.7619 l 9.52381 0 l 4.7619 4.7619 l 4.7619 -4.7619 l -4.7619 -4.7619 l 0 -9.52381 l 4.7619 -4.7619 l 9.52381 0 l 4.7619 4.7619 l 0 9.52381 l -4.7619 4.7619 l 4.7619 4.7619 l 4.7619 -4.7619 l 9.52381 0 l 4.7619 4.7619 l 0 9.52381 l -4.7619 4.7619 l -9.52381 0 l -4.7619 -4.7619 l -4.7619 4.7619 l 4.7619 4.7619 l 0 9.52381 l -4.7619 4.7619 l 4.7619 4.7619 l 4.7619 -4.7619 l 9.52381 0 l 4.7619 4.7619 l 4.7619 -4.7619 l -4.7619 -4.7619 l 0 -9.52381 l 4.7619 -4.7619 l 9.52381 0 l 4.7619 4.7619 l 0 9.52381 l -4.7619 4.7619 l 4.7619 4.7619 l 4.7619 -4.7619 l 9.52381 0 l 4.7619 4.7619 l 0 9.52381 l -4.7619 4.7619 l -9.52381 0 l -4.7619 -4.7619 l -4.7619 4.7619 l 4.7619 4.7619 l 0 9.52381 l -4.7619 4.7619 l -9.52381 0 l -4.7619 -4.7619 l 0 -9.52381 l 4.7619 -4.7619 l -4.7619 -4.7619 l -4.7619 4.7619 l -9.52381 0 l -4.7619 -4.7619 l -4.7619 4.7619 l 4.7619 4.7619 l 0 9.52381 l -4.7619 4.7619 l 4.7619 4.7619 l 4.7619 -4.7619 l 9.52381 0 l 4.7619 4.7619 l 0 9.52381 l -4.7619 4.7619 l -9.52381 0 l -4.7619 -4.7619 l -4.7619 4.7619 l 4.7619 4.7619 l 0 9.52381 l -4.7619 4.7619 l -9.52381 0 l -4.7619 -4.7619 l 0 -9.52381 l 4.7619 -4.7619 l -4.7619 -4.7619 l -4.7619 4.7619 l -9.52381 0 l -4.7619 -4.7619 l 0 -9.52381 l 4.7619 -4.7619 l 9.52381 0 l 4.7619 4.7619 l 4.7619 -4.7619 l -4.7619 -4.7619 l 0 -9.52381 l 4.7619 -4.7619 l -4.7619 -4.7619 l -4.7619 4.7619 l -9.52381 0 l -4.7619 -4.7619 l -4.7619 4.7619 l 4.7619 4.7619 l 0 9.52381 l -4.7619 4.7619 l -9.52381 0 l -4.7619 -4.7619 l 0 -9.52381 l 4.7619 -4.7619 l -4.7619 -4.7619 l -4.7619 4.7619 l -9.52381 0 l -4.7619 -4.7619 l -4.7619 4.7619 l 4.7619 4.7619 l 0 9.52381 l -4.7619 4.7619 l 4.7619 4.7619 l 4.7619 -4.7619 l 9.52381 0 l 4.7619 4.7619 l 0 9.52381 l -4.7619 4.7619 l -9.52381 0 l -4.7619 -4.7619 l -4.7619 4.7619 l 4.7619 4.7619 l 0 9.52381 l -4.7619 4.7619 l 4.7619 4.7619 l 4.7619 -4.7619 l 9.52381 0 l 4.7619 4.7619 l 4.7619 -4.7619 l -4.7619 -4.7619 l 0 -9.52381 l 4.7619 -4.7619 l 9.52381 0 l 4.7619 4.7619 l 0 9.52381 l -4.7619 4.7619 l 4.7619 4.7619 l 4.7619 -4.7619 l 9.52381 0 l 4.7619 4.7619 l 0 9.52381 l -4.7619 4.7619 l -9.52381 0 l -4.7619 -4.7619 l -4.7619 4.7619 l 4.7619 4.7619 l 0 9.52381 l -4.7619 4.7619 l -9.52381 0 l -4.7619 -4.7619 l 0 -9.52381 l 4.7619 -4.7619 l -4.7619 -4.7619 l -4.7619 4.7619 l -9.52381 0 l -4.7619 -4.7619 l -4.7619 4.7619 l 4.7619 4.7619 l 0 9.52381 l -4.7619 4.7619 l 4.7619 4.7619 l 4.7619 -4.7619 l 9.52381 0 l 4.7619 4.7619 l 0 9.52381 l -4.7619 4.7619 l -9.52381 0 l -4.7619 -4.7619 l -4.7619 4.7619 l 4.7619 4.7619 l 0 9.52381 l -4.7619 4.7619 l 4.7619 4.7619 l 4.7619 -4.7619 l 9.52381 0 l 4.7619 4.7619 l 4.7619 -4.7619 l -4.7619 -4.7619 l 0 -9.52381 l 4.7619 -4.7619 l 9.52381 0 l 4.7619 4.7619 l 0 9.52381 l -4.7619 4.7619 l 4.7619 4.7619 l 4.7619 -4.7619 l 9.52381 0 l 4.7619 4.7619 l 4.7619 -4.7619 l -4.7619 -4.7619 l 0 -9.52381 l 4.7619 -4.7619 l -4.7619 -4.7619 l -4.7619 4.7619 l -9.52381 0 l -4.7619 -4.7619 l 0 -9.52381 l 4.7619 -4.7619 l 9.52381 0 l 4.7619 4.7619 l 4.7619 -4.7619 l -4.7619 -4.7619 l 0 -9.52381 l 4.7619 -4.7619 l 9.52381 0 l 4.7619 4.7619 l 0 9.52381 l -4.7619 4.7619 l 4.7619 4.7619 l 4.7619 -4.7619 l 9.52381 0 l 4.7619 4.7619 l 0 9.52381 l -4.7619 4.7619 l -9.52381 0 l -4.7619 -4.7619 l -4.7619 4.7619 l 4.7619 4.7619 l 0 9.52381 l -4.7619 4.7619 l 4.7619 4.7619 l 4.7619 -4.7619 l 9.52381 0 l 4.7619 4.7619 l 4.7619 -4.7619 l -4.7619 -4.7619 l 0 -9.52381 l 4.7619 -4.7619 l 9.52381 0 l 4.7619 4.7619 l 0 9.52381 l -4.7619 4.7619 l 4.7619 4.7619 l 4.7619 -4.7619 l 9.52381 0 l 4.7619 4.7619 l 4.7619 -4.7619 l -4.7619 -4.7619 l 0 -9.52381 l 4.7619 -4.7619 l -4.7619 -4.7619 l -4.7619 4.7619 l -9.52381 0 l -4.7619 -4.7619 l 0 -9.52381 l 4.7619 -4.7619 l 9.52381 0 l 4.7619 4.7619 l 4.7619 -4.7619 l -4.7619 -4.7619 l 0 -9.52381 l 4.7619 -4.7619 l -4.7619 -4.7619 l -4.7619 4.7619 l -9.52381 0 l -4.7619 -4.7619 l -4.7619 4.7619 l 4.7619 4.7619 l 0 9.52381 l -4.7619 4.7619 l -9.52381 0 l -4.7619 -4.7619 l 0 -9.52381 l 4.7619 -4.7619 l -4.7619 -4.7619 l -4.7619 4.7619 l -9.52381 0 l -4.7619 -4.7619 l 0 -9.52381 l 4.7619 -4.7619 l 9.52381 0 l 4.7619 4.7619 l 4.7619 -4.7619 l -4.7619 -4.7619 l 0 -9.52381 l 4.7619 -4.7619 l 9.52381 0 l 4.7619 4.7619 l 0 9.52381 l -4.7619 4.7619 l 4.7619 4.7619 l 4.7619 -4.7619 l 9.52381 0 l 4.7619 4.7619 l 4.7619 -4.7619 l -4.7619 -4.7619 l 0 -9.52381 l 4.7619 -4.7619 l -4.7619 -4.7619 l -4.7619 4.7619 l -9.52381 0 l -4.7619 -4.7619 l 0 -9.52381 l 4.7619 -4.7619 l 9.52381 0 l 4.7619 4.7619 l 4.7619 -4.7619 l -4.7619 -4.7619 l 0 -9.52381 l 4.7619 -4.7619 l 9.52381 0 l 4.7619 4.7619 l 0 9.52381 l -4.7619 4.7619 l 4.7619 4.7619 l 4.7619 -4.7619 l 9.52381 0 l 4.7619 4.7619 l 0 9.52381 l -4.7619 4.7619 l -9.52381 0 l -4.7619 -4.7619 l -4.7619 4.7619 l 4.7619 4.7619 l 0 9.52381 l -4.7619 4.7619 l 4.7619 4.7619 l 4.7619 -4.7619 l 9.52381 0 l 4.7619 4.7619 l 4.7619 -4.7619 l -4.7619 -4.7619 l 0 -9.52381 l 4.7619 -4.7619 l 9.52381 0 l 4.7619 4.7619 l 0 9.52381 l -4.7619 4.7619 l 4.7619 4.7619 l 4.7619 -4.7619 l 9.52381 0 l 4.7619 4.7619 l 0 9.52381 l -4.7619 4.7619 l -9.52381 0 l -4.7619 -4.7619 l -4.7619 4.7619 l 4.7619 4.7619 l 0 9.52381 l -4.7619 4.7619 l -9.52381 0 l -4.7619 -4.7619 l 0 -9.52381 l 4.7619 -4.7619 l -4.7619 -4.7619 l -4.7619 4.7619 l -9.52381 0 l -4.7619 -4.7619 l -4.7619 4.7619 l 4.7619 4.7619 l 0 9.52381 l -4.7619 4.7619 l 4.7619 4.7619 l 4.7619 -4.7619 l 9.52381 0 l 4.7619 4.7619 l 0 9.52381 l -4.7619 4.7619 l -9.52381 0 l -4.7619 -4.7619 l -4.7619 4.7619 l 4.7619 4.7619 l 0 9.52381 l -4.7619 4.7619 l 4.7619 4.7619 l 4.7619 -4.7619 l 9.52381 0 l 4.7619 4.7619 l 4.7619 -4.7619 l -4.7619 -4.7619 l 0 -9.52381 l 4.7619 -4.7619 l 9.52381 0 l 4.7619 4.7619 l 0 9.52381 l -4.7619 4.7619 l 4.7619 4.7619 l 4.7619 -4.7619 l 9.52381 0 l 4.7619 4.7619 l 4.7619 -4.7619 l -4.7619 -4.7619 l 0 -9.52381 l 4.7619 -4.7619 l -4.7619 -4.7619 l -4.7619 4.7619 l -9.52381 0 l -4.7619 -4.7619 l 0 -9.52381 l 4.7619 -4.7619 l 9.52381 0 l 4.7619 4.7619 l 4.7619 -4.7619 l -4.7619 -4.7619 l 0 -9.52381 l 4.7619 -4.7619 l 9.52381 0 l 4.7619 4.7619 l 0 9.52381 l -4.7619 4.7619 l 4.7619 4.7619 l 4.7619 -4.7619 l 9.52381 0 l 4.7619 4.7619 l 0 9.52381 l -4.7619 4.7619 l -9.52381 0 l -4.7619 -4.7619 l -4.7619 4.7619 l 4.7619 4.7619 l 0 9.52381 l -4.7619 4.7619 l 4.7619 4.7619 l 4.7619 -4.7619 l 9.52381 0 l 4.7619 4.7619 l 4.7619 -4.7619 l -4.7619 -4.7619 l 0 -9.52381 l 4.7619 -4.7619 l 9.52381 0 l 4.7619 4.7619 l 0 9.52381 l -4.7619 4.7619 l 4.7619 4.7619 l 4.7619 -4.7619 l 9.52381 0 l 4.7619 4.7619 l 4.7619 -4.7619 l -4.7619 -4.7619 l 0 -9.52381 l 4.7619 -4.7619 l -4.7619 -4.7619 l -4.7619 4.7619 l -9.52381 0 l -4.7619 -4.7619 l 0 -9.52381 l 4.7619 -4.7619 l 9.52381 0 l 4.7619 4.7619 l 4.7619 -4.7619 l -4.7619 -4.7619 l 0 -9.52381 l 4.7619 -4.7619 l -4.7619 -4.7619 l -4.7619 4.7619 l -9.52381 0 l -4.7619 -4.7619 l -4.7619 4.7619 l 4.7619 4.7619 l 0 9.52381 l -4.7619 4.7619 l -9.52381 0 l -4.7619 -4.7619 l 0 -9.52381 l 4.7619 -4.7619 l -4.7619 -4.7619 l -4.7619 4.7619 l -9.52381 0 l -4.7619 -4.7619 l 0 -9.52381 l 4.7619 -4.7619 l 9.52381 0 l 4.7619 4.7619 l 4.7619 -4.7619 l -4.7619 -4.7619 l 0 -9.52381 l 4.7619 -4.7619 l 9.52381 0 l 4.7619 4.7619 l 0 9.52381 l -4.7619 4.7619 l 4.7619 4.7619 l 4.7619 -4.7619 l 9.52381 0 l 4.7619 4.7619 l 4.7619 -4.7619 l -4.7619 -4.7619 l 0 -9.52381 l 4.7619 -4.7619 l -4.7619 -4.7619 l -4.7619 4.7619 l -9.52381 0 l -4.7619 -4.7619 l 0 -9.52381 l 4.7619 -4.7619 l 9.52381 0 l 4.7619 4.7619 l 4.7619 -4.7619 l -4.7619 -4.7619 l 0 -9.52381 l 4.7619 -4.7619 l -4.7619 -4.7619 l -4.7619 4.7619 l -9.52381 0 l -4.7619 -4.7619 l -4.7619 4.7619 l 4.7619 4.7619 l 0 9.52381 l -4.7619 4.7619 l -9.52381 0 l -4.7619 -4.7619 l 0 -9.52381 l 4.7619 -4.7619 l -4.7619 -4.7619 l -4.7619 4.7619 l -9.52381 0 l -4.7619 -4.7619 l -4.7619 4.7619 l 4.7619 4.7619 l 0 9.52381 l -4.7619 4.7619 l 4.7619 4.7619 l 4.7619 -4.7619 l 9.52381 0 l 4.7619 4.7619 l 0 9.52381 l -4.7619 4.7619 l -9.52381 0 l -4.7619 -4.7619 l -4.7619 4.7619 l 4.7619 4.7619 l 0 9.52381 l -4.7619 4.7619 l -9.52381 0 l -4.7619 -4.7619 l 0 -9.52381 l 4.7619 -4.7619 l -4.7619 -4.7619 l -4.7619 4.7619 l -9.52381 0 l -4.7619 -4.7619 l 0 -9.52381 l 4.7619 -4.7619 l 9.52381 0 l 4.7619 4.7619 l 4.7619 -4.7619 l -4.7619 -4.7619 l 0 -9.52381 l 4.7619 -4.7619 l -4.7619 -4.7619 l -4.7619 4.7619 l -9.52381 0 l -4.7619 -4.7619 l -4.7619 4.7619 l 4.7619 4.7619 l 0 9.52381 l -4.7619 4.7619 l -9.52381 0 l -4.7619 -4.7619 l 0 -9.52381 l 4.7619 -4.7619 l -4.7619 -4.7619 l -4.7619 4.7619 l -9.52381 0 l -4.7619 -4.7619 l 0 -9.52381 l 4.7619 -4.7619 l 9.52381 0 l 4.7619 4.7619 l 4.7619 -4.7619 l -4.7619 -4.7619 l 0 -9.52381 l 4.7619 -4.7619 l 9.52381 0 l 4.7619 4.7619 l 0 9.52381 l -4.7619 4.7619 l 4.7619 4.7619 l 4.7619 -4.7619 l 9.52381 0 l 4.7619 4.7619 l 4.7619 -4.7619 l -4.7619 -4.7619 l 0 -9.52381 l 4.7619 -4.7619 l -4.7619 -4.7619 l -4.7619 4.7619 l -9.52381 0 l -4.7619 -4.7619 l 0 -9.52381 l 4.7619 -4.7619 l 9.52381 0 l 4.7619 4.7619 l 4.7619 -4.7619 l -4.7619 -4.7619 l 0 -9.52381 l 4.7619 -4.7619 l 9.52381 0 l 4.7619 4.7619 l 0 9.52381 l -4.7619 4.7619 l 4.7619 4.7619 l 4.7619 -4.7619 l 9.52381 0 l 4.7619 4.7619 l 0 9.52381 l -4.7619 4.7619 l -9.52381 0 l -4.7619 -4.7619 l -4.7619 4.7619 l 4.7619 4.7619 l 0 9.52381 l -4.7619 4.7619 l 4.7619 4.7619 l 4.7619 -4.7619 l 9.52381 0 l 4.7619 4.7619 l 4.7619 -4.7619 l -4.7619 -4.7619 l 0 -9.52381 l 4.7619 -4.7619 l 9.52381 0 l 4.7619 4.7619 l 0 9.52381 l -4.7619 4.7619 l 4.7619 4.7619 l 4.7619 -4.7619 l 9.52381 0 l 4.7619 4.7619 l 4.7619 -4.7619 l -4.7619 -4.7619 l 0 -9.52381 l 4.7619 -4.7619 l -4.7619 -4.7619 l -4.7619 4.7619 l -9.52381 0 l -4.7619 -4.7619 l 0 -9.52381 l 4.7619 -4.7619 l 9.52381 0 l 4.7619 4.7619 l 4.7619 -4.7619 l -4.7619 -4.7619 l 0 -9.52381 l 4.7619 -4.7619 l -4.7619 -4.7619 l -4.7619 4.7619 l -9.52381 0 l -4.7619 -4.7619 l -4.7619 4.7619 l 4.7619 4.7619 l 0 9.52381 l -4.7619 4.7619 l -9.52381 0 l -4.7619 -4.7619 l 0 -9.52381 l 4.7619 -4.7619 l -4.7619 -4.7619 l -4.7619 4.7619 l -9.52381 0 l -4.7619 -4.7619 l 0 -9.52381 l 4.7619 -4.7619 l 9.52381 0 l 4.7619 4.7619 l 4.7619 -4.7619 l -4.7619 -4.7619 l 0 -9.52381 l 4.7619 -4.7619 l 9.52381 0 l 4.7619 4.7619 l 0 9.52381 l -4.7619 4.7619 l 4.7619 4.7619 l 4.7619 -4.7619 l 9.52381 0 l 4.7619 4.7619 l 4.7619 -4.7619 l -4.7619 -4.7619 l 0 -9.52381 l 4.7619 -4.7619 l -4.7619 -4.7619 l -4.7619 4.7619 l -9.52381 0 l -4.7619 -4.7619 l 0 -9.52381 l 4.7619 -4.7619 l 9.52381 0 l 4.7619 4.7619 l 4.7619 -4.7619 l -4.7619 -4.7619 l 0 -9.52381 l 4.7619 -4.7619 l -4.7619 -4.7619 l -4.7619 4.7619 l -9.52381 0 l -4.7619 -4.7619 l -4.7619 4.7619 l 4.7619 4.7619 l 0 9.52381 l -4.7619 4.7619 l -9.52381 0 l -4.7619 -4.7619 l 0 -9.52381 l 4.7619 -4.7619 l -4.7619 -4.7619 l -4.7619 4.7619 l -9.52381 0 l -4.7619 -4.7619 l -4.7619 4.7619 l 4.7619 4.7619 l 0 9.52381 l -4.7619 4.7619 l 4.7619 4.7619 l 4.7619 -4.7619 l 9.52381 0 l 4.7619 4.7619 l 0 9.52381 l -4.7619 4.7619 l -9.52381 0 l -4.7619 -4.7619 l -4.7619 4.7619 l 4.7619 4.7619 l 0 9.52381 l -4.7619 4.7619 l -9.52381 0 l -4.7619 -4.7619 l 0 -9.52381 l 4.7619 -4.7619 l -4.7619 -4.7619 l -4.7619 4.7619 l -9.52381 0 l -4.7619 -4.7619 l 0 -9.52381 l 4.7619 -4.7619 l 9.52381 0 l 4.7619 4.7619 l 4.7619 -4.7619 l -4.7619 -4.7619 l 0 -9.52381 l 4.7619 -4.7619 l -4.7619 -4.7619 l -4.7619 4.7619 l -9.52381 0 l -4.7619 -4.7619 l -4.7619 4.7619 l 4.7619 4.7619 l 0 9.52381 l -4.7619 4.7619 l -9.52381 0 l -4.7619 -4.7619 l 0 -9.52381 l 4.7619 -4.7619 l -4.7619 -4.7619 l -4.7619 4.7619 l -9.52381 0 l -4.7619 -4.7619 l -4.7619 4.7619 l 4.7619 4.7619 l 0 9.52381 l -4.7619 4.7619 l 4.7619 4.7619 l 4.7619 -4.7619 l 9.52381 0 l 4.7619 4.7619 l 0 9.52381 l -4.7619 4.7619 l -9.52381 0 l -4.7619 -4.7619 l -4.7619 4.7619 l 4.7619 4.7619 l 0 9.52381 l -4.7619 4.7619 l 4.7619 4.7619 l 4.7619 -4.7619 l 9.52381 0 l 4.7619 4.7619 l 4.7619 -4.7619 l -4.7619 -4.7619 l 0 -9.52381 l 4.7619 -4.7619 l 9.52381 0 l 4.7619 4.7619 l 0 9.52381 l -4.7619 4.7619 l 4.7619 4.7619 l 4.7619 -4.7619 l 9.52381 0 l 4.7619 4.7619 l 0 9.52381 l -4.7619 4.7619 l -9.52381 0 l -4.7619 -4.7619 l -4.7619 4.7619 l 4.7619 4.7619 l 0 9.52381 l -4.7619 4.7619 l -9.52381 0 l -4.7619 -4.7619 l 0 -9.52381 l 4.7619 -4.7619 l -4.7619 -4.7619 l -4.7619 4.7619 l -9.52381 0 l -4.7619 -4.7619 l -4.7619 4.7619 l 4.7619 4.7619 l 0 9.52381 l -4.7619 4.7619 l 4.7619 4.7619 l 4.7619 -4.7619 l 9.52381 0 l 4.7619 4.7619 l 0 9.52381 l -4.7619 4.7619 l -9.52381 0 l -4.7619 -4.7619 l -4.7619 4.7619 l 4.7619 4.7619 l 0 9.52381 l -4.7619 4.7619 l -9.52381 0 l -4.7619 -4.7619 l 0 -9.52381 l 4.7619 -4.7619 l -4.7619 -4.7619 l -4.7619 4.7619 l -9.52381 0 l -4.7619 -4.7619 l 0 -9.52381 l 4.7619 -4.7619 l 9.52381 0 l 4.7619 4.7619 l 4.7619 -4.7619 l -4.7619 -4.7619 l 0 -9.52381 l 4.7619 -4.7619 l -4.7619 -4.7619 l -4.7619 4.7619 l -9.52381 0 l -4.7619 -4.7619 l -4.7619 4.7619 l 4.7619 4.7619 l 0 9.52381 l -4.7619 4.7619 l -9.52381 0 l -4.7619 -4.7619 l 0 -9.52381 l 4.7619 -4.7619 l -4.7619 -4.7619 l -4.7619 4.7619 l -9.52381 0 l -4.7619 -4.7619 l 0 -9.52381 l 4.7619 -4.7619 l 9.52381 0 l 4.7619 4.7619 l 4.7619 -4.7619 l -4.7619 -4.7619 l 0 -9.52381 l 4.7619 -4.7619 l 9.52381 0 l 4.7619 4.7619 l 0 9.52381 l -4.7619 4.7619 l 4.7619 4.7619 l 4.7619 -4.7619 l 9.52381 0 l 4.7619 4.7619 l 4.7619 -4.7619 l -4.7619 -4.7619 l 0 -9.52381 l 4.7619 -4.7619 l -4.7619 -4.7619 l -4.7619 4.7619 l -9.52381 0 l -4.7619 -4.7619 l 0 -9.52381 l 4.7619 -4.7619 l 9.52381 0 l 4.7619 4.7619 l 4.7619 -4.7619 l -4.7619 -4.7619 l 0 -9.52381 l 4.7619 -4.7619 l -4.7619 -4.7619 l -4.7619 4.7619 l -9.52381 0 l -4.7619 -4.7619 l -4.7619 4.7619 l 4.7619 4.7619 l 0 9.52381 l -4.7619 4.7619 l -9.52381 0 l -4.7619 -4.7619 l 0 -9.52381 l 4.7619 -4.7619 l -4.7619 -4.7619 l -4.7619 4.7619 l -9.52381 0 l -4.7619 -4.7619 l -4.7619 4.7619 l 4.7619 4.7619 l 0 9.52381 l -4.7619 4.7619 l 4.7619 4.7619 l 4.7619 -4.7619 l 9.52381 0 l 4.7619 4.7619 l 0 9.52381 l -4.7619 4.7619 l -9.52381 0 l -4.7619 -4.7619 l -4.7619 4.7619 l 4.7619 4.7619 l 0 9.52381 l -4.7619 4.7619 l -9.52381 0 l -4.7619 -4.7619 l 0 -9.52381 l 4.7619 -4.7619 l -4.7619 -4.7619 l -4.7619 4.7619 l -9.52381 0 l -4.7619 -4.7619 l 0 -9.52381 l 4.7619 -4.7619 l 9.52381 0 l 4.7619 4.7619 l 4.7619 -4.7619 l -4.7619 -4.7619 l 0 -9.52381 l 4.7619 -4.7619 l -4.7619 -4.7619 l -4.7619 4.7619 l -9.52381 0 l -4.7619 -4.7619 l -4.7619 4.7619 l 4.7619 4.7619 l 0 9.52381 l -4.7619 4.7619 l -9.52381 0 l -4.7619 -4.7619 l 0 -9.52381 l 4.7619 -4.7619 l -4.7619 -4.7619 l -4.7619 4.7619 l -9.52381 0 l -4.7619 -4.7619 l 0 -9.52381 l 4.7619 -4.7619 l 9.52381 0 l 4.7619 4.7619 l 4.7619 -4.7619 l -4.7619 -4.7619 l 0 -9.52381 l 4.7619 -4.7619 l 9.52381 0 l 4.7619 4.7619 l 0 9.52381 l -4.7619 4.7619 l 4.7619 4.7619 l 4.7619 -4.7619 l 9.52381 0 l 4.7619 4.7619 l 4.7619 -4.7619 l -4.7619 -4.7619 l 0 -9.52381 l 4.7619 -4.7619 l -4.7619 -4.7619 l -4.7619 4.7619 l -9.52381 0 l -4.7619 -4.7619 l 0 -9.52381 l 4.7619 -4.7619 l 9.52381 0 l 4.7619 4.7619 l 4.7619 -4.7619 l -4.7619 -4.7619 l 0 -9.52381 l 4.7619 -4.7619 l 9.52381 0 l 4.7619 4.7619 l 0 9.52381 l -4.7619 4.7619 l 4.7619 4.7619 l 4.7619 -4.7619 l 9.52381 0 l 4.7619 4.7619 l 0 9.52381 l -4.7619 4.7619 l -9.52381 0 l -4.7619 -4.7619 l -4.7619 4.7619 l 4.7619 4.7619 l 0 9.52381 l -4.7619 4.7619 l 4.7619 4.7619 l 4.7619 -4.7619 l 9.52381 0 l 4.7619 4.7619 l 4.7619 -4.7619 l -4.7619 -4.7619 l 0 -9.52381 l 4.7619 -4.7619 l 9.52381 0 l 4.7619 4.7619 l 0 9.52381 l -4.7619 4.7619 l 4.7619 4.7619 l 4.7619 -4.7619 l 9.52381 0 l 4.7619 4.7619 l 4.7619 -4.7619 l -4.7619 -4.7619 l 0 -9.52381 l 4.7619 -4.7619 l -4.7619 -4.7619 l -4.7619 4.7619 l -9.52381 0 l -4.7619 -4.7619 l 0 -9.52381 l 4.7619 -4.7619 l 9.52381 0 l 4.7619 4.7619 l 4.7619 -4.7619 l -4.7619 -4.7619 l 0 -9.52381 l 4.7619 -4.7619 l -4.7619 -4.7619 l -4.7619 4.7619 l -9.52381 0 l -4.7619 -4.7619 l -4.7619 4.7619 l 4.7619 4.7619 l 0 9.52381 l -4.7619 4.7619 l -9.52381 0 l -4.7619 -4.7619 l 0 -9.52381 l 4.7619 -4.7619 l -4.7619 -4.7619 l -4.7619 4.7619 l -9.52381 0 l -4.7619 -4.7619 l 0 -9.52381 l 4.7619 -4.7619 l 9.52381 0 l 4.7619 4.7619 l 4.7619 -4.7619 l -4.7619 -4.7619 l 0 -9.52381 l 4.7619 -4.7619 l 9.52381 0 l 4.7619 4.7619 l 0 9.52381 l -4.7619 4.7619 l 4.7619 4.7619 l 4.7619 -4.7619 l 9.52381 0 l 4.7619 4.7619 l 4.7619 -4.7619 l -4.7619 -4.7619 l 0 -9.52381 l 4.7619 -4.7619 l -4.7619 -4.7619 l -4.7619 4.7619 l -9.52381 0 l -4.7619 -4.7619 l 0 -9.52381 l 4.7619 -4.7619 l 9.52381 0 l 4.7619 4.7619 l 4.7619 -4.7619 l -4.7619 -4.7619 l 0 -9.52381 l 4.7619 -4.7619 l 9.52381 0 l 4.7619 4.7619 l 0 9.52381 l -4.7619 4.7619 l 4.7619 4.7619 l 4.7619 -4.7619 l 9.52381 0 l 4.7619 4.7619 l 0 9.52381 l -4.7619 4.7619 l -9.52381 0 l -4.7619 -4.7619 l -4.7619 4.7619 l 4.7619 4.7619 l 0 9.52381 l -4.7619 4.7619 l 4.7619 4.7619 l 4.7619 -4.7619 l 9.52381 0 l 4.7619 4.7619 l 4.7619 -4.7619 l -4.7619 -4.7619 l 0 -9.52381 l 4.7619 -4.7619 l 9.52381 0 l 4.7619 4.7619 l 0 9.52381 l -4.7619 4.7619 l 4.7619 4.7619 l 4.7619 -4.7619 l 9.52381 0 l 4.7619 4.7619 l 0 9.52381 l -4.7619 4.7619 l -9.52381 0 l -4.7619 -4.7619 l -4.7619 4.7619 l 4.7619 4.7619 l 0 9.52381 l -4.7619 4.7619 l -9.52381 0 l -4.7619 -4.7619 l 0 -9.52381 l 4.7619 -4.7619 l -4.7619 -4.7619 l -4.7619 4.7619 l -9.52381 0 l -4.7619 -4.7619 l -4.7619 4.7619 l 4.7619 4.7619 l 0 9.52381 l -4.7619 4.7619 l 4.7619 4.7619 l 4.7619 -4.7619 l 9.52381 0 l 4.7619 4.7619 l 0 9.52381 l -4.7619 4.7619 l -9.52381 0 l -4.7619 -4.7619 l -4.7619 4.7619 l 4.7619 4.7619 l 0 9.52381 l -4.7619 4.7619 l 4.7619 4.7619 l 4.7619 -4.7619 l 9.52381 0 l 4.7619 4.7619 l 4.7619 -4.7619 l -4.7619 -4.7619 l 0 -9.52381 l 4.7619 -4.7619 l 9.52381 0 l 4.7619 4.7619 l 0 9.52381 l -4.7619 4.7619 l 4.7619 4.7619 l 4.7619 -4.7619 l 9.52381 0 l 4.7619 4.7619 l 4.7619 -4.7619 l -4.7619 -4.7619 l 0 -9.52381 l 4.7619 -4.7619 l -4.7619 -4.7619 l -4.7619 4.7619 l -9.52381 0 l -4.7619 -4.7619 l 0 -9.52381 l 4.7619 -4.7619 l 9.52381 0 l 4.7619 4.7619 l 4.7619 -4.7619 l -4.7619 -4.7619 l 0 -9.52381 l 4.7619 -4.7619 l 9.52381 0 l 4.7619 4.7619 l 0 9.52381 l -4.7619 4.7619 l 4.7619 4.7619 l 4.7619 -4.7619 l 9.52381 0 l 4.7619 4.7619 l 0 9.52381 l -4.7619 4.7619 l -9.52381 0 l -4.7619 -4.7619 l -4.7619 4.7619 l 4.7619 4.7619 l 0 9.52381 l -4.7619 4.7619 l 4.7619 4.7619 l 4.7619 -4.7619 l 9.52381 0 l 4.7619 4.7619 l 4.7619 -4.7619 l -4.7619 -4.7619 l 0 -9.52381 l 4.7619 -4.7619 l 9.52381 0 l 4.7619 4.7619 l 0 9.52381 l -4.7619 4.7619 l 4.7619 4.7619 l 4.7619 -4.7619 l 9.52381 0 l 4.7619 4.7619 l 4.7619 -4.7619 l -4.7619 -4.7619 l 0 -9.52381 l 4.7619 -4.7619 l -4.7619 -4.7619 l -4.7619 4.7619 l -9.52381 0 l -4.7619 -4.7619 l 0 -9.52381 l 4.7619 -4.7619 l 9.52381 0 l 4.7619 4.7619 l 4.7619 -4.7619 l -4.7619 -4.7619 l 0 -9.52381 l 4.7619 -4.7619 l -4.7619 -4.7619 l -4.7619 4.7619 l -9.52381 0 l -4.7619 -4.7619 l -4.7619 4.7619 l 4.7619 4.7619 l 0 9.52381 l -4.7619 4.7619 l -9.52381 0 l -4.7619 -4.7619 l 0 -9.52381 l 4.7619 -4.7619 l -4.7619 -4.7619 l -4.7619 4.7619 l -9.52381 0 l -4.7619 -4.7619 l 0 -9.52381 l 4.7619 -4.7619 l 9.52381 0 l 4.7619 4.7619 l 4.7619 -4.7619 l -4.7619 -4.7619 l 0 -9.52381 l 4.7619 -4.7619 l 9.52381 0 l 4.7619 4.7619 l 0 9.52381 l -4.7619 4.7619 l 4.7619 4.7619 l 4.7619 -4.7619 l 9.52381 0 l 4.7619 4.7619 l 4.7619 -4.7619 l -4.7619 -4.7619 l 0 -9.52381 l 4.7619 -4.7619 l -4.7619 -4.7619 l -4.7619 4.7619 l -9.52381 0 l -4.7619 -4.7619 l 0 -9.52381 l 4.7619 -4.7619 l 9.52381 0 l 4.7619 4.7619 l 4.7619 -4.7619 l -4.7619 -4.7619 l 0 -9.52381 l 4.7619 -4.7619 l -4.7619 -4.7619 l -4.7619 4.7619 l -9.52381 0 l -4.7619 -4.7619 l -4.7619 4.7619 l 4.7619 4.7619 l 0 9.52381 l -4.7619 4.7619 l -9.52381 0 l -4.7619 -4.7619 l 0 -9.52381 l 4.7619 -4.7619 l -4.7619 -4.7619 l -4.7619 4.7619 l -9.52381 0 l -4.7619 -4.7619 l -4.7619 4.7619 l 4.7619 4.7619 l 0 9.52381 l -4.7619 4.7619 l 4.7619 4.7619 l 4.7619 -4.7619 l 9.52381 0 l 4.7619 4.7619 l 0 9.52381 l -4.7619 4.7619 l -9.52381 0 l -4.7619 -4.7619 l -4.7619 4.7619 l 4.7619 4.7619 l 0 9.52381 l -4.7619 4.7619 l -9.52381 0 l -4.7619 -4.7619 l 0 -9.52381 l 4.7619 -4.7619 l -4.7619 -4.7619 l -4.7619 4.7619 l -9.52381 0 l -4.7619 -4.7619 l 0 -9.52381 l 4.7619 -4.7619 l 9.52381 0 l 4.7619 4.7619 l 4.7619 -4.7619 l -4.7619 -4.7619 l 0 -9.52381 l 4.7619 -4.7619 l -4.7619 -4.7619 l -4.7619 4.7619 l -9.52381 0 l -4.7619 -4.7619 l -4.7619 4.7619 l 4.7619 4.7619 l 0 9.52381 l -4.7619 4.7619 l -9.52381 0 l -4.7619 -4.7619 l 0 -9.52381 l 4.7619 -4.7619 l -4.7619 -4.7619 l -4.7619 4.7619 l -9.52381 0 l -4.7619 -4.7619 l 0 -9.52381 l 4.7619 -4.7619 l 9.52381 0 l 4.7619 4.7619 l 4.7619 -4.7619 l -4.7619 -4.7619 l 0 -9.52381 l 4.7619 -4.7619 l 9.52381 0 l 4.7619 4.7619 l 0 9.52381 l -4.7619 4.7619 l 4.7619 4.7619 l 4.7619 -4.7619 l 9.52381 0 l 4.7619 4.7619 l 4.7619 -4.7619 l -4.7619 -4.7619 l 0 -9.52381 l 4.7619 -4.7619 l -4.7619 -4.7619 l -4.7619 4.7619 l -9.52381 0 l -4.7619 -4.7619 l 0 -9.52381 l 4.7619 -4.7619 l 9.52381 0 l 4.7619 4.7619 l 4.7619 -4.7619 l -4.7619 -4.7619 l 0 -9.52381 l 4.7619 -4.7619 l 9.52381 0 l 4.7619 4.7619 l 0 9.52381 l -4.7619 4.7619 l 4.7619 4.7619 l 4.7619 -4.7619 l 9.52381 0 l 4.7619 4.7619 l 0 9.52381 l -4.7619 4.7619 l -9.52381 0 l -4.7619 -4.7619 l -4.7619 4.7619 l 4.7619 4.7619 l 0 9.52381 l -4.7619 4.7619 l 4.7619 4.7619 l 4.7619 -4.7619 l 9.52381 0 l 4.7619 4.7619 l 4.7619 -4.7619 l -4.7619 -4.7619 l 0 -9.52381 l 4.7619 -4.7619 l 9.52381 0 l 4.7619 4.7619 l 0 9.52381 l -4.7619 4.7619 l 4.7619 4.7619 l 4.7619 -4.7619 l 9.52381 0 l 4.7619 4.7619 l 4.7619 -4.7619 l -4.7619 -4.7619 l 0 -9.52381 l 4.7619 -4.7619 l -4.7619 -4.7619 l -4.7619 4.7619 l -9.52381 0 l -4.7619 -4.7619 l 0 -9.52381 l 4.7619 -4.7619 l 9.52381 0 l 4.7619 4.7619 l 4.7619 -4.7619 l -4.7619 -4.7619 l 0 -9.52381 l 4.7619 -4.7619 l -4.7619 -4.7619 l -4.7619 4.7619 l -9.52381 0 l -4.7619 -4.7619 l -4.7619 4.7619 l 4.7619 4.7619 l 0 9.52381 l -4.7619 4.7619 l -9.52381 0 l -4.7619 -4.7619 l 0 -9.52381 l 4.7619 -4.7619 l -4.7619 -4.7619 l -4.7619 4.7619 l -9.52381 0 l -4.7619 -4.7619 l 0 -9.52381 l 4.7619 -4.7619 l 9.52381 0 l 4.7619 4.7619 l 4.7619 -4.7619 l -4.7619 -4.7619 l 0 -9.52381 l 4.7619 -4.7619 l 9.52381 0 l 4.7619 4.7619 l 0 9.52381 l -4.7619 4.7619 l 4.7619 4.7619 l 4.7619 -4.7619 l 9.52381 0 l 4.7619 4.7619 l 4.7619 -4.7619 l -4.7619 -4.7619 l 0 -9.52381 l 4.7619 -4.7619 l -4.7619 -4.7619 l -4.7619 4.7619 l -9.52381 0 l -4.7619 -4.7619 l 0 -9.52381 l 4.7619 -4.7619 l 9.52381 0 l 4.7619 4.7619 l 4.7619 -4.7619 l -4.7619 -4.7619 l 0 -9.52381 l 4.7619 -4.7619 l -4.7619 -4.7619 l -4.7619 4.7619 l -9.52381 0 l -4.7619 -4.7619 l -4.7619 4.7619 l 4.7619 4.7619 l 0 9.52381 l -4.7619 4.7619 l -9.52381 0 l -4.7619 -4.7619 l 0 -9.52381 l 4.7619 -4.7619 l -4.7619 -4.7619 l -4.7619 4.7619 l -9.52381 0 l -4.7619 -4.7619 l -4.7619 4.7619 l 4.7619 4.7619 l 0 9.52381 l -4.7619 4.7619 l 4.7619 4.7619 l 4.7619 -4.7619 l 9.52381 0 l 4.7619 4.7619 l 0 9.52381 l -4.7619 4.7619 l -9.52381 0 l -4.7619 -4.7619 l -4.7619 4.7619 l 4.7619 4.7619 l 0 9.52381 l -4.7619 4.7619 l -9.52381 0 l -4.7619 -4.7619 l 0 -9.52381 l 4.7619 -4.7619 l -4.7619 -4.7619 l -4.7619 4.7619 l -9.52381 0 l -4.7619 -4.7619 l 0 -9.52381 l 4.7619 -4.7619 l 9.52381 0 l 4.7619 4.7619 l 4.7619 -4.7619 l -4.7619 -4.7619 l 0 -9.52381 l 4.7619 -4.7619 l -4.7619 -4.7619 l -4.7619 4.7619 l -9.52381 0 l -4.7619 -4.7619 l -4.7619 4.7619 l 4.7619 4.7619 l 0 9.52381 l -4.7619 4.7619 l -9.52381 0 l -4.7619 -4.7619 l 0 -9.52381 l 4.7619 -4.7619 l -4.7619 -4.7619 l -4.7619 4.7619 l -9.52381 0 l -4.7619 -4.7619 l -4.7619 4.7619 l 4.7619 4.7619 l 0 9.52381 l -4.7619 4.7619 l 4.7619 4.7619 l 4.7619 -4.7619 l 9.52381 0 l 4.7619 4.7619 l 0 9.52381 l -4.7619 4.7619 l -9.52381 0 l -4.7619 -4.7619 l -4.7619 4.7619 l 4.7619 4.7619 l 0 9.52381 l -4.7619 4.7619 l 4.7619 4.7619 l 4.7619 -4.7619 l 9.52381 0 l 4.7619 4.7619 l 4.7619 -4.7619 l -4.7619 -4.7619 l 0 -9.52381 l 4.7619 -4.7619 l 9.52381 0 l 4.7619 4.7619 l 0 9.52381 l -4.7619 4.7619 l 4.7619 4.7619 l 4.7619 -4.7619 l 9.52381 0 l 4.7619 4.7619 l 0 9.52381 l -4.7619 4.7619 l -9.52381 0 l -4.7619 -4.7619 l -4.7619 4.7619 l 4.7619 4.7619 l 0 9.52381 l -4.7619 4.7619 l -9.52381 0 l -4.7619 -4.7619 l 0 -9.52381 l 4.7619 -4.7619 l -4.7619 -4.7619 l -4.7619 4.7619 l -9.52381 0 l -4.7619 -4.7619 l -4.7619 4.7619 l 4.7619 4.7619 l 0 9.52381 l -4.7619 4.7619 l 4.7619 4.7619 l 4.7619 -4.7619 l 9.52381 0 l 4.7619 4.7619 l 0 9.52381 l -4.7619 4.7619 l -9.52381 0 l -4.7619 -4.7619 l -4.7619 4.7619 l 4.7619 4.7619 l 0 9.52381 l -4.7619 4.7619 l -9.52381 0 l -4.7619 -4.7619 l 0 -9.52381 l 4.7619 -4.7619 l -4.7619 -4.7619 l -4.7619 4.7619 l -9.52381 0 l -4.7619 -4.7619 l 0 -9.52381 l 4.7619 -4.7619 l 9.52381 0 l 4.7619 4.7619 l 4.7619 -4.7619 l -4.7619 -4.7619 l 0 -9.52381 l 4.7619 -4.7619 l -4.7619 -4.7619 l -4.7619 4.7619 l -9.52381 0 l -4.7619 -4.7619 l -4.7619 4.7619 l 4.7619 4.7619 l 0 9.52381 l -4.7619 4.7619 l -9.52381 0 l -4.7619 -4.7619 l 0 -9.52381 l 4.7619 -4.7619 l -4.7619 -4.7619 l -4.7619 4.7619 l -9.52381 0 l -4.7619 -4.7619 l 0 -9.52381 l 4.7619 -4.7619 l 9.52381 0 l 4.7619 4.7619 l 4.7619 -4.7619 l -4.7619 -4.7619 l 0 -9.52381 l 4.7619 -4.7619 l 9.52381 0 l 4.7619 4.7619 l 0 9.52381 l -4.7619 4.7619 l 4.7619 4.7619 l 4.7619 -4.7619 l 9.52381 0 l 4.7619 4.7619 l 4.7619 -4.7619 l -4.7619 -4.7619 l 0 -9.52381 l 4.7619 -4.7619 l -4.7619 -4.7619 l -4.7619 4.7619 l -9.52381 0 l -4.7619 -4.7619 l 0 -9.52381 l 4.7619 -4.7619 l 9.52381 0 l 4.7619 4.7619 l 4.7619 -4.7619 l -4.7619 -4.7619 l 0 -9.52381 l 4.7619 -4.7619 l -4.7619 -4.7619 l -4.7619 4.7619 l -9.52381 0 l -4.7619 -4.7619 l -4.7619 4.7619 l 4.7619 4.7619 l 0 9.52381 l -4.7619 4.7619 l -9.52381 0 l -4.7619 -4.7619 l 0 -9.52381 l 4.7619 -4.7619 l -4.7619 -4.7619 l -4.7619 4.7619 l -9.52381 0 l -4.7619 -4.7619 l -4.7619 4.7619 l 4.7619 4.7619 l 0 9.52381 l -4.7619 4.7619 l 4.7619 4.7619 l 4.7619 -4.7619 l 9.52381 0 l 4.7619 4.7619 l 0 9.52381 l -4.7619 4.7619 l -9.52381 0 l -4.7619 -4.7619 l -4.7619 4.7619 l 4.7619 4.7619 l 0 9.52381 l -4.7619 4.7619 l -9.52381 0 l -4.7619 -4.7619 l 0 -9.52381 l 4.7619 -4.7619 l -4.7619 -4.7619 l -4.7619 4.7619 l -9.52381 0 l -4.7619 -4.7619 l 0 -9.52381 l 4.7619 -4.7619 l 9.52381 0 l 4.7619 4.7619 l 4.7619 -4.7619 l -4.7619 -4.7619 l 0 -9.52381 l 4.7619 -4.7619 l -4.7619 -4.7619 l -4.7619 4.7619 l -9.52381 0 l -4.7619 -4.7619 l -4.7619 4.7619 l 4.7619 4.7619 l 0 9.52381 l -4.7619 4.7619 l -9.52381 0 l -4.7619 -4.7619 l 0 -9.52381 l 4.7619 -4.7619 l -4.7619 -4.7619 l -4.7619 4.7619 l -9.52381 0 l -4.7619 -4.7619 l -4.7619 4.7619 l 4.7619 4.7619 l 0 9.52381 l -4.7619 4.7619 l 4.7619 4.7619 l 4.7619 -4.7619 l 9.52381 0 l 4.7619 4.7619 l 0 9.52381 l -4.7619 4.7619 l -9.52381 0 l -4.7619 -4.7619 l -4.7619 4.7619 l 4.7619 4.7619 l 0 9.52381 l -4.7619 4.7619 l 4.7619 4.7619 l 4.7619 -4.7619 l 9.52381 0 l 4.7619 4.7619 l 4.7619 -4.7619 l -4.7619 -4.7619 l 0 -9.52381 l 4.7619 -4.7619 l 9.52381 0 l 4.7619 4.7619 l 0 9.52381 l -4.7619 4.7619 l 4.7619 4.7619 l 4.7619 -4.7619 l 9.52381 0 l 4.7619 4.7619 l 0 9.52381 l -4.7619 4.7619 l -9.52381 0 l -4.7619 -4.7619 l -4.7619 4.7619 l 4.7619 4.7619 l 0 9.52381 l -4.7619 4.7619 l -9.52381 0 l -4.7619 -4.7619 l 0 -9.52381 l 4.7619 -4.7619 l -4.7619 -4.7619 l -4.7619 4.7619 l -9.52381 0 l -4.7619 -4.7619 l -4.7619 4.7619 l 4.7619 4.7619 l 0 9.52381 l -4.7619 4.7619 l 4.7619 4.7619 l 4.7619 -4.7619 l 9.52381 0 l 4.7619 4.7619 l 0 9.52381 l -4.7619 4.7619 l -9.52381 0 l -4.7619 -4.7619 l -4.7619 4.7619 l 4.7619 4.7619 l 0 9.52381 l -4.7619 4.7619 l 4.7619 4.7619 l 4.7619 -4.7619 l 9.52381 0 l 4.7619 4.7619 l 4.7619 -4.7619 l -4.7619 -4.7619 l 0 -9.52381 l 4.7619 -4.7619 l 9.52381 0 l 4.7619 4.7619 l 0 9.52381 l -4.7619 4.7619 l 4.7619 4.7619 l 4.7619 -4.7619 l 9.52381 0 l 4.7619 4.7619 l 4.7619 -4.7619 l -4.7619 -4.7619 l 0 -9.52381 l 4.7619 -4.7619 l -4.7619 -4.7619 l -4.7619 4.7619 l -9.52381 0 l -4.7619 -4.7619 l 0 -9.52381 l 4.7619 -4.7619 l 9.52381 0 l 4.7619 4.7619 l 4.7619 -4.7619 l -4.7619 -4.7619 l 0 -9.52381 l 4.7619 -4.7619 l 9.52381 0 l 4.7619 4.7619 l 0 9.52381 l -4.7619 4.7619 l 4.7619 4.7619 l 4.7619 -4.7619 l 9.52381 0 l 4.7619 4.7619 l 0 9.52381 l -4.7619 4.7619 l -9.52381 0 l -4.7619 -4.7619 l -4.7619 4.7619 l 4.7619 4.7619 l 0 9.52381 l -4.7619 4.7619 l 4.7619 4.7619 l 4.7619 -4.7619 l 9.52381 0 l 4.7619 4.7619 l 4.7619 -4.7619 l -4.7619 -4.7619 l 0 -9.52381 l 4.7619 -4.7619 l 9.52381 0 l 4.7619 4.7619 l 0 9.52381 l -4.7619 4.7619 l 4.7619 4.7619 l 4.7619 -4.7619 l 9.52381 0 l 4.7619 4.7619 l 0 9.52381 l -4.7619 4.7619 l -9.52381 0 l -4.7619 -4.7619 l -4.7619 4.7619 l 4.7619 4.7619 l 0 9.52381 l -4.7619 4.7619 l -9.52381 0 l -4.7619 -4.7619 l 0 -9.52381 l 4.7619 -4.7619 l -4.7619 -4.7619 l -4.7619 4.7619 l -9.52381 0 l -4.7619 -4.7619 l -4.7619 4.7619 l 4.7619 4.7619 l 0 9.52381 l -4.7619 4.7619 l 4.7619 4.7619 l 4.7619 -4.7619 l 9.52381 0 l 4.7619 4.7619 l 0 9.52381 l -4.7619 4.7619 l -9.52381 0 l -4.7619 -4.7619 l -4.7619 4.7619 l 4.7619 4.7619 l 0 9.52381 l -4.7619 4.7619 l -9.52381 0 l -4.7619 -4.7619 l 0 -9.52381 l 4.7619 -4.7619 l -4.7619 -4.7619 l -4.7619 4.7619 l -9.52381 0 l -4.7619 -4.7619 l 0 -9.52381 l 4.7619 -4.7619 l 9.52381 0 l 4.7619 4.7619 l 4.7619 -4.7619 l -4.7619 -4.7619 l 0 -9.52381 l 4.7619 -4.7619 l -4.7619 -4.7619 l -4.7619 4.7619 l -9.52381 0 l -4.7619 -4.7619 l -4.7619 4.7619 l 4.7619 4.7619 l 0 9.52381 l -4.7619 4.7619 l -9.52381 0 l -4.7619 -4.7619 l 0 -9.52381 l 4.7619 -4.7619 l -4.7619 -4.7619 l -4.7619 4.7619 l -9.52381 0 l -4.7619 -4.7619 l -4.7619 4.7619 l 4.7619 4.7619 l 0 9.52381 l -4.7619 4.7619 l 4.7619 4.7619 l 4.7619 -4.7619 l 9.52381 0 l 4.7619 4.7619 l 0 9.52381 l -4.7619 4.7619 l -9.52381 0 l -4.7619 -4.7619 l -4.7619 4.7619 l 4.7619 4.7619 l 0 9.52381 l -4.7619 4.7619 l 4.7619 4.7619 l 4.7619 -4.7619 l 9.52381 0 l 4.7619 4.7619 l 4.7619 -4.7619 l -4.7619 -4.7619 l 0 -9.52381 l 4.7619 -4.7619 l 9.52381 0 l 4.7619 4.7619 l 0 9.52381 l -4.7619 4.7619 l 4.7619 4.7619 l 4.7619 -4.7619 l 9.52381 0 l 4.7619 4.7619 l 0 9.52381 l -4.7619 4.7619 l -9.52381 0 l -4.7619 -4.7619 l -4.7619 4.7619 l 4.7619 4.7619 l 0 9.52381 l -4.7619 4.7619 l -9.52381 0 l -4.7619 -4.7619 l 0 -9.52381 l 4.7619 -4.7619 l -4.7619 -4.7619 l -4.7619 4.7619 l -9.52381 0 l -4.7619 -4.7619 l -4.7619 4.7619 l 4.7619 4.7619 l 0 9.52381 l -4.7619 4.7619 l 4.7619 4.7619 l 4.7619 -4.7619 l 9.52381 0 l 4.7619 4.7619 l 0 9.52381 l -4.7619 4.7619 l -9.52381 0 l -4.7619 -4.7619 l -4.7619 4.7619 l 4.7619 4.7619 l 0 9.52381 l -4.7619 4.7619 l -9.52381 0 l -4.7619 -4.7619 l 0 -9.52381 l 4.7619 -4.7619 l -4.7619 -4.7619 l -4.7619 4.7619 l -9.52381 0 l -4.7619 -4.7619 l 0 -9.52381 l 4.7619 -4.7619 l 9.52381 0 l 4.7619 4.7619 l 4.7619 -4.7619 l -4.7619 -4.7619 l 0 -9.52381 l 4.7619 -4.7619 l -4.7619 -4.7619 l -4.7619 4.7619 l -9.52381 0 l -4.7619 -4.7619 l -4.7619 4.7619 l 4.7619 4.7619 l 0 9.52381 l -4.7619 4.7619 l -9.52381 0 l -4.7619 -4.7619 l 0 -9.52381 l 4.7619 -4.7619 l -4.7619 -4.7619 l -4.7619 4.7619 l -9.52381 0 l -4.7619 -4.7619 l 0 -9.52381 l 4.7619 -4.7619 l 9.52381 0 l 4.7619 4.7619 l 4.7619 -4.7619 l -4.7619 -4.7619 l 0 -9.52381 l 4.7619 -4.7619 l 9.52381 0 l 4.7619 4.7619 l 0 9.52381 l -4.7619 4.7619 l 4.7619 4.7619 l 4.7619 -4.7619 l 9.52381 0 l 4.7619 4.7619 l 4.7619 -4.7619 l -4.7619 -4.7619 l 0 -9.52381 l 4.7619 -4.7619 l -4.7619 -4.7619 l -4.7619 4.7619 l -9.52381 0 l -4.7619 -4.7619 l 0 -9.52381 l 4.7619 -4.7619 l 9.52381 0 l 4.7619 4.7619 l 4.7619 -4.7619 l -4.7619 -4.7619 l 0 -9.52381 l 4.7619 -4.7619 l -4.7619 -4.7619 l -4.7619 4.7619 l -9.52381 0 l -4.7619 -4.7619 l -4.7619 4.7619 l 4.7619 4.7619 l 0 9.52381 l -4.7619 4.7619 l -9.52381 0 l -4.7619 -4.7619 l 0 -9.52381 l 4.7619 -4.7619 l -4.7619 -4.7619 l -4.7619 4.7619 l -9.52381 0 l -4.7619 -4.7619 l -4.7619 4.7619 l 4.7619 4.7619 l 0 9.52381 l -4.7619 4.7619 l 4.7619 4.7619 l 4.7619 -4.7619 l 9.52381 0 l 4.7619 4.7619 l 0 9.52381 l -4.7619 4.7619 l -9.52381 0 l -4.7619 -4.7619 l -4.7619 4.7619 l 4.7619 4.7619 l 0 9.52381 l -4.7619 4.7619 l -9.52381 0 l -4.7619 -4.7619 l 0 -9.52381 l 4.7619 -4.7619 l -4.7619 -4.7619 l -4.7619 4.7619 l -9.52381 0 l -4.7619 -4.7619 l 0 -9.52381 l 4.7619 -4.7619 l 9.52381 0 l 4.7619 4.7619 l 4.7619 -4.7619 l -4.7619 -4.7619 l 0 -9.52381 l 4.7619 -4.7619 l -4.7619 -4.7619 l -4.7619 4.7619 l -9.52381 0 l -4.7619 -4.7619 l -4.7619 4.7619 l 4.7619 4.7619 l 0 9.52381 l -4.7619 4.7619 l -9.52381 0 l -4.7619 -4.7619 l 0 -9.52381 l 4.7619 -4.7619 l -4.7619 -4.7619 l -4.7619 4.7619 l -9.52381 0 l -4.7619 -4.7619 l 0 -9.52381 l 4.7619 -4.7619 l 9.52381 0 l 4.7619 4.7619 l 4.7619 -4.7619 l -4.7619 -4.7619 l 0 -9.52381 l 4.7619 -4.7619 l 9.52381 0 l 4.7619 4.7619 l 0 9.52381 l -4.7619 4.7619 l 4.7619 4.7619 l 4.7619 -4.7619 l 9.52381 0 l 4.7619 4.7619 l 4.7619 -4.7619 l -4.7619 -4.7619 l 0 -9.52381 l 4.7619 -4.7619 l -4.7619 -4.7619 l -4.7619 4.7619 l -9.52381 0 l -4.7619 -4.7619 l 0 -9.52381 l 4.7619 -4.7619 l 9.52381 0 l 4.7619 4.7619 l 4.7619 -4.7619 l -4.7619 -4.7619 l 0 -9.52381 l 4.7619 -4.7619 l 9.52381 0 l 4.7619 4.7619 l 0 9.52381 l -4.7619 4.7619 l 4.7619 4.7619 l 4.7619 -4.7619 l 9.52381 0 l 4.7619 4.7619 l 0 9.52381 l -4.7619 4.7619 l -9.52381 0 l -4.7619 -4.7619 l -4.7619 4.7619 l 4.7619 4.7619 l 0 9.52381 l -4.7619 4.7619 l 4.7619 4.7619 l 4.7619 -4.7619 l 9.52381 0 l 4.7619 4.7619 l 4.7619 -4.7619 l -4.7619 -4.7619 l 0 -9.52381 l 4.7619 -4.7619 l 9.52381 0 l 4.7619 4.7619 l 0 9.52381 l -4.7619 4.7619 l 4.7619 4.7619 l 4.7619 -4.7619 l 9.52381 0 l 4.7619 4.7619 l 4.7619 -4.7619 l -4.7619 -4.7619 l 0 -9.52381 l 4.7619 -4.7619 l -4.7619 -4.7619 l -4.7619 4.7619 l -9.52381 0 l -4.7619 -4.7619 l 0 -9.52381 l 4.7619 -4.7619 l 9.52381 0 l 4.7619 4.7619 l 4.7619 -4.7619 l -4.7619 -4.7619 l 0 -9.52381 l 4.7619 -4.7619 l -4.7619 -4.7619 l -4.7619 4.7619 l -9.52381 0 l -4.7619 -4.7619 l -4.7619 4.7619 l 4.7619 4.7619 l 0 9.52381 l -4.7619 4.7619 l -9.52381 0 l -4.7619 -4.7619 l 0 -9.52381 l 4.7619 -4.7619 l -4.7619 -4.7619 l -4.7619 4.7619 l -9.52381 0 l -4.7619 -4.7619 l 0 -9.52381 l 4.7619 -4.7619 l 9.52381 0 l 4.7619 4.7619 l 4.7619 -4.7619 l -4.7619 -4.7619 l 0 -9.52381 l 4.7619 -4.7619 l 9.52381 0 l 4.7619 4.7619 l 0 9.52381 l -4.7619 4.7619 l 4.7619 4.7619 l 4.7619 -4.7619 l 9.52381 0 l 4.7619 4.7619 l 4.7619 -4.7619 l -4.7619 -4.7619 l 0 -9.52381 l 4.7619 -4.7619 l -4.7619 -4.7619 l -4.7619 4.7619 l -9.52381 0 l -4.7619 -4.7619 l 0 -9.52381 l 4.7619 -4.7619 l 9.52381 0 l 4.7619 4.7619 l 4.7619 -4.7619 l -4.7619 -4.7619 l 0 -9.52381 l 4.7619 -4.7619 l -4.7619 -4.7619 l -4.7619 4.7619 l -9.52381 0 l -4.7619 -4.7619 l -4.7619 4.7619 l 4.7619 4.7619 l 0 9.52381 l -4.7619 4.7619 l -9.52381 0 l -4.7619 -4.7619 l 0 -9.52381 l 4.7619 -4.7619 l -4.7619 -4.7619 l -4.7619 4.7619 l -9.52381 0 l -4.7619 -4.7619 l -4.7619 4.7619 l 4.7619 4.7619 l 0 9.52381 l -4.7619 4.7619 l 4.7619 4.7619 l 4.7619 -4.7619 l 9.52381 0 l 4.7619 4.7619 l 0 9.52381 l -4.7619 4.7619 l -9.52381 0 l -4.7619 -4.7619 l -4.7619 4.7619 l 4.7619 4.7619 l 0 9.52381 l -4.7619 4.7619 l -9.52381 0 l -4.7619 -4.7619 l 0 -9.52381 l 4.7619 -4.7619 l -4.7619 -4.7619 l -4.7619 4.7619 l -9.52381 0 l -4.7619 -4.7619 l 0 -9.52381 l 4.7619 -4.7619 l 9.52381 0 l 4.7619 4.7619 l 4.7619 -4.7619 l -4.7619 -4.7619 l 0 -9.52381 l 4.7619 -4.7619 l -4.7619 -4.7619 l -4.7619 4.7619 l -9.52381 0 l -4.7619 -4.7619 l -4.7619 4.7619 l 4.7619 4.7619 l 0 9.52381 l -4.7619 4.7619 l -9.52381 0 l -4.7619 -4.7619 l 0 -9.52381 l 4.7619 -4.7619 l -4.7619 -4.7619 l -4.7619 4.7619 l -9.52381 0 l -4.7619 -4.7619 l -4.7619 4.7619 l 4.7619 4.7619 l 0 9.52381 l -4.7619 4.7619 l 4.7619 4.7619 l 4.7619 -4.7619 l 9.52381 0 l 4.7619 4.7619 l 0 9.52381 l -4.7619 4.7619 l -9.52381 0 l -4.7619 -4.7619 l -4.7619 4.7619 l 4.7619 4.7619 l 0 9.52381 l -4.7619 4.7619 l 4.7619 4.7619 l 4.7619 -4.7619 l 9.52381 0 l 4.7619 4.7619 l 4.7619 -4.7619 l -4.7619 -4.7619 l 0 -9.52381 l 4.7619 -4.7619 l 9.52381 0 l 4.7619 4.7619 l 0 9.52381 l -4.7619 4.7619 l 4.7619 4.7619 l 4.7619 -4.7619 l 9.52381 0 l 4.7619 4.7619 l 0 9.52381 l -4.7619 4.7619 l -9.52381 0 l -4.7619 -4.7619 l -4.7619 4.7619 l 4.7619 4.7619 l 0 9.52381 l -4.7619 4.7619 l -9.52381 0 l -4.7619 -4.7619 l 0 -9.52381 l 4.7619 -4.7619 l -4.7619 -4.7619 l -4.7619 4.7619 l -9.52381 0 l -4.7619 -4.7619 l -4.7619 4.7619 l 4.7619 4.7619 l 0 9.52381 l -4.7619 4.7619 l 4.7619 4.7619 l 4.7619 -4.7619 l 9.52381 0 l 4.7619 4.7619 l 0 9.52381 l -4.7619 4.7619 l -9.52381 0 l -4.7619 -4.7619 l -4.7619 4.7619 l 4.7619 4.7619 l 0 9.52381 l -4.7619 4.7619 l -9.52381 0 l -4.7619 -4.7619 l 0 -9.52381 l 4.7619 -4.7619 l -4.7619 -4.7619 l -4.7619 4.7619 l -9.52381 0 l -4.7619 -4.7619 l 0 -9.52381 l 4.7619 -4.7619 l 9.52381 0 l 4.7619 4.7619 l 4.7619 -4.7619 l -4.7619 -4.7619 l 0 -9.52381 l 4.7619 -4.7619 l -4.7619 -4.7619 l -4.7619 4.7619 l -9.52381 0 l -4.7619 -4.7619 l -4.7619 4.7619 l 4.7619 4.7619 l 0 9.52381 l -4.7619 4.7619 l -9.52381 0 l -4.7619 -4.7619 l 0 -9.52381 l 4.7619 -4.7619 l -4.7619 -4.7619 l -4.7619 4.7619 l -9.52381 0 l -4.7619 -4.7619 l 0 -9.52381 l 4.7619 -4.7619 l 9.52381 0 l 4.7619 4.7619 l 4.7619 -4.7619 l -4.7619 -4.7619 l 0 -9.52381 l 4.7619 -4.7619 l 9.52381 0 l 4.7619 4.7619 l 0 9.52381 l -4.7619 4.7619 l 4.7619 4.7619 l 4.7619 -4.7619 l 9.52381 0 l 4.7619 4.7619 l 4.7619 -4.7619 l -4.7619 -4.7619 l 0 -9.52381 l 4.7619 -4.7619 l -4.7619 -4.7619 l -4.7619 4.7619 l -9.52381 0 l -4.7619 -4.7619 l 0 -9.52381 l 4.7619 -4.7619 l 9.52381 0 l 4.7619 4.7619 l 4.7619 -4.7619 l -4.7619 -4.7619 l 0 -9.52381 l 4.7619 -4.7619 l -4.7619 -4.7619 l -4.7619 4.7619 l -9.52381 0 l -4.7619 -4.7619 l -4.7619 4.7619 l 4.7619 4.7619 l 0 9.52381 l -4.7619 4.7619 l -9.52381 0 l -4.7619 -4.7619 l 0 -9.52381 l 4.7619 -4.7619 l -4.7619 -4.7619 l -4.7619 4.7619 l -9.52381 0 l -4.7619 -4.7619 l -4.7619 4.7619 l 4.7619 4.7619 l 0 9.52381 l -4.7619 4.7619 l 4.7619 4.7619 l 4.7619 -4.7619 l 9.52381 0 l 4.7619 4.7619 l 0 9.52381 l -4.7619 4.7619 l -9.52381 0 l -4.7619 -4.7619 l -4.7619 4.7619 l 4.7619 4.7619 l 0 9.52381 l -4.7619 4.7619 l -9.52381 0 l -4.7619 -4.7619 l 0 -9.52381 l 4.7619 -4.7619 l -4.7619 -4.7619 l -4.7619 4.7619 l -9.52381 0 l -4.7619 -4.7619 l 0 -9.52381 l 4.7619 -4.7619 l 9.52381 0 l 4.7619 4.7619 l 4.7619 -4.7619 l -4.7619 -4.7619 l 0 -9.52381 l 4.7619 -4.7619 l -4.7619 -4.7619 l -4.7619 4.7619 l -9.52381 0 l -4.7619 -4.7619 l -4.7619 4.7619 l 4.7619 4.7619 l 0 9.52381 l -4.7619 4.7619 l -9.52381 0 l -4.7619 -4.7619 l 0 -9.52381 l 4.7619 -4.7619 l -4.7619 -4.7619 l -4.7619 4.7619 l -9.52381 0 l -4.7619 -4.7619 l -4.7619 4.7619 l 4.7619 4.7619 l 0 9.52381 l -4.7619 4.7619 l 4.7619 4.7619 l 4.7619 -4.7619 l 9.52381 0 l 4.7619 4.7619 l 0 9.52381 l -4.7619 4.7619 l -9.52381 0 l -4.7619 -4.7619 l -4.7619 4.7619 l 4.7619 4.7619 l 0 9.52381 l -4.7619 4.7619 l 4.7619 4.7619 l 4.7619 -4.7619 l 9.52381 0 l 4.7619 4.7619 l 4.7619 -4.7619 l -4.7619 -4.7619 l 0 -9.52381 l 4.7619 -4.7619 l 9.52381 0 l 4.7619 4.7619 l 0 9.52381 l -4.7619 4.7619 l 4.7619 4.7619 l 4.7619 -4.7619 l 9.52381 0 l 4.7619 4.7619 l 0 9.52381 l -4.7619 4.7619 l -9.52381 0 l -4.7619 -4.7619 l -4.7619 4.7619 l 4.7619 4.7619 l 0 9.52381 l -4.7619 4.7619 l -9.52381 0 l -4.7619 -4.7619 l 0 -9.52381 l 4.7619 -4.7619 l -4.7619 -4.7619 l -4.7619 4.7619 l -9.52381 0 l -4.7619 -4.7619 l -4.7619 4.7619 l 4.7619 4.7619 l 0 9.52381 l -4.7619 4.7619 l 4.7619 4.7619 l 4.7619 -4.7619 l 9.52381 0 l 4.7619 4.7619 l 0 9.52381 l -4.7619 4.7619 l -9.52381 0 l -4.7619 -4.7619 l -4.7619 4.7619 l 4.7619 4.7619 l 0 9.52381 l -4.7619 4.7619 l 4.7619 4.7619 l 4.7619 -4.7619 l 9.52381 0 l 4.7619 4.7619 l 4.7619 -4.7619 l -4.7619 -4.7619 l 0 -9.52381 l 4.7619 -4.7619 l 9.52381 0 l 4.7619 4.7619 l 0 9.52381 l -4.7619 4.7619 l 4.7619 4.7619 l 4.7619 -4.7619 l 9.52381 0 l 4.7619 4.7619 l 4.7619 -4.7619 l -4.7619 -4.7619 l 0 -9.52381 l 4.7619 -4.7619 l -4.7619 -4.7619 l -4.7619 4.7619 l -9.52381 0 l -4.7619 -4.7619 l 0 -9.52381 l 4.7619 -4.7619 l 9.52381 0 l 4.7619 4.7619 l 4.7619 -4.7619 l -4.7619 -4.7619 l 0 -9.52381 l 4.7619 -4.7619 l 9.52381 0 l 4.7619 4.7619 l 0 9.52381 l -4.7619 4.7619 l 4.7619 4.7619 l 4.7619 -4.7619 l 9.52381 0 l 4.7619 4.7619 l 0 9.52381 l -4.7619 4.7619 l -9.52381 0 l -4.7619 -4.7619 l -4.7619 4.7619 l 4.7619 4.7619 l 0 9.52381 l -4.7619 4.7619 l 4.7619 4.7619 l 4.7619 -4.7619 l 9.52381 0 l 4.7619 4.7619 l 4.7619 -4.7619 l -4.7619 -4.7619 l 0 -9.52381 l 4.7619 -4.7619 l 9.52381 0 l 4.7619 4.7619 l 0 9.52381 l -4.7619 4.7619 l 4.7619 4.7619 l 4.7619 -4.7619 l 9.52381 0 l 4.7619 4.7619 l 0 9.52381 l -4.7619 4.7619 l -9.52381 0 l -4.7619 -4.7619 l -4.7619 4.7619 l 4.7619 4.7619 l 0 9.52381 l -4.7619 4.7619 l -9.52381 0 l -4.7619 -4.7619 l 0 -9.52381 l 4.7619 -4.7619 l -4.7619 -4.7619 l -4.7619 4.7619 l -9.52381 0 l -4.7619 -4.7619 l -4.7619 4.7619 l 4.7619 4.7619 l 0 9.52381 l -4.7619 4.7619 l 4.7619 4.7619 l 4.7619 -4.7619 l 9.52381 0 l 4.7619 4.7619 l 0 9.52381 l -4.7619 4.7619 l -9.52381 0 l -4.7619 -4.7619 l -4.7619 4.7619 l 4.7619 4.7619 l 0 9.52381 l -4.7619 4.7619 l -9.52381 0 l -4.7619 -4.7619 l 0 -9.52381 l 4.7619 -4.7619 l -4.7619 -4.7619 l -4.7619 4.7619 l -9.52381 0 l -4.7619 -4.7619 l 0 -9.52381 l 4.7619 -4.7619 l 9.52381 0 l 4.7619 4.7619 l 4.7619 -4.7619 l -4.7619 -4.7619 l 0 -9.52381 l 4.7619 -4.7619 l -4.7619 -4.7619 l -4.7619 4.7619 l -9.52381 0 l -4.7619 -4.7619 l -4.7619 4.7619 l 4.7619 4.7619 l 0 9.52381 l -4.7619 4.7619 l -9.52381 0 l -4.7619 -4.7619 l 0 -9.52381 l 4.7619 -4.7619 l -4.7619 -4.7619 l -4.7619 4.7619 l -9.52381 0 l -4.7619 -4.7619 l -4.7619 4.7619 l 4.7619 4.7619 l 0 9.52381 l -4.7619 4.7619 l 4.7619 4.7619 l 4.7619 -4.7619 l 9.52381 0 l 4.7619 4.7619 l 0 9.52381 l -4.7619 4.7619 l -9.52381 0 l -4.7619 -4.7619 l -4.7619 4.7619 l 4.7619 4.7619 l 0 9.52381 l -4.7619 4.7619 l 4.7619 4.7619 l 4.7619 -4.7619 l 9.52381 0 l 4.7619 4.7619 l 4.7619 -4.7619 l -4.7619 -4.7619 l 0 -9.52381 l 4.7619 -4.7619 l 9.52381 0 l 4.7619 4.7619 l 0 9.52381 l -4.7619 4.7619 l 4.7619 4.7619 l 4.7619 -4.7619 l 9.52381 0 l 4.7619 4.7619 l 0 9.52381 l -4.7619 4.7619 l -9.52381 0 l -4.7619 -4.7619 l -4.7619 4.7619 l 4.7619 4.7619 l 0 9.52381 l -4.7619 4.7619 l -9.52381 0 l -4.7619 -4.7619 l 0 -9.52381 l 4.7619 -4.7619 l -4.7619 -4.7619 l -4.7619 4.7619 l -9.52381 0 l -4.7619 -4.7619 l -4.7619 4.7619 l 4.7619 4.7619 l 0 9.52381 l -4.7619 4.7619 l 4.7619 4.7619 l 4.7619 -4.7619 l 9.52381 0 l 4.7619 4.7619 l 0 9.52381 l -4.7619 4.7619 l -9.52381 0 l -4.7619 -4.7619 l -4.7619 4.7619 l 4.7619 4.7619 l 0 9.52381 l -4.7619 4.7619 l 4.7619 4.7619 l 4.7619 -4.7619 l 9.52381 0 l 4.7619 4.7619 l 4.7619 -4.7619 l -4.7619 -4.7619 l 0 -9.52381 l 4.7619 -4.7619 l 9.52381 0 l 4.7619 4.7619 l 0 9.52381 l -4.7619 4.7619 l 4.7619 4.7619 l 4.7619 -4.7619 l 9.52381 0 l 4.7619 4.7619 l 4.7619 -4.7619 l -4.7619 -4.7619 l 0 -9.52381 l 4.7619 -4.7619 l -4.7619 -4.7619 l -4.7619 4.7619 l -9.52381 0 l -4.7619 -4.7619 l 0 -9.52381 l 4.7619 -4.7619 l 9.52381 0 l 4.7619 4.7619 l 4.7619 -4.7619 l -4.7619 -4.7619 l 0 -9.52381 l 4.7619 -4.7619 l 9.52381 0 l 4.7619 4.7619 l 0 9.52381 l -4.7619 4.7619 l 4.7619 4.7619 l 4.7619 -4.7619 l 9.52381 0 l 4.7619 4.7619 l 0 9.52381 l -4.7619 4.7619 l -9.52381 0 l -4.7619 -4.7619 l -4.7619 4.7619 l 4.7619 4.7619 l 0 9.52381 l -4.7619 4.7619 l 4.7619 4.7619 l 4.7619 -4.7619 l 9.52381 0 l 4.7619 4.7619 l 4.7619 -4.7619 l -4.7619 -4.7619 l 0 -9.52381 l 4.7619 -4.7619 l 9.52381 0 l 4.7619 4.7619 l 0 9.52381 l -4.7619 4.7619 l 4.7619 4.7619 l 4.7619 -4.7619 l 9.52381 0 l 4.7619 4.7619 l 4.7619 -4.7619 l -4.7619 -4.7619 l 0 -9.52381 l 4.7619 -4.7619 l -4.7619 -4.7619 l -4.7619 4.7619 l -9.52381 0 l -4.7619 -4.7619 l 0 -9.52381 l 4.7619 -4.7619 l 9.52381 0 l 4.7619 4.7619 l 4.7619 -4.7619 l -4.7619 -4.7619 l 0 -9.52381 l 4.7619 -4.7619 l -4.7619 -4.7619 l -4.7619 4.7619 l -9.52381 0 l -4.7619 -4.7619 l -4.7619 4.7619 l 4.7619 4.7619 l 0 9.52381 l -4.7619 4.7619 l -9.52381 0 l -4.7619 -4.7619 l 0 -9.52381 l 4.7619 -4.7619 l -4.7619 -4.7619 l -4.7619 4.7619 l -9.52381 0 l -4.7619 -4.7619 l 0 -9.52381 l 4.7619 -4.7619 l 9.52381 0 l 4.7619 4.7619 l 4.7619 -4.7619 l -4.7619 -4.7619 l 0 -9.52381 l 4.7619 -4.7619 l 9.52381 0 l 4.7619 4.7619 l 0 9.52381 l -4.7619 4.7619 l 4.7619 4.7619 l 4.7619 -4.7619 l 9.52381 0 l 4.7619 4.7619 l 4.7619 -4.7619 l -4.7619 -4.7619 l 0 -9.52381 l 4.7619 -4.7619 l -4.7619 -4.7619 l -4.7619 4.7619 l -9.52381 0 l -4.7619 -4.7619 l 0 -9.52381 l 4.7619 -4.7619 l 9.52381 0 l 4.7619 4.7619 l 4.7619 -4.7619 l -4.7619 -4.7619 l 0 -9.52381 l 4.7619 -4.7619 l 9.52381 0 l 4.7619 4.7619 l 0 9.52381 l -4.7619 4.7619 l 4.7619 4.7619 l 4.7619 -4.7619 l 9.52381 0 l 4.7619 4.7619 l 0 9.52381 l -4.7619 4.7619 l -9.52381 0 l -4.7619 -4.7619 l -4.7619 4.7619 l 4.7619 4.7619 l 0 9.52381 l -4.7619 4.7619 l 4.7619 4.7619 l 4.7619 -4.7619 l 9.52381 0 l 4.7619 4.7619 l 4.7619 -4.7619 l -4.7619 -4.7619 l 0 -9.52381 l 4.7619 -4.7619 l 9.52381 0 l 4.7619 4.7619 l 0 9.52381 l -4.7619 4.7619 l 4.7619 4.7619 l 4.7619 -4.7619 l 9.52381 0 l 4.7619 4.7619 l 0 9.52381 l -4.7619 4.7619 l -9.52381 0 l -4.7619 -4.7619 l -4.7619 4.7619 l 4.7619 4.7619 l 0 9.52381 l -4.7619 4.7619 l -9.52381 0 l -4.7619 -4.7619 l 0 -9.52381 l 4.7619 -4.7619 l -4.7619 -4.7619 l -4.7619 4.7619 l -9.52381 0 l -4.7619 -4.7619 l -4.7619 4.7619 l 4.7619 4.7619 l 0 9.52381 l -4.7619 4.7619 l 4.7619 4.7619 l 4.7619 -4.7619 l 9.52381 0 l 4.7619 4.7619 l 0 9.52381 l -4.7619 4.7619 l -9.52381 0 l -4.7619 -4.7619 l -4.7619 4.7619 l 4.7619 4.7619 l 0 9.52381 l -4.7619 4.7619 l 4.7619 4.7619 l 4.7619 -4.7619 l 9.52381 0 l 4.7619 4.7619 l 4.7619 -4.7619 l -4.7619 -4.7619 l 0 -9.52381 l 4.7619 -4.7619 l 9.52381 0 l 4.7619 4.7619 l 0 9.52381 l -4.7619 4.7619 l 4.7619 4.7619 l 4.7619 -4.7619 l 9.52381 0 l 4.7619 4.7619 l 4.7619 -4.7619 l -4.7619 -4.7619 l 0 -9.52381 l 4.7619 -4.7619 l -4.7619 -4.7619 l -4.7619 4.7619 l -9.52381 0 l -4.7619 -4.7619 l 0 -9.52381 l 4.7619 -4.7619 l 9.52381 0 l 4.7619 4.7619 l 4.7619 -4.7619 l -4.7619 -4.7619 l 0 -9.52381 l 4.7619 -4.7619 l 9.52381 0 l 4.7619 4.7619 l 0 9.52381 l -4.7619 4.7619 l 4.7619 4.7619 l 4.7619 -4.7619 l 9.52381 0 l 4.7619 4.7619 l 0 9.52381 l -4.7619 4.7619 l -9.52381 0 l -4.7619 -4.7619 l -4.7619 4.7619 l 4.7619 4.7619 l 0 9.52381 l -4.7619 4.7619 l 4.7619 4.7619 l 4.7619 -4.7619 l 9.52381 0 l 4.7619 4.7619 l 4.7619 -4.7619 l -4.7619 -4.7619 l 0 -9.52381 l 4.7619 -4.7619 l 9.52381 0 l 4.7619 4.7619 l 0 9.52381 l -4.7619 4.7619 l 4.7619 4.7619 l 4.7619 -4.7619 l 9.52381 0 l 4.7619 4.7619 l 0 9.52381 l -4.7619 4.7619 l -9.52381 0 l -4.7619 -4.7619 l -4.7619 4.7619 l 4.7619 4.7619 l 0 9.52381 l -4.7619 4.7619 l -9.52381 0 l -4.7619 -4.7619 l 0 -9.52381 l 4.7619 -4.7619 l -4.7619 -4.7619 l -4.7619 4.7619 l -9.52381 0 l -4.7619 -4.7619 l -4.7619 4.7619 l 4.7619 4.7619 l 0 9.52381 l -4.7619 4.7619 l 4.7619 4.7619 l 4.7619 -4.7619 l 9.52381 0 l 4.7619 4.7619 l 0 9.52381 l -4.7619 4.7619 l -9.52381 0 l -4.7619 -4.7619 l -4.7619 4.7619 l 4.7619 4.7619 l 0 9.52381 l -4.7619 4.7619 l -9.52381 0 l -4.7619 -4.7619 l 0 -9.52381 l 4.7619 -4.7619 l -4.7619 -4.7619 l -4.7619 4.7619 l -9.52381 0 l -4.7619 -4.7619 l 0 -9.52381 l 4.7619 -4.7619 l 9.52381 0 l 4.7619 4.7619 l 4.7619 -4.7619 l -4.7619 -4.7619 l 0 -9.52381 l 4.7619 -4.7619 l -4.7619 -4.7619 l -4.7619 4.7619 l -9.52381 0 l -4.7619 -4.7619 l -4.7619 4.7619 l 4.7619 4.7619 l 0 9.52381 l -4.7619 4.7619 l -9.52381 0 l -4.7619 -4.7619 l 0 -9.52381 l 4.7619 -4.7619 l -4.7619 -4.7619 l -4.7619 4.7619 l -9.52381 0 l -4.7619 -4.7619 l -4.7619 4.7619 l 4.7619 4.7619 l 0 9.52381 l -4.7619 4.7619 l 4.7619 4.7619 l 4.7619 -4.7619 l 9.52381 0 l 4.7619 4.7619 l 0 9.52381 l -4.7619 4.7619 l -9.52381 0 l -4.7619 -4.7619 l -4.7619 4.7619 l 4.7619 4.7619 l 0 9.52381 l -4.7619 4.7619 l 4.7619 4.7619 l 4.7619 -4.7619 l 9.52381 0 l 4.7619 4.7619 l 4.7619 -4.7619 l -4.7619 -4.7619 l 0 -9.52381 l 4.7619 -4.7619 l 9.52381 0 l 4.7619 4.7619 l 0 9.52381 l -4.7619 4.7619 l 4.7619 4.7619 l 4.7619 -4.7619 l 9.52381 0 l 4.7619 4.7619 l 0 9.52381 l -4.7619 4.7619 l -9.52381 0 l -4.7619 -4.7619 l -4.7619 4.7619 l 4.7619 4.7619 l 0 9.52381 l -4.7619 4.7619 l -9.52381 0 l -4.7619 -4.7619 l 0 -9.52381 l 4.7619 -4.7619 l -4.7619 -4.7619 l -4.7619 4.7619 l -9.52381 0 l -4.7619 -4.7619 l -4.7619 4.7619 l 4.7619 4.7619 l 0 9.52381 l -4.7619 4.7619 l 4.7619 4.7619 l 4.7619 -4.7619 l 9.52381 0 l 4.7619 4.7619 l 0 9.52381 l -4.7619 4.7619 l -9.52381 0 l -4.7619 -4.7619 l -4.7619 4.7619 l 4.7619 4.7619 l 0 9.52381 l -4.7619 4.7619 l -9.52381 0 l -4.7619 -4.7619 l 0 -9.52381 l 4.7619 -4.7619 l -4.7619 -4.7619 l -4.7619 4.7619 l -9.52381 0 l -4.7619 -4.7619 l 0 -9.52381 l 4.7619 -4.7619 l 9.52381 0 l 4.7619 4.7619 l 4.7619 -4.7619 l -4.7619 -4.7619 l 0 -9.52381 l 4.7619 -4.7619 l -4.7619 -4.7619 l -4.7619 4.7619 l -9.52381 0 l -4.7619 -4.7619 l -4.7619 4.7619 l 4.7619 4.7619 l 0 9.52381 l -4.7619 4.7619 l -9.52381 0 l -4.7619 -4.7619 l 0 -9.52381 l 4.7619 -4.7619 l -4.7619 -4.7619 l -4.7619 4.7619 l -9.52381 0 l -4.7619 -4.7619 l 0 -9.52381 l 4.7619 -4.7619 l 9.52381 0 l 4.7619 4.7619 l 4.7619 -4.7619 l -4.7619 -4.7619 l 0 -9.52381 l 4.7619 -4.7619 l 9.52381 0 l 4.7619 4.7619 l 0 9.52381 l -4.7619 4.7619 l 4.7619 4.7619 l 4.7619 -4.7619 l 9.52381 0 l 4.7619 4.7619 l 4.7619 -4.7619 l -4.7619 -4.7619 l 0 -9.52381 l 4.7619 -4.7619 l -4.7619 -4.7619 l -4.7619 4.7619 l -9.52381 0 l -4.7619 -4.7619 l 0 -9.52381 l 4.7619 -4.7619 l 9.52381 0 l 4.7619 4.7619 l 4.7619 -4.7619 l -4.7619 -4.7619 l 0 -9.52381 l 4.7619 -4.7619 l -4.7619 -4.7619 l -4.7619 4.7619 l -9.52381 0 l -4.7619 -4.7619 l -4.7619 4.7619 l 4.7619 4.7619 l 0 9.52381 l -4.7619 4.7619 l -9.52381 0 l -4.7619 -4.7619 l 0 -9.52381 l 4.7619 -4.7619 l -4.7619 -4.7619 l -4.7619 4.7619 l -9.52381 0 l -4.7619 -4.7619 l -4.7619 4.7619 l 4.7619 4.7619 l 0 9.52381 l -4.7619 4.7619 l 4.7619 4.7619 l 4.7619 -4.7619 l 9.52381 0 l 4.7619 4.7619 l 0 9.52381 l -4.7619 4.7619 l -9.52381 0 l -4.7619 -4.7619 l -4.7619 4.7619 l 4.7619 4.7619 l 0 9.52381 l -4.7619 4.7619 l -9.52381 0 l -4.7619 -4.7619 l 0 -9.52381 l 4.7619 -4.7619 l -4.7619 -4.7619 l -4.7619 4.7619 l -9.52381 0 l -4.7619 -4.7619 l 0 -9.52381 l 4.7619 -4.7619 l 9.52381 0 l 4.7619 4.7619 l 4.7619 -4.7619 l -4.7619 -4.7619 l 0 -9.52381 l 4.7619 -4.7619 l -4.7619 -4.7619 l -4.7619 4.7619 l -9.52381 0 l -4.7619 -4.7619 l -4.7619 4.7619 l 4.7619 4.7619 l 0 9.52381 l -4.7619 4.7619 l -9.52381 0 l -4.7619 -4.7619 l 0 -9.52381 l 4.7619 -4.7619 l -4.7619 -4.7619 l -4.7619 4.7619 l -9.52381 0 l -4.7619 -4.7619 l -4.7619 4.7619 l 4.7619 4.7619 l 0 9.52381 l -4.7619 4.7619 l 4.7619 4.7619 l 4.7619 -4.7619 l 9.52381 0 l 4.7619 4.7619 l 0 9.52381 l -4.7619 4.7619 l -9.52381 0 l -4.7619 -4.7619 l -4.7619 4.7619 l 4.7619 4.7619 l 0 9.52381 l -4.7619 4.7619 l 4.7619 4.7619 l 4.7619 -4.7619 l 9.52381 0 l 4.7619 4.7619 l 4.7619 -4.7619 l -4.7619 -4.7619 l 0 -9.52381 l 4.7619 -4.7619 l 9.52381 0 l 4.7619 4.7619 l 0 9.52381 l -4.7619 4.7619 l 4.7619 4.7619 l 4.7619 -4.7619 l 9.52381 0 l 4.7619 4.7619 l 0 9.52381 l -4.7619 4.7619 l -9.52381 0 l -4.7619 -4.7619 l -4.7619 4.7619 l 4.7619 4.7619 l 0 9.52381 l -4.7619 4.7619 l -9.52381 0 l -4.7619 -4.7619 l 0 -9.52381 l 4.7619 -4.7619 l -4.7619 -4.7619 l -4.7619 4.7619 l -9.52381 0 l -4.7619 -4.7619 l -4.7619 4.7619 l 4.7619 4.7619 l 0 9.52381 l -4.7619 4.7619 l 4.7619 4.7619 l 4.7619 -4.7619 l 9.52381 0 l 4.7619 4.7619 l 0 9.52381 l -4.7619 4.7619 l -9.52381 0 l -4.7619 -4.7619 l -4.7619 4.7619 l 4.7619 4.7619 l 0 9.52381 l -4.7619 4.7619 l 4.7619 4.7619 l 4.7619 -4.7619 l 9.52381 0 l 4.7619 4.7619 l 4.7619 -4.7619 l -4.7619 -4.7619 l 0 -9.52381 l 4.7619 -4.7619 l 9.52381 0 l 4.7619 4.7619 l 0 9.52381 l -4.7619 4.7619 l 4.7619 4.7619 l 4.7619 -4.7619 l 9.52381 0 l 4.7619 4.7619 l 4.7619 -4.7619 l -4.7619 -4.7619 l 0 -9.52381 l 4.7619 -4.7619 l -4.7619 -4.7619 l -4.7619 4.7619 l -9.52381 0 l -4.7619 -4.7619 l 0 -9.52381 l 4.7619 -4.7619 l 9.52381 0 l 4.7619 4.7619 l 4.7619 -4.7619 l -4.7619 -4.7619 l 0 -9.52381 l 4.7619 -4.7619 l 9.52381 0 l 4.7619 4.7619 l 0 9.52381 l -4.7619 4.7619 l 4.7619 4.7619 l 4.7619 -4.7619 l 9.52381 0 l 4.7619 4.7619 l 0 9.52381 l -4.7619 4.7619 l -9.52381 0 l -4.7619 -4.7619 l -4.7619 4.7619 l 4.7619 4.7619 l 0 9.52381 l -4.7619 4.7619 l 4.7619 4.7619 l 4.7619 -4.7619 l 9.52381 0 l 4.7619 4.7619 l 4.7619 -4.7619 l -4.7619 -4.7619 l 0 -9.52381 l 4.7619 -4.7619 l 9.52381 0 l 4.7619 4.7619 l 0 9.52381 l -4.7619 4.7619 l 4.7619 4.7619 l 4.7619 -4.7619 l 9.52381 0 l 4.7619 4.7619 l 0 9.52381 l -4.7619 4.7619 l -9.52381 0 l -4.7619 -4.7619 l -4.7619 4.7619 l 4.7619 4.7619 l 0 9.52381 l -4.7619 4.7619 l -9.52381 0 l -4.7619 -4.7619 l 0 -9.52381 l 4.7619 -4.7619 l -4.7619 -4.7619 l -4.7619 4.7619 l -9.52381 0 l -4.7619 -4.7619 l -4.7619 4.7619 l 4.7619 4.7619 l 0 9.52381 l -4.7619 4.7619 l 4.7619 4.7619 l 4.7619 -4.7619 l 9.52381 0 l 4.7619 4.7619 l 0 9.52381 l -4.7619 4.7619 l -9.52381 0 l -4.7619 -4.7619 l -4.7619 4.7619 l 4.7619 4.7619 l 0 9.52381 l -4.7619 4.7619 l -9.52381 0 l -4.7619 -4.7619 l 0 -9.52381 l 4.7619 -4.7619 l -4.7619 -4.7619 l -4.7619 4.7619 l -9.52381 0 l -4.7619 -4.7619 l 0 -9.52381 l 4.7619 -4.7619 l 9.52381 0 l 4.7619 4.7619 l 4.7619 -4.7619 l -4.7619 -4.7619 l 0 -9.52381 l 4.7619 -4.7619 l -4.7619 -4.7619 l -4.7619 4.7619 l -9.52381 0 l -4.7619 -4.7619 l -4.7619 4.7619 l 4.7619 4.7619 l 0 9.52381 l -4.7619 4.7619 l -9.52381 0 l -4.7619 -4.7619 l 0 -9.52381 l 4.7619 -4.7619 l -4.7619 -4.7619 l -4.7619 4.7619 l -9.52381 0 l -4.7619 -4.7619 l -4.7619 4.7619 l 4.7619 4.7619 l 0 9.52381 l -4.7619 4.7619 l 4.7619 4.7619 l 4.7619 -4.7619 l 9.52381 0 l 4.7619 4.7619 l 0 9.52381 l -4.7619 4.7619 l -9.52381 0 l -4.7619 -4.7619 l -4.7619 4.7619 l 4.7619 4.7619 l 0 9.52381 l -4.7619 4.7619 l 4.7619 4.7619 l 4.7619 -4.7619 l 9.52381 0 l 4.7619 4.7619 l 4.7619 -4.7619 l -4.7619 -4.7619 l 0 -9.52381 l 4.7619 -4.7619 l 9.52381 0 l 4.7619 4.7619 l 0 9.52381 l -4.7619 4.7619 l 4.7619 4.7619 l 4.7619 -4.7619 l 9.52381 0 l 4.7619 4.7619 l 0 9.52381 l -4.7619 4.7619 l -9.52381 0 l -4.7619 -4.7619 l -4.7619 4.7619 l 4.7619 4.7619 l 0 9.52381 l -4.7619 4.7619 l -9.52381 0 l -4.7619 -4.7619 l 0 -9.52381 l 4.7619 -4.7619 l -4.7619 -4.7619 l -4.7619 4.7619 l -9.52381 0 l -4.7619 -4.7619 l -4.7619 4.7619 l 4.7619 4.7619 l 0 9.52381 l -4.7619 4.7619 l 4.7619 4.7619 l 4.7619 -4.7619 l 9.52381 0 l 4.7619 4.7619 l 0 9.52381 l -4.7619 4.7619 l -9.52381 0 l -4.7619 -4.7619 l -4.7619 4.7619 l 4.7619 4.7619 l 0 9.52381 l -4.7619 4.7619 l 4.7619 4.7619 Z" fill="none" stroke="black" />
</svg>
