<svg xmlns="http://www.w3.org/2000/svg" version="1.1" width="602" height="602">
<path d="M 21 601 l 20 -20 l 40 0 l 20 20 l 20 -20 l -20 -20 l 0 -40 l 20 -20 l 40 0 l 20 20 l 0 40 l -20 20 l 20 20 l 20 -20 l 40 0 l 20 20 l 20 -20 l -20 -20 l 0 -40 l 20 -20 l -20 -20 l -20 20 l -40 0 l -20 -20 l 0 -40 l 20 -20 l 40 0 l 20 20 l 20 -20 l -20 -20 l 0 -40 l 20 -20 l 40 0 l 20 20 l 0 40 l -20 20 l 20 20 l 20 -20 l 40 0 l 20 20 l 0 40 l -20 20 l -40 0 l -20 -20 l -20 20 l 20 20 l 0 40 l -20 20 l 20 20 l 20 -20 l 40 0 l 20 20 l 20 -20 l -20 -20 l 0 -40 l 20 -20 l 40 0 l 20 20 l 0 40 l -20 20 l 20 20 l 20 -20 l 40 0 l 20 20 l 20 -20 l -20 -20 l 0 -40 l 20 -20 l -20 -20 l -20 20 l -40 0 l -20 -20 l 0 -40 l 20 -20 l 40 0 l 20 20 l 20 -20 l -20 -20 l 0 -40 l 20 -20 l -20 -20 l -20 20 l -40 0 l -20 -20 l -20 20 l 20 20 l 0 40 l -20 20 l -40 0 l -20 -20 l 0 -40 l 20 -20 l -20 -20 l -20 20 l -40 0 l -20 -20 l 0 -40 l 20 -20 l 40 0 l 20 20 l 20 -20 l -20 -20 l 0 -40 l 20 -20 l 40 0 l 20 20 l 0 40 l -20 20 l 20 20 l 20 -20 l 40 0 l 20 20 l 20 -20 l -20 -20 l 0 -40 l 20 -20 l -20 -20 l -20 20 l -40 0 l -20 -20 l 0 -40 l 20 -20 l 40 0 l 20 20 l 20 -20 l -20 -20 l 0 -40 l 20 -20 l -20 -20 l -20 20 l -40 0 l -20 -20 l -20 20 l 20 20 l 0 40 l -20 20 l -40 0 l -20 -20 l 0 -40 l 20 -20 l -20 -20 l -20 20 l -40 0 l -20 -20 l -20 20 l 20 20 l 0 40 l -20 20 l 20 20 l 20 -20 l 40 0 l 20 20 l 0 40 l -20 20 l -40 0 l -20 -20 l -20 20 l 20 20 l 0 40 l -20 20 l -40 0 l -20 -20 l 0 -40 l 20 -20 l -20 -20 l -20 20 l -40 0 l -20 -20 l 0 -40 l 20 -20 l 40 0 l 20 20 l 20 -20 l -20 -20 l 0 -40 l 20 -20 l -20 -20 l -20 20 l -40 0 l -20 -20 l -20 20 l 20 20 l 0 40 l -20 20 l -40 0 l -20 -20 l 0 -40 l 20 -20 l -20 -20 l -20 20 l -40 0 l -20 -20 l -20 20 l 20 20 l 0 40 l -20 20 l 20 20 l 20 -20 l 40 0 l 20 20 l 0 40 l -20 20 l -40 0 l -20 -20 l -20 20 l 20 20 l 0 40 l -20 20 l 20 20 l 20 -20 l 40 0 l 20 20 l 20 -20 l -20 -20 l 0 -40 l 20 -20 l 40 0 l 20 20 l 0 40 l -20 20 l 20 20 l 20 -20 l 40 0 l 20 20 l 0 40 l -20 20 l -40 0 l -20 -20 l -20 20 l 20 20 l 0 40 l -20 20 l -40 0 l -20 -20 l 0 -40 l 20 -20 l -20 -20 l -20 20 l -40 0 l -20 -20 l -20 20 l 20 20 l 0 40 l -20 20 l 20 20 l 20 -20 l 40 0 l 20 20 l 0 40 l -20 20 l -40 0 l -20 -20 l -20 20 l 20 20 l 0 40 l -20 20 l 20 20 Z" fill="none" stroke="black" />
</svg>
