<svg xmlns="http://www.w3.org/2000/svg" version="1.1" width="602" height="602">
<path d="M 43.8571 601 l 42.8571 -42.8571 l 85.7143 0 l 42.8571 42.8571 l 42.8571 -42.8571 l -42.8571 -42.8571 l 0 -85.7143 l 42.8571 -42.8571 l 85.7143 0 l 42.8571 42.8571 l 0 85.7143 l -42.8571 42.8571 l 42.8571 42.8571 l 42.8571 -42.8571 l 85.7143 0 l 42.8571 42.8571 l 42.8571 -42.8571 l -42.8571 -42.8571 l 0 -85.7143 l 42.8571 -42.8571 l -42.8571 -42.8571 l -42.8571 42.8571 l -85.7143 0 l -42.8571 -42.8571 l 0 -85.7143 l 42.8571 -42.8571 l 85.7143 0 l 42.8571 42.8571 l 42.8571 -42.8571 l -42.8571 -42.8571 l 0 -85.7143 l 42.8571 -42.8571 l -42.8571 -42.8571 l -42.8571 42.8571 l -85.7143 0 l -42.8571 -42.8571 l -42.8571 42.8571 l 42.8571 42.8571 l 0 85.7143 l -42.8571 42.8571 l -85.7143 0 l -42.8571 -42.8571 l 0 -85.7143 l 42.8571 -42.8571 l -42.8571 -42.8571 l -42.8571 42.8571 l -85.7143 0 l -42.8571 -42.8571 l -42.8571 42.8571 l 42.8571 42.8571 l 0 85.7143 l -42.8571 42.8571 l 42.8571 42.8571 l 42.8571 -42.8571 l 85.7143 0 l 42.8571 42.8571 l 0 85.7143 l -42.8571 42.8571 l -85.7143 0 l -42.8571 -42.8571 l -42.8571 42.8571 l 42.8571 42.8571 l 0 85.7143 l -42.8571 42.8571 l 42.8571 42.8571 Z" fill="none" stroke="black" />
</svg>
