<svg xmlns="http://www.w3.org/2000/svg" version="1.1" width="400" height="350">
<path d="M 200 350 l 0 -100 l 33.5598 -61.4308 l 41.2321 -26.4748 l 34.2141 -2.42629 l 21.8322 9.99169 m -21.8322 -9.99169 l 20.2037 -12.9727 m -20.2037 12.9727 m -34.2141 2.42629 l 16.4443 -30.1011 l 20.2037 -12.9727 m -20.2037 12.9727 l 0 -24.01 m -0 24.01 m -16.4443 30.1011 m -41.2321 26.4748 l 0 -49 l 16.4443 -30.1011 l 20.2037 -12.9727 m -20.2037 12.9727 l 0 -24.01 m -0 24.01 m -16.4443 30.1011 l -16.4443 -30.1011 l 0 -24.01 m -0 24.01 l -20.2037 -12.9727 m 20.2037 12.9727 m 16.4443 30.1011 m -0 49 m -33.5598 61.4308 l -33.5598 -61.4308 l 0 -49 l 16.4443 -30.1011 l 20.2037 -12.9727 m -20.2037 12.9727 l 0 -24.01 m -0 24.01 m -16.4443 30.1011 l -16.4443 -30.1011 l 0 -24.01 m -0 24.01 l -20.2037 -12.9727 m 20.2037 12.9727 m 16.4443 30.1011 m -0 49 l -41.2321 -26.4748 l -16.4443 -30.1011 l 0 -24.01 m -0 24.01 l -20.2037 -12.9727 m 20.2037 12.9727 m 16.4443 30.1011 l -34.2141 -2.42629 l -20.2037 -12.9727 m 20.2037 12.9727 l -21.8322 9.99169 m 21.8322 -9.99169 m 34.2141 2.42629 m 41.2321 26.4748 m 33.5598 61.4308 m -0 100 " fill="none" stroke="black" />
</svg>
