<svg xmlns="http://www.w3.org/2000/svg" version="1.1" width="400" height="350">
<path d="M 200 350 l 0 -100 l 33.5598 -61.4308 l 41.2321 -26.4748 l 34.2141 -2.42629 l 21.8322 9.99169 l 10.0585 13.4648 l 1.66026 11.6472 l -2.88885 7.71212 l -4.36282 3.76813 l -3.94469 0.850637 m 3.94469 -0.850637 l -1.41554 3.77894 m 1.41554 -3.77894 m 4.36282 -3.76813 l 0.813529 5.70711 l -1.41554 3.77894 m 1.41554 -3.77894 l 2.41505 3.2329 m -2.41505 -3.2329 m -0.813529 -5.70711 m 2.88885 -7.71212 l 4.92868 6.59776 l 0.813529 5.70711 l -1.41554 3.77894 m 1.41554 -3.77894 l 2.41505 3.2329 m -2.41505 -3.2329 m -0.813529 -5.70711 l 5.24192 2.399 l 2.41505 3.2329 m -2.41505 -3.2329 l 4.02525 -0.28545 m -4.02525 0.28545 m -5.24192 -2.399 m -4.92868 -6.59776 m -1.66026 -11.6472 l 10.6978 4.89593 l 4.92868 6.59776 l 0.813529 5.70711 l -1.41554 3.77894 m 1.41554 -3.77894 l 2.41505 3.2329 m -2.41505 -3.2329 m -0.813529 -5.70711 l 5.24192 2.399 l 2.41505 3.2329 m -2.41505 -3.2329 l 4.02525 -0.28545 m -4.02525 0.28545 m -5.24192 -2.399 m -4.92868 -6.59776 l 8.2148 -0.582551 l 5.24192 2.399 l 2.41505 3.2329 m -2.41505 -3.2329 l 4.02525 -0.28545 m -4.02525 0.28545 m -5.24192 -2.399 l 4.85091 -3.11474 l 4.02525 -0.28545 m -4.02525 0.28545 l 1.93465 -3.54136 m -1.93465 3.54136 m -4.85091 3.11474 m -8.2148 0.582551 m -10.6978 -4.89593 m -10.0585 -13.4648 l 16.7649 -1.18888 l 10.6978 4.89593 l 4.92868 6.59776 l 0.813529 5.70711 l -1.41554 3.77894 m 1.41554 -3.77894 l 2.41505 3.2329 m -2.41505 -3.2329 m -0.813529 -5.70711 l 5.24192 2.399 l 2.41505 3.2329 m -2.41505 -3.2329 l 4.02525 -0.28545 m -4.02525 0.28545 m -5.24192 -2.399 m -4.92868 -6.59776 l 8.2148 -0.582551 l 5.24192 2.399 l 2.41505 3.2329 m -2.41505 -3.2329 l 4.02525 -0.28545 m -4.02525 0.28545 m -5.24192 -2.399 l 4.85091 -3.11474 l 4.02525 -0.28545 m -4.02525 0.28545 l 1.93465 -3.54136 m -1.93465 3.54136 m -4.85091 3.11474 m -8.2148 0.582551 m -10.6978 -4.89593 l 9.89982 -6.3566 l 8.2148 -0.582551 l 5.24192 2.399 l 2.41505 3.2329 m -2.41505 -3.2329 l 4.02525 -0.28545 m -4.02525 0.28545 m -5.24192 -2.399 l 4.85091 -3.11474 l 4.02525 -0.28545 m -4.02525 0.28545 l 1.93465 -3.54136 m -1.93465 3.54136 m -4.85091 3.11474 m -8.2148 0.582551 l 3.94828 -7.22727 l 4.85091 -3.11474 l 4.02525 -0.28545 m -4.02525 0.28545 l 1.93465 -3.54136 m -1.93465 3.54136 m -4.85091 3.11474 l 0 -5.7648 l 1.93465 -3.54136 m -1.93465 3.54136 l -1.93465 -3.54136 m 1.93465 3.54136 m -0 5.7648 m -3.94828 7.22727 m -9.89982 6.3566 m -16.7649 1.18888 m -21.8322 -9.99169 l 20.2037 -12.9727 l 16.7649 -1.18888 l 10.6978 4.89593 l 4.92868 6.59776 l 0.813529 5.70711 l -1.41554 3.77894 m 1.41554 -3.77894 l 2.41505 3.2329 m -2.41505 -3.2329 m -0.813529 -5.70711 l 5.24192 2.399 l 2.41505 3.2329 m -2.41505 -3.2329 l 4.02525 -0.28545 m -4.02525 0.28545 m -5.24192 -2.399 m -4.92868 -6.59776 l 8.2148 -0.582551 l 5.24192 2.399 l 2.41505 3.2329 m -2.41505 -3.2329 l 4.02525 -0.28545 m -4.02525 0.28545 m -5.24192 -2.399 l 4.85091 -3.11474 l 4.02525 -0.28545 m -4.02525 0.28545 l 1.93465 -3.54136 m -1.93465 3.54136 m -4.85091 3.11474 m -8.2148 0.582551 m -10.6978 -4.89593 l 9.89982 -6.3566 l 8.2148 -0.582551 l 5.24192 2.399 l 2.41505 3.2329 m -2.41505 -3.2329 l 4.02525 -0.28545 m -4.02525 0.28545 m -5.24192 -2.399 l 4.85091 -3.11474 l 4.02525 -0.28545 m -4.02525 0.28545 l 1.93465 -3.54136 m -1.93465 3.54136 m -4.85091 3.11474 m -8.2148 0.582551 l 3.94828 -7.22727 l 4.85091 -3.11474 l 4.02525 -0.28545 m -4.02525 0.28545 l 1.93465 -3.54136 m -1.93465 3.54136 m -4.85091 3.11474 l 0 -5.7648 l 1.93465 -3.54136 m -1.93465 3.54136 l -1.93465 -3.54136 m 1.93465 3.54136 m -0 5.7648 m -3.94828 7.22727 m -9.89982 6.3566 m -16.7649 1.18888 l 8.05771 -14.7495 l 9.89982 -6.3566 l 8.2148 -0.582551 l 5.24192 2.399 l 2.41505 3.2329 m -2.41505 -3.2329 l 4.02525 -0.28545 m -4.02525 0.28545 m -5.24192 -2.399 l 4.85091 -3.11474 l 4.02525 -0.28545 m -4.02525 0.28545 l 1.93465 -3.54136 m -1.93465 3.54136 m -4.85091 3.11474 m -8.2148 0.582551 l 3.94828 -7.22727 l 4.85091 -3.11474 l 4.02525 -0.28545 m -4.02525 0.28545 l 1.93465 -3.54136 m -1.93465 3.54136 m -4.85091 3.11474 l 0 -5.7648 l 1.93465 -3.54136 m -1.93465 3.54136 l -1.93465 -3.54136 m 1.93465 3.54136 m -0 5.7648 m -3.94828 7.22727 m -9.89982 6.3566 l 0 -11.7649 l 3.94828 -7.22727 l 4.85091 -3.11474 l 4.02525 -0.28545 m -4.02525 0.28545 l 1.93465 -3.54136 m -1.93465 3.54136 m -4.85091 3.11474 l 0 -5.7648 l 1.93465 -3.54136 m -1.93465 3.54136 l -1.93465 -3.54136 m 1.93465 3.54136 m -0 5.7648 m -3.94828 7.22727 l -3.94828 -7.22727 l 0 -5.7648 l 1.93465 -3.54136 m -1.93465 3.54136 l -1.93465 -3.54136 m 1.93465 3.54136 m -0 5.7648 l -4.85091 -3.11474 l -1.93465 -3.54136 m 1.93465 3.54136 l -4.02525 -0.28545 m 4.02525 0.28545 m 4.85091 3.11474 m 3.94828 7.22727 m -0 11.7649 m -8.05771 14.7495 m -20.2037 12.9727 m -34.2141 2.42629 l 16.4443 -30.1011 l 20.2037 -12.9727 l 16.7649 -1.18888 l 10.6978 4.89593 l 4.92868 6.59776 l 0.813529 5.70711 l -1.41554 3.77894 m 1.41554 -3.77894 l 2.41505 3.2329 m -2.41505 -3.2329 m -0.813529 -5.70711 l 5.24192 2.399 l 2.41505 3.2329 m -2.41505 -3.2329 l 4.02525 -0.28545 m -4.02525 0.28545 m -5.24192 -2.399 m -4.92868 -6.59776 l 8.2148 -0.582551 l 5.24192 2.399 l 2.41505 3.2329 m -2.41505 -3.2329 l 4.02525 -0.28545 m -4.02525 0.28545 m -5.24192 -2.399 l 4.85091 -3.11474 l 4.02525 -0.28545 m -4.02525 0.28545 l 1.93465 -3.54136 m -1.93465 3.54136 m -4.85091 3.11474 m -8.2148 0.582551 m -10.6978 -4.89593 l 9.89982 -6.3566 l 8.2148 -0.582551 l 5.24192 2.399 l 2.41505 3.2329 m -2.41505 -3.2329 l 4.02525 -0.28545 m -4.02525 0.28545 m -5.24192 -2.399 l 4.85091 -3.11474 l 4.02525 -0.28545 m -4.02525 0.28545 l 1.93465 -3.54136 m -1.93465 3.54136 m -4.85091 3.11474 m -8.2148 0.582551 l 3.94828 -7.22727 l 4.85091 -3.11474 l 4.02525 -0.28545 m -4.02525 0.28545 l 1.93465 -3.54136 m -1.93465 3.54136 m -4.85091 3.11474 l 0 -5.7648 l 1.93465 -3.54136 m -1.93465 3.54136 l -1.93465 -3.54136 m 1.93465 3.54136 m -0 5.7648 m -3.94828 7.22727 m -9.89982 6.3566 m -16.7649 1.18888 l 8.05771 -14.7495 l 9.89982 -6.3566 l 8.2148 -0.582551 l 5.24192 2.399 l 2.41505 3.2329 m -2.41505 -3.2329 l 4.02525 -0.28545 m -4.02525 0.28545 m -5.24192 -2.399 l 4.85091 -3.11474 l 4.02525 -0.28545 m -4.02525 0.28545 l 1.93465 -3.54136 m -1.93465 3.54136 m -4.85091 3.11474 m -8.2148 0.582551 l 3.94828 -7.22727 l 4.85091 -3.11474 l 4.02525 -0.28545 m -4.02525 0.28545 l 1.93465 -3.54136 m -1.93465 3.54136 m -4.85091 3.11474 l 0 -5.7648 l 1.93465 -3.54136 m -1.93465 3.54136 l -1.93465 -3.54136 m 1.93465 3.54136 m -0 5.7648 m -3.94828 7.22727 m -9.89982 6.3566 l 0 -11.7649 l 3.94828 -7.22727 l 4.85091 -3.11474 l 4.02525 -0.28545 m -4.02525 0.28545 l 1.93465 -3.54136 m -1.93465 3.54136 m -4.85091 3.11474 l 0 -5.7648 l 1.93465 -3.54136 m -1.93465 3.54136 l -1.93465 -3.54136 m 1.93465 3.54136 m -0 5.7648 m -3.94828 7.22727 l -3.94828 -7.22727 l 0 -5.7648 l 1.93465 -3.54136 m -1.93465 3.54136 l -1.93465 -3.54136 m 1.93465 3.54136 m -0 5.7648 l -4.85091 -3.11474 l -1.93465 -3.54136 m 1.93465 3.54136 l -4.02525 -0.28545 m 4.02525 0.28545 m 4.85091 3.11474 m 3.94828 7.22727 m -0 11.7649 m -8.05771 14.7495 m -20.2037 12.9727 l 0 -24.01 l 8.05771 -14.7495 l 9.89982 -6.3566 l 8.2148 -0.582551 l 5.24192 2.399 l 2.41505 3.2329 m -2.41505 -3.2329 l 4.02525 -0.28545 m -4.02525 0.28545 m -5.24192 -2.399 l 4.85091 -3.11474 l 4.02525 -0.28545 m -4.02525 0.28545 l 1.93465 -3.54136 m -1.93465 3.54136 m -4.85091 3.11474 m -8.2148 0.582551 l 3.94828 -7.22727 l 4.85091 -3.11474 l 4.02525 -0.28545 m -4.02525 0.28545 l 1.93465 -3.54136 m -1.93465 3.54136 m -4.85091 3.11474 l 0 -5.7648 l 1.93465 -3.54136 m -1.93465 3.54136 l -1.93465 -3.54136 m 1.93465 3.54136 m -0 5.7648 m -3.94828 7.22727 m -9.89982 6.3566 l 0 -11.7649 l 3.94828 -7.22727 l 4.85091 -3.11474 l 4.02525 -0.28545 m -4.02525 0.28545 l 1.93465 -3.54136 m -1.93465 3.54136 m -4.85091 3.11474 l 0 -5.7648 l 1.93465 -3.54136 m -1.93465 3.54136 l -1.93465 -3.54136 m 1.93465 3.54136 m -0 5.7648 m -3.94828 7.22727 l -3.94828 -7.22727 l 0 -5.7648 l 1.93465 -3.54136 m -1.93465 3.54136 l -1.93465 -3.54136 m 1.93465 3.54136 m -0 5.7648 l -4.85091 -3.11474 l -1.93465 -3.54136 m 1.93465 3.54136 l -4.02525 -0.28545 m 4.02525 0.28545 m 4.85091 3.11474 m 3.94828 7.22727 m -0 11.7649 m -8.05771 14.7495 l -8.05771 -14.7495 l 0 -11.7649 l 3.94828 -7.22727 l 4.85091 -3.11474 l 4.02525 -0.28545 m -4.02525 0.28545 l 1.93465 -3.54136 m -1.93465 3.54136 m -4.85091 3.11474 l 0 -5.7648 l 1.93465 -3.54136 m -1.93465 3.54136 l -1.93465 -3.54136 m 1.93465 3.54136 m -0 5.7648 m -3.94828 7.22727 l -3.94828 -7.22727 l 0 -5.7648 l 1.93465 -3.54136 m -1.93465 3.54136 l -1.93465 -3.54136 m 1.93465 3.54136 m -0 5.7648 l -4.85091 -3.11474 l -1.93465 -3.54136 m 1.93465 3.54136 l -4.02525 -0.28545 m 4.02525 0.28545 m 4.85091 3.11474 m 3.94828 7.22727 m -0 11.7649 l -9.89982 -6.3566 l -3.94828 -7.22727 l 0 -5.7648 l 1.93465 -3.54136 m -1.93465 3.54136 l -1.93465 -3.54136 m 1.93465 3.54136 m -0 5.7648 l -4.85091 -3.11474 l -1.93465 -3.54136 m 1.93465 3.54136 l -4.02525 -0.28545 m 4.02525 0.28545 m 4.85091 3.11474 m 3.94828 7.22727 l -8.2148 -0.582551 l -4.85091 -3.11474 l -1.93465 -3.54136 m 1.93465 3.54136 l -4.02525 -0.28545 m 4.02525 0.28545 m 4.85091 3.11474 l -5.24192 2.399 l -4.02525 -0.28545 m 4.02525 0.28545 l -2.41505 3.2329 m 2.41505 -3.2329 m 5.24192 -2.399 m 8.2148 0.582551 m 9.89982 6.3566 m 8.05771 14.7495 m -0 24.01 m -16.4443 30.1011 m -41.2321 26.4748 l 0 -49 l 16.4443 -30.1011 l 20.2037 -12.9727 l 16.7649 -1.18888 l 10.6978 4.89593 l 4.92868 6.59776 l 0.813529 5.70711 l -1.41554 3.77894 m 1.41554 -3.77894 l 2.41505 3.2329 m -2.41505 -3.2329 m -0.813529 -5.70711 l 5.24192 2.399 l 2.41505 3.2329 m -2.41505 -3.2329 l 4.02525 -0.28545 m -4.02525 0.28545 m -5.24192 -2.399 m -4.92868 -6.59776 l 8.2148 -0.582551 l 5.24192 2.399 l 2.41505 3.2329 m -2.41505 -3.2329 l 4.02525 -0.28545 m -4.02525 0.28545 m -5.24192 -2.399 l 4.85091 -3.11474 l 4.02525 -0.28545 m -4.02525 0.28545 l 1.93465 -3.54136 m -1.93465 3.54136 m -4.85091 3.11474 m -8.2148 0.582551 m -10.6978 -4.89593 l 9.89982 -6.3566 l 8.2148 -0.582551 l 5.24192 2.399 l 2.41505 3.2329 m -2.41505 -3.2329 l 4.02525 -0.28545 m -4.02525 0.28545 m -5.24192 -2.399 l 4.85091 -3.11474 l 4.02525 -0.28545 m -4.02525 0.28545 l 1.93465 -3.54136 m -1.93465 3.54136 m -4.85091 3.11474 m -8.2148 0.582551 l 3.94828 -7.22727 l 4.85091 -3.11474 l 4.02525 -0.28545 m -4.02525 0.28545 l 1.93465 -3.54136 m -1.93465 3.54136 m -4.85091 3.11474 l 0 -5.7648 l 1.93465 -3.54136 m -1.93465 3.54136 l -1.93465 -3.54136 m 1.93465 3.54136 m -0 5.7648 m -3.94828 7.22727 m -9.89982 6.3566 m -16.7649 1.18888 l 8.05771 -14.7495 l 9.89982 -6.3566 l 8.2148 -0.582551 l 5.24192 2.399 l 2.41505 3.2329 m -2.41505 -3.2329 l 4.02525 -0.28545 m -4.02525 0.28545 m -5.24192 -2.399 l 4.85091 -3.11474 l 4.02525 -0.28545 m -4.02525 0.28545 l 1.93465 -3.54136 m -1.93465 3.54136 m -4.85091 3.11474 m -8.2148 0.582551 l 3.94828 -7.22727 l 4.85091 -3.11474 l 4.02525 -0.28545 m -4.02525 0.28545 l 1.93465 -3.54136 m -1.93465 3.54136 m -4.85091 3.11474 l 0 -5.7648 l 1.93465 -3.54136 m -1.93465 3.54136 l -1.93465 -3.54136 m 1.93465 3.54136 m -0 5.7648 m -3.94828 7.22727 m -9.89982 6.3566 l 0 -11.7649 l 3.94828 -7.22727 l 4.85091 -3.11474 l 4.02525 -0.28545 m -4.02525 0.28545 l 1.93465 -3.54136 m -1.93465 3.54136 m -4.85091 3.11474 l 0 -5.7648 l 1.93465 -3.54136 m -1.93465 3.54136 l -1.93465 -3.54136 m 1.93465 3.54136 m -0 5.7648 m -3.94828 7.22727 l -3.94828 -7.22727 l 0 -5.7648 l 1.93465 -3.54136 m -1.93465 3.54136 l -1.93465 -3.54136 m 1.93465 3.54136 m -0 5.7648 l -4.85091 -3.11474 l -1.93465 -3.54136 m 1.93465 3.54136 l -4.02525 -0.28545 m 4.02525 0.28545 m 4.85091 3.11474 m 3.94828 7.22727 m -0 11.7649 m -8.05771 14.7495 m -20.2037 12.9727 l 0 -24.01 l 8.05771 -14.7495 l 9.89982 -6.3566 l 8.2148 -0.582551 l 5.24192 2.399 l 2.41505 3.2329 m -2.41505 -3.2329 l 4.02525 -0.28545 m -4.02525 0.28545 m -5.24192 -2.399 l 4.85091 -3.11474 l 4.02525 -0.28545 m -4.02525 0.28545 l 1.93465 -3.54136 m -1.93465 3.54136 m -4.85091 3.11474 m -8.2148 0.582551 l 3.94828 -7.22727 l 4.85091 -3.11474 l 4.02525 -0.28545 m -4.02525 0.28545 l 1.93465 -3.54136 m -1.93465 3.54136 m -4.85091 3.11474 l 0 -5.7648 l 1.93465 -3.54136 m -1.93465 3.54136 l -1.93465 -3.54136 m 1.93465 3.54136 m -0 5.7648 m -3.94828 7.22727 m -9.89982 6.3566 l 0 -11.7649 l 3.94828 -7.22727 l 4.85091 -3.11474 l 4.02525 -0.28545 m -4.02525 0.28545 l 1.93465 -3.54136 m -1.93465 3.54136 m -4.85091 3.11474 l 0 -5.7648 l 1.93465 -3.54136 m -1.93465 3.54136 l -1.93465 -3.54136 m 1.93465 3.54136 m -0 5.7648 m -3.94828 7.22727 l -3.94828 -7.22727 l 0 -5.7648 l 1.93465 -3.54136 m -1.93465 3.54136 l -1.93465 -3.54136 m 1.93465 3.54136 m -0 5.7648 l -4.85091 -3.11474 l -1.93465 -3.54136 m 1.93465 3.54136 l -4.02525 -0.28545 m 4.02525 0.28545 m 4.85091 3.11474 m 3.94828 7.22727 m -0 11.7649 m -8.05771 14.7495 l -8.05771 -14.7495 l 0 -11.7649 l 3.94828 -7.22727 l 4.85091 -3.11474 l 4.02525 -0.28545 m -4.02525 0.28545 l 1.93465 -3.54136 m -1.93465 3.54136 m -4.85091 3.11474 l 0 -5.7648 l 1.93465 -3.54136 m -1.93465 3.54136 l -1.93465 -3.54136 m 1.93465 3.54136 m -0 5.7648 m -3.94828 7.22727 l -3.94828 -7.22727 l 0 -5.7648 l 1.93465 -3.54136 m -1.93465 3.54136 l -1.93465 -3.54136 m 1.93465 3.54136 m -0 5.7648 l -4.85091 -3.11474 l -1.93465 -3.54136 m 1.93465 3.54136 l -4.02525 -0.28545 m 4.02525 0.28545 m 4.85091 3.11474 m 3.94828 7.22727 m -0 11.7649 l -9.89982 -6.3566 l -3.94828 -7.22727 l 0 -5.7648 l 1.93465 -3.54136 m -1.93465 3.54136 l -1.93465 -3.54136 m 1.93465 3.54136 m -0 5.7648 l -4.85091 -3.11474 l -1.93465 -3.54136 m 1.93465 3.54136 l -4.02525 -0.28545 m 4.02525 0.28545 m 4.85091 3.11474 m 3.94828 7.22727 l -8.2148 -0.582551 l -4.85091 -3.11474 l -1.93465 -3.54136 m 1.93465 3.54136 l -4.02525 -0.28545 m 4.02525 0.28545 m 4.85091 3.11474 l -5.24192 2.399 l -4.02525 -0.28545 m 4.02525 0.28545 l -2.41505 3.2329 m 2.41505 -3.2329 m 5.24192 -2.399 m 8.2148 0.582551 m 9.89982 6.3566 m 8.05771 14.7495 m -0 24.01 m -16.4443 30.1011 l -16.4443 -30.1011 l 0 -24.01 l 8.05771 -14.7495 l 9.89982 -6.3566 l 8.2148 -0.582551 l 5.24192 2.399 l 2.41505 3.2329 m -2.41505 -3.2329 l 4.02525 -0.28545 m -4.02525 0.28545 m -5.24192 -2.399 l 4.85091 -3.11474 l 4.02525 -0.28545 m -4.02525 0.28545 l 1.93465 -3.54136 m -1.93465 3.54136 m -4.85091 3.11474 m -8.2148 0.582551 l 3.94828 -7.22727 l 4.85091 -3.11474 l 4.02525 -0.28545 m -4.02525 0.28545 l 1.93465 -3.54136 m -1.93465 3.54136 m -4.85091 3.11474 l 0 -5.7648 l 1.93465 -3.54136 m -1.93465 3.54136 l -1.93465 -3.54136 m 1.93465 3.54136 m -0 5.7648 m -3.94828 7.22727 m -9.89982 6.3566 l 0 -11.7649 l 3.94828 -7.22727 l 4.85091 -3.11474 l 4.02525 -0.28545 m -4.02525 0.28545 l 1.93465 -3.54136 m -1.93465 3.54136 m -4.85091 3.11474 l 0 -5.7648 l 1.93465 -3.54136 m -1.93465 3.54136 l -1.93465 -3.54136 m 1.93465 3.54136 m -0 5.7648 m -3.94828 7.22727 l -3.94828 -7.22727 l 0 -5.7648 l 1.93465 -3.54136 m -1.93465 3.54136 l -1.93465 -3.54136 m 1.93465 3.54136 m -0 5.7648 l -4.85091 -3.11474 l -1.93465 -3.54136 m 1.93465 3.54136 l -4.02525 -0.28545 m 4.02525 0.28545 m 4.85091 3.11474 m 3.94828 7.22727 m -0 11.7649 m -8.05771 14.7495 l -8.05771 -14.7495 l 0 -11.7649 l 3.94828 -7.22727 l 4.85091 -3.11474 l 4.02525 -0.28545 m -4.02525 0.28545 l 1.93465 -3.54136 m -1.93465 3.54136 m -4.85091 3.11474 l 0 -5.7648 l 1.93465 -3.54136 m -1.93465 3.54136 l -1.93465 -3.54136 m 1.93465 3.54136 m -0 5.7648 m -3.94828 7.22727 l -3.94828 -7.22727 l 0 -5.7648 l 1.93465 -3.54136 m -1.93465 3.54136 l -1.93465 -3.54136 m 1.93465 3.54136 m -0 5.7648 l -4.85091 -3.11474 l -1.93465 -3.54136 m 1.93465 3.54136 l -4.02525 -0.28545 m 4.02525 0.28545 m 4.85091 3.11474 m 3.94828 7.22727 m -0 11.7649 l -9.89982 -6.3566 l -3.94828 -7.22727 l 0 -5.7648 l 1.93465 -3.54136 m -1.93465 3.54136 l -1.93465 -3.54136 m 1.93465 3.54136 m -0 5.7648 l -4.85091 -3.11474 l -1.93465 -3.54136 m 1.93465 3.54136 l -4.02525 -0.28545 m 4.02525 0.28545 m 4.85091 3.11474 m 3.94828 7.22727 l -8.2148 -0.582551 l -4.85091 -3.11474 l -1.93465 -3.54136 m 1.93465 3.54136 l -4.02525 -0.28545 m 4.02525 0.28545 m 4.85091 3.11474 l -5.24192 2.399 l -4.02525 -0.28545 m 4.02525 0.28545 l -2.41505 3.2329 m 2.41505 -3.2329 m 5.24192 -2.399 m 8.2148 0.582551 m 9.89982 6.3566 m 8.05771 14.7495 m -0 24.01 l -20.2037 -12.9727 l -8.05771 -14.7495 l 0 -11.7649 l 3.94828 -7.22727 l 4.85091 -3.11474 l 4.02525 -0.28545 m -4.02525 0.28545 l 1.93465 -3.54136 m -1.93465 3.54136 m -4.85091 3.11474 l 0 -5.7648 l 1.93465 -3.54136 m -1.93465 3.54136 l -1.93465 -3.54136 m 1.93465 3.54136 m -0 5.7648 m -3.94828 7.22727 l -3.94828 -7.22727 l 0 -5.7648 l 1.93465 -3.54136 m -1.93465 3.54136 l -1.93465 -3.54136 m 1.93465 3.54136 m -0 5.7648 l -4.85091 -3.11474 l -1.93465 -3.54136 m 1.93465 3.54136 l -4.02525 -0.28545 m 4.02525 0.28545 m 4.85091 3.11474 m 3.94828 7.22727 m -0 11.7649 l -9.89982 -6.3566 l -3.94828 -7.22727 l 0 -5.7648 l 1.93465 -3.54136 m -1.93465 3.54136 l -1.93465 -3.54136 m 1.93465 3.54136 m -0 5.7648 l -4.85091 -3.11474 l -1.93465 -3.54136 m 1.93465 3.54136 l -4.02525 -0.28545 m 4.02525 0.28545 m 4.85091 3.11474 m 3.94828 7.22727 l -8.2148 -0.582551 l -4.85091 -3.11474 l -1.93465 -3.54136 m 1.93465 3.54136 l -4.02525 -0.28545 m 4.02525 0.28545 m 4.85091 3.11474 l -5.24192 2.399 l -4.02525 -0.28545 m 4.02525 0.28545 l -2.41505 3.2329 m 2.41505 -3.2329 m 5.24192 -2.399 m 8.2148 0.582551 m 9.89982 6.3566 m 8.05771 14.7495 l -16.7649 -1.18888 l -9.89982 -6.3566 l -3.94828 -7.22727 l 0 -5.7648 l 1.93465 -3.54136 m -1.93465 3.54136 l -1.93465 -3.54136 m 1.93465 3.54136 m -0 5.7648 l -4.85091 -3.11474 l -1.93465 -3.54136 m 1.93465 3.54136 l -4.02525 -0.28545 m 4.02525 0.28545 m 4.85091 3.11474 m 3.94828 7.22727 l -8.2148 -0.582551 l -4.85091 -3.11474 l -1.93465 -3.54136 m 1.93465 3.54136 l -4.02525 -0.28545 m 4.02525 0.28545 m 4.85091 3.11474 l -5.24192 2.399 l -4.02525 -0.28545 m 4.02525 0.28545 l -2.41505 3.2329 m 2.41505 -3.2329 m 5.24192 -2.399 m 8.2148 0.582551 m 9.89982 6.3566 l -10.6978 4.89593 l -8.2148 -0.582551 l -4.85091 -3.11474 l -1.93465 -3.54136 m 1.93465 3.54136 l -4.02525 -0.28545 m 4.02525 0.28545 m 4.85091 3.11474 l -5.24192 2.399 l -4.02525 -0.28545 m 4.02525 0.28545 l -2.41505 3.2329 m 2.41505 -3.2329 m 5.24192 -2.399 m 8.2148 0.582551 l -4.92868 6.59776 l -5.24192 2.399 l -4.02525 -0.28545 m 4.02525 0.28545 l -2.41505 3.2329 m 2.41505 -3.2329 m 5.24192 -2.399 l -0.813529 5.70711 l -2.41505 3.2329 m 2.41505 -3.2329 l 1.41554 3.77894 m -1.41554 -3.77894 m 0.813529 -5.70711 m 4.92868 -6.59776 m 10.6978 -4.89593 m 16.7649 1.18888 m 20.2037 12.9727 m 16.4443 30.1011 m -0 49 m -33.5598 61.4308 l -33.5598 -61.4308 l 0 -49 l 16.4443 -30.1011 l 20.2037 -12.9727 l 16.7649 -1.18888 l 10.6978 4.89593 l 4.92868 6.59776 l 0.813529 5.70711 l -1.41554 3.77894 m 1.41554 -3.77894 l 2.41505 3.2329 m -2.41505 -3.2329 m -0.813529 -5.70711 l 5.24192 2.399 l 2.41505 3.2329 m -2.41505 -3.2329 l 4.02525 -0.28545 m -4.02525 0.28545 m -5.24192 -2.399 m -4.92868 -6.59776 l 8.2148 -0.582551 l 5.24192 2.399 l 2.41505 3.2329 m -2.41505 -3.2329 l 4.02525 -0.28545 m -4.02525 0.28545 m -5.24192 -2.399 l 4.85091 -3.11474 l 4.02525 -0.28545 m -4.02525 0.28545 l 1.93465 -3.54136 m -1.93465 3.54136 m -4.85091 3.11474 m -8.2148 0.582551 m -10.6978 -4.89593 l 9.89982 -6.3566 l 8.2148 -0.582551 l 5.24192 2.399 l 2.41505 3.2329 m -2.41505 -3.2329 l 4.02525 -0.28545 m -4.02525 0.28545 m -5.24192 -2.399 l 4.85091 -3.11474 l 4.02525 -0.28545 m -4.02525 0.28545 l 1.93465 -3.54136 m -1.93465 3.54136 m -4.85091 3.11474 m -8.2148 0.582551 l 3.94828 -7.22727 l 4.85091 -3.11474 l 4.02525 -0.28545 m -4.02525 0.28545 l 1.93465 -3.54136 m -1.93465 3.54136 m -4.85091 3.11474 l 0 -5.7648 l 1.93465 -3.54136 m -1.93465 3.54136 l -1.93465 -3.54136 m 1.93465 3.54136 m -0 5.7648 m -3.94828 7.22727 m -9.89982 6.3566 m -16.7649 1.18888 l 8.05771 -14.7495 l 9.89982 -6.3566 l 8.2148 -0.582551 l 5.24192 2.399 l 2.41505 3.2329 m -2.41505 -3.2329 l 4.02525 -0.28545 m -4.02525 0.28545 m -5.24192 -2.399 l 4.85091 -3.11474 l 4.02525 -0.28545 m -4.02525 0.28545 l 1.93465 -3.54136 m -1.93465 3.54136 m -4.85091 3.11474 m -8.2148 0.582551 l 3.94828 -7.22727 l 4.85091 -3.11474 l 4.02525 -0.28545 m -4.02525 0.28545 l 1.93465 -3.54136 m -1.93465 3.54136 m -4.85091 3.11474 l 0 -5.7648 l 1.93465 -3.54136 m -1.93465 3.54136 l -1.93465 -3.54136 m 1.93465 3.54136 m -0 5.7648 m -3.94828 7.22727 m -9.89982 6.3566 l 0 -11.7649 l 3.94828 -7.22727 l 4.85091 -3.11474 l 4.02525 -0.28545 m -4.02525 0.28545 l 1.93465 -3.54136 m -1.93465 3.54136 m -4.85091 3.11474 l 0 -5.7648 l 1.93465 -3.54136 m -1.93465 3.54136 l -1.93465 -3.54136 m 1.93465 3.54136 m -0 5.7648 m -3.94828 7.22727 l -3.94828 -7.22727 l 0 -5.7648 l 1.93465 -3.54136 m -1.93465 3.54136 l -1.93465 -3.54136 m 1.93465 3.54136 m -0 5.7648 l -4.85091 -3.11474 l -1.93465 -3.54136 m 1.93465 3.54136 l -4.02525 -0.28545 m 4.02525 0.28545 m 4.85091 3.11474 m 3.94828 7.22727 m -0 11.7649 m -8.05771 14.7495 m -20.2037 12.9727 l 0 -24.01 l 8.05771 -14.7495 l 9.89982 -6.3566 l 8.2148 -0.582551 l 5.24192 2.399 l 2.41505 3.2329 m -2.41505 -3.2329 l 4.02525 -0.28545 m -4.02525 0.28545 m -5.24192 -2.399 l 4.85091 -3.11474 l 4.02525 -0.28545 m -4.02525 0.28545 l 1.93465 -3.54136 m -1.93465 3.54136 m -4.85091 3.11474 m -8.2148 0.582551 l 3.94828 -7.22727 l 4.85091 -3.11474 l 4.02525 -0.28545 m -4.02525 0.28545 l 1.93465 -3.54136 m -1.93465 3.54136 m -4.85091 3.11474 l 0 -5.7648 l 1.93465 -3.54136 m -1.93465 3.54136 l -1.93465 -3.54136 m 1.93465 3.54136 m -0 5.7648 m -3.94828 7.22727 m -9.89982 6.3566 l 0 -11.7649 l 3.94828 -7.22727 l 4.85091 -3.11474 l 4.02525 -0.28545 m -4.02525 0.28545 l 1.93465 -3.54136 m -1.93465 3.54136 m -4.85091 3.11474 l 0 -5.7648 l 1.93465 -3.54136 m -1.93465 3.54136 l -1.93465 -3.54136 m 1.93465 3.54136 m -0 5.7648 m -3.94828 7.22727 l -3.94828 -7.22727 l 0 -5.7648 l 1.93465 -3.54136 m -1.93465 3.54136 l -1.93465 -3.54136 m 1.93465 3.54136 m -0 5.7648 l -4.85091 -3.11474 l -1.93465 -3.54136 m 1.93465 3.54136 l -4.02525 -0.28545 m 4.02525 0.28545 m 4.85091 3.11474 m 3.94828 7.22727 m -0 11.7649 m -8.05771 14.7495 l -8.05771 -14.7495 l 0 -11.7649 l 3.94828 -7.22727 l 4.85091 -3.11474 l 4.02525 -0.28545 m -4.02525 0.28545 l 1.93465 -3.54136 m -1.93465 3.54136 m -4.85091 3.11474 l 0 -5.7648 l 1.93465 -3.54136 m -1.93465 3.54136 l -1.93465 -3.54136 m 1.93465 3.54136 m -0 5.7648 m -3.94828 7.22727 l -3.94828 -7.22727 l 0 -5.7648 l 1.93465 -3.54136 m -1.93465 3.54136 l -1.93465 -3.54136 m 1.93465 3.54136 m -0 5.7648 l -4.85091 -3.11474 l -1.93465 -3.54136 m 1.93465 3.54136 l -4.02525 -0.28545 m 4.02525 0.28545 m 4.85091 3.11474 m 3.94828 7.22727 m -0 11.7649 l -9.89982 -6.3566 l -3.94828 -7.22727 l 0 -5.7648 l 1.93465 -3.54136 m -1.93465 3.54136 l -1.93465 -3.54136 m 1.93465 3.54136 m -0 5.7648 l -4.85091 -3.11474 l -1.93465 -3.54136 m 1.93465 3.54136 l -4.02525 -0.28545 m 4.02525 0.28545 m 4.85091 3.11474 m 3.94828 7.22727 l -8.2148 -0.582551 l -4.85091 -3.11474 l -1.93465 -3.54136 m 1.93465 3.54136 l -4.02525 -0.28545 m 4.02525 0.28545 m 4.85091 3.11474 l -5.24192 2.399 l -4.02525 -0.28545 m 4.02525 0.28545 l -2.41505 3.2329 m 2.41505 -3.2329 m 5.24192 -2.399 m 8.2148 0.582551 m 9.89982 6.3566 m 8.05771 14.7495 m -0 24.01 m -16.4443 30.1011 l -16.4443 -30.1011 l 0 -24.01 l 8.05771 -14.7495 l 9.89982 -6.3566 l 8.2148 -0.582551 l 5.24192 2.399 l 2.41505 3.2329 m -2.41505 -3.2329 l 4.02525 -0.28545 m -4.02525 0.28545 m -5.24192 -2.399 l 4.85091 -3.11474 l 4.02525 -0.28545 m -4.02525 0.28545 l 1.93465 -3.54136 m -1.93465 3.54136 m -4.85091 3.11474 m -8.2148 0.582551 l 3.94828 -7.22727 l 4.85091 -3.11474 l 4.02525 -0.28545 m -4.02525 0.28545 l 1.93465 -3.54136 m -1.93465 3.54136 m -4.85091 3.11474 l 0 -5.7648 l 1.93465 -3.54136 m -1.93465 3.54136 l -1.93465 -3.54136 m 1.93465 3.54136 m -0 5.7648 m -3.94828 7.22727 m -9.89982 6.3566 l 0 -11.7649 l 3.94828 -7.22727 l 4.85091 -3.11474 l 4.02525 -0.28545 m -4.02525 0.28545 l 1.93465 -3.54136 m -1.93465 3.54136 m -4.85091 3.11474 l 0 -5.7648 l 1.93465 -3.54136 m -1.93465 3.54136 l -1.93465 -3.54136 m 1.93465 3.54136 m -0 5.7648 m -3.94828 7.22727 l -3.94828 -7.22727 l 0 -5.7648 l 1.93465 -3.54136 m -1.93465 3.54136 l -1.93465 -3.54136 m 1.93465 3.54136 m -0 5.7648 l -4.85091 -3.11474 l -1.93465 -3.54136 m 1.93465 3.54136 l -4.02525 -0.28545 m 4.02525 0.28545 m 4.85091 3.11474 m 3.94828 7.22727 m -0 11.7649 m -8.05771 14.7495 l -8.05771 -14.7495 l 0 -11.7649 l 3.94828 -7.22727 l 4.85091 -3.11474 l 4.02525 -0.28545 m -4.02525 0.28545 l 1.93465 -3.54136 m -1.93465 3.54136 m -4.85091 3.11474 l 0 -5.7648 l 1.93465 -3.54136 m -1.93465 3.54136 l -1.93465 -3.54136 m 1.93465 3.54136 m -0 5.7648 m -3.94828 7.22727 l -3.94828 -7.22727 l 0 -5.7648 l 1.93465 -3.54136 m -1.93465 3.54136 l -1.93465 -3.54136 m 1.93465 3.54136 m -0 5.7648 l -4.85091 -3.11474 l -1.93465 -3.54136 m 1.93465 3.54136 l -4.02525 -0.28545 m 4.02525 0.28545 m 4.85091 3.11474 m 3.94828 7.22727 m -0 11.7649 l -9.89982 -6.3566 l -3.94828 -7.22727 l 0 -5.7648 l 1.93465 -3.54136 m -1.93465 3.54136 l -1.93465 -3.54136 m 1.93465 3.54136 m -0 5.7648 l -4.85091 -3.11474 l -1.93465 -3.54136 m 1.93465 3.54136 l -4.02525 -0.28545 m 4.02525 0.28545 m 4.85091 3.11474 m 3.94828 7.22727 l -8.2148 -0.582551 l -4.85091 -3.11474 l -1.93465 -3.54136 m 1.93465 3.54136 l -4.02525 -0.28545 m 4.02525 0.28545 m 4.85091 3.11474 l -5.24192 2.399 l -4.02525 -0.28545 m 4.02525 0.28545 l -2.41505 3.2329 m 2.41505 -3.2329 m 5.24192 -2.399 m 8.2148 0.582551 m 9.89982 6.3566 m 8.05771 14.7495 m -0 24.01 l -20.2037 -12.9727 l -8.05771 -14.7495 l 0 -11.7649 l 3.94828 -7.22727 l 4.85091 -3.11474 l 4.02525 -0.28545 m -4.02525 0.28545 l 1.93465 -3.54136 m -1.93465 3.54136 m -4.85091 3.11474 l 0 -5.7648 l 1.93465 -3.54136 m -1.93465 3.54136 l -1.93465 -3.54136 m 1.93465 3.54136 m -0 5.7648 m -3.94828 7.22727 l -3.94828 -7.22727 l 0 -5.7648 l 1.93465 -3.54136 m -1.93465 3.54136 l -1.93465 -3.54136 m 1.93465 3.54136 m -0 5.7648 l -4.85091 -3.11474 l -1.93465 -3.54136 m 1.93465 3.54136 l -4.02525 -0.28545 m 4.02525 0.28545 m 4.85091 3.11474 m 3.94828 7.22727 m -0 11.7649 l -9.89982 -6.3566 l -3.94828 -7.22727 l 0 -5.7648 l 1.93465 -3.54136 m -1.93465 3.54136 l -1.93465 -3.54136 m 1.93465 3.54136 m -0 5.7648 l -4.85091 -3.11474 l -1.93465 -3.54136 m 1.93465 3.54136 l -4.02525 -0.28545 m 4.02525 0.28545 m 4.85091 3.11474 m 3.94828 7.22727 l -8.2148 -0.582551 l -4.85091 -3.11474 l -1.93465 -3.54136 m 1.93465 3.54136 l -4.02525 -0.28545 m 4.02525 0.28545 m 4.85091 3.11474 l -5.24192 2.399 l -4.02525 -0.28545 m 4.02525 0.28545 l -2.41505 3.2329 m 2.41505 -3.2329 m 5.24192 -2.399 m 8.2148 0.582551 m 9.89982 6.3566 m 8.05771 14.7495 l -16.7649 -1.18888 l -9.89982 -6.3566 l -3.94828 -7.22727 l 0 -5.7648 l 1.93465 -3.54136 m -1.93465 3.54136 l -1.93465 -3.54136 m 1.93465 3.54136 m -0 5.7648 l -4.85091 -3.11474 l -1.93465 -3.54136 m 1.93465 3.54136 l -4.02525 -0.28545 m 4.02525 0.28545 m 4.85091 3.11474 m 3.94828 7.22727 l -8.2148 -0.582551 l -4.85091 -3.11474 l -1.93465 -3.54136 m 1.93465 3.54136 l -4.02525 -0.28545 m 4.02525 0.28545 m 4.85091 3.11474 l -5.24192 2.399 l -4.02525 -0.28545 m 4.02525 0.28545 l -2.41505 3.2329 m 2.41505 -3.2329 m 5.24192 -2.399 m 8.2148 0.582551 m 9.89982 6.3566 l -10.6978 4.89593 l -8.2148 -0.582551 l -4.85091 -3.11474 l -1.93465 -3.54136 m 1.93465 3.54136 l -4.02525 -0.28545 m 4.02525 0.28545 m 4.85091 3.11474 l -5.24192 2.399 l -4.02525 -0.28545 m 4.02525 0.28545 l -2.41505 3.2329 m 2.41505 -3.2329 m 5.24192 -2.399 m 8.2148 0.582551 l -4.92868 6.59776 l -5.24192 2.399 l -4.02525 -0.28545 m 4.02525 0.28545 l -2.41505 3.2329 m 2.41505 -3.2329 m 5.24192 -2.399 l -0.813529 5.70711 l -2.41505 3.2329 m 2.41505 -3.2329 l 1.41554 3.77894 m -1.41554 -3.77894 m 0.813529 -5.70711 m 4.92868 -6.59776 m 10.6978 -4.89593 m 16.7649 1.18888 m 20.2037 12.9727 m 16.4443 30.1011 m -0 49 l -41.2321 -26.4748 l -16.4443 -30.1011 l 0 -24.01 l 8.05771 -14.7495 l 9.89982 -6.3566 l 8.2148 -0.582551 l 5.24192 2.399 l 2.41505 3.2329 m -2.41505 -3.2329 l 4.02525 -0.28545 m -4.02525 0.28545 m -5.24192 -2.399 l 4.85091 -3.11474 l 4.02525 -0.28545 m -4.02525 0.28545 l 1.93465 -3.54136 m -1.93465 3.54136 m -4.85091 3.11474 m -8.2148 0.582551 l 3.94828 -7.22727 l 4.85091 -3.11474 l 4.02525 -0.28545 m -4.02525 0.28545 l 1.93465 -3.54136 m -1.93465 3.54136 m -4.85091 3.11474 l 0 -5.7648 l 1.93465 -3.54136 m -1.93465 3.54136 l -1.93465 -3.54136 m 1.93465 3.54136 m -0 5.7648 m -3.94828 7.22727 m -9.89982 6.3566 l 0 -11.7649 l 3.94828 -7.22727 l 4.85091 -3.11474 l 4.02525 -0.28545 m -4.02525 0.28545 l 1.93465 -3.54136 m -1.93465 3.54136 m -4.85091 3.11474 l 0 -5.7648 l 1.93465 -3.54136 m -1.93465 3.54136 l -1.93465 -3.54136 m 1.93465 3.54136 m -0 5.7648 m -3.94828 7.22727 l -3.94828 -7.22727 l 0 -5.7648 l 1.93465 -3.54136 m -1.93465 3.54136 l -1.93465 -3.54136 m 1.93465 3.54136 m -0 5.7648 l -4.85091 -3.11474 l -1.93465 -3.54136 m 1.93465 3.54136 l -4.02525 -0.28545 m 4.02525 0.28545 m 4.85091 3.11474 m 3.94828 7.22727 m -0 11.7649 m -8.05771 14.7495 l -8.05771 -14.7495 l 0 -11.7649 l 3.94828 -7.22727 l 4.85091 -3.11474 l 4.02525 -0.28545 m -4.02525 0.28545 l 1.93465 -3.54136 m -1.93465 3.54136 m -4.85091 3.11474 l 0 -5.7648 l 1.93465 -3.54136 m -1.93465 3.54136 l -1.93465 -3.54136 m 1.93465 3.54136 m -0 5.7648 m -3.94828 7.22727 l -3.94828 -7.22727 l 0 -5.7648 l 1.93465 -3.54136 m -1.93465 3.54136 l -1.93465 -3.54136 m 1.93465 3.54136 m -0 5.7648 l -4.85091 -3.11474 l -1.93465 -3.54136 m 1.93465 3.54136 l -4.02525 -0.28545 m 4.02525 0.28545 m 4.85091 3.11474 m 3.94828 7.22727 m -0 11.7649 l -9.89982 -6.3566 l -3.94828 -7.22727 l 0 -5.7648 l 1.93465 -3.54136 m -1.93465 3.54136 l -1.93465 -3.54136 m 1.93465 3.54136 m -0 5.7648 l -4.85091 -3.11474 l -1.93465 -3.54136 m 1.93465 3.54136 l -4.02525 -0.28545 m 4.02525 0.28545 m 4.85091 3.11474 m 3.94828 7.22727 l -8.2148 -0.582551 l -4.85091 -3.11474 l -1.93465 -3.54136 m 1.93465 3.54136 l -4.02525 -0.28545 m 4.02525 0.28545 m 4.85091 3.11474 l -5.24192 2.399 l -4.02525 -0.28545 m 4.02525 0.28545 l -2.41505 3.2329 m 2.41505 -3.2329 m 5.24192 -2.399 m 8.2148 0.582551 m 9.89982 6.3566 m 8.05771 14.7495 m -0 24.01 l -20.2037 -12.9727 l -8.05771 -14.7495 l 0 -11.7649 l 3.94828 -7.22727 l 4.85091 -3.11474 l 4.02525 -0.28545 m -4.02525 0.28545 l 1.93465 -3.54136 m -1.93465 3.54136 m -4.85091 3.11474 l 0 -5.7648 l 1.93465 -3.54136 m -1.93465 3.54136 l -1.93465 -3.54136 m 1.93465 3.54136 m -0 5.7648 m -3.94828 7.22727 l -3.94828 -7.22727 l 0 -5.7648 l 1.93465 -3.54136 m -1.93465 3.54136 l -1.93465 -3.54136 m 1.93465 3.54136 m -0 5.7648 l -4.85091 -3.11474 l -1.93465 -3.54136 m 1.93465 3.54136 l -4.02525 -0.28545 m 4.02525 0.28545 m 4.85091 3.11474 m 3.94828 7.22727 m -0 11.7649 l -9.89982 -6.3566 l -3.94828 -7.22727 l 0 -5.7648 l 1.93465 -3.54136 m -1.93465 3.54136 l -1.93465 -3.54136 m 1.93465 3.54136 m -0 5.7648 l -4.85091 -3.11474 l -1.93465 -3.54136 m 1.93465 3.54136 l -4.02525 -0.28545 m 4.02525 0.28545 m 4.85091 3.11474 m 3.94828 7.22727 l -8.2148 -0.582551 l -4.85091 -3.11474 l -1.93465 -3.54136 m 1.93465 3.54136 l -4.02525 -0.28545 m 4.02525 0.28545 m 4.85091 3.11474 l -5.24192 2.399 l -4.02525 -0.28545 m 4.02525 0.28545 l -2.41505 3.2329 m 2.41505 -3.2329 m 5.24192 -2.399 m 8.2148 0.582551 m 9.89982 6.3566 m 8.05771 14.7495 l -16.7649 -1.18888 l -9.89982 -6.3566 l -3.94828 -7.22727 l 0 -5.7648 l 1.93465 -3.54136 m -1.93465 3.54136 l -1.93465 -3.54136 m 1.93465 3.54136 m -0 5.7648 l -4.85091 -3.11474 l -1.93465 -3.54136 m 1.93465 3.54136 l -4.02525 -0.28545 m 4.02525 0.28545 m 4.85091 3.11474 m 3.94828 7.22727 l -8.2148 -0.582551 l -4.85091 -3.11474 l -1.93465 -3.54136 m 1.93465 3.54136 l -4.02525 -0.28545 m 4.02525 0.28545 m 4.85091 3.11474 l -5.24192 2.399 l -4.02525 -0.28545 m 4.02525 0.28545 l -2.41505 3.2329 m 2.41505 -3.2329 m 5.24192 -2.399 m 8.2148 0.582551 m 9.89982 6.3566 l -10.6978 4.89593 l -8.2148 -0.582551 l -4.85091 -3.11474 l -1.93465 -3.54136 m 1.93465 3.54136 l -4.02525 -0.28545 m 4.02525 0.28545 m 4.85091 3.11474 l -5.24192 2.399 l -4.02525 -0.28545 m 4.02525 0.28545 l -2.41505 3.2329 m 2.41505 -3.2329 m 5.24192 -2.399 m 8.2148 0.582551 l -4.92868 6.59776 l -5.24192 2.399 l -4.02525 -0.28545 m 4.02525 0.28545 l -2.41505 3.2329 m 2.41505 -3.2329 m 5.24192 -2.399 l -0.813529 5.70711 l -2.41505 3.2329 m 2.41505 -3.2329 l 1.41554 3.77894 m -1.41554 -3.77894 m 0.813529 -5.70711 m 4.92868 -6.59776 m 10.6978 -4.89593 m 16.7649 1.18888 m 20.2037 12.9727 m 16.4443 30.1011 l -34.2141 -2.42629 l -20.2037 -12.9727 l -8.05771 -14.7495 l 0 -11.7649 l 3.94828 -7.22727 l 4.85091 -3.11474 l 4.02525 -0.28545 m -4.02525 0.28545 l 1.93465 -3.54136 m -1.93465 3.54136 m -4.85091 3.11474 l 0 -5.7648 l 1.93465 -3.54136 m -1.93465 3.54136 l -1.93465 -3.54136 m 1.93465 3.54136 m -0 5.7648 m -3.94828 7.22727 l -3.94828 -7.22727 l 0 -5.7648 l 1.93465 -3.54136 m -1.93465 3.54136 l -1.93465 -3.54136 m 1.93465 3.54136 m -0 5.7648 l -4.85091 -3.11474 l -1.93465 -3.54136 m 1.93465 3.54136 l -4.02525 -0.28545 m 4.02525 0.28545 m 4.85091 3.11474 m 3.94828 7.22727 m -0 11.7649 l -9.89982 -6.3566 l -3.94828 -7.22727 l 0 -5.7648 l 1.93465 -3.54136 m -1.93465 3.54136 l -1.93465 -3.54136 m 1.93465 3.54136 m -0 5.7648 l -4.85091 -3.11474 l -1.93465 -3.54136 m 1.93465 3.54136 l -4.02525 -0.28545 m 4.02525 0.28545 m 4.85091 3.11474 m 3.94828 7.22727 l -8.2148 -0.582551 l -4.85091 -3.11474 l -1.93465 -3.54136 m 1.93465 3.54136 l -4.02525 -0.28545 m 4.02525 0.28545 m 4.85091 3.11474 l -5.24192 2.399 l -4.02525 -0.28545 m 4.02525 0.28545 l -2.41505 3.2329 m 2.41505 -3.2329 m 5.24192 -2.399 m 8.2148 0.582551 m 9.89982 6.3566 m 8.05771 14.7495 l -16.7649 -1.18888 l -9.89982 -6.3566 l -3.94828 -7.22727 l 0 -5.7648 l 1.93465 -3.54136 m -1.93465 3.54136 l -1.93465 -3.54136 m 1.93465 3.54136 m -0 5.7648 l -4.85091 -3.11474 l -1.93465 -3.54136 m 1.93465 3.54136 l -4.02525 -0.28545 m 4.02525 0.28545 m 4.85091 3.11474 m 3.94828 7.22727 l -8.2148 -0.582551 l -4.85091 -3.11474 l -1.93465 -3.54136 m 1.93465 3.54136 l -4.02525 -0.28545 m 4.02525 0.28545 m 4.85091 3.11474 l -5.24192 2.399 l -4.02525 -0.28545 m 4.02525 0.28545 l -2.41505 3.2329 m 2.41505 -3.2329 m 5.24192 -2.399 m 8.2148 0.582551 m 9.89982 6.3566 l -10.6978 4.89593 l -8.2148 -0.582551 l -4.85091 -3.11474 l -1.93465 -3.54136 m 1.93465 3.54136 l -4.02525 -0.28545 m 4.02525 0.28545 m 4.85091 3.11474 l -5.24192 2.399 l -4.02525 -0.28545 m 4.02525 0.28545 l -2.41505 3.2329 m 2.41505 -3.2329 m 5.24192 -2.399 m 8.2148 0.582551 l -4.92868 6.59776 l -5.24192 2.399 l -4.02525 -0.28545 m 4.02525 0.28545 l -2.41505 3.2329 m 2.41505 -3.2329 m 5.24192 -2.399 l -0.813529 5.70711 l -2.41505 3.2329 m 2.41505 -3.2329 l 1.41554 3.77894 m -1.41554 -3.77894 m 0.813529 -5.70711 m 4.92868 -6.59776 m 10.6978 -4.89593 m 16.7649 1.18888 m 20.2037 12.9727 l -21.8322 9.99169 l -16.7649 -1.18888 l -9.89982 -6.3566 l -3.94828 -7.22727 l 0 -5.7648 l 1.93465 -3.54136 m -1.93465 3.54136 l -1.93465 -3.54136 m 1.93465 3.54136 m -0 5.7648 l -4.85091 -3.11474 l -1.93465 -3.54136 m 1.93465 3.54136 l -4.02525 -0.28545 m 4.02525 0.28545 m 4.85091 3.11474 m 3.94828 7.22727 l -8.2148 -0.582551 l -4.85091 -3.11474 l -1.93465 -3.54136 m 1.93465 3.54136 l -4.02525 -0.28545 m 4.02525 0.28545 m 4.85091 3.11474 l -5.24192 2.399 l -4.02525 -0.28545 m 4.02525 0.28545 l -2.41505 3.2329 m 2.41505 -3.2329 m 5.24192 -2.399 m 8.2148 0.582551 m 9.89982 6.3566 l -10.6978 4.89593 l -8.2148 -0.582551 l -4.85091 -3.11474 l -1.93465 -3.54136 m 1.93465 3.54136 l -4.02525 -0.28545 m 4.02525 0.28545 m 4.85091 3.11474 l -5.24192 2.399 l -4.02525 -0.28545 m 4.02525 0.28545 l -2.41505 3.2329 m 2.41505 -3.2329 m 5.24192 -2.399 m 8.2148 0.582551 l -4.92868 6.59776 l -5.24192 2.399 l -4.02525 -0.28545 m 4.02525 0.28545 l -2.41505 3.2329 m 2.41505 -3.2329 m 5.24192 -2.399 l -0.813529 5.70711 l -2.41505 3.2329 m 2.41505 -3.2329 l 1.41554 3.77894 m -1.41554 -3.77894 m 0.813529 -5.70711 m 4.92868 -6.59776 m 10.6978 -4.89593 m 16.7649 1.18888 l -10.0585 13.4648 l -10.6978 4.89593 l -8.2148 -0.582551 l -4.85091 -3.11474 l -1.93465 -3.54136 m 1.93465 3.54136 l -4.02525 -0.28545 m 4.02525 0.28545 m 4.85091 3.11474 l -5.24192 2.399 l -4.02525 -0.28545 m 4.02525 0.28545 l -2.41505 3.2329 m 2.41505 -3.2329 m 5.24192 -2.399 m 8.2148 0.582551 l -4.92868 6.59776 l -5.24192 2.399 l -4.02525 -0.28545 m 4.02525 0.28545 l -2.41505 3.2329 m 2.41505 -3.2329 m 5.24192 -2.399 l -0.813529 5.70711 l -2.41505 3.2329 m 2.41505 -3.2329 l 1.41554 3.77894 m -1.41554 -3.77894 m 0.813529 -5.70711 m 4.92868 -6.59776 m 10.6978 -4.89593 l -1.66026 11.6472 l -4.92868 6.59776 l -5.24192 2.399 l -4.02525 -0.28545 m 4.02525 0.28545 l -2.41505 3.2329 m 2.41505 -3.2329 m 5.24192 -2.399 l -0.813529 5.70711 l -2.41505 3.2329 m 2.41505 -3.2329 l 1.41554 3.77894 m -1.41554 -3.77894 m 0.813529 -5.70711 m 4.92868 -6.59776 l 2.88885 7.71212 l -0.813529 5.70711 l -2.41505 3.2329 m 2.41505 -3.2329 l 1.41554 3.77894 m -1.41554 -3.77894 m 0.813529 -5.70711 l 4.36282 3.76813 l 1.41554 3.77894 m -1.41554 -3.77894 l 3.94469 0.850637 m -3.94469 -0.850637 m -4.36282 -3.76813 m -2.88885 -7.71212 m 1.66026 -11.6472 m 10.0585 -13.4648 m 21.8322 -9.99169 m 34.2141 2.42629 m 41.2321 26.4748 m 33.5598 61.4308 m -0 100 " fill="none" stroke="black" />
</svg>
